<svg xmlns="http://www.w3.org/2000/svg" xmlns:xlink="http://www.w3.org/1999/xlink" width="2048" height="2048" viewBox="0 0 2048 2048">
  <defs>
    <style>
      .cls-1 {
        fill-rule: evenodd;
        fill: url(#linear-gradient);
      }
    </style>
    <linearGradient id="linear-gradient" x1="1024.503" y1="1959.78" x2="1024.503" y2="87.75" gradientUnits="userSpaceOnUse">
      <stop offset="0" stop-color="#e75958"/>
      <stop offset="0.099" stop-color="#e75958"/>
      <stop offset="0.901" stop-color="#eac598"/>
      <stop offset="1" stop-color="#eac598"/>
    </linearGradient>
  </defs>
  <path id="Фигура_1" data-name="Фигура 1" class="cls-1" d="M550.019,114.658c-17.333,15.587-40.082,36.154-50.915,45.9-45.932,42-58.5,53.256-60.231,53.256-0.867,0-18.2-16.237-38.565-36.37-20.149-19.917-37.482-36.37-38.349-36.8-0.866-.217-11.7,43.081-24.049,96.337-12.349,53.473-22.965,98.07-23.4,99.152-0.433,1.516-18.416-.649-49.614-6.062-27.083-4.546-49.615-7.793-50.048-7.144-0.651.433,16.249,43.731,37.481,95.9,36.182,89.41,41.815,104.564,39.216,104.564-0.434,0-20.366,5.845-43.982,13.206-23.833,7.144-46.365,14.072-50.048,15.154-3.9,1.3-7.15,3.031-7.15,4.113,0,0.866,19.283,18.618,42.9,39.185,23.4,20.566,43.115,38.1,43.765,38.751s8.45,7.361,17.333,15.155S311.7,663.89,313,665.189c1.3,1.083,9.316,8.227,17.549,15.588,11.7,10.391,17.333,17.535,24.049,30.308,8.233,15.8,24.916,44.164,33.582,57.37l3.9,5.628L370.842,786.64c-52.431,30.525-88.829,58.452-127.178,97.2-14.083,14.5-37.482,42-44.632,52.824l-3.466,4.979L176.283,935.8c-10.833-3.248-34.448-10.608-52.864-16.454s-33.8-10.175-34.232-9.742,8.883,39.4,21.016,86.812c11.916,47.413,21.665,87.683,21.665,89.623,0,3.47,0,3.47-70.413,23.17-15.383,4.54-28.6,8.44-29.249,8.87-0.65.65,2.383,3.9,6.5,7.58s13.433,12.12,20.583,18.84,33.365,31.17,58.5,54.12c25.132,23.16,52.431,49.36,60.664,58.23,8.45,9.1,25.349,26.85,37.915,39.4,48.532,48.93,117,84,200.409,102.62,14.3,3.25,26,6.06,26.216,6.28,0,0.22,6.5,10.61,14.3,23.16s28.166,45.03,45.065,72.53c42.682,68.62,47.665,76.85,46.8,76.85-0.433,0-10.4,2.81-22.1,6.28-11.916,3.46-34.665,9.96-50.7,14.29-16.033,4.54-29.682,8.66-30.332,9.09-0.65.65,2.383,3.9,6.5,7.58s13.433,12.12,20.583,18.83c27.516,25.98,102.046,94.82,107.9,99.8,3.25,2.82,5.85,6.06,5.85,7.36,0,2.17-13.217,11.04-65,43.52-9.316,5.84-16.9,11.69-16.683,12.77,0.65,1.95,67.381,34.21,155.344,75.55,25.783,12.13,46.582,23.39,53.732,29.01,16.466,13.43,33.582,24.03,55.681,34.43,39,18.4,63.481,23.59,108.329,23.59,47.448-.21,78.213-8.22,124.144-32.47l22.1-11.69,22.32,11.69c45.71,24.25,76.48,32.26,123.92,32.47,44.85,0,69.33-5.19,108.33-23.59,22.1-10.4,39.22-21,55.68-34.43,7.15-5.62,27.95-16.88,53.74-29.01,87.96-41.34,154.69-73.6,155.34-75.55,0.22-1.08-7.37-6.93-16.68-12.77-51.78-32.48-65-41.35-65-43.52,0-1.3,2.6-4.54,5.85-7.36,5.85-4.98,80.38-73.82,107.9-99.8,7.14-6.71,16.46-15.15,20.58-18.83s7.15-6.93,6.5-7.58c-0.65-.43-14.3-4.55-30.33-9.09-16.04-4.33-38.79-10.83-50.7-14.29-11.7-3.47-21.67-6.28-22.1-6.28-0.87,0,4.11-8.23,46.8-76.85,16.9-27.5,37.26-59.97,45.06-72.53s14.3-22.94,14.3-23.16c0.22-.22,11.92-3.03,26.22-6.28,83.41-18.62,151.87-53.69,200.4-102.62,12.57-12.55,29.69-30.3,37.92-39.4,8.45-8.87,35.75-35.07,60.66-58.23,25.14-22.95,51.35-47.41,58.5-54.12s16.47-15.16,20.58-18.84,7.15-6.93,6.5-7.58c-0.65-.43-13.65-4.33-29.24-8.87-70.42-19.7-70.42-19.7-70.42-23.17,0-1.94,9.75-42.21,21.67-89.623,12.13-47.411,21.45-86.379,21.01-86.812s-15.81,3.9-34.23,9.742-42.03,13.206-52.86,16.454l-19.29,5.845-3.46-4.979c-7.15-10.825-30.55-38.319-44.63-52.824-38.35-38.751-74.75-66.678-127.18-97.2l-21.23-12.557,3.9-5.628c8.66-13.206,25.34-41.566,33.58-57.37,6.71-12.773,12.35-19.917,24.05-30.308,8.23-7.361,16.25-14.5,17.55-15.588,1.3-1.3,9.75-8.443,18.63-16.236s16.68-14.5,17.33-15.155,20.37-18.185,43.98-38.751c23.4-20.567,42.68-38.319,42.68-39.185,0-1.082-3.25-2.814-6.93-4.113-3.9-1.082-26.43-8.01-50.26-15.154-23.62-7.361-43.55-13.206-43.99-13.206-2.6,0,3.04-15.154,39.22-104.564,21.23-52.174,38.13-95.472,37.48-95.9-0.43-.649-22.96,2.6-50.05,7.144-31.2,5.413-49.18,7.578-49.61,6.062-0.43-1.082-11.05-45.679-23.4-99.152-12.35-53.256-23.18-96.554-24.05-96.337-0.87.433-18.2,16.886-38.35,36.8-20.36,20.133-37.7,36.37-38.56,36.37-1.74,0-14.3-11.258-60.23-53.256-55.25-50.442-82.55-74.04-83.63-72.741-0.87.866-3.47,13.206-6.07,27.494-2.38,14.289-6.93,37.67-9.53,51.958l-5.2,25.762-30.12,4.979c-53.08,8.66-99.23,24.03-152.96,50.875Q1138.25,310.9,1038.58,429.216c-6.93,8.227-13.43,15.155-14.08,15.155s-7.15-6.928-14.08-15.155q-99.45-118.2-223.811-180.335c-53.731-26.845-99.879-42.215-152.96-50.875l-30.116-4.979-5.2-25.762c-2.6-14.288-7.149-37.669-9.532-51.958-2.6-14.288-5.2-26.628-6.067-27.494C582.084,86.947,567.351,99.071,550.019,114.658Zm58.5,144.615c105.08,13.2,222.292,71.657,317.405,158.9l13,11.907L895.155,474.03l-43.982,43.947,45.065,45.03,44.849,45.246L836.441,711.3c-57.415,56.72-104.43,104.131-104.43,105.43,0,1.082,12.567,14.721,28.166,30.308l28.166,28.144L739.6,923.894,690.846,972.6l-8.666-10.175c-34.882-40.7-101.4-64.3-173.326-61.7-140.178,5.413-263.24,101.321-263.023,205.011,0,67.12,48.1,117.99,131.511,138.77,26,6.5,77.347,8.01,108.546,3.03,24.266-3.68,57.848-12.77,75.4-20.35l9.75-4.11,84.063,84c57.2,57.15,83.413,84.86,82.33,86.59-1.083,1.52-6.933,9.96-13,18.62-21.232,29.45-39.865,74.04-49.181,116.69-5.416,25.33-7.583,82.7-4.116,106.95,12.132,82.69,55.247,140.5,113.962,152.84,19.282,4.11,25.782,4.11,45.931-.22,27.949-5.63,51.565-18.62,77.347-42.21,24.266-22.09,50.915-63.22,66.3-102.19l4.983-12.77,22.318,22.3,22.53,22.51,22.53-22.51,22.32-22.3,4.98,12.77c15.38,38.97,42.03,80.1,66.3,102.19,25.78,23.59,49.4,36.58,77.35,42.21,20.14,4.33,26.64,4.33,45.93.22,58.71-12.34,101.83-70.15,113.96-152.84,3.47-24.25,1.3-81.62-4.12-106.95-9.31-42.65-27.95-87.24-49.18-116.69-6.06-8.66-11.91-17.1-13-18.62-1.08-1.73,25.13-29.44,82.33-86.59l84.07-84,9.75,4.11c17.54,7.58,51.13,16.67,75.39,20.35,31.2,4.98,82.55,3.47,108.55-3.03,42.9-10.82,74.53-27.92,97.71-53.25,23.4-25.55,33.8-51.74,33.8-85.52,0.22-76.2-68.25-152.62-167.48-187.042-102.48-35.721-216.66-17.1-268.87,43.731l-8.67,10.175-48.74-48.71-48.75-48.71,28.16-28.144c15.6-15.587,28.17-29.226,28.17-30.308,0.22-1.3-46.8-48.71-104.43-105.43L1107.91,608.036l44.85-45.029,45.07-45.03-43.99-43.947-43.76-43.948,13-11.907c53.3-48.926,124.58-95.688,185.24-121.666,134.76-57.8,254.36-51.308,322.82,16.886,37.27,37.452,55.03,85.946,55.03,150.46,0,61.483-14.95,117.986-49.61,188.345-26.43,53.689-65.21,110.409-104.65,153.274l-12.13,13.206,7.37,1.515c4.11,0.866,17.33,2.815,29.25,4.114,47.44,5.629,106.16,24.9,148.84,48.926C1788.22,920,1844.77,993.17,1856.68,1069.16c3.9,24.68,1.52,64.08-5.41,87.03-24.48,82.7-96.85,144.18-199.54,169.94-36.4,9.09-68.04,12.12-111.37,10.61-41.16-1.3-72.14-6.5-109.84-17.75-13.87-4.33-25.57-7.36-26.22-6.93-0.43.43,1.3,5.63,3.68,11.47,18.85,43.95,32.5,118.64,32.5,178.39,0,179.68-91.64,334.04-219.04,368.46-26,6.93-71.06,6.93-96.84,0a225.385,225.385,0,0,1-86.45-45.24l-13.65-11.69-13.43,11.69a227.862,227.862,0,0,1-86.666,45.24c-25.782,6.93-70.847,6.93-96.846,0-76.7-20.78-141.261-83.78-181.126-176.87-43.332-101.53-49.832-227.1-17.116-335.56,3.9-13.2,9.1-28.57,11.7-34.42,2.383-5.84,4.117-11.04,3.683-11.47-0.65-.43-12.349,2.6-26.215,6.93-37.7,11.25-68.681,16.45-109.846,17.75-43.332,1.51-74.964-1.52-111.362-10.61-102.7-25.76-175.06-87.24-199.542-169.94-6.934-22.95-9.317-62.35-5.417-87.03C204.232,993.17,260.78,920,343.76,873.235c42.682-24.03,101.4-43.3,148.844-48.926,11.917-1.3,25.133-3.248,29.249-4.114l7.366-1.515-12.132-13.206C449.923,732.517,394.675,633.8,373.659,549.584c-8.666-34.855-10.833-51.957-10.833-85.729,0-64.514,17.766-113.008,55.031-150.46,26.433-26.195,65.214-45.679,104-51.957,8.883-1.3,17.766-2.815,19.5-3.248C549.585,256.675,592.05,257.324,608.516,259.273ZM1133.48,709.137l107.68,107.6L1132.83,924.976,1024.5,1033.22,916.171,924.976,807.842,816.732l107.679-107.6c59.364-59.318,108.329-107.812,108.979-107.812S1074.11,649.819,1133.48,709.137ZM936.1,1021.1l87.966,87.46,99.23-97.85,99.23-97.857,56.54,56.5,56.77,56.724v18.61c0,31.18,11.26,63.44,31.85,92.23,9.31,12.99,38.78,42.65,53.29,53.69l7.59,5.84-79.3,79.24-79.08,79.23-16.25-8.66c-18.2-9.74-44.85-17.53-60.45-17.53-57.84,0-106.59,42.43-128.69,112.14-9.75,30.74-12.78,55.64-11.48,95.04l0.86,34.85-14.73,14.72-14.95,14.73-14.95-14.73-14.732-14.72,0.866-34.85c1.3-39.4-1.733-64.3-11.482-95.04-22.1-69.71-70.848-112.14-128.7-112.14-15.6,0-42.249,7.79-60.448,17.53l-16.249,8.66-79.081-79.23-79.3-79.24,7.583-5.84c14.516-11.04,43.981-40.7,53.3-53.69,20.583-28.58,31.633-60.62,32.066-92.23l0.217-19.05,56.331-56.284,56.331-56.287,10.833,10.175C842.941,928.873,887.572,973.037,936.1,1021.1ZM521.853,318.807c-29.249,5.845-52.431,18.618-70.847,38.535-39.215,43.081-43.982,112.574-12.35,180.768,18.416,40.051,55.682,84.864,94.03,113.008,24.266,17.752,64.781,37.452,92.08,44.6,17.766,4.763,26.865,5.845,49.831,5.845,46.148,0.433,73.231-9.525,100.963-37.236,26.215-26.195,37.265-54.122,37.265-94.389,0.217-43.081-14.083-85.513-42.9-128.811-14.516-21.432-47.448-55.637-70.414-72.524C644.048,327.034,575.584,307.983,521.853,318.807Zm938.127,0c-54.38,10.175-106.38,39.834-149.49,84.864-48.75,50.875-74.53,108.461-74.31,166.263,0,40.267,11.04,68.194,37.26,94.389,27.73,27.711,54.81,37.669,100.96,37.236,36.4-.216,60.88-6.278,97.5-24.246,73.23-35.937,129.99-101.317,151.88-174.707,7.58-25.979,9.53-62.565,4.33-86.162-10.62-47.412-44.63-82.916-91.21-95.472C1518.7,315.993,1480.13,314.91,1459.98,318.807Z"/>
</svg>
