<?xml version="1.0" standalone="no"?>
<!DOCTYPE svg PUBLIC "-//W3C//DTD SVG 20010904//EN"
 "http://www.w3.org/TR/2001/REC-SVG-20010904/DTD/svg10.dtd">
<svg version="1.0" xmlns="http://www.w3.org/2000/svg"
 width="512.000000pt" height="512.000000pt" viewBox="0 0 512.000000 512.000000"
 preserveAspectRatio="xMidYMid meet">

<g transform="translate(0.000000,512.000000) scale(0.100000,-0.100000)"
fill="#333333" stroke="none">
<path d="M2377 4692 c-14 -16 -17 -43 -17 -174 0 -137 2 -157 18 -171 16 -14
44 -17 184 -17 147 0 167 2 181 18 14 16 17 43 17 174 0 137 -2 157 -18 171
-16 14 -44 17 -184 17 -147 0 -167 -2 -181 -18z"/>
<path d="M2377 4182 c-14 -15 -17 -48 -19 -197 l-3 -179 -240 -96 c-132 -53
-427 -172 -655 -264 -228 -91 -443 -178 -477 -192 l-63 -26 -2 -836 -3 -836
-207 -119 c-142 -83 -208 -126 -212 -141 -4 -14 18 -61 71 -151 88 -151 99
-165 127 -165 12 0 110 52 219 115 110 63 203 115 208 115 5 0 331 -180 724
-400 l715 -400 715 400 c393 220 719 400 724 400 5 0 98 -52 208 -115 109 -63
207 -115 219 -115 28 0 39 14 129 168 l78 133 -19 25 c-10 14 -107 76 -214
138 l-195 112 -3 836 -2 836 -63 26 c-34 14 -249 101 -477 192 -228 92 -523
211 -655 264 l-240 96 -3 179 c-2 149 -5 182 -19 197 -14 16 -35 18 -183 18
-148 0 -169 -2 -183 -18z m665 -918 c257 -104 464 -192 460 -196 -4 -4 -216
-109 -472 -233 l-465 -226 -220 106 c-121 58 -336 163 -478 233 l-259 127 474
192 c260 105 478 190 483 188 6 -1 220 -87 477 -191z m-1485 -617 c34 -12 228
-103 432 -202 l371 -180 0 -520 c0 -487 -2 -523 -19 -561 -25 -54 -55 -74
-112 -74 -87 0 -170 38 -539 244 l-365 204 -3 494 c-2 437 -1 498 14 536 31
81 104 101 221 59z m2179 4 c64 -39 65 -49 62 -599 l-3 -494 -375 -209 c-206
-115 -399 -217 -429 -225 -30 -9 -76 -17 -103 -17 -40 -1 -53 4 -78 28 -17 16
-35 45 -41 65 -6 22 -9 219 -7 548 l3 513 380 186 c209 102 403 194 430 204
65 24 122 24 161 0z"/>
<path d="M209 1147 c-143 -82 -159 -93 -159 -115 0 -16 141 -263 168 -294 8
-10 22 -18 31 -18 9 0 77 35 151 78 117 67 135 81 138 105 3 20 -18 64 -74
160 -74 128 -96 157 -118 157 -6 0 -68 -33 -137 -73z"/>
<path d="M4748 1208 c-9 -7 -50 -72 -93 -145 -55 -96 -76 -140 -73 -160 3 -24
21 -38 138 -105 74 -43 142 -78 151 -78 23 0 37 19 124 169 66 113 76 137 67
156 -9 20 -263 175 -288 175 -6 0 -17 -6 -26 -12z"/>
</g>
</svg>
