<?xml version="1.0" encoding="UTF-8" standalone="no"?>
<!DOCTYPE svg PUBLIC "-//W3C//DTD SVG 20010904//EN" "http://www.w3.org/TR/2001/REC-SVG-20010904/DTD/svg10.dtd">
<svg version="1.0" xmlns="http://www.w3.org/2000/svg" width="512.000000pt" height="512.000000pt" viewBox="0 0 512.000000 512.000000" preserveAspectRatio="xMidYMid meet">

<g transform="translate(0.000000,512.000000) scale(0.100000,-0.100000)" fill="#333333" stroke="none">
<path d="M4033 4674 c-17 -9 -38 -23 -46 -32 -31 -36 -1151 -1886 -1163 -1921 -16 -47 -5 -103 28 -138 12 -14 81 -60 153 -104 112 -69 135 -79 176 -79 31 0 56 7 79 22 25 17 153 219 517 818 754 1237 683 1116 683 1170 0 73 -26 101 -184 196 -149 90 -180 99 -243 68z m196 -273 c10 -6 11 -13 2 -30 -14 -26 -1061 -1744 -1066 -1750 -8 -7 -126 72 -123 83 2 7 243 407 537 889 l534 877 51 -30 c28 -17 57 -34 65 -39z"/>
<path d="M255 3906 c-95 -30 -168 -96 -201 -182 -18 -47 -19 -95 -19 -1394 0 -1302 1 -1347 19 -1395 25 -65 94 -137 159 -166 l52 -24 2295 0 2295 0 52 24 c65 29 134 101 159 166 18 48 19 93 19 1395 0 1302 -1 1347 -19 1395 -25 65 -94 137 -159 166 -50 23 -64 24 -308 27 l-256 3 -91 -148 -91 -148 315 -3 314 -2 0 -1290 0 -1290 -2230 0 -2230 0 0 1290 0 1290 1442 2 1442 3 87 140 c48 77 88 143 88 148 1 4 -695 7 -1546 6 -1219 0 -1557 -3 -1588 -13z"/>
<path d="M757 3519 c-84 -20 -146 -72 -184 -156 l-24 -52 3 -368 c3 -355 4 -369 25 -408 28 -53 78 -99 133 -124 42 -19 65 -21 386 -21 l340 0 52 26 c65 32 118 93 137 158 22 75 22 690 -1 765 -19 64 -77 131 -142 163 -46 22 -55 23 -367 25 -176 1 -337 -3 -358 -8z m583 -559 l0 -270 -245 0 -245 0 0 270 0 270 245 0 245 0 0 -270z"/>
<path d="M2070 3095 l0 -275 150 0 150 0 0 125 0 125 140 0 140 0 0 150 0 150 -290 0 -290 0 0 -275z"/>
<path d="M4060 3220 l0 -150 140 0 140 0 0 -125 0 -125 150 0 150 0 0 275 0 275 -290 0 -290 0 0 -150z"/>
<path d="M2717 2519 c-29 -17 -41 -52 -122 -360 -55 -210 -76 -304 -71 -324 4 -15 20 -40 36 -56 36 -37 73 -37 159 -2 53 22 82 27 151 27 l86 1 136 -69 c124 -63 142 -69 211 -74 141 -9 203 20 400 186 175 146 322 209 542 231 59 6 117 11 128 11 10 0 32 13 48 29 40 40 40 89 0 133 l-29 33 -94 -3 c-211 -5 -435 -72 -588 -175 -25 -17 -85 -64 -135 -106 -143 -121 -178 -141 -240 -141 -44 0 -67 7 -127 40 -112 62 -152 79 -222 97 l-64 15 61 56 c149 135 167 156 167 196 0 50 -16 64 -196 174 -154 94 -192 107 -237 81z m168 -215 c41 -25 75 -47 75 -49 0 -7 -232 -216 -236 -212 -2 2 14 69 36 151 22 81 40 149 40 152 0 8 10 3 85 -42z"/>
<path d="M921 2235 c-93 -30 -198 -101 -257 -173 -189 -232 -174 -553 36 -762 110 -110 238 -163 395 -164 155 0 283 53 396 164 251 246 216 657 -73 860 -142 100 -332 129 -497 75z m261 -287 c50 -15 122 -78 151 -132 16 -31 22 -58 22 -116 0 -66 -4 -82 -31 -130 -70 -124 -228 -171 -353 -106 -35 19 -95 83 -115 124 -26 52 -31 121 -12 186 41 140 192 218 338 174z"/>
<path d="M2077 1753 c-4 -54 -7 -180 -7 -280 l0 -183 290 0 290 0 0 150 0 150 -141 0 -141 0 7 130 8 130 -150 0 -150 0 -6 -97z"/>
<path d="M4340 1803 c0 -27 -3 -85 -7 -130 l-6 -83 -133 0 -134 0 0 -150 0 -150 285 0 285 0 0 158 c0 88 3 214 7 280 l6 122 -151 0 -152 0 0 -47z"/>
</g>
<style xmlns="" type="text/css" id="igtranslator-color"/></svg>