<svg id="Слой_1" data-name="Слой 1" xmlns="http://www.w3.org/2000/svg" viewBox="0 0 512 512">
  <defs>
    <style>
      .cls-1 {
        fill: #333333;
      }
    </style>
  </defs>
  <g>
    <path class="cls-1" d="M404.13,53a20.26,20.26,0,0,0-4.6,3.2c-3.1,3.6-115.1,188.6-116.3,192.1a14.06,14.06,0,0,0,2.8,13.8c1.2,1.4,8.1,6,15.3,10.4,11.2,6.9,13.5,7.9,17.6,7.9a13.8,13.8,0,0,0,7.9-2.2c2.5-1.7,15.3-21.9,51.7-81.8,75.4-123.7,68.3-111.6,68.3-117,0-7.3-2.6-10.1-18.4-19.6C413.53,50.79,410.43,49.89,404.13,53Z"/>
    <path class="cls-1" d="M26.33,129.79c-9.5,3-16.8,9.6-20.1,18.2-1.8,4.7-1.9,9.5-1.9,139.4,0,130.2.1,134.7,1.9,139.5,2.5,6.5,9.4,13.7,15.9,16.6l5.2,2.4h459l5.2-2.4c6.5-2.9,13.4-10.1,15.9-16.6,1.8-4.8,1.9-9.3,1.9-139.5s-.1-134.7-1.9-139.5c-2.5-6.5-9.4-13.7-15.9-16.6-5-2.3-6.4-2.4-30.8-2.7l-25.6-.3-9.1,14.8-9.1,14.8,31.5.3,31.4.2v258h-446v-258l144.2-.2,144.2-.3,8.7-14c4.8-7.7,8.8-14.3,8.8-14.8s-69.5-.7-154.6-.6C63.23,128.49,29.43,128.79,26.33,129.79Z"/>
    <path class="cls-1" d="M207.83,210.89v27.5h30v-25h28v-30h-58Z"/>
    <path class="cls-1" d="M406.83,198.39v15h28v25h30v-55h-58Z"/>
    <path class="cls-1" d="M272.53,268.49c-2.9,1.7-4.1,5.2-12.2,36-5.5,21-7.6,30.4-7.1,32.4a15.54,15.54,0,0,0,3.6,5.6c3.6,3.7,7.3,3.7,15.9.2,5.3-2.2,8.2-2.7,15.1-2.7l8.6-.1,13.6,6.9c12.4,6.3,14.2,6.9,21.1,7.4,14.1.9,20.3-2,40-18.6,17.5-14.6,32.2-20.9,54.2-23.1,5.9-.6,11.7-1.1,12.8-1.1s3.2-1.3,4.8-2.9c4-4,4-8.9,0-13.3l-2.9-3.3-9.4.3c-21.1.5-43.5,7.2-58.8,17.5-2.5,1.7-8.5,6.4-13.5,10.6-14.3,12.1-17.8,14.1-24,14.1-4.4,0-6.7-.7-12.7-4-11.2-6.2-15.2-7.9-22.2-9.7l-6.4-1.5,6.1-5.6c14.9-13.5,16.7-15.6,16.7-19.6,0-5-1.6-6.4-19.6-17.4C280.83,267.19,277,265.89,272.53,268.49Z"/>
    <path class="cls-1" d="M208.53,345.09c-.4,5.4-.7,18-.7,28v18.3h58v-30h-28.2l.7-13,.8-13h-30Z"/>
    <path class="cls-1" d="M434.83,340.09c0,2.7-.3,8.5-.7,13l-.6,8.3h-26.7v30h57v-15.8c0-8.8.3-21.4.7-28l.6-12.2h-30.3Z"/>
    <rect class="cls-1" x="62.96" y="178.31" width="98.61" height="217.57" rx="23"/>
  </g>
</svg>
