<svg id="Группа_4" data-name="Группа 4" xmlns="http://www.w3.org/2000/svg" xmlns:xlink="http://www.w3.org/1999/xlink" width="512" height="512" viewBox="0 0 512 512">
  <defs>
    <style>
      .cls-1 {
        fill: url(#linear-gradient);
      }

      .cls-2 {
        fill: #17aeed;
        fill-rule: evenodd;
      }
    </style>
    <linearGradient id="linear-gradient" x1="256" y1="512" x2="256" gradientUnits="userSpaceOnUse">
      <stop offset="0" stop-color="#101a1e"/>
      <stop offset="0.124" stop-color="#101a1e"/>
      <stop offset="1" stop-color="#273f49"/>
    </linearGradient>
  </defs>
  <g id="artstation">
    <rect id="Прямоугольник_2_копия" data-name="Прямоугольник 2 копия" class="cls-1" width="512" height="512"/>
    <path id="Фигура_1" data-name="Фигура 1" class="cls-2" d="M332.456,390.814H147.2c-0.888,0-2.155.015-2.609,0-9.189-.3-16.729-6.666-20.271-10.462a35.8,35.8,0,0,1-5.655-8.079l-26.259-46.69H295.057Z"/>
    <path id="Фигура_2" data-name="Фигура 2" class="cls-2" d="M386.38,389.944L221.129,103.8l46.181,0.269c2.735,0.034,5.415.035,8.078,0,0.832-.011,1.748-0.022,2.424,0a34.438,34.438,0,0,1,15.506,4.08,36.521,36.521,0,0,1,10.345,8.846q1.3,1.56,2.424,3.231c36.66,63.71,103.966,180.964,109.865,191.443a29.957,29.957,0,0,1,3.479,10.437,29,29,0,0,1-1.74,13.046C413.915,346.022,400,369.62,386.38,389.944Z"/>
    <path id="Треугольник_2" data-name="Треугольник 2" class="cls-2" d="M193.727,152.526l72.612,125.223H121.115Z"/>
  </g>
</svg>
