<svg id="Группа_4" data-name="Группа 4" xmlns="http://www.w3.org/2000/svg" width="512" height="512" viewBox="0 0 512 512">
  <defs>
    <style>
      .cls-1 {
        fill: #3f72f2;
      }

      .cls-2 {
        fill: #eee;
        fill-rule: evenodd;
      }
    </style>
  </defs>
  <g id="behance">
    <rect id="Прямоугольник_2" data-name="Прямоугольник 2" class="cls-1" width="512" height="512"/>
    <path id="Bē_копия_2" data-name="Bē копия 2" class="cls-2" d="M71.5,377.227H176.876q43.245,0,62.465-20.025t19.22-47.5A64.154,64.154,0,0,0,246.8,272.522q-11.766-17.061-35.292-22.81,40.76-13.627,40.76-54.337,0-20.086-9.279-34.075a63.66,63.66,0,0,0-23.528-21.52q-14.251-7.529-42.582-7.532H71.5V377.227ZM160.638,175.5q16.567,0,22.2,1.7t10.355,8.435a27.25,27.25,0,0,1,4.723,16.063q0,8.614-5.717,18.037t-27.753,9.422h-40.1V175.5h36.286Zm6.7,97.274q19.176,0,27.445,8.614a28.541,28.541,0,0,1,8.269,20.46q0,14.18-8.6,22.075t-29.43,7.9H124.352V272.775h42.989Zm250.034-55.906q-23.113-24.675-55.423-24.677-35.79,0-58.572,26.562T280.6,288.568q0,29.075,11.35,49.893t28.83,31.677c11.652,7.238,25.82,10.625,42.5,10.858,40.3,0.564,64.975-24.786,76.018-66.526,0.034-.141-44.7.121-44.7,0.121q-4.969,28.536-29.658,28.536a30.552,30.552,0,0,1-22.782-9.87q-9.531-9.868-9.528-29.254,0-3.588.166-8.436h107.7Q440.489,241.549,417.375,216.869Zm-53.6,10.32q26.012,0,28.333,37.33H332.624q3.313-37.328,31.15-37.33h0Zm-49.707-81.2v25.664H415.8V145.992H314.067Z"/>
  </g>
</svg>
