<?xml version="1.0" standalone="no"?>
<!DOCTYPE svg PUBLIC "-//W3C//DTD SVG 20010904//EN"
 "http://www.w3.org/TR/2001/REC-SVG-20010904/DTD/svg10.dtd">
<svg version="1.0" xmlns="http://www.w3.org/2000/svg"
 width="512.000000pt" height="512.000000pt" viewBox="0 0 512.000000 512.000000"
 preserveAspectRatio="xMidYMid meet">

<g transform="translate(0.000000,512.000000) scale(0.100000,-0.100000)"
fill="#333333" stroke="none">
<path d="M819 4670 c-136 -23 -238 -114 -278 -248 -14 -47 -21 -57 -45 -63
-38 -11 -93 -65 -105 -103 -5 -17 -15 -56 -21 -87 -12 -60 -33 -84 -213 -244
l-57 -50 0 -255 c0 -140 7 -691 15 -1225 8 -533 16 -1091 18 -1240 l2 -270 32
-65 c42 -85 87 -138 137 -161 39 -18 88 -19 973 -19 l932 0 35 -54 c41 -64 68
-91 121 -119 36 -20 55 -22 195 -22 140 0 159 2 195 22 53 28 78 53 120 118
l35 55 932 0 c886 0 935 1 974 19 50 23 95 76 137 161 l32 65 2 280 c2 154 10
717 18 1250 18 1134 19 1439 5 1465 -5 10 -40 42 -77 71 -38 29 -91 76 -119
104 -47 47 -54 59 -69 127 -9 41 -25 89 -36 107 -20 33 -73 71 -100 71 -11 0
-20 17 -28 55 -23 104 -106 193 -218 235 -53 20 -71 22 -203 17 -378 -14 -780
-144 -1373 -445 l-229 -116 -86 48 c-258 142 -639 312 -877 391 -270 90 -634
149 -776 125z m216 -205 c108 -9 348 -60 470 -100 239 -80 703 -287 903 -405
l52 -30 0 -1485 c0 -817 -2 -1485 -5 -1485 -2 0 -60 29 -127 65 -265 139 -548
252 -778 310 -188 48 -492 85 -692 85 -70 0 -82 3 -103 25 l-25 24 0 1453 c0
1421 1 1454 20 1485 31 51 89 74 170 67 25 -2 77 -6 115 -9z m3281 -11 c18 -9
43 -31 54 -49 20 -32 20 -46 20 -1482 l0 -1450 -21 -27 c-19 -24 -26 -26 -97
-26 -106 0 -326 -17 -452 -36 -315 -45 -680 -174 -1047 -370 -56 -30 -105 -54
-108 -54 -3 0 -5 668 -5 1485 l0 1484 73 41 c235 132 621 305 864 386 110 37
345 92 458 107 84 11 228 6 261 -9z m-3919 -3359 c18 -31 65 -72 98 -86 22 -9
93 -12 258 -10 357 3 625 -25 915 -98 127 -33 321 -93 350 -110 27 -16 -1539
-15 -1592 1 -54 16 -128 90 -144 144 -9 32 -12 373 -12 1469 l0 1428 39 42
c22 24 46 63 53 87 11 36 14 -185 18 -1402 4 -1073 8 -1450 17 -1465z m4416
2774 l37 -35 0 -1428 c0 -1097 -3 -1438 -12 -1470 -16 -54 -93 -131 -144 -145
-48 -13 -1617 -15 -1594 -2 29 17 229 80 351 111 289 73 568 103 912 98 161
-2 232 0 258 10 41 14 93 65 108 105 8 19 11 477 12 1460 1 1376 1 1430 18
1382 10 -28 33 -65 54 -86z"/>
<path d="M1033 4114 c8 -16 139 -297 292 -624 152 -327 278 -596 280 -598 1
-2 127 174 278 390 152 216 283 403 292 415 15 21 14 23 -57 73 -238 166 -274
184 -525 265 -197 65 -309 88 -481 101 l-94 7 15 -29z"/>
<path d="M952 3040 c0 -531 3 -988 6 -1016 l7 -51 270 384 c149 212 274 394
278 406 8 22 -4 48 -533 1182 l-29 60 1 -965z"/>
<path d="M1955 3177 c-154 -220 -281 -405 -283 -412 -2 -8 124 -287 280 -621
l283 -609 3 513 c1 281 1 740 0 1020 l-3 508 -280 -399z"/>
<path d="M1557 2608 c-57 -78 -550 -784 -554 -795 -3 -7 3 -14 13 -15 40 -3
51 -5 119 -16 39 -6 122 -18 185 -27 188 -26 565 -149 729 -236 40 -22 75 -38
76 -37 2 4 -530 1146 -538 1154 -3 3 -16 -10 -30 -28z"/>
<path d="M3875 2854 c-125 -23 -371 -87 -407 -106 -15 -7 -18 -23 -18 -103 0
-52 4 -95 9 -95 5 0 24 7 44 15 77 32 331 95 460 114 76 11 142 23 147 26 6 3
10 44 10 91 l0 84 -57 -1 c-32 0 -116 -12 -188 -25z"/>
<path d="M3250 2679 c-14 -5 -91 -35 -172 -66 l-148 -55 0 -104 c0 -57 2 -104
4 -104 2 0 72 29 155 65 83 36 157 65 164 65 29 0 37 25 37 117 0 51 -3 93 -7
92 -5 0 -19 -5 -33 -10z"/>
<path d="M3980 2588 c-41 -5 -80 -14 -87 -20 -9 -7 -13 -42 -13 -115 l0 -105
38 6 c20 3 72 11 115 17 l77 12 0 108 0 109 -27 -1 c-16 -1 -62 -6 -103 -11z"/>
<path d="M3660 2515 c-41 -12 -113 -36 -160 -51 l-85 -29 -3 -112 c-1 -62 1
-113 5 -113 4 0 87 26 185 57 l178 58 0 107 c0 126 6 122 -120 83z"/>
<path d="M3260 2384 c-36 -13 -81 -32 -101 -40 l-36 -16 -7 -104 c-4 -57 -5
-108 -1 -114 3 -6 26 -1 58 11 29 11 75 28 102 38 48 17 50 19 57 62 9 61 10
189 1 188 -5 0 -37 -11 -73 -25z"/>
<path d="M3940 2277 l-115 -22 -7 -125 c-4 -69 -4 -128 0 -132 4 -4 43 1 87
12 44 11 104 23 133 26 36 5 56 13 62 25 6 10 10 67 10 128 l0 111 -27 -1
c-16 0 -80 -11 -143 -22z"/>
<path d="M2979 2269 l-46 -20 -6 -112 c-3 -62 -3 -114 -1 -116 4 -4 76 26 105
44 13 8 17 33 21 118 5 122 7 120 -73 86z"/>
<path d="M3635 2201 l-50 -18 -6 -124 c-3 -68 -3 -127 0 -131 3 -3 33 2 67 13
l61 19 6 91 c4 51 7 109 7 131 0 44 -8 46 -85 19z"/>
<path d="M3345 2104 c-71 -25 -142 -49 -156 -54 -26 -8 -43 -15 -142 -59 -26
-12 -66 -29 -87 -37 l-40 -16 0 -118 0 -119 28 9 c15 4 63 22 107 40 121 49
280 102 381 129 40 11 41 12 48 64 8 72 8 207 -1 207 -5 -1 -66 -21 -138 -46z"/>
</g>
</svg>
