<svg id="Слой_1" data-name="Слой 1" xmlns="http://www.w3.org/2000/svg" viewBox="0 0 512 512">
  <defs>
    <style>
      .cls-1 {
        fill: #333333;
      }
    </style>
  </defs>
  <g>
    <path class="cls-1" d="M81.9,45C68.3,47.3,58.1,56.4,54.1,69.8c-1.4,4.7-2.1,5.7-4.5,6.3-3.8,1.1-9.3,6.5-10.5,10.3-.5,1.7-1.5,5.6-2.1,8.7-1.2,6-3.3,8.4-21.3,24.4l-5.7,5V150c0,14,.7,69.1,1.5,122.5s1.6,109.1,1.8,124l.2,27,3.2,6.5c4.2,8.5,8.7,13.8,13.7,16.1,3.9,1.8,8.8,1.9,97.3,1.9h93.2l3.5,5.4c4.1,6.4,6.8,9.1,12.1,11.9,3.6,2,5.5,2.2,19.5,2.2s15.9-.2,19.5-2.2c5.3-2.8,7.8-5.3,12-11.8L291,448h93.2c88.6,0,93.5-.1,97.4-1.9,5-2.3,9.5-7.6,13.7-16.1l3.2-6.5.2-28c.2-15.4,1-71.7,1.8-125,1.8-113.4,1.9-143.9.5-146.5-.5-1-4-4.2-7.7-7.1a142.76,142.76,0,0,1-11.9-10.4c-4.7-4.7-5.4-5.9-6.9-12.7-.9-4.1-2.5-8.9-3.6-10.7-2-3.3-7.3-7.1-10-7.1-1.1,0-2-1.7-2.8-5.5-2.3-10.4-10.6-19.3-21.8-23.5-5.3-2-7.1-2.2-20.3-1.7-37.8,1.4-78,14.4-137.3,44.5l-22.9,11.6-8.6-4.8c-25.8-14.2-63.9-31.2-87.7-39.1C132.5,48.5,96.1,42.6,81.9,45Zm21.6,20.5c10.8.9,34.8,6,47,10,23.9,8,70.3,28.7,90.3,40.5l5.2,3V267.5c0,81.7-.2,148.5-.5,148.5s-6-2.9-12.7-6.5c-26.5-13.9-54.8-25.2-77.8-31-18.8-4.8-49.2-8.5-69.2-8.5-7,0-8.2-.3-10.3-2.5L73,365.1V219.8c0-142.1.1-145.4,2-148.5,3.1-5.1,8.9-7.4,17-6.7Zm328.1,1.1a15.8,15.8,0,0,1,5.4,4.9c2,3.2,2,4.6,2,148.2v145l-2.1,2.7c-1.9,2.4-2.6,2.6-9.7,2.6a394.79,394.79,0,0,0-45.2,3.6c-31.5,4.5-68,17.4-104.7,37-5.6,3-10.5,5.4-10.8,5.4s-.5-66.8-.5-148.5V119.1l7.3-4.1c23.5-13.2,62.1-30.5,86.4-38.6,11-3.7,34.5-9.2,45.8-10.7C413.9,64.6,428.3,65.1,431.6,66.6ZM39.7,402.5a25.42,25.42,0,0,0,9.8,8.6c2.2.9,9.3,1.2,25.8,1,35.7-.3,62.5,2.5,91.5,9.8,12.7,3.3,32.1,9.3,35,11,2.7,1.6-153.9,1.5-159.2-.1s-12.8-9-14.4-14.4c-.9-3.2-1.2-37.3-1.2-146.9V128.7l3.9-4.2a27.16,27.16,0,0,0,5.3-8.7c1.1-3.6,1.4,18.5,1.8,140.2C38.4,363.3,38.8,401,39.7,402.5ZM481.3,125.1l3.7,3.5V271.4c0,109.7-.3,143.8-1.2,147-1.6,5.4-9.3,13.1-14.4,14.5-4.8,1.3-161.7,1.5-159.4.2,2.9-1.7,22.9-8,35.1-11.1,28.9-7.3,56.8-10.3,91.2-9.8,16.1.2,23.2,0,25.8-1,4.1-1.4,9.3-6.5,10.8-10.5.8-1.9,1.1-47.7,1.2-146,.1-137.6.1-143,1.8-138.2A26.61,26.61,0,0,0,481.3,125.1Z"/>
    <path class="cls-1" d="M69,57.5c1.12,2.16,0,256.07,0,312.81,57.79,16.14,78.64,20.81,78.92,21.08s61.79,19.68,98,28.11c5.39-27.9,8.93-166.15,3.48-293.77,2.1-2.83-7-11.25-16.92-18C199.19,85.38,194.15,83,159,72.05c-27.59-8.76-43.29-11.86-67.38-13.61L78.43,57.5Z"/>
  </g>
</svg>
