<?xml version="1.0" standalone="no"?>
<!DOCTYPE svg PUBLIC "-//W3C//DTD SVG 20010904//EN"
 "http://www.w3.org/TR/2001/REC-SVG-20010904/DTD/svg10.dtd">
<svg version="1.0" xmlns="http://www.w3.org/2000/svg"
 width="512.000000pt" height="512.000000pt" viewBox="0 0 512.000000 512.000000"
 preserveAspectRatio="xMidYMid meet">
<rect width="100%" height="100%" fill="#0070aa" />
<g transform="translate(0.000000,512.000000) scale(0.100000,-0.100000)"
fill="#eeeeee" stroke="none">
<path d="M1230 3383 c420 -423 890 -895 1044 -1050 l281 -283 1043 1050 1044
1050 -2088 0 -2088 0 764 -767z m1379 614 c89 -71 178 -213 211 -337 7 -25 16
-50 22 -57 6 -8 54 -11 156 -10 146 1 147 1 240 -35 52 -20 97 -39 100 -43 12
-12 -33 -78 -111 -161 -77 -82 -162 -144 -199 -144 -10 0 -27 -9 -38 -20 -25
-25 -20 -73 21 -176 41 -104 60 -179 53 -199 -6 -15 -16 -17 -78 -12 -116 9
-298 83 -389 159 l-48 40 -39 -36 c-103 -93 -420 -199 -458 -153 -16 19 -4 73
44 197 45 118 51 156 29 180 -10 11 -24 20 -32 20 -7 0 -37 12 -66 26 -86 44
-267 242 -254 278 3 7 45 28 94 46 84 32 95 34 243 37 85 2 157 6 161 11 3 4
16 41 29 82 12 41 38 104 58 140 40 74 160 200 190 200 10 0 38 -15 61 -33z"/>
<path d="M2546 3850 c-10 -64 -16 -143 -26 -340 -13 -257 -15 -267 -50 -285
-38 -20 -37 -20 -45 18 -20 88 -94 179 -179 218 -42 19 -152 25 -190 10 -16
-6 -10 -10 28 -20 114 -28 208 -105 258 -209 l31 -65 -29 -21 c-68 -48 -126
-133 -141 -206 -6 -33 -5 -32 59 33 77 79 189 138 273 145 101 8 236 -56 326
-156 l52 -57 -7 35 c-11 60 -47 121 -104 177 l-56 54 14 37 c40 112 143 202
266 233 38 10 44 14 28 20 -38 15 -148 9 -190 -10 -82 -37 -147 -115 -175
-208 -7 -24 -14 -43 -16 -43 -2 0 -17 7 -32 15 -32 16 -36 34 -46 265 -14 288
-35 447 -49 360z"/>
<path d="M420 2490 c0 -830 2 -1510 4 -1510 3 0 293 340 645 755 l641 755
-641 755 c-352 415 -642 755 -645 755 -2 0 -4 -679 -4 -1510z"/>
<path d="M4052 3247 l-642 -757 642 -757 643 -757 3 757 c1 416 1 1098 0 1514
l-3 757 -643 -757z"/>
<path d="M2881 2021 c-173 -177 -318 -321 -325 -321 -6 -1 -151 142 -323 317
l-312 318 -680 -680 c-375 -374 -681 -683 -681 -687 0 -5 900 -8 2000 -8 1100
0 2000 3 2000 8 0 4 -307 314 -683 690 l-683 683 -313 -320z"/>
</g>
</svg>
