<?xml version="1.0" standalone="no"?>
<!DOCTYPE svg PUBLIC "-//W3C//DTD SVG 20010904//EN"
 "http://www.w3.org/TR/2001/REC-SVG-20010904/DTD/svg10.dtd">
<svg version="1.0" xmlns="http://www.w3.org/2000/svg"
 width="512.000000pt" height="512.000000pt" viewBox="0 0 512.000000 512.000000"
 preserveAspectRatio="xMidYMid meet">
<rect width="100%" height="100%" fill="#0070aa" />
<g transform="translate(0.000000,512.000000) scale(0.100000,-0.100000)"
fill="#eeeeee" stroke="none">
<path d="M1230 3383 c420 -423 890 -895 1044 -1050 l281 -283 1043 1050 1044
1050 -2088 0 -2088 0 764 -767z"/>
<path d="M420 2490 c0 -830 2 -1510 4 -1510 3 0 293 340 645 755 l641 755
-641 755 c-352 415 -642 755 -645 755 -2 0 -4 -679 -4 -1510z"/>
<path d="M4052 3247 l-642 -757 642 -757 643 -757 3 757 c1 416 1 1098 0 1514
l-3 757 -643 -757z"/>
<path d="M2881 2021 c-173 -177 -318 -321 -325 -321 -6 -1 -151 142 -323 317
l-312 318 -680 -680 c-375 -374 -681 -683 -681 -687 0 -5 900 -8 2000 -8 1100
0 2000 3 2000 8 0 4 -307 314 -683 690 l-683 683 -313 -320z"/>
</g>
</svg>
