<?xml version="1.0" standalone="no"?>
<!DOCTYPE svg PUBLIC "-//W3C//DTD SVG 20010904//EN"
 "http://www.w3.org/TR/2001/REC-SVG-20010904/DTD/svg10.dtd">
<svg version="1.0" xmlns="http://www.w3.org/2000/svg"
 width="512.000000pt" height="512.000000pt" viewBox="0 0 512.000000 512.000000"
 preserveAspectRatio="xMidYMid meet">

<g transform="translate(0.000000,512.000000) scale(0.100000,-0.100000)"
fill="#333333" stroke="none">
<path d="M2275 5086 c-57 -25 -71 -54 -153 -311 l-79 -249 -44 -14 c-24 -8
-46 -16 -47 -18 -2 -1 8 -22 22 -46 13 -24 39 -86 57 -138 30 -88 32 -107 37
-262 l5 -166 51 -50 51 -50 74 19 c346 89 724 22 1031 -184 96 -64 273 -241
337 -337 206 -307 273 -685 184 -1031 l-19 -74 50 -51 50 -52 172 -4 c154 -4
179 -7 251 -32 44 -15 104 -41 134 -57 30 -16 55 -28 56 -26 1 1 9 22 17 47
l15 45 250 80 c143 45 261 89 273 100 48 43 50 58 50 335 0 280 -5 311 -51
344 -19 13 -236 86 -495 167 -28 9 -33 17 -53 84 l-22 75 -182 0 -183 0 -37
38 -37 38 0 367 0 367 -368 0 -368 0 -37 38 -37 38 0 181 0 182 -77 23 -76 23
-79 250 c-83 259 -96 286 -155 311 -46 20 -524 19 -568 0z"/>
<path d="M995 4749 c-27 -5 -79 -19 -114 -31 l-63 -20 353 -354 354 -354 4
-84 c3 -73 0 -92 -22 -139 -48 -106 -157 -177 -270 -177 -103 0 -97 -5 -468
366 l-346 346 -21 -69 c-44 -140 -51 -240 -27 -377 50 -287 257 -517 545 -608
65 -20 96 -23 228 -23 l152 0 961 -961 962 -962 1 -163 c1 -152 3 -170 29
-244 41 -117 100 -209 191 -301 209 -208 486 -277 774 -193 39 12 72 25 72 28
0 3 -151 157 -336 341 -186 185 -342 349 -350 367 -19 43 -18 148 2 206 44
130 202 218 339 187 48 -10 64 -25 398 -358 273 -273 349 -344 357 -332 5 8
19 51 32 95 31 113 31 288 0 398 -91 321 -354 540 -688 572 -38 4 -105 2 -149
-4 l-80 -11 -961 961 -961 961 5 137 c4 116 2 149 -17 221 -68 274 -279 492
-546 565 -72 20 -270 28 -340 14z"/>
<path d="M3390 4380 l0 -180 405 0 405 0 0 -405 0 -405 180 0 180 0 0 585 0
585 -585 0 -585 0 0 -180z"/>
<path d="M610 3125 c-7 -25 -16 -48 -21 -51 -4 -2 -115 -39 -246 -80 -131 -42
-249 -82 -261 -91 -13 -8 -32 -33 -43 -56 -17 -37 -19 -68 -19 -282 0 -132 4
-256 10 -274 15 -52 56 -88 124 -110 34 -11 147 -47 252 -80 l190 -61 27 -90
27 -90 158 0 158 0 42 -43 42 -43 0 -362 0 -362 362 0 362 0 43 -42 43 -42 0
-158 0 -158 91 -27 c50 -15 94 -34 99 -42 4 -9 41 -119 81 -246 40 -126 79
-240 87 -253 8 -13 32 -32 53 -43 35 -17 60 -19 295 -19 275 0 303 4 342 55 9
12 53 134 96 272 l79 251 43 12 c24 7 44 14 44 15 0 1 -18 40 -39 86 -60 129
-72 184 -78 360 l-5 157 -53 52 -54 53 -108 -24 c-141 -31 -391 -33 -521 -5
-341 73 -627 266 -819 551 -195 291 -259 655 -176 1013 l17 73 -54 54 -54 55
-102 0 c-180 0 -343 36 -451 100 -19 11 -38 20 -42 20 -5 0 -14 -20 -21 -45z"/>
<path d="M530 1115 l0 -585 585 0 585 0 0 180 0 180 -405 0 -405 0 0 405 0
405 -180 0 -180 0 0 -585z"/>
</g>
</svg>
