<?xml version="1.0" standalone="no"?>
<!DOCTYPE svg PUBLIC "-//W3C//DTD SVG 20010904//EN"
 "http://www.w3.org/TR/2001/REC-SVG-20010904/DTD/svg10.dtd">
<svg version="1.0" xmlns="http://www.w3.org/2000/svg"
 width="512.000000pt" height="512.000000pt" viewBox="0 0 512.000000 512.000000"
 preserveAspectRatio="xMidYMid meet">

<g transform="translate(0.000000,512.000000) scale(0.100000,-0.100000)"
fill="#333333" stroke="none">
<path d="M4563 5050 c-30 -12 -29 -19 7 -54 41 -40 38 -67 -10 -115 -40 -40
-41 -41 -25 -70 28 -55 20 -80 -42 -139 -158 -147 -402 -266 -653 -319 -106
-22 -369 -24 -479 -4 -64 12 -213 54 -261 75 -13 5 -15 -20 -15 -191 -1 -187
-2 -203 -28 -288 -64 -211 -216 -455 -351 -565 -37 -30 -75 -68 -83 -84 -31
-59 -16 -79 289 -382 156 -155 293 -286 305 -293 12 -6 36 -11 54 -11 27 0 41
9 73 47 88 101 159 165 247 223 232 153 459 220 693 207 61 -4 121 -9 133 -13
l21 -6 -25 69 c-130 359 -91 792 104 1128 45 79 153 224 189 257 27 23 53 25
103 8 l44 -14 32 38 c41 49 74 51 120 6 33 -32 33 -32 45 -11 16 32 14 113 -4
149 -30 59 -113 100 -173 86 -19 -4 -145 -123 -394 -371 l-365 -364 23 -47
c30 -61 47 -154 38 -211 -23 -156 -118 -260 -270 -298 -58 -14 -78 -15 -137
-5 -124 22 -205 79 -251 181 -17 37 -21 66 -22 146 0 87 3 107 26 155 36 77
77 121 151 161 60 32 68 34 163 34 89 0 107 -3 160 -28 l59 -28 369 370 370
369 -5 57 c-5 59 -24 94 -71 129 -30 22 -119 31 -154 16z"/>
<path d="M2486 3009 c-8 -50 -46 -127 -86 -172 -36 -42 -132 -94 -188 -103
-28 -4 -42 -12 -42 -22 0 -18 489 -513 526 -532 30 -16 31 -15 47 47 35 132
138 227 280 257 16 4 27 13 27 23 0 32 -520 543 -553 543 -3 0 -7 -18 -11 -41z"/>
<path d="M1975 2652 c-17 -11 -52 -43 -78 -72 -38 -42 -47 -59 -47 -88 0 -34
18 -54 302 -338 165 -167 312 -305 325 -309 36 -9 87 21 143 82 43 47 50 60
50 96 0 40 -5 45 -287 330 -159 159 -300 295 -315 303 -36 19 -57 18 -93 -4z"/>
<path d="M934 1528 c-937 -939 -879 -871 -879 -1028 0 -116 28 -173 146 -292
115 -116 184 -151 300 -151 69 0 88 4 147 33 62 31 130 97 890 859 452 454
822 832 822 841 0 23 -551 570 -575 570 -13 0 -301 -282 -851 -832z"/>
</g>
</svg>
