<?xml version="1.0" standalone="no"?>
<!DOCTYPE svg PUBLIC "-//W3C//DTD SVG 20010904//EN"
 "http://www.w3.org/TR/2001/REC-SVG-20010904/DTD/svg10.dtd">
<svg version="1.0" xmlns="http://www.w3.org/2000/svg"
 width="512.000000pt" height="512.000000pt" viewBox="0 0 512.000000 512.000000"
 preserveAspectRatio="xMidYMid meet">
<rect width="100%" height="100%" fill="#F3C13A" />
<g transform="translate(0.000000,512.000000) scale(0.100000,-0.100000)"
fill="#eeeeee" stroke="none">
<path d="M2470 4434 c-62 -36 -169 -125 -237 -198 -188 -202 -326 -425 -417
-669 -38 -102 -106 -328 -106 -353 0 -8 -16 -32 -35 -53 l-36 -39 -377 5
c-316 5 -392 3 -467 -10 -128 -23 -482 -144 -613 -211 -44 -22 -52 -31 -52
-54 0 -48 146 -249 340 -469 200 -225 441 -396 623 -442 86 -21 132 -44 151
-74 51 -76 18 -246 -106 -557 -105 -262 -158 -442 -158 -538 0 -54 3 -63 28
-82 25 -21 34 -22 132 -17 214 11 534 102 833 235 245 109 343 170 487 301 71
64 83 71 98 59 9 -7 55 -46 101 -86 125 -108 234 -176 409 -257 400 -184 688
-265 940 -265 71 0 81 2 102 25 19 20 24 36 23 73 -2 95 -73 327 -181 587 -39
94 -78 205 -86 247 -20 96 -21 208 -2 253 17 40 44 55 151 84 166 46 348 164
530 346 183 182 435 506 435 559 0 45 -41 67 -314 165 -342 124 -285 116 -779
116 l-429 0 -24 30 c-14 17 -31 55 -40 85 -113 413 -224 645 -420 882 -84 100
-249 256 -326 307 -72 49 -113 52 -178 15z m109 -457 c36 -114 83 -706 101
-1267 6 -173 17 -369 25 -435 8 -66 18 -146 21 -178 4 -32 14 -67 23 -77 27
-31 174 -102 182 -87 4 6 17 50 30 97 97 364 346 634 658 715 119 31 408 20
518 -19 44 -16 49 -13 -89 -40 -393 -77 -714 -350 -866 -738 -50 -126 -50
-121 15 -170 190 -138 331 -313 397 -491 32 -83 68 -232 64 -259 -2 -19 -12
-11 -58 47 -143 184 -247 282 -413 389 -158 103 -394 198 -564 226 -61 10 -84
9 -155 -5 -364 -74 -694 -280 -937 -585 -90 -113 -97 -106 -57 51 63 244 221
471 424 610 42 29 78 53 80 54 6 5 -64 187 -98 255 -163 323 -468 548 -838
620 -52 10 -96 20 -98 23 -11 10 124 39 230 48 229 20 383 -15 564 -127 197
-122 355 -351 416 -603 14 -57 27 -106 30 -108 2 -3 47 18 99 47 106 57 99 45
117 185 16 128 28 316 45 675 22 479 49 863 76 1063 17 128 35 155 58 84z"/>
</g>
</svg>
