<?xml version="1.0" standalone="no"?>
<!DOCTYPE svg PUBLIC "-//W3C//DTD SVG 20010904//EN"
 "http://www.w3.org/TR/2001/REC-SVG-20010904/DTD/svg10.dtd">
<svg version="1.0" xmlns="http://www.w3.org/2000/svg"
 width="512.000000pt" height="512.000000pt" viewBox="0 0 512.000000 512.000000"
 preserveAspectRatio="xMidYMid meet">
<rect width="100%" height="100%" fill="#DC3023" />
<g transform="translate(0.000000,512.000000) scale(0.100000,-0.100000)"
fill="#eeeeee" stroke="none">
<path d="M2320 4350 c-436 -53 -857 -287 -1132 -630 -192 -239 -227 -523 -99
-785 83 -168 234 -296 423 -359 77 -26 253 -32 348 -12 224 47 420 215 508
436 35 89 44 154 40 278 -6 154 -48 274 -137 392 -47 62 -59 106 -39 146 32
66 316 232 503 293 50 16 125 37 168 46 97 19 280 38 319 33 51 -8 29 7 -64
44 -118 46 -243 83 -355 103 -105 19 -378 27 -483 15z"/>
<path d="M3485 3650 c-241 -28 -450 -178 -551 -397 -51 -108 -65 -174 -65
-298 0 -130 15 -198 71 -310 75 -152 179 -252 335 -325 112 -52 170 -64 305
-61 63 2 130 3 147 4 79 2 103 -72 103 -315 0 -260 -67 -529 -180 -722 -22
-37 -40 -70 -40 -73 0 -8 86 56 162 121 271 232 472 579 550 951 20 96 23 138
23 330 -1 233 -9 296 -59 468 -45 155 -105 281 -174 367 -151 187 -392 288
-627 260z"/>
<path d="M837 2218 c66 -492 364 -947 793 -1211 275 -169 640 -269 869 -237
246 34 449 186 551 414 43 97 55 160 54 291 -1 97 -5 133 -23 185 -72 208
-187 343 -366 430 -102 50 -187 70 -301 70 -109 0 -174 -11 -255 -44 -184 -74
-310 -196 -394 -381 -54 -117 -93 -130 -218 -73 -263 119 -492 313 -648 546
-39 59 -72 108 -74 110 -1 1 4 -44 12 -100z"/>
</g>
</svg>
