<?xml version="1.0" encoding="utf-8"?>
<!-- Generator: Adobe Illustrator 25.0.0, SVG Export Plug-In . SVG Version: 6.00 Build 0)  -->
<svg version="1.1"
	 id="svg2" xmlns:cc="http://creativecommons.org/ns#" xmlns:dc="http://purl.org/dc/elements/1.1/" xmlns:rdf="http://www.w3.org/1999/02/22-rdf-syntax-ns#" xmlns:svg="http://www.w3.org/2000/svg"
	 xmlns="http://www.w3.org/2000/svg" xmlns:xlink="http://www.w3.org/1999/xlink" x="0px" y="0px" viewBox="0 0 755.5 754.4"
	 style="enable-background:new 0 0 755.5 754.4;" xml:space="preserve">
<style type="text/css">
	.st0{fill:#333333;}
</style>
<g id="g18">
	<g id="g66" transform="translate(312.5538,585.913)">
		<path id="path68" class="st0" d="M-201.8-145.6c0,0-14-69.3,59.8-153.3c73.8-84,129.2-114.5,188.9-130.4c0,0-0.1,0-0.1,0.1
			c0.1,0,0.2,0,0.2-0.1c0,0-47,27.4-47,68.7c0,12,1.9,20.2,4.6,25.8c3.5,7.3,9.1,9.8,14.1,9.8c4.2,0,6.7-1.7,12-3.8v223.9
			c0,0,0.6,3.6,3.8,7.9c4.7,6.2,12,13.7,25.8,13.7c23.5-0.2,53.1-26.7,53.1-26.7v-181.3c0-18.4-13.2-40.7-27.2-48.3
			c0,0,1.9-0.1,5-0.1c9.2,0,29,1.1,40.1,9.5c3.1-3.6,52.6-59.6,140.6-76.8c0,0,0,0,0,0c0.1,0,0.2,0,0.2,0c0,0-48.7,57.4-64,85.8
			c-2.7,0.2-3.1,54-2.7,107.7c0.4,51.9,1.7,103.8,2.4,107.3c0,0,5.2,7.7,18.4,7.8c14.9,0.1,40.1-9.6,79.5-51.1l0,0l0,0
			c0,0-1,2.4-3.1,6.5c-11.3,22.6-53.3,98.3-127.9,142.3l0,0c0,0,0,0,0,0l-48.4-40.9l-1.2-1l-52.8,56c0,0,0,0-0.1,0l0,0
			c0,0-120.3-10.2-170.6-82.7c0,0,0.1,0,0.2,0.1c0,0,0-0.1-0.1-0.1c0,0,7.6,3,16.2,3.1c10.1,0.2,20.6-3.5,20.6-20.3v-170.5
			c0-8.7-6-18.5-19.1-18.4c-11.8,0-28.8,8-52,31.8c-49,50.2-69.3,98-69.3,98s0-0.1,0-0.2C-201.8-145.7-201.8-145.6-201.8-145.6
			 M65.4,143.4c93.8,0,182.1-36.5,248.4-102.9c66.4-66.4,102.9-154.6,102.9-248.4S380.2-390,313.9-456.4
			c-66.4-66.4-154.6-102.9-248.4-102.9S-116.7-522.7-183-456.4c-66.4,66.4-102.9,154.6-102.9,248.4S-249.4-25.9-183,40.5
			C-116.7,106.9-28.4,143.4,65.4,143.4"/>
	</g>
	<g id="g70" transform="translate(513,908.3072)">
		<path id="path72" class="st0" d="M-135-897.9c203,0,367.5,164.5,367.5,367.5S67.9-162.8-135-162.8s-367.5-164.5-367.5-367.5
			S-338-897.9-135-897.9 M-135-152.4c101,0,195.9-39.3,267.3-110.7s110.7-166.3,110.7-267.3c0-101-39.3-195.9-110.7-267.3
			S-34.1-908.3-135-908.3S-330.9-869-402.3-797.6S-513-631.3-513-530.3c0,101,39.3,195.9,110.7,267.3S-236-152.4-135-152.4"/>
	</g>
</g>
</svg>
