<?xml version="1.0" standalone="no"?>
<!DOCTYPE svg PUBLIC "-//W3C//DTD SVG 20010904//EN"
 "http://www.w3.org/TR/2001/REC-SVG-20010904/DTD/svg10.dtd">
<svg version="1.0" xmlns="http://www.w3.org/2000/svg"
 width="4844.000000pt" height="839.000000pt" viewBox="0 0 4844.000000 839.000000"
 preserveAspectRatio="xMidYMid meet">

<g transform="translate(0.000000,839.000000) scale(0.100000,-0.100000)"
fill="#000000" stroke="none">
<path d="M24587 6902 l-707 -707 450 -450 450 -450 460 460 460 460 -207 207
-208 208 -100 -100 -100 -100 110 -110 110 -110 -260 -260 -260 -260 -255 255
-255 255 513 512 512 513 480 -480 480 -480 -605 -605 c-333 -333 -605 -610
-605 -615 0 -5 273 -281 608 -612 l607 -601 -483 -484 -482 -483 -512 513
-513 512 255 255 255 255 260 -260 260 -260 -110 -110 -110 -110 100 -100 100
-100 210 210 210 210 -455 455 c-250 250 -459 455 -465 455 -6 0 -211 -201
-458 -448 l-447 -447 710 -710 710 -710 677 678 678 677 -608 608 -607 607
607 608 608 607 -675 675 c-371 371 -677 675 -680 675 -3 0 -323 -318 -713
-708z"/>
<path d="M22460 5845 l-675 -675 500 -502 c275 -277 547 -551 605 -611 l105
-107 -603 -603 c-331 -331 -602 -607 -602 -612 0 -6 304 -314 675 -685 l675
-675 710 710 710 710 -452 452 -453 453 -457 -457 -458 -458 207 -207 208
-208 97 97 98 98 -110 110 -110 110 263 263 262 262 255 -255 255 -255 -513
-513 -512 -512 -480 480 -480 480 607 607 608 608 -608 608 -607 607 480 480
480 480 512 -513 513 -512 -253 -252 -252 -253 -262 262 -263 263 108 108 107
107 -100 100 -100 100 -208 -208 -207 -207 460 -460 460 -460 452 452 453 453
-707 707 c-390 390 -710 708 -713 708 -3 0 -309 -304 -680 -675z"/>
<path d="M26302 5567 l-522 -522 523 -523 522 -522 470 470 470 470 7661 0
7662 0 6 -45 c23 -152 114 -321 238 -443 387 -380 1017 -299 1299 167 82 135
113 254 113 426 0 172 -31 291 -113 426 -251 416 -787 533 -1191 260 -99 -67
-213 -198 -270 -311 -32 -63 -68 -174 -76 -231 l-7 -49 -7656 0 -7656 0 -475
475 -475 475 -523 -523z m856 -200 l322 -322 -325 -325 -325 -325 -325 325
-325 325 322 322 c178 178 325 323 328 323 3 0 150 -145 328 -323z m16955 279
c104 -35 193 -93 270 -176 179 -193 215 -471 95 -718 -45 -92 -177 -225 -270
-270 -146 -71 -299 -89 -442 -52 -129 33 -200 74 -296 170 -96 96 -137 167
-170 296 -37 143 -19 297 52 442 45 93 177 225 271 270 160 78 333 92 490 38z"/>
<path d="M21135 4520 l-470 -470 -7646 0 -7646 0 -7 49 c-20 152 -112 325
-238 449 -387 380 -1017 299 -1299 -167 -82 -135 -113 -254 -113 -426 0 -172
31 -291 113 -426 251 -416 787 -533 1191 -260 99 67 213 198 270 311 30 60 67
169 76 225 l6 45 7647 0 7646 0 472 -472 473 -473 525 525 525 525 -517 517
c-285 285 -522 518 -528 518 -6 0 -222 -211 -480 -470z m805 -895 l-325 -325
-325 325 -325 325 325 325 325 325 325 -325 325 -325 -325 -325z m-17183 927
c106 -39 177 -87 256 -172 179 -193 215 -471 95 -718 -45 -93 -178 -225 -270
-270 -117 -57 -161 -67 -298 -66 -115 0 -132 3 -207 31 -106 40 -178 89 -256
173 -178 193 -216 473 -96 716 38 77 137 188 214 238 56 38 161 81 230 96 22
5 87 8 145 6 86 -3 119 -9 187 -34z"/>
</g>
</svg>
