<?xml version="1.0" encoding="utf-8"?>
<!-- Generator: Adobe Illustrator 25.0.0, SVG Export Plug-In . SVG Version: 6.00 Build 0)  -->
<svg version="1.1" id="Слой_1" xmlns="http://www.w3.org/2000/svg" xmlns:xlink="http://www.w3.org/1999/xlink" x="0px" y="0px"
	 viewBox="0 0 2345.1 671.6" style="enable-background:new 0 0 2345.1 671.6;" xml:space="preserve">
<g transform="translate(0.000000,839.000000) scale(0.100000,-0.100000)">
	<path d="M19987.9,6929l-677-677l607-608l608-607l-608-608l-607-607l680-680l680-680l710,710l710,710l-452,452l-453,453l-460-460
		l-460-460l207-207l208-208l100,100l100,100l-110,110l-110,110l258,258c141,141,262,257,267,257c6,0,123-113,260-250l250-250
		l-515-515l-515-515l-480,480l-480,480l610,610l610,610l-608,608l-607,607l480,480l480,480l512-512l513-513l-255-255l-255-255
		l-262,262l-263,263l110,110l110,110l-100,100l-100,100l-208-208l-207-207l460-460l460-460l450,450l450,450l-710,710l-710,710
		L19987.9,6929z"/>
	<path d="M18665.9,5607l-470-470h-7646h-7647l-6,45c-23,152-114,321-238,443c-387,380-1017,299-1299-167c-82-135-113-254-113-426
		s31-291,113-426c251-416,787-533,1191-260c99,67,213,198,270,311c32,63,68,174,76,231l7,49h7646h7646l472-472l473-473l522,523
		l523,522l-520,520c-286,286-522,520-525,520S18923.9,5866,18665.9,5607z M19468.9,4710l-328-328l-325,325l-325,325l327,327l328,328
		l325-325l325-325L19468.9,4710z M2285.9,5630c99-37,153-70,228-141c74-71,121-143,160-245c29-76,31-91,31-212s-2-136-31-212
		c-17-45-48-107-68-137c-55-83-162-177-247-218c-107-51-159-63-283-63s-176,12-283,63c-85,41-192,135-247,218c-20,30-51,92-68,137
		c-29,76-31,91-31,212s2,136,31,212c39,102,86,174,160,245c72,68,126,103,212,135c98,37,135,42,251,39
		C2186.9,5660,2220.9,5654,2285.9,5630z"/>
</g>
</svg>
