<?xml version="1.0" standalone="no"?>
<!DOCTYPE svg PUBLIC "-//W3C//DTD SVG 20010904//EN"
 "http://www.w3.org/TR/2001/REC-SVG-20010904/DTD/svg10.dtd">
<svg version="1.0" xmlns="http://www.w3.org/2000/svg"
 width="4844.000000pt" height="839.000000pt" viewBox="0 0 4844.000000 839.000000"
 preserveAspectRatio="xMidYMid meet">

<g transform="translate(0.000000,839.000000) scale(0.100000,-0.100000)"
fill="#000000" stroke="none">
<path d="M21507 6092 l-677 -677 607 -608 608 -607 -608 -608 -607 -607 680
-680 680 -680 710 710 710 710 -452 452 -453 453 -460 -460 -460 -460 207
-207 208 -208 100 100 100 100 -110 110 -110 110 258 258 c141 141 262 257
267 257 6 0 123 -113 260 -250 l250 -250 -515 -515 -515 -515 -480 480 -480
480 610 610 610 610 -608 608 -607 607 480 480 480 480 512 -512 513 -513
-255 -255 -255 -255 -262 262 -263 263 110 110 110 110 -100 100 -100 100
-208 -208 -207 -207 460 -460 460 -460 450 450 450 450 -710 710 -710 710
-678 -678z"/>
<path d="M25537 6052 l-707 -707 453 -453 452 -452 460 460 460 460 -205 205
c-113 113 -209 205 -215 205 -6 0 -53 -43 -105 -95 l-95 -95 110 -110 110
-110 -263 -263 -262 -262 -250 250 c-137 137 -250 254 -250 260 0 6 230 240
510 520 l510 510 483 -483 482 -483 -470 -468 c-258 -257 -533 -531 -610 -609
l-139 -143 607 -607 607 -607 -480 -480 -480 -480 -512 512 -513 513 255 255
255 255 257 -257 c142 -142 258 -262 258 -268 0 -5 -47 -57 -105 -115 l-105
-105 98 -98 97 -97 208 208 207 207 -460 460 -460 460 -453 -453 -452 -452
713 -712 712 -713 675 675 c371 371 675 679 675 685 0 6 -270 280 -600 610
-330 330 -600 604 -600 610 0 5 271 281 602 612 l603 603 -675 675 c-371 371
-677 675 -680 675 -3 0 -323 -318 -713 -708z"/>
<path d="M20185 4770 l-470 -470 -7646 0 -7647 0 -6 45 c-23 152 -114 321
-238 443 -387 380 -1017 299 -1299 -167 -82 -135 -113 -254 -113 -426 0 -172
31 -291 113 -426 251 -416 787 -533 1191 -260 99 67 213 198 270 311 32 63 68
174 76 231 l7 49 7646 0 7646 0 472 -472 473 -473 522 523 523 522 -520 520
c-286 286 -522 520 -525 520 -3 0 -217 -211 -475 -470z m803 -897 l-328 -328
-325 325 -325 325 327 327 328 328 325 -325 325 -325 -327 -327z m-17183 920
c99 -37 153 -70 228 -141 74 -71 121 -143 160 -245 29 -76 31 -91 31 -212 0
-121 -2 -136 -31 -212 -17 -45 -48 -107 -68 -137 -55 -83 -162 -177 -247 -218
-107 -51 -159 -63 -283 -63 -124 0 -176 12 -283 63 -85 41 -192 135 -247 218
-20 30 -51 92 -68 137 -29 76 -31 91 -31 212 0 121 2 136 31 212 39 102 86
174 160 245 72 68 126 103 212 135 98 37 135 42 251 39 86 -3 120 -9 185 -33z"/>
<path d="M27252 4717 l-522 -522 523 -523 522 -522 470 470 470 470 7651 0
7652 0 6 -45 c23 -152 114 -321 238 -443 387 -380 1017 -299 1299 167 82 135
113 254 113 426 0 172 -31 291 -113 426 -251 416 -787 533 -1191 260 -99 -67
-213 -198 -270 -311 -32 -63 -68 -174 -76 -231 l-7 -49 -7646 0 -7646 0 -475
475 -475 475 -523 -523z m854 -205 l317 -323 -324 -325 -324 -324 -325 325
-325 325 325 325 c179 179 328 324 332 323 3 -2 149 -148 324 -326z m16917
294 c106 -34 181 -79 263 -161 88 -88 130 -153 166 -260 19 -58 23 -91 23
-190 0 -134 -19 -211 -78 -315 -48 -87 -178 -209 -267 -251 -110 -53 -161 -64
-285 -64 -124 0 -176 12 -283 63 -85 41 -192 135 -247 218 -20 30 -51 92 -68
137 -29 76 -31 91 -31 212 0 121 2 136 31 212 17 45 48 107 68 137 55 83 162
177 247 218 64 31 92 40 183 62 39 10 231 -3 278 -18z"/>
</g>
</svg>
