<svg id="Слой_1" data-name="Слой 1" xmlns="http://www.w3.org/2000/svg" viewBox="0 0 256 256">
  <defs>
    <style>
.cls-1 {
  fill: #dee1e5;
}

.cls-2 {
  fill: #babfc7;
}

.cls-3 {
  fill: #868a92;
}

    </style>
  </defs>
  <path class="cls-1" d="M128,20a108,108,0,0,1,76.37,184.37A108,108,0,0,1,51.63,51.63,107.29,107.29,0,0,1,128,20m0-20A128,128,0,1,0,256,128,128,128,0,0,0,128,0Z"/>
  <g>
    <path class="cls-2" d="M128,228.56A100.56,100.56,0,1,1,228.56,128,100.67,100.67,0,0,1,128,228.56Zm-22.93-136a12.52,12.52,0,0,0-12.5,12.5v45.86a12.52,12.52,0,0,0,12.5,12.5h45.86a12.52,12.52,0,0,0,12.5-12.5V105.07a12.52,12.52,0,0,0-12.5-12.5Z"/>
    <path class="cls-3" d="M128,35.94A92.06,92.06,0,1,1,35.94,128,92.17,92.17,0,0,1,128,35.94m-22.93,136h45.86a21,21,0,0,0,21-21V105.07a21,21,0,0,0-21-21H105.07a21,21,0,0,0-21,21v45.86a21,21,0,0,0,21,21M128,18.94A109.06,109.06,0,1,0,237.06,128,109.06,109.06,0,0,0,128,18.94Zm-22.93,136a4,4,0,0,1-4-4V105.07a4,4,0,0,1,4-4h45.86a4,4,0,0,1,4,4v45.86a4,4,0,0,1-4,4Z"/>
  </g>
  <path class="cls-1" d="M150.62,101.37a4,4,0,0,1,4,4v45.86a4,4,0,0,1-4,4H104.76a4,4,0,0,1-4-4V105.37a4,4,0,0,1,4-4h45.86m0-22H104.76a26,26,0,0,0-26,26v45.86a26,26,0,0,0,26,26h45.86a26,26,0,0,0,26-26V105.37a26,26,0,0,0-26-26Z"/>
</svg>
