<svg id="Слой_1" data-name="Слой 1" xmlns="http://www.w3.org/2000/svg" viewBox="0 0 256 256">
  <defs>
    <style>
      .cls-1 {
        fill: #937a4e;
      }

      .cls-2 {
        fill: #dfbd57;
      }

      .cls-3 {
        fill: #67481e;
      }

      .cls-4 {
        fill: #604a26;
      }
    </style>
  </defs>
  <path class="cls-1" d="M127.56,25.7A102.48,102.48,0,1,0,230,128.17,102.48,102.48,0,0,0,127.56,25.7Zm25.3,124a3.77,3.77,0,0,1-3.76,3.76H106a3.77,3.77,0,0,1-3.76-3.76V106.63a3.77,3.77,0,0,1,3.76-3.76H149.1a3.77,3.77,0,0,1,3.76,3.76Z"/>
  <path class="cls-2" d="M128,26A102,102,0,1,1,26,128,102.12,102.12,0,0,1,128,26m0-26A128,128,0,1,0,256,128,128,128,0,0,0,128,0Z"/>
  <path class="cls-3" d="M147.61,104.57a4,4,0,0,1,4,4v39.21a4,4,0,0,1-4,4H108.39a4,4,0,0,1-4-4V108.57a4,4,0,0,1,4-4h39.22m0-22H108.39a26,26,0,0,0-26,26v39.21a26,26,0,0,0,26,26h39.22a26,26,0,0,0,26-26V108.57a26,26,0,0,0-26-26Z"/>
  <path class="cls-2" d="M150.62,101.37a4,4,0,0,1,4,4v45.86a4,4,0,0,1-4,4H104.76a4,4,0,0,1-4-4V105.37a4,4,0,0,1,4-4h45.86m0-22H104.76a26,26,0,0,0-26,26v45.86a26,26,0,0,0,26,26h45.86a26,26,0,0,0,26-26V105.37a26,26,0,0,0-26-26Z"/>
  <path class="cls-4" d="M128,3a125,125,0,0,1,88.39,213.39A125,125,0,0,1,39.61,39.61,124.18,124.18,0,0,1,128,3m0-3A128,128,0,1,0,256,128,128,128,0,0,0,128,0Z"/>
</svg>
