<svg id="Слой_1" data-name="Слой 1" xmlns="http://www.w3.org/2000/svg" viewBox="0 0 256 256">
  <defs>
    <style>
      .cls-1 {
        fill: #c19e59;
      }

      .cls-2 {
        fill: #8e7742;
      }

      .cls-3 {
        fill: #dfbd57;
      }

      .cls-4 {
        fill: #67481e;
      }

      .cls-5 {
        fill: #604a26;
      }
    </style>
  </defs>
  <g>
    <path class="cls-1" d="M128,222a94,94,0,1,1,94-94A94.09,94.09,0,0,1,128,222ZM106.45,94.2A12.26,12.26,0,0,0,94.2,106.45v43.1a12.26,12.26,0,0,0,12.25,12.25h43.1a12.26,12.26,0,0,0,12.25-12.25v-43.1A12.26,12.26,0,0,0,149.55,94.2Z"/>
    <path class="cls-2" d="M128,42.52A85.48,85.48,0,1,1,42.52,128,85.58,85.58,0,0,1,128,42.52M106.45,170.3h43.1a20.78,20.78,0,0,0,20.75-20.75v-43.1A20.78,20.78,0,0,0,149.55,85.7h-43.1A20.78,20.78,0,0,0,85.7,106.45v43.1a20.78,20.78,0,0,0,20.75,20.75M128,25.52A102.48,102.48,0,1,0,230.48,128,102.48,102.48,0,0,0,128,25.52ZM106.45,153.3a3.76,3.76,0,0,1-3.75-3.75v-43.1a3.76,3.76,0,0,1,3.75-3.75h43.1a3.76,3.76,0,0,1,3.75,3.75v43.1a3.76,3.76,0,0,1-3.75,3.75Z"/>
  </g>
  <path class="cls-3" d="M128,26A102,102,0,1,1,26,128,102.12,102.12,0,0,1,128,26m0-26A128,128,0,1,0,256,128,128,128,0,0,0,128,0Z"/>
  <path class="cls-4" d="M147.61,104.57a4,4,0,0,1,4,4v39.21a4,4,0,0,1-4,4H108.39a4,4,0,0,1-4-4V108.57a4,4,0,0,1,4-4h39.22m0-22H108.39a26,26,0,0,0-26,26v39.21a26,26,0,0,0,26,26h39.22a26,26,0,0,0,26-26V108.57a26,26,0,0,0-26-26Z"/>
  <path class="cls-3" d="M150.62,101.37a4,4,0,0,1,4,4v45.86a4,4,0,0,1-4,4H104.76a4,4,0,0,1-4-4V105.37a4,4,0,0,1,4-4h45.86m0-22H104.76a26,26,0,0,0-26,26v45.86a26,26,0,0,0,26,26h45.86a26,26,0,0,0,26-26V105.37a26,26,0,0,0-26-26Z"/>
  <path class="cls-5" d="M128,3a125,125,0,0,1,88.39,213.39A125,125,0,0,1,39.61,39.61,124.18,124.18,0,0,1,128,3m0-3A128,128,0,1,0,256,128,128,128,0,0,0,128,0Z"/>
</svg>
