<?xml version="1.0" standalone="no"?>
<!DOCTYPE svg PUBLIC "-//W3C//DTD SVG 20010904//EN"
 "http://www.w3.org/TR/2001/REC-SVG-20010904/DTD/svg10.dtd">
<svg version="1.0" xmlns="http://www.w3.org/2000/svg"
 width="4230.000000pt" height="768.000000pt" viewBox="0 0 4230.000000 768.000000"
 preserveAspectRatio="xMidYMid meet">

<g transform="translate(0.000000,768.000000) scale(0.100000,-0.100000)"
fill="#9D2933" stroke="none">
<path d="M1560 7643 c-125 -21 -255 -88 -345 -178 -125 -124 -180 -269 -179
-470 0 -133 14 -195 66 -299 36 -71 135 -174 198 -206 163 -83 347 -91 495
-20 287 137 356 531 131 749 -31 30 -44 35 -93 38 -75 5 -116 -19 -144 -83
-27 -60 -19 -108 29 -169 29 -38 37 -57 40 -103 3 -47 0 -63 -20 -92 -50 -73
-124 -101 -217 -82 -115 24 -179 106 -189 240 -12 181 80 321 242 368 55 15
500 16 6717 13 l6658 -4 27 21 c51 38 69 71 69 129 0 61 -21 98 -76 130 -34
20 -53 20 -6709 21 -3671 1 -6686 -1 -6700 -3z"/>
<path d="M27361 7640 c-134 -32 -161 -189 -47 -274 l27 -21 6662 3 6662 4 69
-22 c58 -18 79 -32 126 -79 73 -73 95 -131 95 -256 0 -79 -4 -97 -28 -148 -34
-69 -79 -102 -160 -119 -136 -29 -245 54 -235 178 4 42 12 63 41 99 47 61 55
109 28 169 -25 57 -69 86 -132 86 -57 0 -99 -27 -151 -95 -113 -149 -117 -365
-10 -531 74 -114 188 -185 332 -206 228 -34 451 77 549 271 53 104 66 163 65
306 0 115 -3 139 -28 210 -39 114 -80 180 -157 256 -77 77 -172 128 -293 159
-79 20 -111 20 -6730 19 -3658 -1 -6666 -5 -6685 -9z"/>
<path d="M2600 6634 c0 -295 3 -314 64 -357 23 -16 45 -22 86 -22 41 0 63 6
86 22 52 37 64 76 64 207 l0 116 6811 0 c6263 0 6814 1 6845 16 107 51 109
210 4 264 -39 20 -43 20 -7000 20 l-6960 0 0 -266z"/>
<path d="M25738 6869 c-103 -54 -100 -213 6 -263 31 -15 582 -16 6845 -16
l6811 0 0 -117 c0 -104 3 -123 23 -157 58 -102 211 -98 261 8 13 29 16 75 16
300 l0 266 -6962 0 c-6913 -1 -6963 -1 -7000 -21z"/>
<path d="M505 6505 c-204 -45 -352 -157 -435 -330 -75 -157 -70 21 -70 -2350
0 -2375 -6 -2192 72 -2354 95 -199 295 -324 538 -338 297 -16 540 153 595 414
57 270 -71 511 -316 593 -92 32 -229 26 -314 -13 -82 -38 -159 -98 -178 -140
-71 -148 102 -283 231 -180 54 44 76 53 122 53 55 0 113 -31 141 -77 35 -56
34 -170 -1 -233 -59 -105 -211 -147 -362 -100 -93 29 -150 75 -190 157 l-33
68 0 2150 0 2150 27 57 c57 123 159 182 313 183 80 0 96 -3 150 -30 92 -46
133 -125 122 -233 -10 -97 -77 -162 -167 -162 -46 0 -68 9 -122 53 -73 58
-175 43 -226 -33 -20 -29 -23 -44 -20 -88 6 -67 40 -110 128 -163 84 -52 146
-69 242 -69 278 0 487 235 465 524 -11 146 -63 260 -158 351 -132 126 -358
183 -554 140z"/>
<path d="M41511 6505 c-247 -56 -408 -240 -428 -487 -18 -235 111 -435 328
-508 92 -32 229 -26 314 13 82 38 159 98 178 140 71 148 -102 283 -231 180
-54 -44 -76 -53 -122 -53 -55 0 -113 31 -141 77 -35 56 -34 170 1 233 59 105
211 147 362 100 93 -29 150 -75 190 -157 l33 -68 0 -2155 0 -2155 -33 -68
c-40 -82 -97 -128 -190 -157 -151 -47 -303 -5 -362 100 -35 63 -36 177 -1 233
28 46 86 77 141 77 46 0 68 -9 122 -53 129 -103 302 32 231 180 -19 42 -96
102 -178 140 -85 39 -222 45 -314 13 -217 -73 -343 -266 -327 -500 3 -47 12
-107 20 -133 76 -242 307 -390 586 -374 245 15 443 139 538 338 78 162 72 -22
72 2359 0 2381 6 2197 -72 2359 -71 148 -202 257 -373 311 -91 28 -254 36
-344 15z"/>
<path d="M1586 4908 c-8 -13 -33 -79 -57 -148 l-44 -125 0 -198 c0 -185 -1
-200 -19 -213 -11 -8 -27 -14 -36 -14 -31 0 -193 -60 -259 -96 -121 -66 -266
-200 -286 -264 -12 -38 109 -177 218 -250 71 -47 202 -106 282 -126 108 -27
110 -30 105 -176 -6 -160 -3 -228 10 -280 20 -80 83 -243 101 -262 17 -18 20
-17 111 52 167 125 296 281 314 378 4 20 16 46 26 56 17 17 28 19 77 13 31 -4
99 -24 151 -45 126 -50 225 -80 266 -80 48 0 56 22 44 112 -29 204 -139 455
-244 557 l-35 34 51 61 c91 109 195 352 218 515 14 90 9 127 -18 135 -24 8
-161 -32 -288 -83 -124 -49 -191 -60 -223 -34 -12 10 -26 38 -32 61 -14 64
-100 191 -177 263 -69 65 -217 179 -233 179 -5 0 -15 -10 -23 -22z m139 -526
c49 -103 135 -191 239 -243 44 -22 87 -39 96 -37 9 2 37 27 61 57 57 70 137
126 218 151 98 31 111 27 54 -19 -145 -114 -263 -323 -263 -466 0 -51 45 -179
88 -250 40 -67 127 -163 186 -206 36 -27 37 -29 14 -29 -34 0 -132 34 -177 62
-50 31 -117 94 -142 134 -11 19 -28 34 -36 34 -38 0 -167 -74 -228 -131 -74
-70 -140 -187 -151 -270 -4 -27 -10 -49 -14 -49 -5 0 -13 31 -20 69 -30 178
62 349 234 431 34 16 81 32 103 36 l42 6 -21 44 c-15 30 -29 45 -47 48 -77 15
-207 26 -381 31 -214 6 -479 30 -493 44 -19 19 144 37 463 51 129 6 279 16
332 22 l98 10 24 45 c17 30 21 45 13 47 -7 2 -32 9 -57 16 -212 58 -345 256
-310 459 15 88 23 96 32 31 5 -30 24 -88 43 -128z"/>
<path d="M40603 4862 c-171 -127 -299 -279 -322 -384 -6 -23 -20 -51 -32 -61
-32 -26 -99 -15 -223 34 -127 51 -264 91 -288 83 -27 -8 -32 -45 -18 -135 23
-163 127 -406 218 -515 l51 -61 -35 -34 c-105 -102 -215 -353 -244 -557 -12
-90 -4 -112 44 -112 41 0 140 30 266 80 52 21 120 41 151 45 49 6 60 4 77 -13
10 -10 22 -36 26 -56 18 -97 147 -253 314 -378 91 -69 94 -70 111 -52 18 19
81 182 101 262 13 52 16 120 10 280 -5 146 -3 149 105 176 80 20 211 79 282
126 109 73 230 212 218 250 -20 64 -165 198 -286 264 -66 36 -228 96 -259 96
-9 0 -25 6 -36 14 -18 13 -19 28 -19 213 l0 198 -44 125 c-44 127 -64 170 -80
170 -5 0 -45 -26 -88 -58z m47 -390 c35 -208 -97 -404 -310 -462 -25 -7 -50
-14 -57 -16 -8 -2 -4 -17 13 -47 l24 -45 98 -10 c53 -6 203 -16 332 -22 319
-14 482 -32 463 -51 -14 -14 -279 -38 -493 -44 -174 -5 -304 -16 -381 -31 -18
-3 -32 -18 -47 -48 l-21 -44 42 -6 c22 -4 69 -20 103 -36 172 -82 264 -253
234 -431 -7 -38 -15 -69 -20 -69 -4 0 -10 22 -14 49 -11 83 -77 200 -151 270
-61 57 -190 131 -228 131 -8 0 -25 -15 -36 -34 -25 -40 -92 -103 -142 -134
-45 -28 -143 -62 -177 -62 -23 0 -22 2 14 29 59 43 146 139 186 206 43 71 88
199 88 250 0 143 -118 352 -263 466 -57 46 -44 50 54 19 81 -25 161 -81 218
-151 24 -30 52 -55 61 -57 9 -2 52 15 96 37 144 72 264 231 281 369 3 28 9 49
13 47 5 -3 13 -36 20 -73z"/>
<path d="M3195 4320 l-470 -470 472 -472 473 -473 470 470 470 470 -472 473
-473 472 -470 -470z m770 -180 l290 -290 -295 -295 -295 -295 -292 292 -293
293 292 292 c161 161 295 293 298 293 3 0 136 -131 295 -290z"/>
<path d="M38164 4310 l-470 -469 470 -470 471 -471 470 470 470 470 -470 470
-470 469 -471 -469z m771 -181 l290 -291 -295 -289 c-162 -159 -297 -289 -300
-289 -3 0 -136 131 -295 290 l-290 290 290 290 c159 160 294 290 300 290 6 0
141 -131 300 -291z"/>
<path d="M2678 1389 c-23 -12 -46 -35 -58 -59 -19 -36 -20 -58 -20 -305 l0
-265 6961 0 c6402 0 6964 1 6995 16 107 51 109 210 4 264 -39 20 -44 20 -6850
20 l-6810 0 0 118 c0 137 -13 173 -76 209 -48 28 -97 28 -146 2z"/>
<path d="M39482 1383 c-64 -31 -77 -63 -80 -205 l-4 -128 -6810 0 -6811 0 -42
-24 c-101 -60 -96 -210 9 -260 31 -15 593 -16 6995 -16 l6961 0 0 268 c0 258
-1 268 -23 306 -39 69 -123 95 -195 59z"/>
<path d="M1465 1220 c-281 -61 -448 -295 -432 -606 10 -178 71 -320 188 -435
77 -77 172 -128 293 -159 79 -20 113 -20 6728 -20 4871 0 6661 3 6694 11 82
21 130 106 105 189 -14 46 -71 100 -109 101 -15 1 -3015 1 -6667 -1 l-6640 -2
-70 22 c-59 18 -79 31 -126 79 -73 74 -94 132 -94 256 0 79 4 97 28 148 34 69
79 102 160 119 136 29 245 -54 235 -178 -4 -42 -12 -63 -41 -99 -47 -61 -55
-109 -28 -169 36 -83 138 -113 212 -63 45 30 104 110 131 177 33 81 32 250 -1
333 -51 128 -167 240 -291 280 -63 21 -215 30 -275 17z"/>
<path d="M40615 1209 c-129 -26 -263 -127 -320 -240 -96 -188 -64 -410 79
-548 29 -29 45 -35 90 -39 72 -6 120 22 148 86 26 57 18 101 -30 166 -108 148
10 317 195 278 81 -17 126 -50 158 -117 53 -107 41 -266 -27 -366 -38 -56
-104 -102 -178 -124 -51 -15 -573 -16 -6722 -13 l-6667 3 -27 -21 c-94 -70
-96 -190 -5 -251 l34 -23 6707 0 6708 0 68 21 c105 32 182 77 255 149 115 114
176 257 186 434 18 346 -192 597 -512 611 -49 2 -112 0 -140 -6z"/>
</g>
</svg>
