<?xml version="1.0" encoding="utf-8"?>
<!-- Generator: Adobe Illustrator 25.0.0, SVG Export Plug-In . SVG Version: 6.00 Build 0)  -->
<svg version="1.1" id="Слой_1" xmlns="http://www.w3.org/2000/svg" xmlns:xlink="http://www.w3.org/1999/xlink" x="0px" y="0px"
	 viewBox="0 0 2400 2400" style="enable-background:new 0 0 2400 2400;" xml:space="preserve">
<style type="text/css">
	.st0{fill:#FFCA43;}
</style>
<g transform="translate(0.000000,2561.000000) scale(0.100000,-0.100000)">
	<path class="st0" d="M11897.6,24702.9c-205-119.7-327.5-213.3-503.6-383.9c-458.2-441.7-796.7-974.2-970.1-1516.3
		c-107.3-338.5-128-385.3-198.1-455.4c-74.3-74.3-156.9-105.9-295.8-117c-52.3-4.1-322-8.3-598.5-11
		c-553.1-5.5-694.9-19.3-1027.9-103.2c-363.3-92.2-692.1-244.9-865.5-403.2c-81.2-75.7-92.2-114.2-49.5-177.5
		c123.8-188.5,297.2-432.1,397.7-555.9c233.9-293.1,617.8-649.5,884.8-821.5c125.2-81.2,410-224.3,605.4-304.1
		c188.5-77.1,200.9-94.9,196.8-298.6c-2.8-227-82.6-511.9-231.2-833.8c-198.1-429.3-268.3-675.6-268.3-948
		c0-79.8,6.9-173.4,15.1-207.8c24.8-93.6,50.9-106,221.5-94.9c452.7,27.5,681.1,82.6,1292,309.6
		c602.7,224.3,1003.1,448.6,1380.1,773.3c75.7,66,141.7,119.7,145.9,119.7s53.7-39.9,110.1-89.4
		c383.9-337.1,804.9-576.5,1415.9-803.6s839.3-282.1,1292-309.6c115.6-8.3,147.2-5.5,174.7,12.4c49.5,31.6,67.4,137.6,59.2,346.7
		c-11,276.6-77.1,494-290.3,948c-122.5,261.4-203.6,565.5-206.4,777.4c-2.8,123.8,1.4,151.4,26.1,192.6c31.6,55,27.5,52.3,289,165.1
		c410,177.5,693.5,372.9,1037.5,715.5c220.2,218.8,383.9,415.5,551.8,664.6c60.5,88.1,115.6,161,122.5,161
		c24.8,0,96.3,114.2,96.3,151.4c0,72.9-213.3,232.5-459.6,344c-239.4,108.7-514.6,187.1-827,236.7c-151.4,24.8-255.9,28.9-694.9,33
		c-283.5,2.8-555.9,6.9-605.4,11c-170.6,15.1-282.1,75.7-349.5,191.3c-19.3,31.6-59.2,147.2-88.1,257.3
		c-67.4,240.8-114.2,363.3-232.5,595.8c-260.1,510.5-716.9,1055.4-1099.4,1311.3c-130.7,86.7-305.5,184.4-327.5,183
		C12014.6,24768.9,11958.2,24738.6,11897.6,24702.9z M12095.8,23128.8c20.6-24.8,49.5-158.2,89.4-408.7
		c100.4-620.6,122.5-982.4,85.3-1363.6c-60.5-624.7-1.4-897.1,247.7-1153.1c85.3-88.1,86.7-88.1,152.7-81.2
		c136.2,13.8,233.9,88.1,432.1,331.6c200.9,249.1,443.1,434.8,901.3,697.6c244.9,140.3,474.7,235.3,778.8,322
		c328.9,94.9,421,110.1,623.3,110.1c162.4-1.4,189.9-4.1,309.6-44c121.1-39.9,229.8-93.6,217.4-106c-2.8-2.8-119.7-55-258.7-114.2
		c-532.5-229.8-1063.6-485.7-1358.1-653.6c-638.5-364.6-1070.5-928.8-994.8-1298.9c34.4-170.6,119.7-273.8,419.7-513.2
		c388-308.2,682.5-593,639.8-619.2c-31.6-19.3-210.5-31.6-305.5-20.6c-184.4,20.6-261.4,56.4-813.2,383.9
		c-221.5,130.7-430.7,253.2-466.5,273.8c-106,61.9-145.9,103.2-196.8,209.1c-66,139-163.7,251.8-290.3,335.7
		c-119.7,78.4-210.5,104.6-326.1,94.9c-180.3-15.1-404.5-191.3-516-404.5c-63.3-123.8-115.6-183-209.1-235.3
		c-34.4-19.3-255.9-150-494-290.3s-478.8-275.2-536.6-300c-129.3-56.4-276.6-79.8-416.9-68.8c-191.3,15.1-191.3,5.5,17.9,217.4
		c101.8,101.8,293.1,272.4,425.2,378.4c293.1,233.9,412.8,356.4,452.7,463.7c35.8,96.3,38.5,246.3,6.9,353.6
		c-107.3,360.5-514.6,788.4-1010,1060.9c-291.7,161-875.1,440.3-1320.9,631.6l-280.7,121.1l104.6,49.5
		c268.3,123.8,484.3,132.1,884.8,34.4c495.4-121.1,807.7-260.1,1265.9-560c317.9-209.1,427.9-304.1,598.5-513.2
		c232.5-286.2,379.8-372.9,528.4-311c101.8,42.7,187.1,225.7,255.9,542.1c59.2,273.8,61.9,410,33,1329.2
		c-12.4,410,33,685.2,161,957.7C12009.1,23127.4,12055.9,23175.5,12095.8,23128.8z"/>
	<path class="st0" d="M4804.5,21679.9c-184.4-48.2-368.8-181.6-444.4-319.2c-74.3-136.2-82.6-213.3-79.8-707.3
		c2.8-599.9-9.6-656.3-225.7-974.2c-199.5-294.5-235.3-371.5-269.7-576.5c-8.3-49.5-24.8-118.3-35.8-152.7
		c-11-34.4-24.8-161-31.6-289c-19.3-333-55-441.7-185.8-562.8c-81.2-74.3-188.5-125.2-266.9-125.2c-52.3,0-67.4,6.9-111.5,53.7
		c-104.6,110.1-150,320.6-125.2,580.7c20.6,216,46.8,326.1,166.5,692.1c59.2,183,121.1,393.5,136.2,469.2
		c31.6,145.9,39.9,322,17.9,378.4c-31.6,78.4-143.1,133.5-238,115.6c-53.7-11-144.5-53.7-156.9-74.3c-19.3-31.6-60.5-13.8-75.7,34.4
		c-22,66-121.1,173.4-202.3,216c-114.2,61.9-214.7,83.9-349.5,77.1c-152.7-9.6-247.7-50.9-349.5-154.1
		c-107.3-111.5-148.6-203.6-158.2-363.3c-9.6-143.1-24.8-167.9-97.7-167.9c-55,0-111.5-55-167.9-161
		c-93.6-178.9-118.3-367.4-63.3-476.1c66-129.3,145.9-196.8,472-403.2c206.4-129.3,337.1-246.3,400.4-355
		c22-35.8,67.4-141.7,103.2-233.9c34.4-90.8,79.8-191.3,99.1-221.5c97.7-151.4,253.2-280.7,434.8-359.1
		c57.8-24.8,117-59.2,129.3-74.3c38.5-48.2,52.3-121.1,52.3-286.2c0-128,6.9-185.8,42.7-323.4c93.6-370.1,68.8-480.2-132.1-575.2
		c-101.8-49.5-126.6-49.5-217.4-4.1c-207.8,105.9-313.7,211.9-427.9,430.7c-145.9,280.7-198.1,451.3-282.1,917.8
		c-30.3,167.9-71.6,353.6-90.8,414.2c-77.1,244.9-249.1,416.9-415.5,416.9c-121.1-1.4-236.7-81.2-258.7-178.9
		c-11-49.5-26.1-52.3-56.4-8.3c-30.3,48.2-103.2,68.8-205,59.2c-268.3-24.8-536.6-249.1-634.3-529.8
		c-63.3-184.4-60.5-286.2,11-367.4c49.5-57.8,44-78.4-28.9-115.6c-94.9-49.5-139-140.3-139-289c0-243.5,133.5-474.7,320.6-557.3
		c122.5-55,207.8-66,656.3-90.8c374.3-19.3,476.1-56.4,732-264.2c173.4-140.4,326.1-225.7,458.2-258.7c38.5-9.6,143.1-22,233.9-26.1
		c161-9.6,169.2-11,297.2-74.3c163.7-78.4,271.1-172,315.1-273.8c45.4-104.6,63.3-399,45.4-726.5
		c-16.5-284.8-35.8-342.6-137.6-416.9c-57.8-41.3-59.2-41.3-134.8-24.8c-141.7,31.6-280.7,114.2-405.9,239.4
		c-225.7,225.7-370.1,444.4-575.2,876.5c-148.6,313.7-199.5,407.3-271.1,499.5c-148.6,188.5-370.1,276.6-514.6,203.6
		c-27.5-15.1-74.3-52.3-101.8-82.6c-45.4-49.5-57.8-79.8-83.9-196.8c-11-49.5-26.1-48.2-61.9,1.4c-64.7,90.8-254.6,110.1-378.4,37.2
		c-214.7-125.2-377-473.3-363.3-778.8c6.9-155.5,44-242.2,133.5-313.7c64.7-52.3,70.2-85.3,22-123.8
		c-49.5-39.9-75.7-96.3-75.7-167.9c1.4-218.8,158.2-470.6,355-566.9c90.8-45.4,94.9-45.4,277.9-44c167.9,1.4,209.1,6.9,440.3,60.5
		c199.5,46.8,289,60.5,414.2,66c191.3,6.9,272.4-11,473.3-101.8c271.1-123.8,309.6-133.5,509.1-134.8c99.1,0,255.9,2.8,350.9,5.5
		c140.3,4.1,181.6,1.4,224.3-17.9c66-28.9,104.6-108.7,106-217.4c0-70.2-92.2-741.7-103.2-752.7c-17.9-17.9-210.5-2.8-316.5,24.8
		c-361.9,90.8-602.7,218.8-1197.1,634.3c-151.4,106-349.5,207.8-449.9,231.2c-90.8,22-227,19.3-311-5.5
		c-130.7-39.9-183-114.2-202.3-287.6c-5.5-45.4-13.8-94.9-20.6-110.1c-22-60.5-82.6-101.8-181.6-126.6
		c-78.4-17.9-111.5-35.8-159.6-79.8c-70.2-63.3-132.1-181.6-155.5-295.8c-22-106-9.6-306.8,26.1-403.2
		c67.4-187.1,224.3-379.8,396.3-487.1c88.1-55,103.2-70.2,115.6-117c6.9-28.9,20.6-78.4,27.5-107.3c19.3-72.9,119.7-205,210.5-273.8
		c39.9-31.6,115.6-77.1,167.9-101.8c89.4-41.3,107.3-45.4,233.9-45.4c129.3,0,143.1,2.8,240.8,49.5
		c118.3,56.4,243.5,154.1,467.8,363.3c188.5,176.1,291.7,255.9,414.2,316.5c121.1,61.9,220.2,85.3,455.4,110.1
		c110.1,12.4,220.2,27.5,246.3,34.4c108.7,31.6,247.7,9.6,302.7-49.5c33-35.8,33-37.2,34.4-346.7c0-275.2,4.1-326.1,30.3-426.6
		c24.8-92.2,121.1-333,133.5-333c2.8,0,96.3,57.8,207.8,128c177.5,111.5,345.4,209.1,696.2,401.8l78.4,42.7l-169.2,126.6
		c-297.2,221.5-408.7,364.6-483,615.1c-67.4,227-49.5,507.7,38.5,617.8l31.6,38.5l71.6-35.8c121.1-61.9,213.3-78.4,484.3-90.8
		c389.4-16.5,462.3-46.8,880.6-370.1c114.2-88.1,249.1-178.9,315.1-211.9c112.8-56.4,121.1-57.8,249.1-57.8
		c125.2,0,137.6,2.8,235.3,50.9c128,63.3,221.5,143.1,290.3,250.4c57.8,89.4,67.4,152.7,30.3,207.8
		c-30.3,45.4-13.8,64.7,100.4,119.7c119.7,59.2,236.7,184.4,304.1,323.4c48.2,101.8,50.9,114.2,50.9,244.9
		c0,123.8-4.1,145.9-39.9,220.2c-60.5,121.1-198.1,253.2-333,316.5c-162.4,77.1-189.9,108.7-253.2,300
		c-52.3,159.6-154.1,227-322,213.3c-106-8.3-220.2-71.6-400.4-217.4c-82.6-68.8-231.2-189.9-330.2-269.7
		c-272.4-221.5-521.5-366-782.9-452.7c-144.5-48.2-260.1-56.4-416.9-28.9c-225.7,38.5-320.6,77.1-466.5,187.1
		c-213.3,161-280.7,243.5-280.7,350.9c0,67.4,27.5,115.6,110.1,189.9c96.3,86.7,162.4,106,399,119.7
		c216,12.4,276.6,27.5,449.9,115.6c283.5,141.7,432.1,154.1,843.5,70.2c339.9-68.8,491.2-72.9,616.4-15.1
		c183,85.3,331.6,317.9,333,524.2c0,72.9-41.3,139-94.9,151.4c-57.8,12.4-67.4,34.4-27.5,60.5c144.5,94.9,185.8,183,173.4,378.4
		c-12.4,206.4-99.1,410-238,551.8c-136.2,140.3-335.7,167.9-483,67.4l-52.3-35.8l-6.9,74.3c-9.6,88.1-37.2,133.5-108.7,173.4
		c-77.1,42.7-156.9,39.9-260.1-11c-165.1-83.9-255.9-216-461-674.2c-151.4-339.9-289-551.8-485.7-752.7
		c-107.3-110.1-239.4-184.4-381.1-213.3c-77.1-16.5-82.6-15.1-155.5,22c-194,101.8-279.3,323.4-239.4,630.2
		c31.6,244.9,118.3,472,229.8,601.3l48.2,56.4H4144c280.7,0,461,68.8,715.5,273.8c294.5,238,372.9,261.4,993.5,295.8
		c240.8,13.8,353.6,26.1,403.2,42.7c239.4,82.6,375.6,320.6,361.9,632.9c-8.3,196.8-71.6,295.8-189.9,295.8
		c-61.9,0-63.3,28.9-4.1,118.3c48.2,72.9,52.3,85.3,52.3,176.1c-1.4,140.3-71.6,279.3-213.3,422.4c-159.6,162.4-311,225.7-521.5,216
		c-103.2-4.1-128-9.6-177.5-41.3c-79.8-53.7-93.6-49.5-103.2,24.8c-11,103.2-97.7,170.6-216,170.6c-196.8,0-327.5-255.9-495.4-970.1
		c-86.7-374.3-129.3-505-232.5-715.5c-123.8-253.2-220.2-364.6-400.4-459.6c-77.1-41.3-83.9-42.7-147.2-27.5
		c-106,26.1-184.4,72.9-262.8,155.5c-93.6,97.7-141.7,203.6-151.4,324.7c-15.1,222.9,78.4,415.5,472,970.1
		c159.6,225.7,254.6,445.8,254.6,594.4c0,97.7,145.9,359.1,257.3,459.6c161,145.9,494,326.1,788.4,427.9
		c64.7,22,257.3,77.1,429.3,121.1c452.7,118.3,566.9,161,714.1,269.7c115.6,83.9,218.8,251.8,218.8,352.2
		c-1.4,147.2-107.3,258.7-247.7,258.7c-28.9,0-57.8,6.9-61.9,13.8c-5.5,8.3,19.3,46.8,55,86.7c90.8,103.2,121.1,192.6,122.5,353.6
		c1.4,126.6,0,134.8-50.9,229.8c-181.6,337.1-644,538-978.3,422.4c-68.8-23.4-167.9-110.1-246.3-211.9l-37.2-48.2l8.3,103.2
		c8.3,99.1,6.9,104.6-28.9,140.4c-20.6,20.6-60.5,44-88.1,52.3C5065.9,21707.4,4893.9,21703.2,4804.5,21679.9z"/>
	<path class="st0" d="M18872.5,21686.7c-23.4-6.9-60.5-28.9-81.2-49.5c-35.8-37.2-37.2-42.7-28.9-141.7l8.3-103.2l-37.2,48.2
		c-77.1,101.8-177.5,188.5-246.3,211.9c-112.8,39.9-243.5,42.7-381.1,9.6c-276.6-66-488.5-221.5-605.4-447.2
		c-39.9-75.7-44-96.3-44-207.8c0-156.9,28.9-242.2,118.3-353.6c37.2-45.4,63.3-89.4,59.2-94.9c-4.1-6.9-31.6-12.4-60.5-12.4
		c-140.4,0-246.3-111.5-247.7-258.7c0-128,130.7-306.8,295.8-403.2c130.7-77.1,250.4-118.3,590.3-206.4
		c463.7-119.7,579.3-159.6,840.7-290.3c265.6-133.5,425.2-251.8,522.9-388c92.2-129.3,144.5-250.4,144.5-331.6
		c0-184.4,83.9-363.3,342.6-729.3c272.4-386.6,386.7-624.7,386.7-804.9c0-232.5-176.1-455.4-404.5-514.6l-82.6-20.6l-78.4,41.3
		c-178.9,94.9-275.2,207.8-399,459.6c-103.2,210.5-145.9,341.2-232.5,715.5c-167.9,714.1-298.6,970.1-495.4,970.1
		c-118.3,0-205-67.4-216-170.6c-9.6-74.3-23.4-78.4-104.6-26.1c-49.5,33-75.7,38.5-177.5,42.7c-209.1,9.6-360.5-53.7-520.1-216
		c-141.7-143.1-211.9-282.1-213.3-422.4c0-90.8,4.1-103.2,52.3-176.1c59.2-89.4,57.8-118.3-4.1-118.3
		c-118.3,0-181.6-99.1-189.9-295.8c-13.8-312.3,122.5-550.4,361.9-632.9c49.5-16.5,162.4-28.9,403.2-42.7
		c621.9-34.4,697.6-56.4,997.6-297.2c255.9-206.4,385.3-257.3,677-268.3l180.3-6.9l52.3-71.6c199.5-265.6,282.1-758.2,169.2-1004.5
		c-46.8-101.8-93.6-150-194-202.3c-85.3-44-89.4-45.4-162.4-27.5c-144.5,31.6-269.7,104.6-383.9,221.5
		c-192.6,196.8-324.7,403.2-473.3,736.1c-167.9,374.3-222.9,472-324.7,572.4c-141.7,141.7-290.3,185.8-401.8,118.3
		c-72.9-44-105.9-99.1-105.9-178.9v-66l-78.4,45.4c-70.2,39.9-92.2,45.4-176.1,45.4c-72.9,0-111.5-8.3-162.4-33
		c-191.3-93.6-348.1-368.8-363.3-642.6c-12.4-195.4,28.9-283.5,173.4-378.4c39.9-26.1,30.3-48.2-27.5-60.5
		c-108.7-24.8-123.8-198.1-34.4-388c63.3-132.1,162.4-236.7,273.8-287.6c125.2-57.8,277.9-53.7,615.1,15.1
		c415.5,85.3,527,77.1,839.3-68.8c202.3-94.9,289-117,461-117c206.4,0,312.3-34.4,411.4-133.5c89.4-88.1,110.1-166.5,70.2-262.8
		c-30.3-68.8-99.1-139-258.7-258.7c-105.9-79.8-156.9-108.7-244.9-136.2c-129.3-41.3-319.2-75.7-411.4-75.7
		c-140.3,0-403.2,93.6-641.2,228.4c-145.9,83.9-311,206.4-569.7,423.8c-317.9,268.3-437.6,338.5-575.2,338.5
		c-156.9,0-242.2-61.9-291.7-216c-63.3-191.3-90.8-222.9-253.2-300c-134.8-63.3-273.8-195.4-333-316.5
		c-35.8-74.3-39.9-96.3-39.9-221.5c0-134.8,1.4-141.7,57.8-254.6c70.2-140.3,172-246.3,302.7-315.1
		c108.7-57.8,129.3-83.9,96.3-121.1c-39.9-42.7-28.9-112.8,28.9-203.6c68.8-107.3,162.4-187.1,290.3-250.4
		c97.7-48.2,110.1-50.9,235.3-50.9c128,0,136.2,1.4,249.1,57.8c66,33,200.9,123.8,315.1,211.9c419.7,324.7,487.1,353.6,880.6,371.5
		c282.1,12.4,335.7,22,473.3,85.3l93.6,42.7l26.1-30.3c125.2-155.5,114.2-531.1-24.8-810.5c-66-136.2-176.1-250.4-404.5-423.8
		c-105.9-79.8-188.5-151.4-184.4-158.2c4.1-5.5,78.4-49.5,166.5-96.3c183-96.3,474.7-268.3,670.1-394.9l133.5-86.7l27.5,45.4
		c41.3,64.7,107.3,243.5,133.5,357.8c17.9,75.7,23.4,167.9,24.8,394.9c0,209.1,5.5,304.1,16.5,326.1c9.6,16.5,45.4,39.9,79.8,52.3
		c68.8,27.5,140.3,24.8,491.2-12.4c383.9-42.7,502.2-100.4,857.2-427.9c229.8-210.5,359.1-312.3,470.6-367.4
		c88.1-42.7,101.8-45.4,238-45.4c137.6,0,150,2.8,249.1,49.5c181.6,86.7,363.3,286.2,379.8,414.2c12.4,92.2,37.2,126.6,134.8,184.4
		c161,93.6,328.9,298.6,394.9,484.3c35.8,96.3,48.2,297.2,26.1,403.2c-23.4,114.2-85.3,232.5-155.5,295.8
		c-48.2,44-81.2,61.9-161,81.2c-156.9,38.5-183,77.1-214.7,312.3c-19.3,141.7-123.8,218.8-316.5,228.4
		c-203.6,11-349.5-48.2-674.2-269.7c-586.2-401.8-785.7-506.4-1143.4-602.7c-123.8-33-309.6-49.5-330.2-30.3
		c-13.8,15.1-101.8,650.8-101.8,738.9c0,110.1,28.9,174.7,96.3,214.7c44,24.8,66,27.5,227,22c531.1-17.9,535.3-17.9,839.3,117
		c235.3,104.6,306.8,119.7,509.1,111.5c123.8-4.1,217.4-17.9,371.5-55c282.1-66,393.5-82.6,538-77.1c106,4.1,136.2,12.4,214.7,50.9
		c196.8,96.3,353.6,346.7,355,566.9c0,71.6-26.1,128-75.7,167.9c-19.3,15.1-34.4,37.2-34.4,49.5s33,53.7,74.3,93.6
		c90.8,85.3,118.3,163.7,118.3,327.5c0,243.5-100.4,494-261.4,656.3c-64.7,64.7-108.7,96.3-156.9,112.8
		c-130.7,44-269.7,17.9-326.1-60.5c-35.8-49.5-50.9-50.9-61.9-1.4c-26.1,117-38.5,147.2-83.9,196.8
		c-99.1,108.7-210.5,134.8-350.9,81.2c-198.1-75.7-279.3-180.3-509.1-646.7c-99.1-200.9-203.6-407.3-233.9-458.2
		c-83.9-143.1-243.5-348.1-368.8-474.7c-123.8-123.8-264.2-206.4-403.2-236.7c-74.3-16.5-75.7-16.5-137.6,24.8
		c-118.3,82.6-147.2,206.4-147.2,635.7c0,527,45.4,624.7,363.3,778.8c121.1,59.2,126.6,60.5,261.4,60.5
		c261.4,0,458.2,71.6,661.8,240.8c174.7,144.5,302.7,224.3,418.3,260.1c128,39.9,181.6,45.4,531.1,63.3
		c305.5,15.1,422.4,35.8,529.8,89.4c192.6,97.7,313.7,334.4,300,583.4c-8.3,136.2-42.7,202.3-136.2,257.3
		c-74.3,42.7-82.6,70.2-38.5,110.1c67.4,59.2,81.2,150,46.8,287.6c-72.9,280.7-276.6,503.6-542.1,594.4
		c-155.5,52.3-266.9,39.9-333-39.9l-37.2-44l-9.6,48.2c-33,154.1-231.2,238-386.7,163.7c-31.6-16.5-89.4-60.5-129.3-99.1
		c-117-118.3-187.1-295.8-240.8-616.4c-44-264.2-93.6-491.2-133.5-619.2c-92.2-289-232.5-551.8-353.6-663.2
		c-86.7-79.8-269.7-189.9-313.7-189.9c-52.3,0-183,56.4-232.5,100.4c-79.8,68.8-93.6,107.3-83.9,250.4c4.1,67.4,24.8,183,45.4,254.6
		c28.9,103.2,38.5,174.7,45.4,337.1c11,266.9,17.9,279.3,183,350.9c280.7,121.1,437.6,287.6,546.3,582
		c30.3,82.6,72.9,181.6,93.6,220.2c63.3,118.3,196.8,238,423.8,381.1c311,196.8,390.8,265.6,455.4,388
		c59.2,115.6,37.2,298.6-59.2,483c-56.4,105.9-112.8,161-167.9,161c-72.9,0-88.1,24.8-97.7,167.9c-9.6,159.6-50.9,251.8-158.2,363.3
		c-99.1,100.4-199.5,145.9-341.2,154.1c-132.1,8.3-238-13.8-344-70.2c-90.8-48.2-192.6-152.7-216-222.9
		c-15.1-48.2-56.4-66-75.7-34.4c-12.4,20.6-103.2,63.3-155.5,72.9c-66,13.8-159.6-13.8-200.9-57.8
		c-100.4-104.6-70.2-331.6,121.1-920.5c115.6-355,140.3-461,161-675.6c17.9-180.3,5.5-311-38.5-427.9
		c-86.7-231.2-249.1-266.9-456.8-99.1c-144.5,118.3-189.9,236.7-207.8,560c-6.9,121.1-19.3,254.6-26.1,295.8
		c-8.3,41.3-24.8,130.7-35.8,199.5c-31.6,174.7-77.1,272.4-242.2,516c-236.7,346.7-247.7,396.3-244.9,1008.6
		c4.1,487.1-5.5,564.2-79.8,700.4c-77.1,140.3-261.4,272.4-451.3,320.6C19116,21703.2,18941.3,21707.4,18872.5,21686.7z"/>
	<path class="st0" d="M11833,17933.1c-211.9-68.8-361.9-221.5-426.6-432.1c-35.8-121.1-30.3-294.5,15.1-412.8
		c61.9-159.6,207.8-304.1,370.1-370.1c64.7-26.1,104.6-30.3,229.8-30.3c178.9,0,260.1,24.8,390.8,123.8
		c273.8,205,330.2,613.7,123.8,888.9c-67.4,92.2-181.6,178.9-283.5,218.8C12141.2,17962,11941.7,17968.8,11833,17933.1z"/>
	<path class="st0" d="M10294.6,16908c-107.3-28.9-196.8-81.2-283.5-166.5c-199.5-198.1-250.4-488.5-128-734.8
		c205-410,748.5-485.7,1052.6-147.2c129.3,141.7,189.9,341.2,159.6,522.9c-55,320.6-317.9,546.3-631.6,543.5
		C10404.7,16925.9,10329,16917.6,10294.6,16908z"/>
	<path class="st0" d="M13415.3,16901.1c-110.1-35.8-185.8-83.9-266.9-169.2c-88.1-92.2-136.2-174.8-162.4-279.3
		c-57.8-217.4-2.8-430.7,152.7-599.9c128-137.6,280.7-205,462.3-205c258.7,0,473.3,136.2,584.8,367.4
		c49.5,106,50.9,110.1,50.9,272.4c0,158.2-1.4,169.2-45.4,260.1c-59.2,125.2-121.1,199.5-224.3,268.3
		C13806.1,16923.1,13590.1,16956.1,13415.3,16901.1z"/>
	<path class="st0" d="M11732.5,16419.5c-118.3-52.3-169.2-154.1-227-445.8c-71.6-359.1-159.6-481.6-426.6-582
		c-77.1-30.3-123.8-59.2-187.1-118.3c-104.6-99.1-155.5-191.3-218.8-408.7c-60.5-209.1-74.3-235.3-169.2-335.7
		c-177.5-185.8-378.4-258.7-927.4-339.9c-156.9-23.4-326.1-55-377-70.2c-235.3-72.9-246.3-225.7-33-437.6
		c101.8-100.4,216-166.5,350.9-200.9c57.8-15.1,173.4-24.8,378.4-28.9c518.7-12.4,617.8-52.3,976.9-394.9
		c282.1-269.7,418.3-357.8,655-423.8c152.7-42.7,653.6-53.7,838-19.3c279.3,52.3,444.4,147.2,734.8,426.6
		c356.4,341.2,496.7,404.5,897.1,405.9c485.7,0,666,53.7,861.4,258.7c188.5,195.4,167.9,345.4-55,414.2
		c-50.9,15.1-202.3,44-337.1,63.3c-571,82.6-782.9,155.5-960.4,330.2c-96.3,94.9-134.8,169.2-196.8,382.5
		c-56.4,196.8-99.1,275.2-194,368.8c-63.3,61.9-106,88.1-221.5,136.2c-271.1,115.6-338.5,216-425.2,646.7
		c-46.8,231.2-103.2,327.5-221.5,377C12171.5,16455.3,11805.5,16452.5,11732.5,16419.5z"/>
	<path class="st0" d="M8739.8,15765.9c-107.3-28.9-196.8-81.2-283.5-166.5c-199.5-198.1-250.4-488.5-128-734.8
		c205-410,748.5-485.7,1052.6-147.2c129.3,141.7,189.9,341.2,159.6,522.9c-55,320.6-317.9,546.3-631.6,543.5
		C8849.9,15783.8,8774.2,15775.5,8739.8,15765.9z"/>
	<path class="st0" d="M14970.2,15759c-110.1-35.8-185.8-83.9-266.9-169.2c-88.1-92.2-136.2-174.7-162.4-279.3
		c-57.8-217.4-2.8-430.7,152.7-599.9c128-137.6,280.7-205,462.3-205c258.7,0,473.3,136.2,584.8,367.4
		c49.5,106,50.9,110.1,50.9,272.4c0,158.2-1.4,169.2-45.4,260.1c-59.2,125.2-121.1,199.5-224.3,268.3
		C15361,15781,15145,15814.1,14970.2,15759z"/>
	<path class="st0" d="M10491.4,12947.9c17.9-438.9,210.5-828.3,538-1092.5c279.3-225.7,588.9-335.7,937-335.7
		c410,1.4,743,134.8,1029.2,411.4c243.5,235.3,386.6,503.6,443.1,832.5c22,132.1,27.5,338.5,8.3,338.5s-110.1-77.1-297.2-253.2
		c-97.7-92.2-203.6-185.8-233.9-209.1c-133.5-103.2-309.6-177.5-503.6-213.3c-134.8-24.8-727.9-24.8-844.9,0
		c-297.2,61.9-427.9,137.6-708.6,405.9c-178.9,172-331.6,297.2-361.9,297.2C10488.6,13129.5,10485.9,13067.6,10491.4,12947.9z"/>
	<path class="st0" d="M9840.6,12954.8c-26.1-1.4-119.7-11-206.4-19.3c-536.6-49.5-1360.8-220.2-2057.1-426.6
		c-2130-630.2-3899.5-1616.8-4712.7-2628.1c-269.7-335.7-437.6-660.5-520.1-1007.2c-31.6-134.8-35.8-183-37.2-394.9
		c0-255.9,11-323.4,81.2-498.1c57.8-143.1,122.5-235.3,262.8-375.6c152.7-152.7,280.7-236.7,491.2-323.4
		c304.1-125.2,659.1-177.5,919.2-137.6c305.5,48.2,483,185.8,646.7,498.1c209.1,399,521.5,780.2,1143.4,1393.9
		c926,913.6,2053,1846.6,3094.6,2562.1c397.7,272.4,1073.3,697.6,1329.2,835.2l71.6,38.5l-26.1,83.9
		c-34.4,111.5-67.4,287.6-67.4,355v53.7l-181.6-2.8C9971.3,12961.7,9866.7,12957.5,9840.6,12954.8z"/>
	<path class="st0" d="M13702.9,12866.7c-6.9-86.7-57.8-313.7-85.3-383.9c-5.5-15.1,9.6-31.6,50.9-55
		c311-170.6,1026.5-624.7,1443.4-915c994.8-693.5,2088.7-1605.8,2968-2475.4c641.2-634.3,934.3-990.7,1137.9-1381.5
		c89.4-173.4,200.9-315.1,300-382.5c279.3-191.3,788.4-187.1,1275.5,11c210.5,85.3,334.4,166.5,488.5,320.6
		c177.5,177.5,254.6,308.2,319.2,544.9c35.8,125.2,34.4,509.1,0,672.9c-189.9,888.9-990.7,1729.6-2397,2518
		c-1532.8,860-3841.7,1571.4-5250.7,1619.5l-242.2,8.3L13702.9,12866.7z"/>
	<path class="st0" d="M10231.3,12151.2c-499.5-291.7-1168.2-730.6-1656.7-1085.6c-1234.3-898.5-2683.2-2200.2-3301-2965.2
		c-140.3-173.4-293.1-405.9-357.8-544.9c-101.8-217.4-163.7-571-147.2-833.8c19.3-300,94.9-476.1,290.3-672.9
		c178.9-181.6,363.3-282.1,645.3-355c540.8-140.3,1071.9-20.6,1491.6,337.1c221.5,187.1,375.6,429.3,505,789.8
		c72.9,206.4,399,890.3,553.1,1162.7c671.5,1187.5,1739.2,2721.7,2483.6,3570.7l145.9,165.1l-88.1,79.8
		c-107.3,99.1-238,258.7-304.1,375.6c-28.9,48.2-55,88.1-59.2,88.1C10426.7,12262.7,10337.3,12211.8,10231.3,12151.2z"/>
	<path class="st0" d="M13492.4,12211.8c-90.8-151.4-167.9-249.1-289-370.1l-137.6-139l108.7-122.5
		c162.4-183,577.9-703.1,821.5-1030.6c766.4-1025.1,1519.1-2213.9,1919.5-3027.1c114.2-233.9,228.4-476.1,251.8-536.6
		s74.3-188.5,111.5-284.8c115.6-294.5,251.8-494,455.4-668.7c422.4-359.1,938.4-477.5,1488.8-339.9
		c480.2,121.1,831.1,433.4,915,818.7c15.1,67.4,22,172,23.4,302.7c1.4,459.6-108.7,771.9-415.5,1176.5
		c-323.4,425.2-990.7,1098-1717.2,1729.6c-989.3,861.4-1828.7,1494.3-2771.2,2091.5c-238,150-682.5,416.9-719.6,432.1
		C13524.1,12248.9,13508.9,12237.9,13492.4,12211.8z"/>
	<path class="st0" d="M10941.3,11461.8c-260.1-293.1-766.4-945.3-1120-1440.6c-621.9-872.4-1343-2029.6-1587.9-2546.9
		c-269.7-572.4-632.9-1532.8-747.2-1974.5c-37.2-144.5-44-399-13.8-536.6c96.3-456.8,390.8-832.5,804.9-1025.1
		c159.6-75.7,253.2-97.7,449.9-106c357.8-15.1,649.5,94.9,921.9,350.9c147.2,139,242.2,262.8,313.7,408.7
		c82.6,169.2,107.3,275.2,139,584.8c143.1,1435.1,469.2,3233.5,839.3,4623.3c52.3,200.9,167.9,639.8,255.9,976.9
		c86.7,337.1,162.4,621.9,165.1,635.7c5.5,16.5-28.9,39.9-141.7,96.3c-81.2,39.9-152.7,74.3-156.9,77.1
		C11058.3,11588.4,11003.3,11532,10941.3,11461.8z"/>
	<path class="st0" d="M12764.5,11521c-52.3-28.9-115.6-57.8-140.3-66l-44-15.1l55-211.9c30.3-115.6,154.1-584.8,275.2-1043
		c228.4-871,323.4-1260.4,437.6-1809.4c227-1096.7,429.3-2421.7,524.2-3431.7c24.8-268.3,128-474.7,356.4-707.3
		c283.5-291.7,594.4-421,976.9-404.5c338.5,12.4,601.3,136.2,868.2,407.3c265.6,269.7,401.8,594.4,403.2,957.7
		c0,196.8-13.8,266.9-130.7,623.3c-213.3,657.7-455.4,1264.5-699,1750.2c-249.1,499.5-858.6,1480.6-1403.5,2263.5
		c-466.5,668.7-1311.3,1743.4-1366.3,1739.2C12867.7,11571.9,12818.2,11548.5,12764.5,11521z"/>
	<path class="st0" d="M11500,11064.2c-44-169.2-162.4-623.3-265.6-1010c-202.3-766.4-257.3-988-360.5-1453
		c-330.2-1488.8-623.3-3512.9-626.1-4319.2c-1.4-319.2,12.4-427.9,82.6-642.6c194-595.8,759.5-1073.3,1381.5-1168.2
		c544.9-81.2,1052.6,83.9,1464,477.5c279.3,266.9,448.6,587.5,511.9,972.8s-49.5,1556.2-291.7,3009.3
		c-174.7,1054-345.4,1852.1-599.9,2813.9c-75.7,283.5-200.9,762.3-279.3,1065c-79.8,301.3-147.2,551.8-150,554.5
		c-4.1,4.1-45.4,0-93.6-6.9c-209.1-35.8-357.8-34.4-638.5,5.5l-55,8.3L11500,11064.2z"/>
</g>
</svg>
