<?xml version="1.0" standalone="no"?>
<!DOCTYPE svg PUBLIC "-//W3C//DTD SVG 20010904//EN"
 "http://www.w3.org/TR/2001/REC-SVG-20010904/DTD/svg10.dtd">
<svg version="1.0" xmlns="http://www.w3.org/2000/svg"
 width="876.000000pt" height="488.000000pt" viewBox="0 0 876.000000 488.000000"
 preserveAspectRatio="xMidYMid meet">

<g transform="translate(0.000000,488.000000) scale(0.100000,-0.100000)"
fill="#c40201" stroke="none">
<path d="M127 4820 c-6 -68 -19 -90 -46 -83 -13 3 -21 -2 -26 -16 -3 -12 -17
-29 -31 -37 l-24 -16 0 -459 c0 -318 3 -459 11 -459 6 0 19 5 30 11 16 8 25 7
37 -4 23 -20 91 -24 122 -7 14 8 43 19 65 25 27 7 41 16 43 30 6 28 21 45 43
45 23 0 23 -5 -1 86 -22 79 -20 89 21 143 24 31 24 53 -1 76 -25 23 -25 41 0
55 18 9 20 23 22 143 l3 132 230 6 c127 3 231 6 231 7 1 1 7 16 14 32 7 17 16
30 20 30 4 0 12 11 18 25 14 30 47 33 62 5 6 -11 19 -20 29 -20 10 0 30 -9 44
-20 14 -11 30 -20 36 -20 6 0 28 -9 49 -20 38 -20 54 -20 808 -18 l769 3 3 21
c2 13 -10 34 -29 55 -18 19 -38 49 -46 67 -7 17 -20 32 -27 32 -14 0 -113 73
-129 94 -4 6 -10 23 -13 38 -5 19 -14 29 -35 33 -15 4 -31 15 -34 26 -5 15
-16 19 -57 19 -49 0 -50 -1 -44 -26 14 -56 18 -84 12 -84 -15 0 -67 32 -90 55
-15 15 -36 25 -54 25 -17 0 -32 6 -36 15 -5 13 -125 15 -999 15 l-994 0 -6
-60z"/>
<path d="M3330 4774 c0 -91 3 -109 20 -131 11 -14 20 -40 20 -57 0 -23 9 -41
34 -65 l33 -32 184 4 c101 3 189 5 194 5 6 0 101 -2 213 -5 132 -3 202 -1 202
6 0 5 -9 13 -21 16 -14 5 -19 14 -17 28 4 30 43 35 58 8 9 -17 20 -21 60 -21
39 0 52 -4 60 -20 11 -20 19 -20 633 -18 l622 3 3 30 c5 36 98 133 125 127 20
-4 24 -47 4 -55 -20 -7 -70 -85 -62 -96 4 -8 165 -11 506 -11 442 0 500 2 506
16 3 8 -4 25 -16 38 -11 12 -21 33 -21 47 0 24 -52 89 -72 89 -7 0 -8 14 -4
38 5 33 2 42 -19 62 -18 17 -25 34 -25 62 l0 38 -712 -2 -713 -3 3 -24 c2 -14
22 -47 45 -74 l42 -49 50 7 c48 6 52 4 63 -19 6 -13 20 -27 31 -31 24 -7 27
-32 9 -70 -13 -28 -29 -31 -183 -26 -96 3 -112 10 -117 44 -3 25 -36 35 -49
15 -14 -20 -1 -59 27 -81 20 -15 22 -22 13 -33 -15 -18 -67 -17 -99 1 -14 8
-53 14 -91 15 -52 0 -70 4 -84 19 -9 11 -33 21 -54 23 -30 2 -39 9 -53 37 -10
19 -24 39 -33 43 -27 16 -17 59 25 109 24 29 40 58 40 73 l0 26 -690 0 -690 0
0 -106z"/>
<path d="M7054 4865 c-3 -8 -4 -54 -1 -102 4 -49 8 -126 9 -171 3 -70 7 -86
23 -94 24 -14 302 -3 321 13 7 6 22 8 34 4 12 -4 27 -2 34 5 19 15 230 8 250
-9 11 -9 20 -10 36 -1 15 8 25 8 34 0 8 -6 43 -13 80 -17 83 -7 91 6 44 74
-39 56 -74 141 -82 200 -3 23 -16 58 -29 77 l-22 35 -363 1 c-312 0 -363 -2
-368 -15z"/>
<path d="M8650 4873 c1 -5 14 -24 30 -43 35 -40 38 -65 9 -81 -20 -10 -21 -18
-18 -112 4 -114 -3 -137 -51 -157 -34 -14 -33 -9 -19 -84 11 -64 -1 -98 -41
-111 -25 -8 -28 -70 -3 -97 13 -15 14 -23 5 -43 -11 -23 -17 -25 -80 -25 -43
0 -75 -5 -88 -14 -19 -14 -19 -48 -24 -1858 l-5 -1843 -345 -3 c-208 -1 -348
-6 -354 -12 -6 -6 17 -34 67 -81 42 -39 77 -77 77 -85 0 -7 16 -29 35 -48 19
-20 35 -45 35 -56 0 -11 7 -23 16 -27 15 -5 49 16 163 101 86 66 184 125 206
126 36 0 84 -38 109 -88 22 -43 66 -92 93 -104 15 -6 50 -62 57 -90 l6 -28
115 0 115 0 0 2435 0 2435 -55 0 c-30 0 -55 -3 -55 -7z"/>
<path d="M6810 4804 c0 -16 13 -41 34 -65 39 -42 54 -98 37 -135 -11 -26 -3
-32 17 -12 7 7 12 39 12 74 0 62 -1 64 -50 114 -48 50 -50 50 -50 24z"/>
<path d="M3118 4723 c-18 -19 -28 -42 -30 -68 -3 -35 -8 -42 -38 -56 -19 -10
-46 -28 -58 -42 l-24 -25 21 -21 c19 -19 31 -21 109 -19 l87 3 3 89 c2 76 6
92 23 104 19 13 18 14 -16 38 -45 30 -46 30 -77 -3z"/>
<path d="M7240 4350 c-586 -5 -596 -5 -635 -27 -81 -43 -103 -78 -126 -194
-19 -99 -20 -134 -17 -719 5 -720 1 -693 93 -777 36 -33 71 -55 94 -60 48 -11
1313 -10 1374 0 38 7 59 19 103 60 87 82 86 71 91 772 4 498 2 606 -11 694
-24 156 -59 204 -176 239 -54 16 -150 17 -790 12z m11 -127 c17 -20 25 -235
10 -274 -9 -25 -13 -27 -103 -31 -128 -7 -193 -39 -245 -122 -31 -48 -42 -152
-43 -386 0 -141 -3 -171 -20 -207 -26 -58 -47 -78 -103 -97 -60 -20 -110 -20
-147 -1 l-30 16 0 467 c0 520 1 530 64 591 53 51 101 59 367 60 208 1 238 -1
250 -16z m711 -3 c39 -12 74 -31 91 -48 53 -55 57 -94 57 -589 0 -440 -1 -454
-20 -473 -15 -15 -33 -20 -76 -20 -81 0 -146 31 -184 88 l-30 45 0 171 c0 226
-12 331 -43 392 -28 56 -44 71 -107 104 -36 19 -65 24 -145 28 -76 3 -103 8
-112 20 -9 11 -13 55 -13 137 0 178 -22 165 275 165 214 0 251 -2 307 -20z
m-717 -445 l25 -24 0 -510 c0 -313 -4 -520 -10 -536 l-10 -26 -284 3 -284 3
-39 31 c-21 17 -45 44 -53 60 -18 37 -26 160 -11 178 6 7 39 16 74 19 35 3 96
15 135 26 172 48 200 109 209 464 5 194 8 226 24 253 25 41 40 53 86 70 61 21
110 18 138 -11z m285 14 c62 -13 107 -49 134 -109 18 -40 21 -72 26 -285 5
-239 5 -240 32 -287 16 -25 40 -56 54 -67 37 -29 139 -59 231 -67 43 -4 84
-11 91 -17 21 -16 15 -124 -9 -175 -18 -36 -32 -49 -78 -71 -55 -26 -58 -26
-325 -29 -241 -3 -270 -1 -287 14 -18 16 -19 41 -19 541 0 510 1 524 20 543
23 23 56 25 130 9z"/>
<path d="M4556 4318 c-14 -20 -16 -106 -16 -728 0 -778 4 -847 55 -920 36 -52
95 -89 161 -101 34 -6 294 -9 702 -7 642 3 647 3 687 25 22 12 58 39 79 62 68
70 68 75 73 906 l5 730 -22 17 c-30 24 -56 23 -74 -4 -14 -20 -16 -105 -16
-724 0 -484 -4 -718 -11 -757 -10 -47 -19 -64 -54 -96 -25 -23 -58 -42 -77
-46 -18 -3 -152 -5 -298 -3 l-265 3 0 145 0 145 75 7 c115 11 184 35 234 82
79 73 79 73 84 687 3 395 1 543 -8 558 -9 18 -19 22 -53 19 l-42 -3 -5 -530
-5 -530 -30 -60 c-34 -68 -70 -92 -154 -102 -38 -4 -57 -2 -76 11 l-25 16 0
588 c0 444 -3 591 -12 600 -7 7 -26 12 -43 12 -17 0 -36 -5 -43 -12 -9 -9 -12
-156 -12 -598 0 -688 11 -627 -115 -617 -85 8 -112 19 -147 62 -52 63 -52 64
-56 620 -2 345 -7 524 -14 532 -14 17 -53 16 -67 -1 -18 -21 -10 -1106 8
-1160 32 -96 121 -147 296 -170 l90 -12 3 -133 c2 -90 -1 -138 -9 -147 -9 -11
-64 -14 -287 -14 -255 0 -279 2 -316 20 -44 21 -81 67 -96 121 -6 21 -10 321
-10 765 0 695 -1 732 -18 747 -26 23 -58 21 -76 -5z"/>
<path d="M962 4304 c-22 -15 -23 -22 -21 -113 3 -133 -2 -141 -94 -141 -66 0
-76 3 -107 29 -35 28 -35 30 -35 109 0 65 -4 84 -19 101 -26 29 -62 27 -82 -5
-26 -39 -13 -224 19 -271 27 -40 113 -71 222 -80 39 -3 76 -10 83 -16 6 -5 12
-25 12 -43 0 -33 28 -74 51 -74 26 0 47 22 54 57 11 59 29 73 95 73 63 0 180
32 216 59 36 26 46 59 52 174 4 94 3 110 -13 127 -25 27 -60 25 -84 -5 -16
-21 -18 -36 -14 -79 7 -64 -16 -120 -58 -141 -16 -9 -56 -15 -92 -15 -90 0
-97 9 -97 138 0 78 -4 104 -16 116 -20 20 -44 20 -72 0z"/>
<path d="M1907 4309 c-16 -10 -18 -23 -16 -119 4 -137 2 -140 -98 -140 -81 0
-135 17 -152 48 -6 12 -11 55 -11 96 0 64 -3 77 -19 86 -31 16 -59 12 -74 -11
-23 -32 -11 -213 17 -255 27 -43 115 -74 226 -81 47 -3 90 -10 96 -14 6 -5 14
-25 17 -45 8 -47 23 -64 58 -64 32 0 49 23 49 67 0 42 17 53 80 53 56 0 170
28 206 50 11 7 30 27 42 44 19 28 22 46 22 139 0 95 -2 107 -19 117 -28 14
-57 12 -75 -6 -12 -11 -16 -35 -16 -88 0 -62 -3 -75 -22 -94 -32 -29 -71 -42
-132 -42 -84 0 -90 9 -87 134 2 72 -2 112 -10 122 -13 16 -56 18 -82 3z"/>
<path d="M2512 4304 c-26 -18 -30 -65 -6 -88 13 -14 64 -16 403 -16 440 0 412
6 419 -83 7 -92 14 -89 -274 -88 -354 2 -437 -21 -504 -140 l-25 -44 -3 -648
c-2 -485 0 -652 9 -663 14 -17 50 -18 73 -1 16 12 17 42 16 405 -1 381 0 392
20 412 19 19 32 20 309 20 250 0 292 2 305 16 21 20 20 37 -2 64 -18 22 -20
22 -305 21 -276 -2 -287 -1 -306 18 -23 23 -29 88 -11 122 10 18 24 19 309 19
276 0 299 1 314 18 26 28 22 67 -8 80 -18 8 -117 12 -316 12 l-289 0 -12 25
c-15 34 0 83 35 109 27 20 42 21 335 24 282 3 307 2 319 -14 10 -14 13 -94 13
-335 0 -317 0 -318 -22 -333 -18 -13 -53 -16 -174 -16 -125 0 -161 -3 -210
-20 -71 -25 -115 -65 -145 -134 -20 -45 -22 -67 -22 -187 2 -188 29 -248 139
-304 l59 -30 430 0 430 0 55 26 c75 35 115 88 139 181 35 137 6 316 -62 386
-62 65 -101 75 -304 81 -129 4 -186 10 -195 19 -10 10 -13 85 -12 333 0 307 1
322 19 336 17 12 72 13 326 11 l306 -3 36 -28 c45 -34 55 -68 33 -102 l-16
-25 -301 0 c-330 0 -359 -5 -359 -55 0 -50 29 -55 359 -55 299 0 300 0 315
-22 22 -31 20 -81 -3 -109 l-19 -24 -303 -1 -302 -2 -19 -26 c-22 -29 -17 -60
10 -71 9 -3 148 -6 309 -5 l293 1 26 -26 25 -25 -2 -394 c0 -217 2 -399 6
-405 8 -14 50 -14 76 -1 18 10 19 28 19 621 0 721 0 719 -85 805 -49 50 -53
52 -141 68 -70 13 -150 16 -338 16 -135 -1 -250 2 -256 5 -16 10 -13 140 4
154 10 9 124 13 411 14 339 2 397 4 405 17 13 20 12 57 0 81 -10 19 -31 19
-873 19 -765 0 -865 -2 -885 -16z m793 -1228 c15 -11 19 -27 20 -76 0 -91 2
-90 -242 -90 l-203 0 -16 25 c-13 20 -14 30 -5 58 26 78 78 96 277 97 113 0
155 -3 169 -14z m532 -14 c48 -25 63 -47 63 -91 0 -58 -11 -61 -226 -61 -116
0 -203 4 -215 10 -16 9 -19 22 -19 78 0 41 5 73 13 81 9 9 53 11 177 9 146 -4
170 -7 207 -26z m-523 -304 c18 -26 20 -65 6 -102 l-10 -26 -170 0 c-178 0
-227 9 -256 48 -17 22 -18 89 -1 95 6 3 103 6 214 6 198 1 202 1 217 -21z
m574 10 c7 -7 12 -25 12 -41 0 -82 -49 -99 -280 -95 l-175 3 -3 58 c-2 35 2
64 9 73 15 19 418 21 437 2z"/>
<path d="M557 3743 c-13 -12 -7 -72 9 -87 13 -13 46 -16 207 -16 181 0 194 -2
232 -23 43 -25 63 -64 64 -128 1 -67 -16 -76 -170 -87 -127 -9 -140 -11 -180
-38 -65 -43 -106 -112 -116 -193 -4 -36 -8 -195 -8 -353 0 -329 0 -330 68
-300 l38 17 2 315 c2 356 2 353 83 412 40 28 47 30 146 32 77 1 109 -3 122
-13 15 -13 17 -46 16 -373 -1 -265 2 -363 11 -374 14 -17 63 -19 75 -1 5 6 7
243 4 532 -5 518 -5 520 -28 561 -31 57 -49 71 -127 99 -63 23 -81 25 -255 25
-103 0 -190 -3 -193 -7z"/>
<path d="M1292 3727 c-29 -31 -28 -63 3 -83 23 -15 76 -16 539 -13 548 5 546
4 546 53 0 13 -10 32 -22 43 -23 21 -32 21 -534 22 l-511 1 -21 -23z"/>
<path d="M2258 3549 c-16 -9 -18 -32 -18 -243 0 -273 -6 -304 -73 -357 l-42
-34 -305 -6 c-188 -4 -318 -10 -340 -17 -19 -7 -48 -12 -63 -12 -20 0 -42 -13
-75 -44 -44 -42 -46 -46 -49 -107 -5 -78 15 -122 72 -161 61 -42 131 -48 565
-48 342 0 399 2 418 16 27 19 28 48 2 74 -19 19 -33 20 -454 20 -260 0 -445 4
-460 10 -51 19 -60 96 -13 122 16 10 113 15 357 19 269 5 346 9 390 23 75 22
123 72 155 160 24 67 25 77 25 322 0 240 -1 254 -19 264 -25 13 -51 12 -73 -1z"/>
<path d="M327 3494 c-22 -30 -59 -31 -112 -4 -22 11 -41 20 -42 20 -2 0 -3
-27 -3 -60 0 -74 -20 -100 -78 -100 -26 0 -45 7 -57 20 -10 11 -22 20 -27 20
-4 0 -8 -164 -8 -365 l0 -365 29 0 c44 0 61 -10 61 -35 0 -25 -17 -35 -61 -35
l-29 0 0 -829 c0 -758 1 -829 16 -835 16 -6 16 -8 0 -24 -27 -30 -19 -42 27
-42 37 0 48 6 82 40 21 22 44 40 50 40 6 0 29 -18 50 -40 21 -22 48 -40 60
-40 11 0 40 19 63 43 l42 43 -2 1104 -3 1105 -29 5 c-16 3 -34 14 -40 25 -6
11 -19 31 -28 44 -10 13 -18 29 -18 36 0 17 74 65 100 65 20 0 21 5 18 81 -3
69 -6 84 -23 95 -18 11 -22 10 -38 -12z"/>
<path d="M1442 3497 c-48 -16 -74 -33 -108 -69 l-44 -47 0 -98 c0 -84 3 -103
23 -135 37 -61 91 -92 182 -106 109 -16 353 -15 444 2 165 32 229 136 190 316
-16 76 -46 105 -140 135 -75 23 -93 25 -282 24 -180 0 -209 -2 -265 -22z m521
-107 c54 -24 80 -74 70 -137 -9 -54 -29 -81 -72 -93 -46 -13 -461 -13 -495 0
-51 19 -66 45 -66 115 0 57 3 69 25 89 41 38 80 44 291 45 181 1 206 -1 247
-19z"/>
<path d="M1200 2378 c-19 -21 -20 -34 -20 -333 0 -289 1 -313 18 -328 26 -23
58 -21 76 5 14 19 16 68 16 330 0 295 -1 309 -20 328 -26 26 -44 25 -70 -2z"/>
<path d="M3657 2394 c-4 -4 -7 -90 -7 -192 0 -159 3 -195 21 -256 27 -91 46
-116 111 -149 50 -26 61 -27 198 -28 174 0 214 -10 218 -54 6 -62 -8 -68 -191
-76 -91 -4 -184 -13 -206 -20 -54 -16 -99 -65 -124 -136 -19 -53 -21 -84 -25
-345 -3 -239 -1 -298 13 -350 24 -97 60 -147 130 -183 l58 -30 223 -3 c244 -4
264 0 264 47 0 57 -12 60 -280 63 -226 3 -247 5 -272 23 -33 24 -44 55 -28 84
10 20 17 21 264 21 158 0 265 4 285 11 28 10 31 15 31 50 0 28 -5 41 -20 49
-13 7 -113 10 -277 10 -253 -1 -258 -1 -275 20 -22 27 -22 39 -2 68 15 22 18
22 277 22 202 1 266 4 280 14 20 16 23 78 4 94 -8 7 -109 12 -281 14 -252 3
-268 4 -282 22 -20 28 -18 80 5 100 17 15 45 17 274 15 140 -1 259 1 265 5 6
3 13 20 17 37 13 58 8 59 -264 59 -135 0 -256 3 -269 7 -29 7 -46 47 -32 73
17 33 69 43 246 48 150 4 176 7 215 26 50 25 89 88 89 145 0 50 -39 120 -83
149 -36 24 -46 25 -220 30 -195 5 -229 12 -249 57 -20 45 -2 51 164 59 259 11
316 29 360 116 20 39 23 60 23 165 l0 120 -50 0 -50 0 -5 -107 c-5 -105 -6
-108 -38 -140 l-32 -33 -173 -3 c-100 -1 -178 2 -187 7 -12 8 -16 40 -20 143
l-5 133 -40 3 c-23 2 -44 0 -48 -4z"/>
<path d="M638 2359 c-17 -9 -18 -35 -18 -307 0 -219 3 -301 12 -310 7 -7 26
-12 43 -12 17 0 36 5 43 12 9 9 12 91 12 310 0 284 -1 298 -19 308 -25 13 -51
12 -73 -1z"/>
<path d="M908 2363 c-17 -4 -18 -55 -18 -892 0 -676 3 -890 12 -899 16 -16 73
-15 87 1 16 20 16 1764 0 1783 -11 14 -46 16 -81 7z"/>
<path d="M2550 2363 c-8 -3 -18 -11 -22 -17 -12 -17 -9 -71 4 -84 15 -15 973
-17 983 -2 13 21 9 91 -5 100 -16 10 -934 13 -960 3z"/>
<path d="M1622 2342 c-65 -21 -106 -59 -141 -132 -25 -52 -26 -64 -29 -242 -3
-182 -3 -187 18 -198 24 -13 71 -5 82 13 4 7 8 87 8 178 l0 166 29 40 c44 61
100 73 342 73 256 0 315 -16 334 -92 14 -57 3 -65 -98 -73 -238 -19 -304 -81
-317 -298 -3 -61 -11 -112 -18 -119 -7 -7 -52 -14 -109 -16 -158 -7 -217 -51
-252 -187 -20 -73 -21 -107 -21 -477 0 -383 1 -398 19 -408 31 -16 69 -12 81
9 6 13 10 163 10 418 l0 398 26 38 c16 24 32 37 42 35 15 -3 18 -37 22 -358 5
-339 7 -358 28 -412 30 -75 74 -113 148 -128 65 -14 163 -6 204 15 38 20 86
77 101 122 11 29 14 120 14 395 0 314 -2 359 -16 373 -15 15 -19 14 -47 -10
-31 -26 -32 -28 -32 -114 0 -119 -2 -121 -153 -121 -146 0 -147 1 -147 116 0
64 -5 94 -19 123 -15 29 -17 41 -8 50 7 7 66 11 179 11 146 0 176 -3 230 -21
134 -46 138 -62 138 -544 0 -348 1 -373 18 -388 24 -22 44 -21 71 1 22 17 22
17 18 412 -2 217 -9 419 -14 448 -12 67 -55 127 -118 166 -44 27 -61 31 -151
36 -63 4 -108 11 -118 19 -12 11 -16 33 -16 101 0 81 2 90 30 128 32 45 63 58
167 68 49 5 68 3 88 -10 23 -15 25 -23 25 -86 0 -63 2 -71 25 -86 21 -14 30
-14 55 -4 l30 12 0 131 c0 71 -5 170 -12 219 -11 82 -15 93 -50 133 -21 23
-57 53 -80 66 -42 23 -51 24 -303 26 -223 2 -268 0 -313 -15z m416 -1254 c15
-15 16 -287 2 -340 -17 -60 -49 -78 -139 -78 -72 0 -79 2 -104 28 -15 16 -32
44 -37 63 -15 50 -13 312 2 327 17 17 259 17 276 0z"/>
<path d="M7800 2335 c-24 -13 -25 -18 -30 -137 l-5 -123 -76 -3 c-70 -3 -77
-1 -102 24 -25 25 -27 32 -27 120 0 88 -1 94 -24 109 -22 15 -27 15 -56 0
l-32 -16 4 -118 c3 -109 5 -121 31 -160 35 -53 105 -85 205 -94 39 -3 77 -9
82 -12 6 -3 10 -21 10 -40 0 -41 24 -67 58 -63 22 3 28 10 37 53 11 54 23 61
108 64 64 2 164 39 191 72 30 36 46 107 46 208 0 87 -14 111 -63 111 -37 0
-47 -25 -47 -120 0 -77 -2 -83 -29 -111 -27 -27 -35 -29 -105 -29 -106 0 -110
6 -103 138 5 93 4 105 -14 123 -22 22 -26 23 -59 4z"/>
<path d="M6474 2315 c-14 -21 -16 -44 -12 -133 8 -178 49 -220 237 -243 41 -4
79 -13 85 -19 6 -6 15 -30 21 -53 8 -35 15 -43 36 -45 34 -4 57 20 65 68 6 34
10 38 43 44 20 3 50 6 67 6 17 0 61 9 98 21 52 16 73 29 94 57 25 33 27 43 31
152 4 142 -3 160 -59 160 -58 0 -70 -18 -70 -107 0 -84 -24 -139 -63 -147 -64
-13 -107 -13 -126 1 -19 13 -21 24 -21 123 0 119 -5 130 -64 130 -39 0 -47
-27 -40 -132 6 -87 5 -94 -15 -113 -17 -15 -35 -19 -74 -17 -109 4 -137 37
-137 160 0 60 -4 85 -16 96 -24 24 -61 20 -80 -9z"/>
<path d="M4785 2311 c-88 -22 -155 -81 -177 -156 -19 -65 -16 -252 5 -306 23
-61 71 -105 143 -131 55 -21 78 -22 328 -24 148 -2 280 -5 293 -9 l23 -5 0
-364 c0 -323 -2 -365 -16 -370 -9 -3 -96 -6 -194 -6 -204 0 -201 -1 -208 85
-4 47 -1 57 21 79 18 18 37 26 62 26 52 0 111 34 142 82 27 41 28 45 31 214 4
180 -2 214 -37 214 -10 0 -29 -8 -42 -18 -21 -18 -22 -25 -20 -140 1 -66 -3
-138 -9 -161 -12 -46 -51 -81 -90 -81 -50 0 -55 18 -55 196 0 145 -2 164 -19
183 -25 28 -67 27 -94 -2 -21 -22 -22 -33 -22 -188 0 -115 -4 -169 -12 -177
-20 -20 -72 -14 -96 11 -43 46 -53 91 -51 223 2 135 -4 154 -50 154 -47 0 -51
-13 -51 -167 0 -157 12 -233 43 -275 26 -35 93 -68 138 -68 19 0 45 -7 57 -16
19 -13 22 -24 22 -83 0 -39 -5 -72 -12 -79 -8 -8 -49 -12 -118 -12 -79 0 -111
-4 -128 -16 -26 -18 -28 -50 -6 -82 15 -22 17 -22 295 -22 174 0 288 -4 300
-10 26 -14 25 -75 -1 -118 -35 -57 -62 -62 -328 -62 l-239 0 -23 -25 -24 -25
21 -28 20 -27 177 -3 c393 -6 476 28 507 207 17 91 18 92 177 89 l135 -3 21
-85 c12 -47 31 -99 44 -117 30 -42 93 -71 183 -83 101 -13 455 -13 480 0 24
13 26 62 2 81 -12 11 -76 15 -272 19 -292 6 -297 7 -327 87 -16 41 -16 48 -3
72 l15 26 286 3 c305 2 299 1 312 54 5 20 1 33 -14 48 -17 17 -33 20 -118 20
-117 0 -132 8 -139 71 -9 84 15 112 108 124 51 6 111 45 128 83 22 46 30 109
32 245 2 152 -6 177 -56 177 -37 0 -45 -27 -45 -165 0 -133 -10 -175 -49 -214
-26 -26 -83 -28 -102 -4 -11 12 -14 57 -15 181 -1 159 -2 166 -24 184 -27 22
-39 23 -68 2 -21 -15 -22 -21 -22 -177 0 -189 -6 -207 -68 -207 -50 0 -90 34
-102 85 -6 22 -9 93 -9 158 1 101 -2 121 -17 138 -11 12 -28 19 -43 17 -36 -4
-44 -48 -39 -224 4 -135 7 -155 28 -193 30 -53 69 -77 140 -86 30 -4 67 -14
83 -21 25 -14 27 -19 27 -79 0 -94 -2 -95 -228 -95 -107 0 -191 4 -203 10 -18
10 -19 25 -19 360 0 376 0 379 53 380 12 1 137 2 277 4 304 3 356 12 426 81
50 50 64 89 71 210 9 158 -31 249 -132 300 l-60 30 -665 2 c-366 1 -678 -2
-695 -6z m599 -127 c24 -24 22 -110 -3 -124 -13 -6 -138 -10 -340 -10 l-321 0
-16 25 c-14 21 -14 30 -4 54 24 58 87 69 402 70 230 1 269 -1 282 -15z m761 2
c83 -25 116 -76 78 -118 -15 -17 -39 -18 -345 -18 -321 0 -328 0 -349 21 -17
17 -20 29 -16 61 9 70 -1 68 307 68 212 0 288 -3 325 -14z m-757 -258 c17 -17
15 -83 -2 -97 -10 -9 -93 -12 -294 -11 -313 1 -369 9 -390 55 -15 32 -15 31 4
49 13 14 59 16 343 16 241 0 330 -3 339 -12z m833 2 c45 -25 10 -84 -60 -99
-27 -6 -175 -11 -330 -11 -256 -2 -284 0 -302 16 -23 21 -25 67 -3 88 13 14
59 16 345 16 209 0 337 -4 350 -10z"/>
<path d="M2532 2118 c-7 -7 -12 -28 -12 -48 0 -54 12 -60 125 -60 65 0 105 -4
113 -12 7 -7 12 -37 12 -68 0 -67 24 -166 48 -199 22 -30 35 -38 90 -51 52
-13 72 -45 54 -85 -10 -23 -17 -25 -71 -25 -129 0 -219 43 -223 107 0 15 0 63
1 106 2 49 -2 83 -9 93 -15 17 -71 19 -88 2 -15 -15 -16 -237 -2 -288 12 -42
56 -86 96 -96 16 -4 35 -12 42 -17 8 -6 65 -13 128 -16 125 -7 136 -12 132
-66 -3 -29 -6 -30 -63 -38 -149 -20 -207 -36 -249 -70 -23 -19 -52 -56 -66
-83 -24 -48 -25 -54 -28 -333 -4 -309 -6 -301 53 -301 52 0 56 8 53 107 -2 65
1 95 11 107 12 14 49 16 342 16 327 0 328 0 343 -22 22 -31 20 -45 -9 -73
l-24 -25 -221 0 c-133 0 -229 -4 -241 -10 -14 -8 -19 -21 -19 -50 0 -52 3 -53
242 -48 182 4 196 5 248 30 55 25 80 51 115 118 16 29 20 64 23 206 5 199 -5
252 -63 326 -47 59 -80 75 -207 94 -57 9 -110 19 -118 24 -15 8 -19 64 -6 77
3 4 57 10 119 14 125 9 185 28 230 77 38 39 46 83 47 229 0 133 -10 160 -54
147 -45 -13 -50 -27 -50 -150 l-1 -116 -34 -29 c-38 -31 -105 -49 -185 -49
-108 0 -117 82 -12 111 76 21 110 85 122 229 4 41 11 81 17 88 6 8 41 12 109
12 120 0 138 7 138 58 0 21 -5 43 -12 50 -17 17 -969 17 -986 0z m605 -120
c20 -26 22 -65 7 -118 -21 -71 -43 -90 -104 -90 -70 0 -107 16 -119 52 -15 42
-14 141 1 156 17 17 202 16 215 0z m198 -778 c34 -17 45 -59 22 -78 -11 -9
-103 -12 -348 -10 l-334 3 -3 31 c-6 65 35 73 363 71 218 -2 276 -5 300 -17z
m23 -222 c20 -20 15 -76 -7 -88 -13 -6 -137 -10 -335 -10 -303 0 -317 1 -336
20 -24 24 -25 38 -4 68 15 22 16 22 343 22 241 0 330 -3 339 -12z"/>
<path d="M7320 1897 c-23 -12 -25 -18 -28 -94 -2 -48 -8 -85 -15 -91 -7 -7
-138 -11 -339 -13 -380 -3 -368 -6 -368 86 0 78 -46 110 -90 63 -18 -19 -20
-35 -20 -139 0 -132 22 -261 52 -299 43 -55 81 -66 275 -84 154 -15 197 -16
280 -5 68 8 148 10 272 4 202 -10 243 -10 476 0 94 4 211 2 260 -3 114 -12
155 1 155 48 0 64 37 61 -751 61 -393 0 -744 3 -781 7 -55 7 -73 13 -98 37
-32 30 -40 71 -18 93 9 9 202 12 808 12 l797 0 21 23 c27 29 28 58 3 81 -18
16 -51 18 -400 16 -368 -1 -381 0 -400 19 -18 18 -20 29 -15 83 5 55 3 66 -15
86 -25 26 -28 26 -61 9z"/>
<path d="M648 1488 l-28 -10 0 -448 0 -449 22 -15 c30 -21 44 -20 68 4 19 19
20 33 20 459 l0 440 -22 15 c-25 18 -23 18 -60 4z"/>
<path d="M1198 1479 c-17 -9 -18 -41 -18 -448 0 -412 1 -439 18 -454 23 -21
41 -21 70 -1 l22 15 0 434 c0 381 -2 435 -16 449 -18 18 -51 20 -76 5z"/>
<path d="M6461 1222 c-16 -30 -13 -57 7 -75 16 -14 43 -17 175 -17 143 0 159
-2 177 -20 24 -24 34 -62 26 -95 -11 -43 -46 -57 -163 -62 -179 -9 -213 -40
-213 -192 0 -168 55 -201 330 -201 136 0 150 5 150 51 0 47 -20 54 -185 59
-132 4 -156 8 -174 24 -27 24 -28 76 -2 107 18 22 29 25 133 30 142 8 178 22
207 81 31 65 30 177 -3 238 -41 77 -63 84 -273 89 -174 3 -182 2 -192 -17z"/>
<path d="M7075 1216 c-18 -27 -7 -69 20 -80 9 -3 86 -6 170 -6 151 0 154 0
185 -26 27 -23 31 -32 28 -67 -5 -65 -32 -78 -180 -86 -182 -10 -208 -34 -208
-188 0 -79 3 -93 26 -127 41 -59 75 -69 266 -74 144 -4 172 -2 193 12 32 21
32 49 -1 75 -24 19 -40 21 -176 21 -185 0 -208 9 -208 81 0 61 23 73 159 79
144 7 184 24 218 90 45 89 21 231 -48 282 -40 30 -92 38 -266 38 -160 0 -163
0 -178 -24z"/>
<path d="M7694 1227 c-3 -8 -4 -32 -2 -53 l3 -39 180 -3 c179 -2 179 -3 207
-29 30 -29 36 -65 17 -107 -16 -34 -28 -38 -162 -44 -109 -4 -121 -7 -157 -33
-45 -33 -60 -74 -59 -164 1 -73 7 -94 38 -134 33 -43 72 -52 262 -58 185 -6
209 -1 209 46 0 50 -18 56 -202 61 -190 6 -198 9 -198 80 0 68 13 74 152 80
149 6 180 19 211 88 28 64 28 160 0 224 -16 35 -32 52 -65 70 -40 21 -57 23
-236 26 -162 3 -193 1 -198 -11z"/>
<path d="M0 452 c0 -219 1 -230 19 -235 11 -3 27 -21 35 -41 11 -26 21 -36 37
-36 12 0 31 -8 41 -17 11 -10 40 -20 66 -23 39 -4 48 -9 50 -27 2 -14 -4 -26
-17 -33 -12 -6 -21 -15 -21 -20 0 -7 469 -9 1308 -8 l1307 3 3 37 c2 20 9 42
17 48 11 9 12 16 2 30 -9 15 -8 23 6 38 25 27 23 104 -3 127 -21 19 -27 69
-10 80 6 3 10 10 10 16 0 5 -275 9 -715 9 -702 0 -715 0 -735 -20 -12 -12 -33
-20 -55 -20 -19 0 -49 -9 -67 -20 -18 -11 -36 -20 -41 -20 -4 0 -27 18 -51 40
l-43 40 -374 2 -374 3 -5 95 -5 95 -50 3 c-27 2 -57 9 -65 17 -8 7 -27 17 -43
20 -15 4 -31 13 -35 20 -4 8 -42 15 -99 20 l-93 7 0 -230z"/>
<path d="M3215 388 c-5 -17 -15 -107 -15 -133 1 -75 13 -155 23 -155 16 -1 62
-42 76 -69 l12 -21 897 0 897 0 10 22 c15 32 31 33 60 4 l26 -26 747 2 746 3
10 33 c8 27 5 38 -12 62 -12 16 -22 41 -22 55 0 14 -9 35 -20 47 -15 17 -20
36 -20 79 0 42 -5 63 -21 83 l-20 26 -1050 0 -1049 0 0 -53 c0 -50 -3 -56 -40
-88 -34 -29 -40 -40 -40 -75 0 -50 -19 -71 -49 -55 -28 16 -38 14 -44 -9 -3
-11 -10 -20 -17 -20 -8 0 -11 18 -9 58 2 32 -2 67 -9 79 -18 32 -15 47 16 75
17 16 43 28 71 31 46 6 78 28 67 46 -11 17 -1215 15 -1221 -1z"/>
<path d="M6812 389 c2 -7 10 -15 17 -17 8 -3 12 1 9 9 -2 7 -10 15 -17 17 -8
3 -12 -1 -9 -9z"/>
<path d="M6843 353 c-4 -10 -13 -24 -20 -31 -17 -18 -16 -38 4 -73 15 -24 15
-32 3 -54 -10 -19 -11 -30 -2 -50 7 -14 15 -50 18 -80 8 -65 24 -73 24 -12 0
25 8 54 20 72 12 17 20 47 20 70 0 23 -8 53 -20 70 -11 17 -20 44 -20 62 0 37
-17 53 -27 26z"/>
<path d="M7325 355 c-19 -8 -36 -10 -47 -4 -16 8 -58 -1 -105 -23 -12 -6 -33
-8 -47 -4 -42 10 -76 -9 -76 -43 0 -20 -7 -34 -19 -41 -17 -8 -20 -24 -24 -97
-2 -49 -7 -98 -12 -110 l-7 -23 291 0 c160 0 291 1 291 3 0 1 -7 23 -14 49
-11 35 -32 63 -84 115 -59 58 -71 75 -77 113 -8 48 -21 81 -33 79 -4 0 -20 -7
-37 -14z"/>
</g>
</svg>
