<?xml version="1.0" standalone="no"?>
<!DOCTYPE svg PUBLIC "-//W3C//DTD SVG 20010904//EN"
 "http://www.w3.org/TR/2001/REC-SVG-20010904/DTD/svg10.dtd">
<svg version="1.0" xmlns="http://www.w3.org/2000/svg"
 width="1968.000000pt" height="2104.000000pt" viewBox="0 0 1968.000000 2104.000000"
 preserveAspectRatio="xMidYMid meet">

<g transform="translate(0.000000,2104.000000) scale(0.100000,-0.100000)"
fill="#000000" stroke="none">
<path d="M2625 18913 c-49 -24 -98 -62 -161 -124 l-91 -89 -75 39 c-91 47
-207 75 -288 69 -84 -6 -90 -14 -90 -118 0 -99 21 -182 70 -269 16 -30 30 -59
30 -66 0 -6 -35 -43 -79 -83 -65 -59 -87 -87 -125 -161 -25 -49 -46 -96 -46
-105 0 -22 56 -31 195 -31 104 0 126 3 166 23 25 12 50 22 55 22 21 0 53 -48
101 -150 51 -108 72 -136 96 -127 46 17 153 236 171 349 l10 66 56 7 c108 13
298 102 356 166 19 21 19 21 -16 50 -18 16 -68 43 -110 60 -86 36 -140 73
-140 96 0 9 10 37 23 62 19 40 22 62 22 161 0 63 -4 132 -8 153 -10 48 -29 48
-122 0z m-66 -219 c-33 -66 -41 -156 -20 -230 22 -76 26 -79 121 -79 72 -1 92
-4 129 -25 l44 -25 -99 -6 c-164 -10 -244 -51 -293 -151 -38 -77 -55 -164 -47
-238 l7 -55 -25 40 c-32 50 -49 131 -41 188 l7 43 -43 20 c-32 14 -66 19 -130
19 -77 0 -92 -3 -148 -32 l-63 -33 28 38 c34 45 48 56 99 83 59 32 144 30 219
-4 33 -15 60 -26 62 -25 1 2 5 15 9 29 7 30 -19 65 -160 219 -109 118 -199
229 -192 236 6 6 159 -121 269 -224 136 -127 169 -147 206 -124 10 7 7 19 -13
54 -48 85 -43 191 13 268 23 33 82 84 88 77 2 -1 -11 -30 -27 -63z"/>
<path d="M3502 18835 c-147 -32 -306 -144 -379 -267 -110 -183 -121 -435 -28
-624 142 -288 536 -366 770 -152 164 150 192 388 67 576 -43 66 -83 92 -139
92 -51 0 -96 -34 -113 -86 -15 -46 -7 -77 38 -138 34 -46 37 -56 37 -117 0
-59 -4 -73 -30 -110 -55 -77 -153 -106 -259 -75 -71 21 -126 69 -157 139 -34
75 -33 226 1 312 31 79 105 154 185 186 l60 24 7460 0 c7254 1 7461 1 7488 19
33 22 57 65 57 101 0 42 -30 94 -64 113 -29 16 -480 17 -7481 19 -6260 1
-7460 -1 -7513 -12z"/>
<path d="M4270 18115 l0 -226 25 -24 c13 -14 36 -25 50 -25 14 0 37 11 50 25
24 23 25 28 25 175 l0 150 7265 0 7266 0 24 25 c32 31 32 69 0 100 l-24 25
-7341 0 -7340 0 0 -225z"/>
<path d="M2901 18146 c-40 -42 -74 -51 -147 -37 -57 12 -67 11 -89 -3 -31 -20
-32 -54 -4 -112 23 -48 18 -66 -29 -116 -48 -52 -13 -74 145 -88 130 -12 198
-44 299 -142 l72 -69 4 -63 c3 -44 10 -71 27 -94 61 -87 199 -96 271 -18 19
21 25 40 28 90 4 60 2 65 -29 101 -43 48 -83 65 -159 65 -105 0 -240 81 -298
179 -18 30 -20 45 -15 145 3 61 1 127 -4 146 -11 44 -40 50 -72 16z"/>
<path d="M2501 17709 c-252 -49 -436 -225 -486 -464 -13 -61 -15 -1093 -15
-8145 0 -7991 0 -8075 20 -8107 22 -37 67 -63 107 -63 35 0 87 31 105 62 11
19 14 1458 18 8118 l5 8095 29 63 c36 77 105 142 184 173 83 33 227 33 297 1
93 -43 143 -112 152 -211 9 -103 -28 -181 -108 -221 -73 -38 -142 -24 -238 45
-88 64 -203 -6 -188 -115 7 -57 60 -110 156 -158 73 -36 78 -37 186 -37 108 0
113 1 186 37 242 120 329 410 199 668 -98 194 -364 307 -609 259z"/>
<path d="M3910 17714 c-145 -24 -217 -54 -271 -111 -43 -45 -55 -75 -36 -92
11 -8 158 -10 550 -9 l536 3 -102 43 c-272 116 -559 186 -677 166z"/>
<path d="M3568 17439 c-10 -5 -18 -18 -18 -27 0 -9 173 -190 386 -402 426
-426 392 -402 322 -225 -35 89 -144 299 -191 370 -49 73 -48 85 5 85 76 0 395
102 552 175 l71 33 -555 1 c-360 0 -561 -3 -572 -10z"/>
<path d="M3483 17352 c-30 -19 -33 -70 -33 -605 1 -539 1 -542 20 -506 64 121
159 408 186 557 l17 101 31 -24 c95 -72 338 -196 511 -260 l70 -26 -385 385
c-212 213 -390 386 -395 386 -6 0 -15 -4 -22 -8z"/>
<path d="M3300 17270 c-21 -21 -48 -57 -59 -78 -55 -108 -69 -276 -37 -432 23
-107 91 -314 147 -447 l44 -102 3 537 c1 295 0 543 -3 550 -9 25 -55 12 -95
-28z"/>
<path d="M2390 9150 l0 -7341 25 -24 c31 -32 69 -32 100 0 l25 24 0 7266 0
7265 150 0 c147 0 152 1 175 25 14 13 25 36 25 50 0 14 -11 37 -25 50 l-24 25
-226 0 -225 0 0 -7340z"/>
</g>
</svg>
