<svg id="Слой_1" data-name="Слой 1" xmlns="http://www.w3.org/2000/svg" xmlns:xlink="http://www.w3.org/1999/xlink" viewBox="0 0 2048 2048">
  <defs>
    <style>
      .cls-1, .cls-2 {
        fill: none;
      }

      .cls-2 {
        stroke: #000;
        stroke-linejoin: round;
        stroke-width: 10px;
      }

      .cls-3 {
        fill: url(#Асаноха);
      }
    </style>
    <pattern id="Асаноха" data-name="Асаноха" width="329.09" height="569.35" patternTransform="translate(62.21 22.32) rotate(-90) scale(0.2)" patternUnits="userSpaceOnUse" viewBox="0 0 329.09 569.35">
      <rect class="cls-1" width="329.09" height="569.35"/>
      <g>
        <polygon class="cls-2" points="493.63 474.35 493.63 664.35 329.08 759.35 164.54 664.35 164.54 474.35 329.08 379.35 493.63 474.35"/>
        <polygon class="cls-2" points="493.63 474.35 493.63 664.35 329.08 759.35 329.08 569.35 493.63 474.35"/>
        <polygon class="cls-2" points="329.08 569.35 329.08 759.35 164.54 664.35 164.54 474.35 329.08 569.35"/>
        <polygon class="cls-2" points="164.54 474.35 493.63 474.35 329.08 759.35 164.54 474.35"/>
      </g>
      <g>
        <polygon class="cls-2" points="164.54 474.35 164.54 664.35 -0.01 759.35 -164.54 664.35 -164.54 474.35 -0.01 379.35 164.54 474.35"/>
        <polygon class="cls-2" points="164.54 474.35 164.54 664.35 -0.01 759.35 -0.01 569.35 164.54 474.35"/>
        <polygon class="cls-2" points="-0.01 569.35 -0.01 759.35 -164.54 664.35 -164.54 474.35 -0.01 569.35"/>
        <polygon class="cls-2" points="-164.54 474.35 164.54 474.35 -0.01 759.35 -164.54 474.35"/>
      </g>
      <g>
        <polygon class="cls-2" points="658.18 189.68 658.18 379.68 493.63 474.68 329.09 379.68 329.09 189.68 493.63 94.67 658.18 189.68"/>
        <polygon class="cls-2" points="493.63 284.68 493.63 474.68 329.09 379.68 329.09 189.68 493.63 284.68"/>
        <polygon class="cls-2" points="329.09 189.68 658.18 189.68 493.63 474.68 329.09 189.68"/>
      </g>
      <g>
        <polygon class="cls-2" points="329.09 189.68 329.09 379.68 164.54 474.68 0 379.68 0 189.68 164.54 94.67 329.09 189.68"/>
        <polygon class="cls-2" points="329.09 189.68 329.09 379.68 164.54 474.68 164.54 284.68 329.09 189.68"/>
        <polygon class="cls-2" points="164.54 284.68 164.54 474.68 0 379.68 0 189.68 164.54 284.68"/>
        <polygon class="cls-2" points="0 189.68 329.09 189.68 164.54 474.68 0 189.68"/>
      </g>
      <g>
        <polygon class="cls-2" points="0 189.68 0 379.68 -164.55 474.68 -329.09 379.68 -329.09 189.68 -164.55 94.67 0 189.68"/>
        <polygon class="cls-2" points="0 189.68 0 379.68 -164.55 474.68 -164.55 284.68 0 189.68"/>
        <polygon class="cls-2" points="-329.09 189.68 0 189.68 -164.55 474.68 -329.09 189.68"/>
      </g>
      <g>
        <polygon class="cls-2" points="493.63 -95 493.63 95 329.08 190 164.54 95 164.54 -95 329.08 -190 493.63 -95"/>
        <polygon class="cls-2" points="493.63 -95 493.63 95 329.08 190 329.08 0 493.63 -95"/>
        <polygon class="cls-2" points="329.08 0 329.08 190 164.54 95 164.54 -95 329.08 0"/>
        <polygon class="cls-2" points="164.54 -95 493.63 -95 329.08 190 164.54 -95"/>
      </g>
      <g>
        <polygon class="cls-2" points="164.54 -95 164.54 95 -0.01 190 -164.54 95 -164.54 -95 -0.01 -190 164.54 -95"/>
        <polygon class="cls-2" points="164.54 -95 164.54 95 -0.01 190 -0.01 0 164.54 -95"/>
        <polygon class="cls-2" points="-0.01 0 -0.01 190 -164.54 95 -164.54 -95 -0.01 0"/>
        <polygon class="cls-2" points="-164.54 -95 164.54 -95 -0.01 190 -164.54 -95"/>
      </g>
    </pattern>
  </defs>
  <g>
    <rect class="cls-3" x="-0.75" y="-0.75" width="2049.5" height="2049.5" rx="0.75"/>
    <path d="M2048,0V2048H0V0H2048m0-1.5H0A1.5,1.5,0,0,0-1.5,0V2048a1.5,1.5,0,0,0,1.5,1.5H2048a1.5,1.5,0,0,0,1.5-1.5V0a1.5,1.5,0,0,0-1.5-1.5Z"/>
  </g>
</svg>
