<?xml version="1.0" standalone="no"?>
<!DOCTYPE svg PUBLIC "-//W3C//DTD SVG 20010904//EN"
 "http://www.w3.org/TR/2001/REC-SVG-20010904/DTD/svg10.dtd">
<svg version="1.0" xmlns="http://www.w3.org/2000/svg"
 width="2480.000000pt" height="3508.000000pt" viewBox="0 0 2480.000000 3508.000000"
 preserveAspectRatio="xMidYMid meet">

<g transform="translate(0.000000,3508.000000) scale(0.100000,-0.100000)"
fill="#ac5837" stroke="none">
<path d="M0 34378 l0 -703 55 -60 54 -60 1 763 0 762 -55 0 -55 0 0 -702z"/>
<path d="M170 34318 l0 -763 28 30 c16 17 126 141 245 277 l217 247 0 485 0
486 -245 0 -245 0 0 -762z"/>
<path d="M1800 34596 l0 -483 231 -264 c127 -145 238 -271 245 -279 12 -12 14
98 14 748 l0 762 -245 0 -245 0 0 -484z"/>
<path d="M2350 34318 l0 -763 25 25 c13 14 123 138 244 275 l220 250 1 488 0
487 -245 0 -245 0 0 -762z"/>
<path d="M3980 34596 l0 -483 231 -264 c127 -145 238 -271 245 -279 12 -12 14
98 14 748 l0 762 -245 0 -245 0 0 -484z"/>
<path d="M4530 34318 l0 -763 25 25 c13 14 123 138 244 275 l220 250 1 488 0
487 -245 0 -245 0 0 -762z"/>
<path d="M6160 34596 l0 -483 231 -264 c127 -145 238 -271 245 -279 12 -12 14
98 14 748 l0 762 -245 0 -245 0 0 -484z"/>
<path d="M6710 34318 l0 -763 25 25 c13 14 123 138 244 275 l220 250 1 488 0
487 -245 0 -245 0 0 -762z"/>
<path d="M8340 34596 l0 -483 231 -264 c127 -145 238 -271 245 -279 12 -12 14
98 14 748 l0 762 -245 0 -245 0 0 -484z"/>
<path d="M8890 34318 l0 -763 25 25 c13 14 123 138 244 275 l220 250 1 488 0
487 -245 0 -245 0 0 -762z"/>
<path d="M10530 34592 l0 -488 237 -269 c130 -149 240 -271 245 -273 4 -2 8
339 8 757 l0 761 -245 0 -245 0 0 -488z"/>
<path d="M11070 34319 c0 -418 4 -759 8 -757 5 2 118 127 250 278 l242 275 0
483 0 482 -250 0 -250 0 0 -761z"/>
<path d="M12710 34592 l0 -488 237 -269 c130 -149 240 -271 245 -273 4 -2 8
339 8 757 l0 761 -245 0 -245 0 0 -488z"/>
<path d="M13250 34319 c0 -418 4 -759 8 -757 5 2 118 127 250 278 l242 275 0
483 0 482 -250 0 -250 0 0 -761z"/>
<path d="M14890 34592 l0 -488 237 -269 c130 -149 240 -271 245 -273 4 -2 8
339 8 757 l0 761 -245 0 -245 0 0 -488z"/>
<path d="M15430 34319 c0 -418 4 -759 8 -757 5 2 118 127 250 278 l242 275 0
483 0 482 -250 0 -250 0 0 -761z"/>
<path d="M17070 34592 l0 -488 237 -269 c130 -149 240 -271 245 -273 4 -2 8
339 8 757 l0 761 -245 0 -245 0 0 -488z"/>
<path d="M17610 34319 c0 -418 4 -759 8 -757 5 2 118 127 250 278 l242 275 0
483 0 482 -250 0 -250 0 0 -761z"/>
<path d="M19250 34593 l1 -488 220 -250 c121 -137 231 -261 244 -275 l25 -25
0 763 0 762 -245 0 -245 0 0 -487z"/>
<path d="M19800 34318 c0 -650 2 -760 14 -748 7 8 118 134 245 279 l231 264 0
483 0 484 -245 0 -245 0 0 -762z"/>
<path d="M21430 34593 l1 -488 220 -250 c121 -137 231 -261 244 -275 l25 -25
0 763 0 762 -245 0 -245 0 0 -487z"/>
<path d="M21980 34318 c0 -650 2 -760 14 -748 7 8 118 134 245 279 l231 264 0
483 0 484 -245 0 -245 0 0 -762z"/>
<path d="M23610 34593 l1 -488 220 -250 c121 -137 231 -261 244 -275 l25 -25
0 763 0 762 -245 0 -245 0 0 -487z"/>
<path d="M24160 34318 c0 -650 2 -760 14 -748 7 8 118 134 245 279 l231 264 0
483 0 484 -245 0 -245 0 0 -762z"/>
<path d="M1800 32794 l0 -1239 63 -70 c34 -39 144 -164 245 -279 l182 -207 0
1238 0 1239 -241 274 c-132 151 -243 277 -245 279 -2 2 -4 -553 -4 -1235z"/>
<path d="M3980 32794 l0 -1239 63 -70 c34 -39 144 -164 245 -279 l182 -207 0
1238 0 1239 -241 274 c-132 151 -243 277 -245 279 -2 2 -4 -553 -4 -1235z"/>
<path d="M6160 32794 l0 -1239 63 -70 c34 -39 144 -164 245 -279 l182 -207 0
1238 0 1239 -241 274 c-132 151 -243 277 -245 279 -2 2 -4 -553 -4 -1235z"/>
<path d="M8340 32794 l0 -1239 63 -70 c34 -39 144 -164 245 -279 l182 -207 0
1238 0 1239 -241 274 c-132 151 -243 277 -245 279 -2 2 -4 -553 -4 -1235z"/>
<path d="M20043 33753 l-243 -277 0 -1239 0 -1238 245 278 245 278 0 1238 c0
680 -1 1237 -2 1237 -2 0 -112 -125 -245 -277z"/>
<path d="M22223 33753 l-243 -277 0 -1239 0 -1238 245 278 245 278 0 1238 c0
680 -1 1237 -2 1237 -2 0 -112 -125 -245 -277z"/>
<path d="M24403 33753 l-243 -277 0 -1239 0 -1238 245 278 245 278 0 1238 c0
680 -1 1237 -2 1237 -2 -1 -112 -125 -245 -277z"/>
<path d="M411 33748 l-240 -273 -1 -1239 c0 -735 4 -1236 9 -1230 5 5 115 130
245 278 l236 269 0 1233 c0 679 -2 1234 -5 1234 -2 0 -112 -123 -244 -272z"/>
<path d="M2592 33746 l-242 -276 2 -1236 3 -1236 243 276 242 276 -2 1236 -3
1236 -243 -276z"/>
<path d="M4772 33746 l-242 -276 2 -1236 3 -1236 243 276 242 276 -2 1236 -3
1236 -243 -276z"/>
<path d="M6952 33746 l-242 -276 2 -1236 3 -1236 243 276 242 276 -2 1236 -3
1236 -243 -276z"/>
<path d="M9132 33746 l-242 -276 2 -1236 3 -1236 243 276 242 276 -2 1236 -3
1236 -243 -276z"/>
<path d="M10530 32785 l1 -1240 220 -250 c121 -137 231 -261 245 -275 l24 -25
0 1236 0 1236 -231 264 c-127 145 -238 271 -245 279 -12 12 -14 -168 -14
-1225z"/>
<path d="M11313 33744 l-243 -277 0 -1233 c0 -679 2 -1234 4 -1234 4 0 392
438 464 523 l32 39 0 1229 c0 676 -3 1229 -7 1229 -5 0 -117 -124 -250 -276z"/>
<path d="M12710 32785 l1 -1240 220 -250 c121 -137 231 -261 245 -275 l24 -25
0 1236 0 1236 -231 264 c-127 145 -238 271 -245 279 -12 12 -14 -168 -14
-1225z"/>
<path d="M13493 33744 l-243 -277 0 -1233 c0 -679 2 -1234 4 -1234 4 0 392
438 464 523 l32 39 0 1229 c0 676 -3 1229 -7 1229 -5 0 -117 -124 -250 -276z"/>
<path d="M14890 32785 l1 -1240 220 -250 c121 -137 231 -261 245 -275 l24 -25
0 1236 0 1236 -231 264 c-127 145 -238 271 -245 279 -12 12 -14 -168 -14
-1225z"/>
<path d="M15673 33744 l-243 -277 0 -1233 c0 -679 2 -1234 4 -1234 4 0 353
394 464 523 l32 38 0 1229 c0 677 -3 1230 -7 1230 -5 0 -117 -124 -250 -276z"/>
<path d="M17070 32785 l1 -1240 220 -250 c121 -137 231 -261 245 -275 l24 -25
0 1236 0 1236 -231 264 c-127 145 -238 271 -245 279 -12 12 -14 -168 -14
-1225z"/>
<path d="M17853 33744 l-243 -277 0 -1233 c0 -679 2 -1234 4 -1234 4 0 353
394 464 523 l32 38 0 1229 c0 677 -3 1230 -7 1230 -5 0 -117 -124 -250 -276z"/>
<path d="M19250 32787 l0 -1237 243 -276 242 -276 3 1237 2 1236 -217 247
c-119 136 -229 260 -245 277 l-28 30 0 -1238z"/>
<path d="M21430 32787 l0 -1237 243 -276 242 -276 3 1237 2 1236 -217 247
c-119 136 -229 260 -245 277 l-28 30 0 -1238z"/>
<path d="M23610 32787 l0 -1237 243 -276 242 -276 3 1237 2 1236 -216 247
c-120 136 -230 260 -245 277 l-29 30 0 -1238z"/>
<path d="M0 32358 l0 -1237 46 -53 c26 -29 50 -57 55 -62 5 -6 9 521 9 1230
l0 1239 -55 60 -54 60 -1 -1237z"/>
<path d="M412 31187 l-242 -276 2 -1237 3 -1238 243 276 242 276 -2 1238 -3
1237 -243 -276z"/>
<path d="M1800 30228 l0 -1237 226 -258 c124 -142 235 -267 245 -278 19 -19
19 5 19 1220 l-1 1240 -215 245 c-118 135 -228 258 -244 275 l-30 30 0 -1237z"/>
<path d="M2592 31184 l-242 -276 0 -1240 0 -1239 109 123 c59 68 169 193 244
278 l137 155 0 1238 c0 680 -1 1237 -3 1237 -1 0 -111 -124 -245 -276z"/>
<path d="M3980 30228 l0 -1237 226 -258 c124 -142 235 -267 245 -278 19 -19
19 5 19 1220 l-1 1240 -215 245 c-118 135 -228 258 -244 275 l-30 30 0 -1237z"/>
<path d="M4772 31184 l-242 -276 0 -1240 0 -1239 109 123 c59 68 169 193 244
278 l137 155 0 1238 c0 680 -1 1237 -3 1237 -1 0 -111 -124 -245 -276z"/>
<path d="M6160 30228 l0 -1237 226 -258 c124 -142 235 -267 245 -278 19 -19
19 5 19 1220 l-1 1240 -215 245 c-118 135 -228 258 -244 275 l-30 30 0 -1237z"/>
<path d="M6952 31184 l-242 -277 0 -1240 0 -1241 34 40 c18 21 129 147 245
279 l211 240 0 1238 c0 680 -1 1237 -3 1237 -1 0 -111 -124 -245 -276z"/>
<path d="M8340 30228 l0 -1237 226 -258 c124 -142 235 -267 245 -278 19 -19
19 5 19 1220 l-1 1240 -215 245 c-118 135 -228 258 -244 275 l-30 30 0 -1237z"/>
<path d="M9132 31184 l-242 -277 0 -1240 0 -1241 34 40 c18 21 129 147 245
279 l211 240 0 1238 c0 680 -1 1237 -3 1237 -1 0 -111 -124 -245 -276z"/>
<path d="M10530 30223 l0 -1240 231 -264 c127 -145 238 -271 245 -279 12 -12
14 168 14 1225 l0 1240 -203 231 c-111 127 -221 252 -244 279 l-43 48 0 -1240z"/>
<path d="M11313 31182 l-243 -277 0 -1233 c0 -735 4 -1232 9 -1230 5 2 118
127 250 278 l241 275 0 1232 c0 678 -3 1233 -7 1233 -5 -1 -117 -125 -250
-278z"/>
<path d="M12710 30223 l0 -1240 231 -264 c127 -145 238 -271 245 -279 12 -12
14 168 14 1225 l0 1240 -203 231 c-111 127 -221 252 -244 279 l-43 48 0 -1240z"/>
<path d="M13493 31182 l-243 -277 0 -1233 c0 -735 4 -1232 9 -1230 5 2 118
127 250 278 l241 275 0 1232 c0 678 -3 1233 -7 1233 -5 -1 -117 -125 -250
-278z"/>
<path d="M14890 30223 l0 -1240 236 -269 c130 -148 240 -273 245 -278 5 -6 9
496 9 1230 l0 1239 -206 235 c-114 129 -224 255 -245 279 l-39 44 0 -1240z"/>
<path d="M15673 31182 l-243 -277 0 -1233 c0 -735 4 -1232 9 -1230 5 2 118
127 250 278 l241 275 0 1232 c0 678 -3 1233 -7 1233 -5 -1 -117 -125 -250
-278z"/>
<path d="M17070 30223 l0 -1240 236 -269 c130 -148 240 -273 245 -278 5 -6 9
496 9 1230 l0 1239 -206 235 c-114 129 -224 255 -245 279 l-39 44 0 -1240z"/>
<path d="M17853 31182 l-243 -277 0 -1233 c0 -735 4 -1232 9 -1230 5 2 118
127 250 278 l241 275 0 1232 c0 678 -3 1233 -7 1233 -5 -1 -117 -125 -250
-278z"/>
<path d="M19250 30225 l0 -1240 137 -155 c75 -85 185 -210 244 -278 l109 -123
0 1240 0 1239 -231 264 c-127 145 -237 270 -245 278 -12 12 -14 -165 -14
-1225z"/>
<path d="M20107 31263 c-96 -109 -204 -232 -241 -274 l-66 -76 2 -1237 3
-1237 243 276 242 277 0 1234 c0 679 -2 1234 -5 1234 -2 0 -83 -89 -178 -197z"/>
<path d="M21430 30225 l0 -1240 137 -155 c75 -85 185 -210 244 -278 l109 -123
0 1240 0 1239 -231 264 c-127 145 -237 270 -245 278 -12 12 -14 -165 -14
-1225z"/>
<path d="M22287 31263 c-96 -109 -204 -232 -241 -274 l-66 -76 2 -1237 3
-1237 243 276 242 277 0 1234 c0 679 -2 1234 -5 1234 -2 0 -83 -89 -178 -197z"/>
<path d="M23610 30225 l0 -1240 137 -155 c75 -85 185 -210 245 -278 l108 -123
0 1240 0 1239 -226 259 c-125 142 -235 267 -245 278 -19 19 -19 -9 -19 -1220z"/>
<path d="M24467 31263 c-96 -109 -204 -232 -241 -274 l-66 -76 2 -1237 3
-1237 243 276 242 277 0 1234 c0 679 -2 1234 -5 1234 -2 0 -83 -89 -178 -197z"/>
<path d="M0 29795 l0 -1240 55 -60 54 -60 0 1240 0 1240 -54 60 -55 60 0
-1240z"/>
<path d="M411 28626 l-241 -274 2 -1236 3 -1236 243 276 242 275 0 1235 c0
679 -2 1234 -4 1234 -2 0 -113 -123 -245 -274z"/>
<path d="M1800 27667 l0 -1232 206 -235 c114 -129 224 -255 245 -279 l39 -44
0 1239 0 1239 -238 272 c-130 149 -240 272 -244 272 -5 1 -8 -554 -8 -1232z"/>
<path d="M2593 28625 l-243 -276 0 -1237 1 -1237 41 45 c22 25 132 149 244
277 l204 232 -2 1236 -3 1236 -242 -276z"/>
<path d="M3980 27667 l0 -1232 206 -235 c114 -129 224 -255 245 -279 l39 -44
0 1239 0 1239 -238 272 c-130 149 -240 272 -244 272 -5 1 -8 -554 -8 -1232z"/>
<path d="M4773 28625 l-243 -276 0 -1237 1 -1237 41 45 c22 25 132 149 244
277 l204 232 -2 1236 -3 1236 -242 -276z"/>
<path d="M6160 27667 l0 -1232 206 -235 c114 -129 224 -255 245 -279 l39 -44
0 1239 0 1239 -238 272 c-130 149 -240 272 -244 272 -5 1 -8 -554 -8 -1232z"/>
<path d="M6953 28625 l-243 -276 0 -1237 1 -1237 41 45 c22 25 132 149 244
277 l204 232 -2 1236 -3 1236 -242 -276z"/>
<path d="M8340 27667 l0 -1232 206 -235 c114 -129 224 -255 245 -279 l39 -44
0 1239 0 1239 -238 272 c-130 149 -240 272 -244 272 -5 1 -8 -554 -8 -1232z"/>
<path d="M9133 28625 l-243 -276 0 -1237 1 -1237 41 45 c22 25 132 149 244
277 l204 232 -2 1236 -3 1236 -242 -276z"/>
<path d="M10530 27664 l0 -1239 216 -245 c118 -135 228 -258 244 -275 l30 -30
0 1236 0 1235 -241 274 c-132 151 -243 277 -245 279 -2 2 -4 -553 -4 -1235z"/>
<path d="M11313 28623 l-243 -277 0 -1235 0 -1236 29 30 c17 17 129 143 250
280 l220 250 1 1233 c0 677 -3 1232 -7 1232 -5 0 -117 -125 -250 -277z"/>
<path d="M12710 27664 l0 -1239 216 -245 c118 -135 228 -258 244 -275 l30 -30
0 1236 0 1235 -241 274 c-132 151 -243 277 -245 279 -2 2 -4 -553 -4 -1235z"/>
<path d="M13493 28623 l-243 -277 0 -1235 0 -1236 29 30 c17 17 129 143 250
280 l220 250 1 1233 c0 677 -3 1232 -7 1232 -5 0 -117 -125 -250 -277z"/>
<path d="M14890 27664 l0 -1239 216 -245 c118 -135 228 -258 244 -275 l30 -30
0 1236 0 1235 -241 274 c-132 151 -243 277 -245 279 -2 2 -4 -553 -4 -1235z"/>
<path d="M15673 28623 l-243 -277 0 -1235 0 -1236 29 30 c17 17 129 143 250
280 l220 250 1 1233 c0 677 -3 1232 -7 1232 -5 0 -117 -125 -250 -277z"/>
<path d="M17070 27664 l0 -1239 216 -245 c118 -135 228 -258 244 -275 l30 -30
0 1236 0 1235 -241 274 c-132 151 -243 277 -245 279 -2 2 -4 -553 -4 -1235z"/>
<path d="M17853 28623 l-243 -277 0 -1235 0 -1236 29 30 c17 17 129 143 250
280 l220 250 1 1233 c0 677 -3 1232 -7 1232 -5 0 -117 -125 -250 -277z"/>
<path d="M19250 27667 l0 -1238 204 -232 c112 -128 222 -252 244 -277 l41 -45
1 1237 0 1237 -226 258 c-124 142 -235 267 -245 278 -19 19 -19 -4 -19 -1218z"/>
<path d="M20038 28627 l-238 -272 0 -1239 0 -1239 39 44 c21 24 131 150 245
279 l206 235 0 1232 c0 678 -3 1233 -7 1232 -5 0 -115 -123 -245 -272z"/>
<path d="M21430 27667 l0 -1238 204 -232 c112 -128 222 -252 244 -277 l41 -45
1 1237 0 1237 -226 258 c-124 142 -235 267 -245 278 -19 19 -19 -4 -19 -1218z"/>
<path d="M22218 28627 l-238 -272 0 -1239 0 -1239 39 44 c21 24 131 150 245
279 l206 235 0 1232 c0 678 -3 1233 -7 1232 -5 0 -115 -123 -245 -272z"/>
<path d="M23611 27665 l0 -1240 230 -260 c126 -143 236 -267 244 -275 13 -12
15 138 15 1222 l0 1237 -226 258 c-124 142 -235 267 -245 278 -19 19 -19 -4
-18 -1220z"/>
<path d="M24398 28627 l-238 -272 0 -1239 0 -1239 39 44 c21 24 131 150 245
279 l206 235 0 1232 c0 678 -3 1233 -7 1232 -5 0 -115 -123 -245 -272z"/>
<path d="M1 27235 l0 -1240 54 -60 55 -60 0 1240 -1 1240 -54 60 -55 60 1
-1240z"/>
<path d="M413 26072 l-243 -277 0 -1239 c0 -738 4 -1236 9 -1230 5 5 115 130
245 278 l236 269 0 1239 c0 681 -1 1238 -2 1238 -2 0 -112 -125 -245 -278z"/>
<path d="M1800 25115 l0 -1240 137 -155 c75 -85 185 -210 245 -278 l108 -123
0 1240 0 1239 -226 259 c-125 142 -235 267 -245 278 -19 19 -19 -9 -19 -1220z"/>
<path d="M3980 25115 l0 -1240 137 -155 c75 -85 185 -210 245 -278 l108 -123
0 1240 0 1239 -226 259 c-125 142 -235 267 -245 278 -19 19 -19 -9 -19 -1220z"/>
<path d="M6160 25115 l0 -1240 63 -70 c34 -39 144 -164 245 -279 l182 -207 0
1240 0 1240 -226 258 c-125 142 -235 267 -245 278 -19 19 -19 -10 -19 -1220z"/>
<path d="M8340 25115 l0 -1240 63 -70 c34 -39 144 -164 245 -279 l182 -207 0
1240 0 1240 -226 258 c-125 142 -235 267 -245 278 -19 19 -19 -10 -19 -1220z"/>
<path d="M11325 26080 c-132 -150 -243 -278 -248 -285 -4 -8 -6 -568 -5 -1246
l3 -1233 240 273 c132 150 243 279 248 286 4 7 6 568 5 1246 l-3 1232 -240
-273z"/>
<path d="M13505 26080 c-132 -150 -243 -278 -248 -285 -4 -8 -6 -568 -5 -1246
l3 -1233 240 273 c132 150 243 279 248 286 4 7 6 568 5 1246 l-3 1232 -240
-273z"/>
<path d="M15678 26071 l-248 -282 0 -1235 c0 -771 4 -1233 9 -1229 12 7 473
532 484 550 4 7 6 568 5 1246 l-3 1232 -247 -282z"/>
<path d="M17858 26071 l-248 -282 0 -1235 c0 -771 4 -1233 9 -1229 12 7 473
532 484 550 4 7 6 568 5 1246 l-3 1232 -247 -282z"/>
<path d="M20042 26074 l-242 -276 0 -1240 0 -1239 108 123 c60 68 170 193 245
278 l137 155 0 1238 c0 680 -1 1237 -3 1237 -1 0 -112 -124 -245 -276z"/>
<path d="M22222 26074 l-242 -276 0 -1240 0 -1239 108 123 c60 68 170 193 245
278 l137 155 0 1238 c0 680 -1 1237 -3 1237 -1 0 -112 -124 -245 -276z"/>
<path d="M24402 26074 l-242 -276 0 -1240 0 -1239 108 123 c60 68 170 193 245
278 l137 155 0 1238 c0 680 -1 1237 -3 1237 -1 0 -112 -124 -245 -276z"/>
<path d="M2593 26070 l-242 -275 -1 -1240 0 -1240 24 25 c13 14 123 139 245
277 l221 253 -2 1237 -3 1238 -242 -275z"/>
<path d="M4773 26070 l-242 -275 -1 -1240 0 -1240 24 25 c13 14 123 139 245
277 l221 253 -2 1237 -3 1238 -242 -275z"/>
<path d="M6953 26070 l-242 -275 -1 -1240 0 -1240 24 25 c13 14 123 138 245
277 l221 252 -2 1238 -3 1237 -242 -274z"/>
<path d="M9133 26070 l-242 -275 -1 -1240 0 -1240 24 25 c13 14 123 138 245
277 l221 252 -2 1238 -3 1237 -242 -274z"/>
<path d="M10531 25105 l0 -1240 220 -250 c121 -137 231 -261 245 -275 l24 -25
0 1237 0 1238 -212 241 c-117 133 -227 258 -245 278 l-32 36 0 -1240z"/>
<path d="M12711 25105 l0 -1240 220 -250 c121 -137 231 -261 245 -275 l24 -25
0 1237 0 1238 -212 241 c-117 133 -227 258 -245 278 l-32 36 0 -1240z"/>
<path d="M14890 25106 l0 -1238 241 -274 c132 -151 242 -274 245 -274 2 0 4
556 4 1235 l0 1234 -221 253 c-122 139 -232 264 -245 278 l-24 25 0 -1239z"/>
<path d="M17070 25106 l0 -1238 241 -274 c132 -151 242 -274 245 -274 2 0 4
556 4 1235 l0 1234 -221 253 c-122 139 -232 264 -245 278 l-24 25 0 -1239z"/>
<path d="M19250 25107 l0 -1237 221 -253 c122 -138 232 -263 245 -277 l24 -25
0 1240 -1 1240 -220 250 c-121 138 -231 261 -244 275 l-25 25 0 -1238z"/>
<path d="M21430 25107 l0 -1237 221 -253 c122 -138 232 -263 245 -277 l24 -25
0 1240 -1 1240 -220 250 c-121 138 -231 261 -244 275 l-25 25 0 -1238z"/>
<path d="M23610 25107 l0 -1237 221 -253 c122 -138 232 -263 245 -277 l24 -25
0 1240 -1 1240 -220 250 c-121 138 -231 261 -244 275 l-25 25 0 -1238z"/>
<path d="M1 24675 l0 -1240 54 -59 55 -59 0 1240 0 1240 -55 59 -54 59 0
-1240z"/>
<path d="M413 23513 l-243 -277 0 -1239 0 -1238 245 278 245 278 0 1238 c0
680 -1 1237 -2 1237 -2 0 -112 -125 -245 -277z"/>
<path d="M1800 22557 l0 -1238 241 -274 c133 -151 243 -275 245 -275 2 0 4
556 4 1235 l0 1234 -226 258 c-124 142 -235 267 -245 278 -19 19 -19 -4 -19
-1218z"/>
<path d="M2593 23512 l-242 -277 -1 -1239 c0 -724 4 -1236 9 -1230 5 5 115
130 245 278 l236 269 0 1239 c0 681 -1 1238 -2 1237 -2 0 -112 -125 -245 -277z"/>
<path d="M3980 22557 l0 -1238 241 -274 c133 -151 243 -275 245 -275 2 0 4
556 4 1235 l0 1234 -226 258 c-124 142 -235 267 -245 278 -19 19 -19 -4 -19
-1218z"/>
<path d="M4773 23512 l-242 -277 -1 -1239 c0 -724 4 -1236 9 -1230 5 5 115
130 245 278 l236 269 0 1239 c0 681 -1 1238 -2 1237 -2 0 -112 -125 -245 -277z"/>
<path d="M6160 22557 l0 -1238 243 -276 242 -276 3 1237 2 1236 -226 258
c-125 141 -235 266 -245 277 -19 19 -19 -6 -19 -1218z"/>
<path d="M6953 23512 l-242 -277 -1 -1239 c0 -724 4 -1236 9 -1230 5 5 115
130 245 278 l236 269 0 1239 c0 681 -1 1238 -2 1237 -2 0 -112 -125 -245 -277z"/>
<path d="M8340 22557 l0 -1238 243 -276 242 -276 3 1237 2 1236 -226 258
c-125 141 -235 266 -245 277 -19 19 -19 -6 -19 -1218z"/>
<path d="M9133 23512 l-242 -277 -1 -1239 c0 -724 4 -1236 9 -1230 5 5 115
130 245 278 l236 269 0 1239 c0 681 -1 1238 -2 1237 -2 0 -112 -125 -245 -277z"/>
<path d="M11316 23510 l-246 -279 2 -1236 3 -1236 248 281 247 282 0 1234 c0
679 -2 1234 -4 1234 -2 0 -115 -126 -250 -280z"/>
<path d="M13496 23510 l-246 -279 2 -1236 3 -1236 248 281 247 282 0 1234 c0
679 -2 1234 -4 1234 -2 0 -115 -126 -250 -280z"/>
<path d="M15676 23510 l-246 -279 2 -1236 3 -1236 248 281 247 282 0 1234 c0
679 -2 1234 -4 1234 -2 0 -115 -126 -250 -280z"/>
<path d="M17856 23510 l-246 -279 2 -1236 3 -1236 248 281 247 282 0 1234 c0
679 -2 1234 -4 1234 -2 0 -115 -126 -250 -280z"/>
<path d="M19250 22552 l0 -1239 236 -269 c130 -148 240 -273 245 -278 5 -6 9
506 9 1230 l-1 1239 -244 278 -245 278 0 -1239z"/>
<path d="M20043 23515 l-243 -276 0 -1235 c0 -678 2 -1234 4 -1234 2 0 112
124 245 275 l241 274 -2 1236 -3 1236 -242 -276z"/>
<path d="M21430 22552 l0 -1239 236 -269 c130 -148 240 -273 245 -278 5 -6 9
506 9 1230 l-1 1239 -244 278 -245 278 0 -1239z"/>
<path d="M22223 23515 l-243 -276 0 -1235 c0 -678 2 -1234 4 -1234 2 0 112
124 245 275 l241 274 -2 1236 -3 1236 -242 -276z"/>
<path d="M23610 22552 l0 -1239 236 -269 c130 -148 240 -273 245 -278 5 -6 9
517 9 1230 l-1 1239 -244 278 -245 278 0 -1239z"/>
<path d="M24403 23515 l-243 -276 0 -1235 c0 -678 2 -1234 4 -1234 2 0 112
124 245 275 l241 274 -2 1236 -3 1236 -242 -276z"/>
<path d="M10530 22547 l0 -1237 243 -276 242 -275 3 1236 2 1236 -216 247
c-120 136 -230 260 -245 277 l-29 30 0 -1238z"/>
<path d="M12710 22547 l0 -1237 243 -276 242 -275 3 1236 2 1236 -216 247
c-120 136 -230 260 -245 277 l-29 30 0 -1238z"/>
<path d="M14890 22545 l0 -1235 243 -276 242 -275 3 1236 2 1236 -241 274
c-133 151 -243 275 -245 275 -2 0 -4 -556 -4 -1235z"/>
<path d="M17070 22545 l0 -1235 243 -276 242 -275 3 1236 2 1236 -241 274
c-133 151 -243 275 -245 275 -2 0 -4 -556 -4 -1235z"/>
<path d="M0 22123 l0 -1238 55 -63 55 -63 0 1238 0 1238 -55 63 -55 63 0
-1238z"/>
<path d="M413 20952 l-243 -277 0 -1240 c0 -1211 0 -1239 19 -1220 10 11 120
136 245 278 l226 259 0 1239 c0 681 -1 1239 -2 1238 -2 0 -112 -125 -245 -277z"/>
<path d="M1800 19994 l0 -1239 206 -235 c114 -129 224 -255 245 -279 l39 -44
0 1240 0 1240 -236 269 c-130 148 -240 273 -245 279 -5 5 -9 -497 -9 -1231z"/>
<path d="M3980 19994 l0 -1239 206 -235 c114 -129 224 -255 245 -279 l39 -44
0 1240 0 1240 -236 269 c-130 148 -240 273 -245 279 -5 5 -9 -497 -9 -1231z"/>
<path d="M6160 19995 l0 -1240 203 -231 c111 -127 221 -252 245 -279 l42 -48
0 1240 0 1240 -231 264 c-127 145 -238 271 -245 279 -12 12 -14 -168 -14
-1225z"/>
<path d="M8340 19995 l0 -1240 203 -231 c111 -127 221 -252 245 -279 l42 -48
0 1240 0 1240 -231 264 c-127 145 -238 271 -245 279 -12 12 -14 -168 -14
-1225z"/>
<path d="M20043 20953 l-243 -276 0 -1240 0 -1240 39 44 c21 24 131 150 245
279 l206 235 0 1237 c0 681 -1 1238 -2 1238 -2 0 -112 -125 -245 -277z"/>
<path d="M22223 20953 l-243 -276 0 -1240 0 -1240 39 44 c21 24 131 150 245
279 l206 235 0 1237 c0 681 -1 1238 -2 1238 -2 0 -112 -125 -245 -277z"/>
<path d="M24403 20953 l-243 -277 0 -1239 c0 -682 2 -1238 4 -1236 2 2 112
128 245 279 l241 275 0 1237 c0 681 -1 1238 -2 1238 -2 0 -112 -125 -245 -277z"/>
<path d="M2592 20947 l-242 -276 2 -1237 3 -1237 243 276 242 276 -2 1237 -3
1238 -243 -277z"/>
<path d="M4772 20947 l-242 -276 2 -1237 3 -1237 243 276 242 276 -2 1237 -3
1238 -243 -277z"/>
<path d="M6952 20947 l-242 -276 2 -1237 3 -1237 243 276 242 276 -2 1237 -3
1238 -243 -277z"/>
<path d="M9132 20947 l-242 -276 2 -1237 3 -1237 243 276 242 276 -2 1237 -3
1238 -243 -277z"/>
<path d="M10530 19985 l1 -1240 215 -245 c118 -135 228 -258 244 -275 l30 -30
0 1237 0 1237 -226 258 c-124 142 -235 267 -245 278 -19 19 -19 -5 -19 -1220z"/>
<path d="M11312 20944 l-242 -276 0 -1234 c0 -819 3 -1233 10 -1229 5 3 118
129 250 280 l240 273 0 1231 c0 677 -4 1231 -8 1231 -4 0 -117 -124 -250 -276z"/>
<path d="M12710 19985 l1 -1240 215 -245 c118 -135 228 -258 244 -275 l30 -30
0 1237 0 1237 -226 258 c-124 142 -235 267 -245 278 -19 19 -19 -5 -19 -1220z"/>
<path d="M13492 20944 l-242 -276 0 -1234 c0 -819 3 -1233 10 -1229 5 3 118
129 250 280 l240 273 0 1231 c0 677 -4 1231 -8 1231 -4 0 -117 -124 -250 -276z"/>
<path d="M14890 19985 l1 -1240 215 -245 c118 -135 228 -258 244 -275 l30 -30
0 1237 0 1237 -226 258 c-124 142 -235 267 -245 278 -19 19 -19 -5 -19 -1220z"/>
<path d="M15672 20944 l-242 -275 0 -1237 0 -1237 29 30 c17 17 129 143 250
280 l220 250 1 1233 c0 677 -3 1232 -8 1232 -4 0 -116 -124 -250 -276z"/>
<path d="M17070 19985 l1 -1240 215 -245 c118 -135 228 -258 244 -275 l30 -30
0 1237 0 1237 -226 258 c-124 142 -235 267 -245 278 -19 19 -19 -5 -19 -1220z"/>
<path d="M17852 20944 l-242 -275 0 -1237 0 -1237 29 30 c17 17 129 143 250
280 l220 250 1 1233 c0 677 -3 1232 -8 1232 -4 0 -116 -124 -250 -276z"/>
<path d="M19250 19985 l0 -1236 243 -276 242 -276 3 1237 2 1237 -241 275
c-132 151 -243 274 -245 274 -2 0 -4 -556 -4 -1235z"/>
<path d="M21430 19985 l0 -1236 243 -276 242 -276 3 1237 2 1237 -241 275
c-132 151 -243 274 -245 274 -2 0 -4 -556 -4 -1235z"/>
<path d="M23610 19985 l0 -1236 243 -276 242 -276 3 1237 2 1237 -241 275
c-132 151 -243 274 -245 274 -2 0 -4 -556 -4 -1235z"/>
<path d="M1 19555 l0 -1240 54 -60 55 -60 0 1240 0 1240 -55 60 -54 60 0
-1240z"/>
<path d="M413 18392 l-243 -277 0 -1239 0 -1239 42 49 c24 26 134 152 246 278
l202 230 0 1238 c0 681 -1 1238 -2 1238 -2 -1 -112 -126 -245 -278z"/>
<path d="M1800 17436 l0 -1238 241 -274 c132 -151 242 -274 245 -274 2 0 4
555 4 1234 l0 1234 -231 263 c-127 145 -237 271 -245 279 -12 12 -14 -166 -14
-1224z"/>
<path d="M3980 17436 l0 -1238 241 -274 c132 -151 242 -274 245 -274 2 0 4
555 4 1234 l0 1234 -231 263 c-127 145 -237 271 -245 279 -12 12 -14 -166 -14
-1224z"/>
<path d="M6160 17436 l0 -1238 241 -274 c132 -151 242 -274 245 -274 2 0 4
555 4 1234 l0 1234 -231 264 c-127 145 -238 270 -245 278 -12 12 -14 -169 -14
-1224z"/>
<path d="M8340 17436 l0 -1238 241 -274 c132 -151 242 -274 245 -274 2 0 4
555 4 1234 l0 1234 -231 264 c-127 145 -238 270 -245 278 -12 12 -14 -169 -14
-1224z"/>
<path d="M20043 18394 l-243 -277 0 -1233 c0 -679 2 -1234 4 -1234 3 0 113
123 245 274 l241 274 -2 1236 -3 1236 -242 -276z"/>
<path d="M22223 18394 l-243 -277 0 -1233 c0 -679 2 -1234 4 -1234 3 0 113
123 245 274 l241 274 -2 1236 -3 1236 -242 -276z"/>
<path d="M24403 18394 l-243 -277 0 -1233 c0 -679 2 -1234 4 -1234 3 0 113
123 245 274 l241 274 -2 1236 -3 1236 -242 -276z"/>
<path d="M2591 18386 l-241 -274 2 -1236 3 -1236 243 276 242 276 0 1234 c0
679 -2 1234 -4 1234 -3 0 -113 -123 -245 -274z"/>
<path d="M4771 18386 l-241 -274 2 -1236 3 -1236 243 276 242 276 0 1234 c0
679 -2 1234 -4 1234 -3 0 -113 -123 -245 -274z"/>
<path d="M6951 18386 l-241 -274 2 -1236 3 -1236 243 276 242 276 0 1234 c0
679 -2 1234 -4 1234 -3 0 -113 -123 -245 -274z"/>
<path d="M9131 18386 l-241 -274 2 -1236 3 -1236 243 276 242 276 0 1234 c0
679 -2 1234 -4 1234 -3 0 -113 -123 -245 -274z"/>
<path d="M10530 17427 l0 -1238 241 -274 c133 -151 243 -275 245 -275 2 0 4
556 4 1235 l0 1234 -221 253 c-122 139 -232 264 -245 278 l-24 25 0 -1238z"/>
<path d="M11312 18384 l-242 -275 0 -1237 0 -1237 29 30 c15 17 128 144 250
283 l221 253 0 1229 c0 677 -4 1230 -8 1230 -5 0 -117 -124 -250 -276z"/>
<path d="M12710 17427 l0 -1238 241 -274 c133 -151 243 -275 245 -275 2 0 4
556 4 1235 l0 1234 -221 253 c-122 139 -232 264 -245 278 l-24 25 0 -1238z"/>
<path d="M13492 18384 l-242 -275 0 -1237 0 -1237 29 30 c15 17 128 144 250
283 l221 253 0 1229 c0 677 -4 1230 -8 1230 -5 0 -117 -124 -250 -276z"/>
<path d="M14890 17427 l0 -1238 216 -247 c120 -136 230 -260 245 -277 l29 -30
0 1237 0 1237 -221 253 c-122 139 -232 264 -245 278 l-24 25 0 -1238z"/>
<path d="M15672 18384 l-242 -275 0 -1237 0 -1237 29 30 c15 17 128 144 250
283 l221 253 0 1229 c0 677 -4 1230 -8 1230 -5 0 -117 -124 -250 -276z"/>
<path d="M17070 17427 l0 -1238 216 -247 c120 -136 230 -260 245 -277 l29 -30
0 1237 0 1237 -221 253 c-122 139 -232 264 -245 278 l-24 25 0 -1238z"/>
<path d="M17852 18384 l-242 -275 0 -1237 0 -1237 29 30 c15 17 128 144 250
283 l221 253 0 1229 c0 677 -4 1230 -8 1230 -5 0 -117 -124 -250 -276z"/>
<path d="M19250 17426 l0 -1234 243 -276 242 -276 3 1236 2 1236 -241 274
c-132 151 -242 274 -245 274 -2 0 -4 -555 -4 -1234z"/>
<path d="M21430 17426 l0 -1234 243 -276 242 -276 3 1236 2 1236 -241 274
c-132 151 -242 274 -245 274 -2 0 -4 -555 -4 -1234z"/>
<path d="M23610 17426 l0 -1233 243 -277 242 -276 3 1236 2 1236 -241 274
c-132 151 -242 274 -245 274 -2 0 -4 -555 -4 -1234z"/>
<path d="M0 16999 l0 -1236 51 -59 c28 -32 53 -61 55 -63 2 -2 4 553 4 1235
l0 1239 -55 60 -54 60 -1 -1236z"/>
<path d="M413 15823 l-243 -277 0 -1240 c0 -682 2 -1237 4 -1235 2 2 112 128
245 279 l241 275 0 1237 c0 681 -1 1238 -2 1238 -2 0 -112 -125 -245 -277z"/>
<path d="M1800 14865 l1 -1240 242 -275 242 -275 3 1238 2 1237 -221 253
c-122 138 -232 263 -245 277 l-24 25 0 -1240z"/>
<path d="M2593 15822 l-242 -277 -1 -1240 c0 -1215 0 -1239 19 -1220 10 11
121 136 245 278 l226 258 0 1240 c0 681 -1 1239 -2 1238 -2 0 -112 -125 -245
-277z"/>
<path d="M3980 14865 l1 -1240 242 -275 242 -275 3 1238 2 1237 -221 253
c-122 138 -232 263 -245 277 l-24 25 0 -1240z"/>
<path d="M4773 15822 l-242 -277 -1 -1240 c0 -1215 0 -1239 19 -1220 10 11
121 136 245 278 l226 258 0 1240 c0 681 -1 1239 -2 1238 -2 0 -112 -125 -245
-277z"/>
<path d="M6160 14865 l1 -1240 242 -275 242 -275 3 1238 2 1237 -221 253
c-122 138 -232 263 -245 277 l-24 25 0 -1240z"/>
<path d="M6953 15822 l-242 -277 -1 -1240 c0 -1215 0 -1239 19 -1220 10 11
121 136 245 278 l226 258 0 1240 c0 681 -1 1239 -2 1238 -2 0 -112 -125 -245
-277z"/>
<path d="M8340 14865 l1 -1240 242 -275 242 -275 3 1238 2 1237 -221 253
c-122 138 -232 263 -245 277 l-24 25 0 -1240z"/>
<path d="M9133 15822 l-242 -277 -1 -1240 c0 -1215 0 -1239 19 -1220 10 11
121 136 245 278 l226 258 0 1240 c0 681 -1 1239 -2 1238 -2 0 -112 -125 -245
-277z"/>
<path d="M11316 15820 l-246 -279 2 -1237 3 -1238 248 282 247 283 0 1234 c0
679 -2 1235 -4 1235 -3 0 -115 -126 -250 -280z"/>
<path d="M13496 15820 l-246 -279 2 -1237 3 -1238 248 282 247 283 0 1234 c0
679 -2 1235 -4 1235 -3 0 -115 -126 -250 -280z"/>
<path d="M15676 15820 l-246 -279 2 -1237 3 -1238 248 282 247 283 0 1234 c0
679 -2 1235 -4 1235 -3 0 -115 -126 -250 -280z"/>
<path d="M17856 15820 l-246 -279 2 -1237 3 -1238 248 282 247 283 0 1234 c0
679 -2 1235 -4 1235 -3 0 -115 -126 -250 -280z"/>
<path d="M19250 14861 l0 -1239 243 -277 242 -276 3 1237 2 1236 -86 100 c-48
54 -158 180 -245 279 l-159 180 0 -1240z"/>
<path d="M20042 15825 l-242 -275 2 -1238 3 -1237 242 275 242 275 1 1238 c0
680 -1 1237 -3 1237 -2 0 -112 -124 -245 -275z"/>
<path d="M21430 14861 l0 -1239 243 -277 242 -276 3 1237 2 1236 -86 100 c-48
54 -158 180 -245 279 l-159 180 0 -1240z"/>
<path d="M22222 15825 l-242 -275 2 -1238 3 -1237 242 275 242 275 1 1238 c0
680 -1 1237 -3 1237 -2 0 -112 -124 -245 -275z"/>
<path d="M23610 14861 l0 -1240 226 -258 c125 -142 235 -267 245 -278 19 -19
19 10 19 1220 l0 1240 -63 70 c-34 39 -144 164 -244 279 l-183 207 0 -1240z"/>
<path d="M24402 15825 l-242 -275 2 -1237 3 -1238 242 275 242 275 1 1238 c0
680 -1 1237 -3 1237 -2 0 -112 -124 -245 -275z"/>
<path d="M10530 14854 l0 -1235 243 -276 242 -277 3 1238 2 1237 -241 274
c-133 151 -243 275 -245 275 -2 0 -4 -556 -4 -1236z"/>
<path d="M12710 14854 l0 -1235 243 -276 242 -277 3 1238 2 1237 -241 274
c-133 151 -243 275 -245 275 -2 0 -4 -556 -4 -1236z"/>
<path d="M14890 14854 l0 -1235 243 -276 242 -277 3 1238 2 1237 -241 274
c-133 151 -243 275 -245 275 -2 0 -4 -556 -4 -1236z"/>
<path d="M17070 14854 l0 -1235 243 -276 242 -277 3 1238 2 1237 -241 274
c-133 151 -243 275 -245 275 -2 0 -4 -556 -4 -1236z"/>
<path d="M0 14430 l0 -1240 52 -57 c28 -32 53 -60 55 -62 1 -2 3 554 3 1236
l0 1240 -55 62 -55 62 0 -1241z"/>
<path d="M413 13264 l-243 -277 0 -1236 0 -1236 24 25 c14 14 124 138 245 275
l220 250 1 1238 c0 680 -1 1237 -2 1237 -2 0 -112 -124 -245 -276z"/>
<path d="M1800 12307 l0 -1237 243 -276 242 -275 3 1236 2 1236 -216 247
c-120 136 -230 260 -245 277 l-29 30 0 -1238z"/>
<path d="M2593 13262 l-243 -277 0 -1239 0 -1239 39 44 c21 24 131 150 245
279 l206 235 0 1237 c0 681 -1 1238 -2 1238 -2 -1 -112 -126 -245 -278z"/>
<path d="M3980 12307 l0 -1237 243 -276 242 -275 3 1236 2 1236 -216 247
c-120 136 -230 260 -245 277 l-29 30 0 -1238z"/>
<path d="M4773 13262 l-243 -277 0 -1239 0 -1239 39 44 c21 24 131 150 245
279 l206 235 0 1237 c0 681 -1 1238 -2 1238 -2 -1 -112 -126 -245 -278z"/>
<path d="M6160 12307 l0 -1237 243 -276 242 -275 3 1236 2 1236 -216 247
c-120 136 -230 260 -245 277 l-29 30 0 -1238z"/>
<path d="M6953 13262 l-243 -277 0 -1239 0 -1239 39 44 c21 24 131 150 245
279 l206 235 0 1237 c0 681 -1 1238 -2 1238 -2 -1 -112 -126 -245 -278z"/>
<path d="M8340 12307 l0 -1237 243 -276 242 -275 3 1236 2 1236 -216 247
c-120 136 -230 260 -245 277 l-29 30 0 -1238z"/>
<path d="M9133 13262 l-243 -277 0 -1239 0 -1239 39 44 c21 24 131 150 245
279 l206 235 0 1237 c0 681 -1 1238 -2 1238 -2 -1 -112 -126 -245 -278z"/>
<path d="M11316 13263 l-245 -278 -1 -1240 c0 -1061 2 -1237 14 -1225 8 8 120
136 250 284 l236 269 0 1234 c0 678 -2 1233 -5 1233 -2 0 -114 -125 -249 -277z"/>
<path d="M13496 13263 l-245 -278 -1 -1240 c0 -1061 2 -1237 14 -1225 8 8 120
136 250 284 l236 269 0 1234 c0 678 -2 1233 -5 1233 -2 0 -114 -125 -249 -277z"/>
<path d="M15676 13263 l-245 -278 -1 -1240 c0 -1059 2 -1237 14 -1225 8 8 120
136 250 284 l236 269 0 1233 c0 679 -2 1234 -5 1234 -2 0 -114 -125 -249 -277z"/>
<path d="M17856 13263 l-245 -278 -1 -1240 c0 -1059 2 -1237 14 -1225 8 8 120
136 250 284 l236 269 0 1233 c0 679 -2 1234 -5 1234 -2 0 -114 -125 -249 -277z"/>
<path d="M19250 12304 l0 -1239 206 -235 c114 -129 224 -255 245 -279 l39 -44
0 1239 0 1239 -211 240 c-116 132 -227 258 -245 279 l-34 40 0 -1240z"/>
<path d="M20042 13267 l-242 -276 2 -1236 3 -1236 243 275 242 276 -2 1236 -3
1236 -243 -275z"/>
<path d="M21430 12304 l0 -1239 206 -235 c114 -129 224 -255 245 -279 l39 -44
0 1239 0 1239 -211 240 c-116 132 -227 258 -245 279 l-34 40 0 -1240z"/>
<path d="M22222 13267 l-242 -276 2 -1236 3 -1236 243 275 242 276 -2 1236 -3
1236 -243 -275z"/>
<path d="M23610 12304 l0 -1239 206 -235 c114 -129 224 -255 245 -279 l39 -44
0 1239 0 1239 -211 240 c-116 132 -227 258 -245 279 l-34 40 0 -1240z"/>
<path d="M24402 13267 l-242 -276 2 -1236 3 -1237 243 276 242 276 -2 1236 -3
1236 -243 -275z"/>
<path d="M10530 12296 l0 -1234 243 -276 242 -276 3 1236 2 1236 -241 274
c-132 151 -243 274 -245 274 -2 0 -4 -555 -4 -1234z"/>
<path d="M12710 12296 l0 -1234 243 -276 242 -276 3 1236 2 1236 -241 274
c-132 151 -243 274 -245 274 -2 0 -4 -555 -4 -1234z"/>
<path d="M14890 12296 l0 -1234 243 -276 242 -276 3 1236 2 1236 -241 274
c-132 151 -243 274 -245 274 -2 0 -4 -555 -4 -1234z"/>
<path d="M17070 12296 l0 -1234 243 -276 242 -276 3 1236 2 1236 -241 274
c-132 151 -243 274 -245 274 -2 0 -4 -555 -4 -1234z"/>
<path d="M0 11874 l0 -1239 55 -60 54 -60 1 1236 0 1236 -51 59 c-28 32 -53
61 -55 63 -2 2 -4 -553 -4 -1235z"/>
<path d="M413 10702 l-243 -277 0 -1239 c0 -734 4 -1236 9 -1230 5 5 115 130
245 278 l236 269 0 1238 c0 682 -1 1239 -2 1239 -2 -1 -112 -125 -245 -278z"/>
<path d="M1800 9745 l0 -1240 137 -155 c75 -85 185 -210 245 -278 l108 -123 0
1240 0 1239 -226 259 c-125 142 -235 267 -245 278 -19 19 -19 -9 -19 -1220z"/>
<path d="M3980 9745 l0 -1240 137 -155 c75 -85 185 -210 245 -278 l108 -123 0
1240 0 1239 -226 259 c-125 142 -235 267 -245 278 -19 19 -19 -9 -19 -1220z"/>
<path d="M6160 9745 l0 -1240 137 -155 c75 -85 185 -210 245 -278 l108 -123 0
1240 0 1239 -226 259 c-125 142 -235 267 -245 278 -19 19 -19 -9 -19 -1220z"/>
<path d="M8340 9745 l0 -1240 137 -155 c75 -85 185 -210 245 -278 l108 -123 0
1240 0 1239 -226 259 c-125 142 -235 267 -245 278 -19 19 -19 -9 -19 -1220z"/>
<path d="M11318 10701 l-248 -282 0 -1235 c0 -771 4 -1233 9 -1229 12 7 473
532 484 550 4 7 6 568 5 1246 l-3 1232 -247 -282z"/>
<path d="M13498 10701 l-248 -282 0 -1235 c0 -771 4 -1233 9 -1229 12 7 473
532 484 550 4 7 6 568 5 1246 l-3 1232 -247 -282z"/>
<path d="M15678 10701 l-248 -282 0 -1235 c0 -771 4 -1233 9 -1229 12 7 473
532 484 550 4 7 6 568 5 1246 l-3 1232 -247 -282z"/>
<path d="M17858 10701 l-248 -282 0 -1235 c0 -771 4 -1233 9 -1229 12 7 473
532 484 550 4 7 6 568 5 1246 l-3 1232 -247 -282z"/>
<path d="M20042 10704 l-242 -276 0 -1240 0 -1239 108 123 c60 68 170 193 245
278 l137 155 0 1238 c0 680 -1 1237 -3 1237 -1 0 -112 -124 -245 -276z"/>
<path d="M22222 10704 l-242 -276 0 -1240 0 -1239 108 123 c60 68 170 193 245
278 l137 155 0 1238 c0 680 -1 1237 -3 1237 -1 0 -112 -124 -245 -276z"/>
<path d="M24402 10704 l-242 -276 0 -1240 0 -1239 108 123 c60 68 170 193 245
278 l137 155 0 1238 c0 680 -1 1237 -3 1237 -1 0 -112 -124 -245 -276z"/>
<path d="M2593 10700 l-242 -275 -1 -1240 0 -1240 24 25 c13 14 123 138 245
277 l221 252 -2 1238 -3 1237 -242 -274z"/>
<path d="M4773 10700 l-242 -275 -1 -1240 0 -1240 24 25 c13 14 123 138 245
277 l221 252 -2 1238 -3 1237 -242 -274z"/>
<path d="M6952 10698 l-242 -276 2 -1237 3 -1237 243 276 242 276 -2 1237 -3
1237 -243 -276z"/>
<path d="M9132 10698 l-242 -276 2 -1237 3 -1237 243 276 242 276 -2 1237 -3
1237 -243 -276z"/>
<path d="M10530 9735 l1 -1240 220 -250 c121 -137 231 -261 244 -275 l25 -25
0 1237 0 1237 -221 253 c-122 139 -232 264 -245 278 l-24 25 0 -1240z"/>
<path d="M12710 9735 l1 -1240 220 -250 c121 -137 231 -261 244 -275 l25 -25
0 1237 0 1237 -221 253 c-122 139 -232 264 -245 278 l-24 25 0 -1240z"/>
<path d="M14891 9735 l0 -1240 220 -250 c121 -137 231 -261 245 -275 l24 -25
0 1237 0 1238 -212 241 c-117 133 -227 258 -245 278 l-32 36 0 -1240z"/>
<path d="M17071 9735 l0 -1240 220 -250 c121 -137 231 -261 245 -275 l24 -25
0 1237 0 1238 -212 241 c-117 133 -227 258 -245 278 l-32 36 0 -1240z"/>
<path d="M19250 9737 l0 -1238 221 -252 c122 -139 232 -263 245 -277 l24 -25
0 1240 -1 1240 -220 250 c-121 138 -231 261 -245 275 l-24 25 0 -1238z"/>
<path d="M21430 9737 l0 -1238 221 -252 c122 -139 232 -263 245 -277 l24 -25
0 1240 -1 1240 -220 250 c-121 138 -231 261 -245 275 l-24 25 0 -1238z"/>
<path d="M23610 9737 l0 -1237 221 -253 c122 -138 232 -263 245 -277 l24 -25
0 1240 -1 1240 -220 250 c-121 138 -231 261 -244 275 l-25 25 0 -1238z"/>
<path d="M1 9305 l0 -1240 54 -59 55 -59 0 1240 0 1240 -55 59 -54 59 0 -1240z"/>
<path d="M413 8143 l-243 -277 0 -1239 0 -1238 183 207 c100 115 210 240 244
279 l63 70 0 1238 c0 680 -1 1237 -2 1237 -2 0 -112 -125 -245 -277z"/>
<path d="M1800 7187 l0 -1238 241 -274 c133 -151 243 -275 245 -275 2 0 4 556
4 1235 l0 1234 -226 258 c-124 142 -235 267 -245 278 -19 19 -19 -4 -19 -1218z"/>
<path d="M2593 8142 l-242 -277 -1 -1239 c0 -724 4 -1236 9 -1230 5 5 115 130
245 278 l236 269 0 1239 c0 681 -1 1238 -2 1237 -2 0 -112 -125 -245 -277z"/>
<path d="M3980 7187 l0 -1238 241 -274 c133 -151 243 -275 245 -275 2 0 4 556
4 1235 l0 1234 -226 258 c-124 142 -235 267 -245 278 -19 19 -19 -4 -19 -1218z"/>
<path d="M4773 8142 l-242 -277 -1 -1239 c0 -724 4 -1236 9 -1230 5 5 115 130
245 278 l236 269 0 1239 c0 681 -1 1238 -2 1237 -2 0 -112 -125 -245 -277z"/>
<path d="M6160 7187 l0 -1238 241 -274 c133 -151 243 -275 245 -275 2 0 4 556
4 1235 l0 1234 -226 258 c-124 142 -235 267 -245 278 -19 19 -19 -4 -19 -1218z"/>
<path d="M6953 8142 l-242 -277 -1 -1239 c0 -724 4 -1236 9 -1230 5 5 115 130
245 278 l236 269 0 1239 c0 681 -1 1238 -2 1237 -2 0 -112 -125 -245 -277z"/>
<path d="M8340 7187 l0 -1238 241 -274 c133 -151 243 -275 245 -275 2 0 4 556
4 1235 l0 1234 -226 258 c-124 142 -235 267 -245 278 -19 19 -19 -4 -19 -1218z"/>
<path d="M9133 8142 l-242 -277 -1 -1239 c0 -724 4 -1236 9 -1230 5 5 115 130
245 278 l236 269 0 1239 c0 681 -1 1238 -2 1237 -2 0 -112 -125 -245 -277z"/>
<path d="M11316 8140 l-246 -279 2 -1236 3 -1236 248 281 247 282 0 1234 c0
679 -2 1234 -4 1234 -2 0 -115 -126 -250 -280z"/>
<path d="M13496 8140 l-246 -279 2 -1236 3 -1236 248 281 247 282 0 1234 c0
679 -2 1234 -4 1234 -2 0 -115 -126 -250 -280z"/>
<path d="M15676 8140 l-246 -279 2 -1236 3 -1236 248 281 247 281 0 1235 c0
679 -2 1234 -4 1234 -2 0 -115 -126 -250 -280z"/>
<path d="M17856 8140 l-246 -279 2 -1236 3 -1236 248 281 247 281 0 1235 c0
679 -2 1234 -4 1234 -2 0 -115 -126 -250 -280z"/>
<path d="M19250 7182 l0 -1239 236 -269 c130 -148 240 -273 245 -278 5 -6 9
506 9 1230 l-1 1239 -244 278 -245 278 0 -1239z"/>
<path d="M20042 8144 l-242 -275 0 -1237 c0 -1084 2 -1234 15 -1222 8 8 118
132 244 275 l230 260 0 1238 c1 680 0 1237 -2 1237 -2 0 -112 -124 -245 -276z"/>
<path d="M21430 7182 l0 -1239 236 -269 c130 -148 240 -273 245 -278 5 -6 9
506 9 1230 l-1 1239 -244 278 -245 278 0 -1239z"/>
<path d="M22222 8144 l-242 -275 0 -1237 c0 -1084 2 -1234 15 -1222 8 8 118
132 244 275 l230 260 0 1238 c1 680 0 1237 -2 1237 -2 0 -112 -124 -245 -276z"/>
<path d="M23610 7182 l0 -1239 236 -269 c130 -148 240 -273 245 -278 5 -6 9
506 9 1230 l-1 1239 -244 278 -245 278 0 -1239z"/>
<path d="M24402 8144 l-242 -275 0 -1237 c0 -1084 2 -1234 15 -1222 8 8 118
132 244 275 l230 260 0 1238 c1 680 0 1237 -2 1237 -2 0 -112 -124 -245 -276z"/>
<path d="M10530 7177 l0 -1237 243 -276 242 -275 3 1236 2 1236 -216 247
c-120 136 -230 260 -245 277 l-29 30 0 -1238z"/>
<path d="M12710 7177 l0 -1237 243 -276 242 -275 3 1236 2 1236 -216 247
c-120 136 -230 260 -245 277 l-29 30 0 -1238z"/>
<path d="M14890 7177 l0 -1237 243 -276 242 -275 3 1236 2 1236 -216 247
c-120 136 -230 260 -245 277 l-29 30 0 -1238z"/>
<path d="M17070 7177 l0 -1237 243 -276 242 -275 3 1236 2 1236 -216 247
c-120 136 -230 260 -245 277 l-29 30 0 -1238z"/>
<path d="M0 6753 l0 -1238 55 -63 55 -63 0 1238 0 1238 -55 63 -55 63 0 -1238z"/>
<path d="M412 5586 l-242 -276 2 -1237 3 -1237 243 276 242 276 -2 1237 -3
1237 -243 -276z"/>
<path d="M1800 4627 l0 -1237 221 -253 c122 -138 232 -263 245 -277 l24 -25 0
1240 -1 1240 -220 250 c-121 138 -231 261 -244 275 l-25 25 0 -1238z"/>
<path d="M2593 5583 l-243 -276 0 -1240 0 -1240 43 48 c23 27 133 152 244 279
l203 231 0 1238 c0 680 -1 1237 -2 1237 -2 0 -112 -125 -245 -277z"/>
<path d="M3980 4627 l0 -1237 221 -253 c122 -138 232 -263 245 -277 l24 -25 0
1240 -1 1240 -220 250 c-121 138 -231 261 -244 275 l-25 25 0 -1238z"/>
<path d="M4773 5583 l-243 -276 0 -1240 0 -1240 43 48 c23 27 133 152 244 279
l203 231 0 1238 c0 680 -1 1237 -2 1237 -2 0 -112 -125 -245 -277z"/>
<path d="M6160 4627 l0 -1237 221 -253 c122 -138 233 -263 245 -277 l24 -25 0
1240 -1 1240 -220 250 c-121 138 -231 261 -244 275 l-25 25 0 -1238z"/>
<path d="M6953 5583 l-243 -276 0 -1240 0 -1240 39 44 c21 24 131 150 245 279
l206 235 0 1237 c0 681 -1 1238 -2 1238 -2 0 -112 -125 -245 -277z"/>
<path d="M8340 4627 l0 -1237 221 -253 c122 -138 233 -263 245 -277 l24 -25 0
1240 -1 1240 -220 250 c-121 138 -231 261 -244 275 l-25 25 0 -1238z"/>
<path d="M9133 5583 l-243 -276 0 -1240 0 -1240 39 44 c21 24 131 150 245 279
l206 235 0 1237 c0 681 -1 1238 -2 1238 -2 0 -112 -125 -245 -277z"/>
<path d="M10530 4621 l0 -1239 231 -264 c127 -145 237 -270 245 -278 12 -12
14 165 14 1225 l0 1240 -137 155 c-75 85 -185 210 -244 278 l-109 123 0 -1240z"/>
<path d="M11313 5582 l-243 -277 0 -1240 c0 -1061 2 -1237 14 -1225 8 8 120
136 250 284 l236 269 0 1234 c0 678 -3 1233 -7 1232 -5 0 -117 -125 -250 -277z"/>
<path d="M12710 4621 l0 -1239 231 -264 c127 -145 237 -270 245 -278 12 -12
14 165 14 1225 l0 1240 -137 155 c-75 85 -185 210 -244 278 l-109 123 0 -1240z"/>
<path d="M13493 5582 l-243 -277 0 -1240 c0 -1061 2 -1237 14 -1225 8 8 120
136 250 284 l236 269 0 1234 c0 678 -3 1233 -7 1232 -5 0 -117 -125 -250 -277z"/>
<path d="M14890 4622 l0 -1240 231 -263 c127 -145 237 -271 245 -279 12 -12
14 162 14 1225 l0 1240 -137 155 c-75 85 -185 210 -244 278 l-109 123 0 -1239z"/>
<path d="M15673 5582 l-243 -277 0 -1240 c0 -1067 2 -1237 14 -1225 8 8 120
136 250 284 l236 269 0 1234 c0 678 -3 1233 -7 1232 -5 0 -117 -125 -250 -277z"/>
<path d="M17070 4622 l0 -1240 231 -263 c127 -145 237 -271 245 -279 12 -12
14 162 14 1225 l0 1240 -137 155 c-75 85 -185 210 -244 278 l-109 123 0 -1239z"/>
<path d="M17853 5582 l-243 -277 0 -1240 c0 -1067 2 -1237 14 -1225 8 8 120
136 250 284 l236 269 0 1234 c0 678 -3 1233 -7 1232 -5 0 -117 -125 -250 -277z"/>
<path d="M19250 4625 l0 -1240 203 -231 c111 -127 221 -252 245 -279 l42 -48
0 1240 0 1240 -231 264 c-127 145 -238 271 -245 279 -12 12 -14 -168 -14
-1225z"/>
<path d="M20043 5590 l-242 -275 -1 -1240 0 -1240 24 25 c13 14 123 139 245
277 l221 253 -2 1237 -3 1238 -242 -275z"/>
<path d="M21430 4625 l0 -1240 203 -231 c111 -127 221 -252 245 -279 l42 -48
0 1240 0 1240 -231 264 c-127 145 -238 271 -245 279 -12 12 -14 -168 -14
-1225z"/>
<path d="M22223 5590 l-242 -275 -1 -1240 0 -1240 24 25 c13 14 123 139 245
277 l221 253 -2 1237 -3 1238 -242 -275z"/>
<path d="M23610 4625 l0 -1240 203 -231 c111 -127 221 -252 245 -279 l42 -48
0 1240 0 1240 -231 264 c-127 145 -238 271 -245 279 -12 12 -14 -168 -14
-1225z"/>
<path d="M24403 5590 l-242 -275 -1 -1240 0 -1240 24 25 c13 14 123 139 245
277 l221 253 -2 1237 -3 1238 -242 -275z"/>
<path d="M0 4195 l0 -1240 55 -60 54 -60 0 1240 0 1240 -54 60 -55 60 0 -1240z"/>
<path d="M412 3027 l-242 -276 2 -1236 3 -1236 243 275 242 276 -2 1236 -3
1236 -243 -275z"/>
<path d="M1800 2069 l0 -1235 236 -270 c130 -148 240 -273 245 -278 5 -6 9
508 9 1230 l-1 1239 -215 245 c-118 135 -228 258 -245 275 l-29 30 0 -1236z"/>
<path d="M2593 3024 l-243 -276 0 -1234 c0 -679 2 -1234 4 -1234 3 0 113 123
245 274 l241 274 -2 1236 -3 1236 -242 -276z"/>
<path d="M3980 2069 l0 -1235 236 -270 c130 -148 240 -273 245 -278 5 -6 9
508 9 1230 l-1 1239 -215 245 c-118 135 -228 258 -245 275 l-29 30 0 -1236z"/>
<path d="M4773 3024 l-243 -276 0 -1234 c0 -679 2 -1234 4 -1234 3 0 113 123
245 274 l241 274 -2 1236 -3 1236 -242 -276z"/>
<path d="M6160 2069 l0 -1235 236 -270 c130 -148 240 -273 245 -278 5 -6 9
508 9 1230 l-1 1239 -215 245 c-118 135 -228 258 -245 275 l-29 30 0 -1236z"/>
<path d="M6953 3024 l-243 -277 0 -1233 c0 -679 2 -1234 4 -1234 3 0 113 123
245 274 l241 274 -2 1236 -3 1236 -242 -276z"/>
<path d="M8340 2069 l0 -1235 236 -270 c130 -148 240 -273 245 -278 5 -6 9
508 9 1230 l-1 1239 -215 245 c-118 135 -228 258 -245 275 l-29 30 0 -1236z"/>
<path d="M9133 3024 l-243 -277 0 -1233 c0 -679 2 -1234 4 -1234 3 0 113 123
245 274 l241 274 -2 1236 -3 1236 -242 -276z"/>
<path d="M10530 2064 l0 -1239 238 -272 c130 -149 240 -272 245 -272 4 -1 7
554 7 1232 l0 1232 -207 235 c-113 129 -223 255 -244 279 l-39 44 0 -1239z"/>
<path d="M11313 3022 l-243 -277 0 -1232 c0 -678 3 -1233 8 -1232 4 0 116 125
249 277 l242 277 1 1233 c0 677 -3 1232 -7 1232 -5 -1 -117 -126 -250 -278z"/>
<path d="M12710 2064 l0 -1239 238 -272 c130 -149 240 -272 245 -272 4 -1 7
554 7 1232 l0 1232 -207 235 c-113 129 -223 255 -244 279 l-39 44 0 -1239z"/>
<path d="M13493 3022 l-243 -277 0 -1232 c0 -678 3 -1233 8 -1232 4 0 116 125
249 277 l242 277 1 1233 c0 677 -3 1232 -7 1232 -5 -1 -117 -126 -250 -278z"/>
<path d="M14890 2064 l0 -1239 238 -272 c130 -149 240 -272 245 -272 4 -1 7
554 7 1232 l0 1233 -202 230 c-112 126 -222 252 -245 278 l-43 49 0 -1239z"/>
<path d="M15673 3022 l-243 -277 0 -1232 c0 -678 3 -1233 8 -1232 4 0 116 125
249 277 l242 277 1 1233 c0 677 -3 1232 -7 1232 -5 -1 -117 -126 -250 -278z"/>
<path d="M17070 2064 l0 -1239 238 -272 c130 -149 240 -272 245 -272 4 -1 7
554 7 1232 l0 1233 -202 230 c-112 126 -222 252 -245 278 l-43 49 0 -1239z"/>
<path d="M17853 3022 l-243 -277 0 -1232 c0 -678 3 -1233 8 -1232 4 0 116 125
249 277 l242 277 1 1233 c0 677 -3 1232 -7 1232 -5 -1 -117 -126 -250 -278z"/>
<path d="M19250 2066 l0 -1238 241 -274 c132 -151 242 -274 245 -274 2 0 4
555 4 1234 l0 1234 -231 264 c-127 145 -238 270 -245 278 -12 12 -14 -169 -14
-1224z"/>
<path d="M20040 3028 l-240 -273 0 -1239 c0 -722 4 -1236 9 -1230 5 5 115 130
245 278 l236 270 0 1233 c0 678 -2 1233 -5 1233 -2 0 -112 -123 -245 -272z"/>
<path d="M21430 2066 l0 -1238 241 -274 c132 -151 242 -274 245 -274 2 0 4
555 4 1234 l0 1234 -231 264 c-127 145 -238 270 -245 278 -12 12 -14 -169 -14
-1224z"/>
<path d="M22220 3028 l-240 -273 0 -1239 c0 -722 4 -1236 9 -1230 5 5 115 130
245 278 l236 270 0 1233 c0 678 -2 1233 -5 1233 -2 0 -112 -123 -245 -272z"/>
<path d="M23610 2066 l0 -1238 241 -274 c132 -151 243 -274 245 -274 2 0 4
555 4 1234 l0 1234 -231 264 c-127 145 -237 270 -245 278 -12 12 -14 -165 -14
-1224z"/>
<path d="M24400 3028 l-240 -273 0 -1239 c0 -713 4 -1236 9 -1230 5 5 115 130
245 278 l236 269 0 1234 c0 678 -2 1233 -5 1233 -2 0 -112 -123 -245 -272z"/>
<path d="M0 1635 l1 -1240 54 -60 55 -60 -1 1240 0 1240 -54 60 -55 60 0
-1240z"/>
<path d="M412 464 l-242 -276 0 -94 0 -94 245 0 245 0 0 370 c0 204 -1 370 -3
370 -2 0 -112 -124 -245 -276z"/>
<path d="M1800 370 l0 -370 245 0 245 0 0 96 0 96 -241 274 c-132 151 -243
274 -245 274 -2 0 -4 -166 -4 -370z"/>
<path d="M2593 462 l-243 -277 0 -92 0 -93 245 0 245 0 0 370 c0 204 -1 370
-2 370 -2 0 -112 -125 -245 -278z"/>
<path d="M3980 370 l0 -370 245 0 245 0 0 96 0 96 -241 274 c-132 151 -243
274 -245 274 -2 0 -4 -166 -4 -370z"/>
<path d="M4773 462 l-243 -277 0 -92 0 -93 245 0 245 0 0 370 c0 204 -1 370
-2 370 -2 0 -112 -125 -245 -278z"/>
<path d="M6160 370 l0 -370 245 0 245 0 0 96 0 96 -241 274 c-132 151 -243
274 -245 274 -2 0 -4 -166 -4 -370z"/>
<path d="M6953 462 l-243 -277 0 -92 0 -93 245 0 245 0 0 370 c0 204 -1 370
-2 370 -2 0 -112 -125 -245 -278z"/>
<path d="M8340 370 l0 -370 245 0 245 0 0 96 0 96 -241 274 c-132 151 -243
274 -245 274 -2 0 -4 -166 -4 -370z"/>
<path d="M9133 462 l-243 -277 0 -92 0 -93 245 0 245 0 0 370 c0 204 -1 370
-2 370 -2 0 -112 -125 -245 -278z"/>
<path d="M10530 370 l0 -370 245 0 245 0 0 93 -1 92 -244 278 -245 278 0 -371z"/>
<path d="M11315 463 l-240 -275 -3 -94 -3 -94 251 0 250 0 0 370 c0 204 -3
370 -7 369 -5 0 -116 -124 -248 -276z"/>
<path d="M12710 370 l0 -370 245 0 245 0 0 93 -1 92 -244 278 -245 278 0 -371z"/>
<path d="M13495 463 l-240 -275 -3 -94 -3 -94 251 0 250 0 0 370 c0 204 -3
370 -7 369 -5 0 -116 -124 -248 -276z"/>
<path d="M14890 370 l0 -370 245 0 245 0 0 93 -1 92 -244 278 -245 278 0 -371z"/>
<path d="M15817 623 c-57 -65 -168 -190 -245 -278 l-141 -160 -1 -92 0 -93
250 0 250 0 0 370 c0 204 -2 370 -5 370 -2 0 -51 -53 -108 -117z"/>
<path d="M17070 370 l0 -370 245 0 245 0 0 93 -1 92 -244 278 -245 278 0 -371z"/>
<path d="M17997 623 c-57 -65 -168 -190 -245 -278 l-141 -160 -1 -92 0 -93
250 0 250 0 0 370 c0 204 -2 370 -5 370 -2 0 -51 -53 -108 -117z"/>
<path d="M19250 372 l0 -372 245 0 245 0 0 93 0 92 -241 275 c-133 151 -243
277 -245 279 -2 2 -4 -163 -4 -367z"/>
<path d="M20041 466 l-241 -274 0 -96 0 -96 245 0 245 0 0 370 c0 204 -2 370
-4 370 -2 0 -113 -123 -245 -274z"/>
<path d="M21430 372 l0 -372 245 0 245 0 0 93 0 92 -241 275 c-133 151 -243
277 -245 279 -2 2 -4 -163 -4 -367z"/>
<path d="M22221 466 l-241 -274 0 -96 0 -96 245 0 245 0 0 370 c0 204 -2 370
-4 370 -2 0 -113 -123 -245 -274z"/>
<path d="M23610 372 l0 -372 245 0 245 0 0 93 0 92 -241 275 c-133 151 -243
277 -245 279 -2 2 -4 -163 -4 -367z"/>
<path d="M24401 466 l-241 -275 0 -95 0 -96 245 0 245 0 0 370 c0 204 -2 370
-4 370 -2 0 -113 -123 -245 -274z"/>
<path d="M0 157 l0 -157 55 0 55 0 0 95 0 94 -46 53 c-26 29 -50 57 -55 63 -5
5 -9 -58 -9 -148z"/>
</g>
</svg>
