<?xml version="1.0" standalone="no"?>
<!DOCTYPE svg PUBLIC "-//W3C//DTD SVG 20010904//EN"
 "http://www.w3.org/TR/2001/REC-SVG-20010904/DTD/svg10.dtd">
<svg version="1.0" xmlns="http://www.w3.org/2000/svg"
 width="1280.000000pt" height="1015.000000pt" viewBox="0 0 1280.000000 1015.000000"
 preserveAspectRatio="xMidYMid meet">

<g transform="translate(0.000000,1015.000000) scale(0.100000,-0.100000)"
fill="#111111" stroke="none">
<path d="M6350 9959 c0 -6 15 -32 34 -58 48 -66 66 -105 66 -143 0 -48 16 -96
46 -139 31 -45 26 -69 -15 -69 -36 0 -75 42 -122 131 -54 101 -130 164 -285
236 -113 51 -128 44 -70 -36 48 -66 66 -105 66 -143 0 -48 16 -96 46 -139 42
-61 31 -69 -88 -69 l-103 0 43 -20 c23 -10 66 -42 96 -70 95 -90 134 -219 121
-405 -8 -111 -15 -107 69 -38 60 50 100 66 130 52 41 -19 38 -35 -17 -76 -33
-24 -63 -59 -84 -97 -35 -62 -43 -71 -108 -113 -40 -26 -55 -41 -55 -55 0 -14
159 -8 238 8 97 19 140 40 226 109 70 57 107 77 167 90 31 7 33 6 19 -10 -8
-10 -28 -43 -45 -73 -24 -45 -44 -66 -104 -105 -63 -43 -71 -51 -56 -60 26
-14 185 -2 278 22 77 20 104 36 219 124 38 31 77 50 123 62 64 18 68 18 100 1
18 -10 49 -32 69 -48 42 -34 37 -49 -18 -68 -18 -6 -55 -33 -82 -62 -31 -33
-72 -61 -113 -80 -91 -41 -73 -53 78 -53 l117 0 105 53 c97 49 110 53 176 53
40 0 92 -3 117 -6 43 -7 48 -11 82 -66 45 -75 41 -89 -28 -89 -29 0 -77 -9
-107 -21 -37 -14 -75 -20 -120 -19 -89 2 -86 3 -66 -20 23 -26 88 -64 156 -91
44 -18 76 -22 174 -23 119 -1 121 -2 190 -39 114 -61 133 -82 141 -151 l7 -59
-29 6 c-16 3 -47 12 -69 21 -22 8 -62 15 -90 16 -34 0 -70 10 -114 30 -35 17
-66 28 -69 25 -13 -12 36 -83 103 -151 62 -62 80 -74 156 -102 49 -19 102 -46
122 -65 l36 -32 -6 -68 c-4 -42 -11 -71 -19 -74 -7 -2 -30 7 -51 21 -20 14
-64 31 -96 37 -38 8 -76 25 -113 50 -75 53 -84 52 -63 -10 6 -17 17 -31 24
-31 8 0 27 -12 44 -26 24 -20 32 -36 37 -76 7 -48 9 -52 68 -89 95 -59 103
-67 88 -77 -8 -5 -32 -38 -55 -72 -23 -35 -48 -65 -54 -68 -7 -2 -21 11 -30
29 -19 35 -101 129 -113 129 -3 0 -25 -14 -48 -32 -56 -43 -55 -63 10 -188 58
-111 52 -108 138 -66 119 58 266 345 301 585 18 130 7 298 -26 399 -88 263
-293 438 -680 582 -451 168 -675 374 -486 447 57 22 286 24 426 4 478 -69 862
-237 1131 -494 121 -115 198 -219 273 -366 180 -353 251 -829 186 -1246 -7
-49 -12 -92 -9 -94 2 -2 18 0 35 5 25 7 33 18 47 59 36 106 83 163 184 224 52
31 113 103 148 175 54 113 50 142 -12 87 -41 -35 -80 -56 -138 -71 -25 -6 -64
-25 -88 -42 -32 -22 -47 -27 -55 -19 -12 12 -30 142 -28 205 1 59 44 140 109
209 70 73 87 103 113 204 20 79 25 133 11 133 -4 0 -26 -24 -49 -53 -27 -35
-61 -64 -101 -85 -33 -18 -74 -49 -90 -69 -27 -33 -32 -36 -47 -23 -13 11 -16
24 -11 60 4 31 0 65 -14 110 -38 118 -37 163 4 281 23 67 36 123 36 155 0 85
-30 214 -50 214 -4 0 -15 -28 -24 -62 -11 -40 -33 -83 -59 -117 -23 -29 -49
-74 -58 -100 -9 -25 -22 -46 -30 -46 -15 0 -60 85 -84 159 -19 62 -19 125 0
196 19 71 19 141 0 215 -19 73 -51 145 -63 145 -6 0 -13 -28 -17 -61 -5 -42
-19 -85 -46 -135 -22 -40 -39 -84 -39 -98 0 -30 -9 -56 -20 -56 -15 0 -198
186 -215 218 -9 19 -23 65 -31 104 -8 39 -21 86 -29 105 -29 69 -164 217 -182
199 -3 -3 2 -32 11 -65 11 -39 16 -89 14 -143 -1 -46 2 -100 6 -120 8 -35 7
-38 -13 -38 -28 0 -182 102 -222 148 -32 36 -49 70 -84 167 -12 31 -39 72 -73
107 -56 59 -148 125 -159 114 -3 -3 7 -34 22 -68 19 -42 30 -85 33 -133 2 -38
11 -82 18 -97 8 -15 14 -36 14 -47 0 -20 -4 -21 -92 -15 -60 3 -111 13 -143
26 -220 91 -285 140 -351 260 -21 39 -53 86 -70 103 -81 81 -324 205 -324 165
0 -7 15 -33 34 -59 48 -66 66 -105 66 -143 0 -18 4 -49 10 -67 5 -19 8 -36 6
-38 -8 -9 -109 94 -133 136 -84 149 -131 192 -289 267 -93 45 -124 53 -124 33z"/>
<path d="M2686 9529 c-131 -20 -244 -100 -294 -208 -24 -50 -27 -71 -30 -186
-7 -233 38 -406 173 -675 46 -91 116 -214 155 -273 39 -59 137 -217 217 -350
155 -260 376 -608 381 -603 2 2 -31 62 -72 133 -238 413 -279 541 -193 593 18
11 36 21 40 23 5 1 -3 27 -17 57 -31 66 -32 103 -7 153 l19 38 -81 107 c-302
401 -416 666 -351 820 57 139 241 193 369 109 54 -35 65 -63 58 -143 -5 -69
-5 -71 27 -108 18 -20 46 -44 61 -52 39 -20 108 -18 145 5 71 43 99 184 49
251 -41 56 -251 208 -360 261 -111 54 -180 65 -289 48z"/>
<path d="M5630 9514 c-79 -21 -188 -83 -317 -181 -125 -94 -148 -118 -164
-174 -21 -70 19 -172 81 -204 66 -34 161 -4 208 65 21 31 23 42 17 105 -6 63
-5 73 15 98 39 49 96 72 180 72 89 0 139 -22 192 -85 59 -68 72 -151 43 -265
-35 -135 -175 -378 -358 -620 l-75 -99 15 -31 c22 -41 19 -104 -6 -153 -28
-54 -27 -59 13 -76 27 -11 37 -23 47 -54 22 -73 -23 -180 -226 -538 -59 -102
-105 -187 -103 -189 6 -6 250 380 409 645 83 140 183 301 221 358 85 127 228
410 261 517 46 148 61 242 61 385 1 181 -15 232 -98 316 -66 66 -131 98 -236
115 -74 12 -115 10 -180 -7z"/>
<path d="M7142 9213 c-24 -9 -44 -64 -37 -100 7 -41 29 -52 54 -29 11 10 32
21 47 25 17 5 28 14 25 22 -2 8 -6 31 -8 52 -5 34 -8 37 -37 36 -17 0 -37 -3
-44 -6z"/>
<path d="M7255 9210 c-8 -12 5 -60 16 -60 5 0 23 9 41 20 19 12 51 20 76 20
59 0 52 16 -10 24 -75 8 -116 7 -123 -4z"/>
<path d="M7468 9190 c-25 -15 -41 -72 -28 -104 l10 -26 39 25 c34 23 62 32
109 34 12 1 7 47 -7 63 -11 12 -106 19 -123 8z"/>
<path d="M7053 9174 c-3 -8 -1 -25 5 -37 10 -20 11 -18 11 16 1 39 -5 48 -16
21z"/>
<path d="M7630 9174 c1 -23 18 -35 44 -28 31 8 45 24 19 24 -10 0 -28 3 -40 6
-13 4 -23 2 -23 -2z"/>
<path d="M7341 9147 c-39 -19 -64 -71 -57 -113 8 -41 29 -53 55 -30 11 10 32
21 47 25 18 5 27 14 25 22 -3 8 -5 35 -5 62 -1 40 -4 47 -21 47 -11 0 -31 -6
-44 -13z"/>
<path d="M7796 9124 c-9 -24 -7 -61 5 -88 l12 -25 28 20 c15 10 49 23 74 28
51 10 78 27 54 35 -40 15 -145 46 -155 46 -7 0 -15 -7 -18 -16z"/>
<path d="M7682 9110 c-39 -24 -56 -62 -47 -107 3 -18 8 -33 10 -33 2 0 25 11
51 25 26 14 53 25 60 25 7 0 11 6 8 13 -3 8 -6 31 -7 53 -3 47 -26 54 -75 24z"/>
<path d="M7563 9082 c-47 -5 -83 -51 -83 -108 0 -54 15 -63 61 -35 19 12 41
21 49 21 12 0 15 13 14 60 0 33 -3 61 -5 63 -2 1 -18 1 -36 -1z"/>
<path d="M7180 9060 c-14 -10 -23 -21 -20 -23 17 -14 116 -77 122 -77 4 0 -1
15 -12 33 -11 17 -20 44 -20 60 0 21 -5 27 -22 27 -13 0 -34 -9 -48 -20z"/>
<path d="M7998 9058 c-49 -41 -63 -111 -28 -143 24 -21 23 -22 38 32 7 23 24
56 39 73 21 26 24 33 12 41 -20 12 -43 11 -61 -3z"/>
<path d="M7872 9010 c-18 -11 -37 -32 -43 -47 -10 -28 -4 -97 9 -91 4 2 24 12
45 21 37 17 37 18 37 77 0 33 -3 60 -7 60 -5 0 -23 -9 -41 -20z"/>
<path d="M8113 9022 c-32 -5 -73 -58 -73 -93 0 -27 2 -30 23 -23 23 8 68 8
103 0 17 -5 22 2 32 41 7 25 11 47 9 49 -11 12 -76 30 -94 26z"/>
<path d="M7356 8975 c-15 -14 -26 -30 -24 -37 4 -12 136 -73 143 -66 3 3 -4
25 -15 49 -11 24 -20 52 -20 62 0 27 -52 22 -84 -8z"/>
<path d="M7696 8949 c-19 -23 -26 -42 -26 -75 0 -54 15 -63 61 -35 19 12 41
21 49 21 12 0 15 13 15 60 l0 60 -37 0 c-28 0 -42 -7 -62 -31z"/>
<path d="M8230 8944 c-15 -39 -13 -42 33 -47 23 -3 51 -7 62 -9 12 -2 21 3 23
14 2 11 -12 25 -41 42 -55 32 -65 32 -77 0z"/>
<path d="M5793 8898 c-40 -24 -41 -34 -8 -41 21 -3 29 1 40 24 24 46 19 49
-32 17z"/>
<path d="M7535 8895 c-14 -13 -25 -28 -25 -33 0 -8 128 -62 145 -62 2 0 -3 16
-11 36 -9 20 -13 47 -10 60 6 22 3 24 -34 24 -30 0 -47 -7 -65 -25z"/>
<path d="M7900 8864 c-40 -27 -50 -45 -50 -92 0 -41 1 -44 23 -37 12 4 39 9
59 12 34 5 37 8 43 46 4 23 12 48 18 55 13 16 8 20 -34 27 -23 4 -42 0 -59
-11z"/>
<path d="M8039 8851 c-22 -23 -29 -39 -29 -69 0 -49 5 -53 38 -36 15 8 36 14
47 14 26 0 79 106 57 115 -38 14 -84 4 -113 -24z"/>
<path d="M8233 8863 c-27 -5 -73 -57 -73 -83 0 -30 26 -45 56 -31 14 6 44 11
68 11 41 0 44 2 50 33 6 27 2 36 -19 55 -26 22 -37 24 -82 15z"/>
<path d="M8387 8836 c-9 -13 -19 -35 -22 -49 -6 -23 -4 -25 37 -30 24 -3 51
-7 61 -9 13 -2 22 7 32 29 13 31 12 33 -20 57 -42 32 -68 33 -88 2z"/>
<path d="M7729 8801 l-23 -19 52 -26 c28 -14 53 -26 54 -26 2 0 3 20 3 45 0
44 -1 45 -31 45 -18 0 -42 -8 -55 -19z"/>
<path d="M8526 8764 c-14 -37 -7 -52 29 -56 45 -5 51 12 16 46 -32 30 -37 32
-45 10z"/>
<path d="M8068 8715 c-35 -20 -48 -44 -48 -91 0 -36 1 -36 31 -30 17 3 44 6
60 6 21 0 29 5 29 18 1 9 7 35 15 57 8 21 13 41 11 43 -12 12 -75 10 -98 -3z"/>
<path d="M8234 8720 c-29 -11 -54 -54 -54 -90 0 -30 2 -31 36 -28 33 3 38 8
54 51 10 27 24 55 30 63 10 12 8 14 -16 13 -16 0 -38 -4 -50 -9z"/>
<path d="M8373 8723 c-32 -6 -73 -59 -73 -94 0 -22 6 -32 26 -39 45 -17 62
-12 69 20 4 17 21 44 38 61 30 30 30 32 12 45 -19 14 -30 15 -72 7z"/>
<path d="M7896 8707 c-17 -12 -14 -16 30 -45 50 -32 54 -32 68 15 6 19 2 23
-31 32 -48 14 -46 14 -67 -2z"/>
<path d="M8620 8690 c0 -13 37 -50 51 -50 11 0 4 15 -19 43 -17 19 -32 22 -32
7z"/>
<path d="M8473 8661 c-26 -17 -53 -58 -41 -65 1 -1 21 -8 42 -15 36 -12 40
-12 55 7 9 11 29 28 44 37 24 15 26 20 14 32 -24 24 -79 26 -114 4z"/>
<path d="M8568 8580 c-32 -32 -33 -51 -2 -60 10 -3 31 -13 46 -24 l28 -18 35
31 c20 17 40 31 45 31 22 0 8 32 -22 50 -49 30 -94 26 -130 -10z"/>
<path d="M8077 8563 c-4 -6 7 -23 23 -38 l29 -28 12 27 c7 14 10 28 7 31 -10
11 -66 16 -71 8z"/>
<path d="M8197 8546 c-27 -25 -43 -66 -34 -89 3 -8 24 -12 63 -10 l58 1 12 41
c7 23 17 48 23 55 15 17 -5 26 -58 26 -26 0 -46 -7 -64 -24z"/>
<path d="M8390 8553 c-44 -16 -85 -91 -66 -122 11 -18 64 6 104 48 21 23 46
41 55 41 25 0 20 15 -8 28 -27 13 -59 14 -85 5z"/>
<path d="M8698 8482 l-31 -29 34 -12 c18 -6 45 -22 59 -36 l25 -24 29 25 28
25 -26 39 c-33 50 -70 54 -118 12z"/>
<path d="M8466 8469 c-26 -20 -35 -49 -16 -49 5 0 23 -13 40 -30 l30 -29 46
46 47 46 -23 19 c-30 25 -90 23 -124 -3z"/>
<path d="M8205 8411 c-3 -6 6 -33 21 -60 l27 -48 22 41 c15 29 18 44 11 52
-16 17 -73 27 -81 15z"/>
<path d="M8635 8413 c-22 -6 -65 -42 -65 -55 0 -4 5 -8 12 -8 6 0 26 -11 44
-25 38 -29 47 -30 64 -10 7 8 26 19 43 23 l30 8 -29 32 c-30 32 -63 44 -99 35z"/>
<path d="M3223 8388 c-12 -16 -33 -76 -33 -94 0 -8 7 -14 15 -14 22 0 107 -82
151 -146 41 -60 54 -57 54 10 0 34 -6 44 -46 80 -27 24 -60 68 -80 109 -35 68
-44 77 -61 55z"/>
<path d="M5272 8387 c-5 -6 -20 -32 -32 -57 -12 -25 -47 -71 -76 -102 -41 -43
-54 -64 -54 -87 0 -16 4 -32 8 -35 4 -2 30 24 57 60 49 62 124 124 152 124 16
0 11 24 -13 72 -18 34 -29 41 -42 25z"/>
<path d="M8353 8385 c-29 -12 -71 -70 -60 -81 3 -3 17 -7 33 -10 16 -3 40 -12
52 -20 22 -15 25 -14 40 8 9 12 27 33 39 44 30 28 29 31 -9 54 -39 23 -52 24
-95 5z"/>
<path d="M8824 8375 c-25 -25 -25 -45 0 -45 7 0 25 -14 41 -30 42 -44 52 -23
22 44 -14 31 -29 56 -32 56 -3 0 -17 -11 -31 -25z"/>
<path d="M8469 8289 c-16 -18 -28 -36 -26 -42 2 -6 21 -16 42 -24 22 -7 48
-22 60 -32 20 -19 20 -19 59 26 l40 46 -32 28 c-46 42 -103 41 -143 -2z"/>
<path d="M8718 8294 c-38 -20 -35 -30 9 -37 20 -4 48 -18 63 -32 25 -24 30
-25 49 -13 34 21 22 61 -26 86 -29 16 -62 14 -95 -4z"/>
<path d="M2110 8264 c-33 -86 14 -176 140 -268 67 -50 89 -73 136 -147 63
-100 137 -172 204 -195 113 -41 148 -64 219 -146 67 -76 76 -93 95 -180 3 -14
24 -49 46 -76 21 -28 44 -71 51 -95 13 -52 34 -78 97 -118 52 -33 71 -35 112
-14 21 11 30 23 30 41 0 14 10 42 22 63 l22 38 -141 219 c-77 120 -191 306
-254 411 -63 106 -117 193 -120 193 -4 0 -9 -18 -12 -40 -12 -91 -53 -110
-143 -65 -72 36 -131 90 -166 151 -36 65 -70 95 -160 140 -38 19 -89 53 -112
75 -24 21 -46 39 -50 39 -4 0 -11 -12 -16 -26z"/>
<path d="M6361 8262 c-11 -16 -57 -48 -101 -73 -106 -57 -144 -89 -191 -164
-53 -84 -170 -165 -238 -165 -35 0 -56 31 -67 99 -4 23 -10 41 -13 41 -4 0
-68 -102 -143 -227 -75 -126 -191 -313 -258 -417 l-121 -188 22 -24 c13 -14
25 -43 28 -66 5 -38 10 -44 45 -57 37 -14 41 -14 93 13 66 35 99 73 108 124 4
24 22 58 45 86 22 27 45 67 51 89 6 23 16 58 22 76 6 23 41 66 96 121 78 77
94 88 166 114 68 25 88 38 145 95 36 36 82 94 102 128 24 41 56 77 94 105 140
106 173 152 174 240 0 82 -22 101 -59 50z"/>
<path d="M8294 8181 l20 -79 13 36 c7 21 24 48 39 61 l28 23 -25 19 c-13 10
-40 19 -60 19 l-35 0 20 -79z"/>
<path d="M3116 8229 c-60 -48 -70 -107 -30 -193 14 -31 22 -60 19 -66 -4 -6
-23 -18 -43 -28 -37 -17 -37 -18 -37 -78 0 -52 7 -74 51 -164 29 -58 93 -177
143 -265 103 -179 203 -379 256 -510 40 -99 41 -105 20 -105 -9 0 -27 27 -44
64 -21 48 -107 194 -138 235 -9 12 -33 -26 -33 -54 0 -50 -76 -102 -131 -90
-52 12 -145 82 -167 126 l-20 40 -20 -28 c-50 -71 -54 -90 -41 -166 15 -88 26
-111 79 -166 53 -54 128 -89 218 -100 75 -10 92 -16 92 -33 0 -8 -25 -9 -81
-5 -177 14 -311 121 -338 270 -14 78 -36 122 -80 157 -30 25 -71 40 -71 26 0
-2 12 -28 28 -57 23 -45 27 -66 27 -130 l0 -77 33 -12 c48 -17 90 -57 124
-117 66 -118 218 -178 350 -139 63 18 108 21 108 6 0 -16 -130 -50 -195 -50
-126 0 -230 58 -294 165 -39 65 -82 99 -144 116 -59 16 -66 -2 -18 -40 26 -21
52 -55 71 -97 17 -35 38 -64 46 -64 39 0 109 -47 151 -101 74 -95 198 -135
324 -106 35 9 80 18 99 21 33 5 34 5 16 -9 -49 -37 -129 -57 -213 -53 -110 6
-196 46 -249 120 -43 57 -115 98 -176 98 -49 0 -54 -12 -15 -35 47 -26 96 -75
117 -116 17 -32 24 -37 69 -42 66 -8 104 -29 171 -92 66 -62 110 -79 210 -79
60 -1 85 4 125 24 47 24 50 27 60 82 6 31 17 63 24 72 20 24 25 134 8 199 -14
53 -14 59 3 79 17 22 19 22 53 6 75 -36 118 -127 115 -247 -2 -65 2 -83 24
-127 37 -70 116 -139 185 -161 30 -10 59 -26 65 -36 9 -18 7 -19 -28 -13 -104
19 -203 97 -254 199 -26 53 -30 71 -30 146 -1 69 -5 95 -23 130 -22 43 -71 90
-82 79 -3 -3 3 -35 12 -71 17 -65 17 -66 -7 -144 -34 -111 -37 -189 -10 -243
39 -77 229 -245 339 -300 36 -18 56 -21 97 -17 62 6 138 43 189 91 l38 36 34
-30 c47 -42 99 -66 168 -79 85 -16 86 -16 170 40 110 74 243 203 271 264 30
64 30 106 -1 202 -28 89 -30 127 -11 201 17 61 5 69 -35 25 -51 -57 -53 -63
-59 -172 -6 -120 -24 -169 -90 -243 -45 -52 -138 -104 -201 -114 -44 -6 -44
-6 -24 13 11 11 41 28 67 37 68 25 123 69 165 132 36 54 38 61 43 163 7 121
25 167 85 220 67 58 108 28 85 -61 -18 -71 -14 -160 10 -205 11 -20 22 -56 26
-81 6 -41 10 -46 53 -65 55 -26 174 -29 236 -8 22 8 65 38 95 66 69 66 108 86
180 92 55 5 57 7 80 50 16 30 42 58 77 81 29 19 53 39 53 43 0 12 -57 11 -105
-2 -30 -8 -58 -30 -110 -85 -95 -100 -138 -119 -270 -119 -94 0 -104 2 -160
33 l-60 32 40 -3 c22 -2 69 -12 105 -22 56 -15 74 -16 129 -6 88 17 115 33
196 116 56 58 80 76 119 87 42 12 50 19 61 51 16 46 55 99 96 128 43 30 25 46
-35 29 -58 -16 -109 -60 -150 -129 -75 -129 -253 -185 -414 -130 -34 11 -62
25 -62 30 0 14 49 11 104 -6 62 -19 109 -19 172 0 84 25 135 64 178 138 37 63
83 105 133 121 19 6 21 15 24 89 3 66 9 92 32 135 26 50 26 52 7 52 -26 0 -94
-62 -113 -103 -8 -17 -18 -54 -22 -82 -9 -65 -42 -122 -105 -178 -63 -57 -142
-87 -237 -92 -112 -6 -91 28 23 38 77 6 140 34 197 86 54 50 82 105 97 193 12
65 11 69 -14 112 -29 50 -46 65 -46 42 0 -28 -62 -87 -124 -118 -55 -28 -63
-29 -96 -18 -63 22 -80 38 -80 74 0 43 -35 89 -50 66 -19 -29 -145 -238 -162
-269 -18 -33 -38 -41 -38 -15 0 43 163 382 291 606 205 357 240 470 154 498
-47 15 -51 39 -21 106 14 31 26 67 26 81 0 56 -60 123 -110 123 -48 0 -100
-50 -188 -180 -54 -79 -93 -144 -218 -360 -62 -109 -138 -201 -260 -320 -86
-84 -98 -93 -103 -74 l-6 22 -150 -34 -150 -34 -140 30 c-77 17 -151 33 -164
36 -18 4 -22 2 -18 -10 4 -11 1 -16 -11 -16 -21 0 -241 222 -294 295 -20 28
-79 127 -133 220 -216 377 -305 470 -389 404z"/>
<path d="M3730 8221 c-5 -11 -10 -56 -10 -100 0 -69 -3 -83 -23 -108 -13 -15
-36 -49 -51 -75 -15 -26 -44 -61 -64 -79 l-36 -32 29 -51 c62 -112 124 -196
216 -291 l97 -100 114 -23 c62 -12 148 -30 190 -39 l77 -17 133 31 c73 17 152
34 175 38 38 6 54 18 134 103 103 109 158 183 215 290 35 66 37 74 22 83 -9 5
-45 51 -80 102 l-63 92 -5 94 c-3 60 -9 96 -17 98 -20 7 -89 -64 -123 -129
l-33 -61 13 -78 c7 -43 10 -89 6 -102 -13 -52 -75 -103 -147 -120 -47 -12 -59
9 -68 113 -7 82 -14 108 -53 190 -26 54 -60 109 -80 127 -32 31 -35 32 -56 17
-62 -43 -152 -244 -152 -340 0 -73 -7 -101 -28 -109 -26 -10 -108 24 -145 60
-39 38 -51 81 -37 140 23 97 -3 178 -85 260 -41 40 -50 43 -65 16z"/>
<path d="M8648 8213 c-14 -9 -31 -27 -37 -39 -8 -19 -6 -23 17 -29 15 -4 42
-18 59 -31 l33 -25 40 21 c55 28 52 60 -10 103 -31 21 -67 21 -102 0z"/>
<path d="M8901 8206 c-59 -19 -91 -86 -42 -86 10 0 31 -10 45 -21 l28 -22 20
21 c19 19 20 24 8 67 -7 25 -16 47 -19 49 -3 2 -21 -1 -40 -8z"/>
<path d="M8414 8186 c-49 -22 -86 -86 -49 -86 9 0 34 -9 57 -20 l41 -20 16 23
c8 12 27 32 41 45 l25 23 -25 20 c-14 10 -30 19 -37 19 -6 0 -17 2 -25 5 -7 2
-27 -2 -44 -9z"/>
<path d="M8548 8105 c-26 -15 -48 -43 -48 -63 0 -5 18 -17 40 -27 22 -10 47
-29 55 -42 l16 -24 45 45 c24 25 44 49 44 54 0 4 -12 20 -27 34 -35 33 -89 43
-125 23z"/>
<path d="M8756 8065 c-31 -29 -33 -45 -6 -45 26 0 72 -23 90 -44 11 -14 16
-12 45 21 l33 38 -26 28 c-35 37 -97 38 -136 2z"/>
<path d="M8976 8071 c-4 -7 -5 -15 -2 -18 9 -9 19 4 14 18 -4 11 -6 11 -12 0z"/>
<path d="M8338 8062 c-25 -5 -23 -60 2 -87 l20 -22 43 39 c40 38 41 40 22 51
-26 15 -65 24 -87 19z"/>
<path d="M8916 7981 c-27 -28 -28 -51 -4 -51 6 0 26 -11 44 -25 32 -24 34 -25
54 -8 23 20 24 25 9 76 -9 33 -13 37 -43 37 -23 0 -41 -9 -60 -29z"/>
<path d="M8416 7961 c-27 -28 -28 -51 -4 -51 6 0 26 -11 44 -25 l34 -26 27 26
c16 14 38 28 51 31 29 8 28 17 -9 48 -44 38 -105 36 -143 -3z"/>
<path d="M8688 7975 c-30 -17 -56 -55 -38 -55 5 0 27 -16 49 -35 l39 -35 16
25 c10 14 30 34 46 44 l30 18 -24 22 c-30 28 -83 36 -118 16z"/>
<path d="M8320 7925 c0 -8 4 -15 10 -15 5 0 7 7 4 15 -4 8 -8 15 -10 15 -2 0
-4 -7 -4 -15z"/>
<path d="M8823 7892 c-17 -8 -36 -26 -42 -39 -14 -32 -14 -33 8 -33 10 0 35
-11 56 -25 32 -22 39 -24 49 -11 6 8 26 23 44 34 l34 20 -29 31 c-33 37 -75
45 -120 23z"/>
<path d="M8336 7878 c-22 -12 -20 -35 4 -43 10 -3 30 -19 44 -36 15 -17 27
-25 31 -18 4 5 18 14 31 20 20 7 23 12 15 27 -24 46 -87 71 -125 50z"/>
<path d="M8564 7878 c-38 -20 -57 -58 -29 -58 9 0 36 -20 60 -45 25 -24 45
-40 45 -35 0 5 16 25 36 44 30 29 34 37 25 55 -21 39 -96 60 -137 39z"/>
<path d="M9022 7860 c-16 -27 -15 -30 8 -30 21 0 23 4 12 32 -7 17 -8 16 -20
-2z"/>
<path d="M8306 7773 c-4 -21 -9 -46 -12 -56 -5 -15 -3 -17 13 -8 10 5 30 12
46 16 15 3 27 9 27 14 0 12 -50 71 -60 71 -4 0 -11 -17 -14 -37z"/>
<path d="M6790 7781 c-133 -43 -285 -127 -364 -201 -27 -25 -78 -88 -115 -140
-83 -119 -143 -178 -232 -225 -88 -46 -210 -88 -222 -76 -12 12 7 46 59 104
36 40 49 68 79 162 37 120 62 161 156 262 62 65 64 88 10 80 -26 -3 -57 -20
-95 -51 -65 -52 -111 -78 -176 -97 -63 -18 -204 -159 -221 -221 -23 -88 -40
-125 -69 -153 -17 -16 -30 -32 -30 -37 0 -6 48 -85 77 -127 2 -3 18 9 36 27
38 37 83 55 114 47 30 -7 30 -41 2 -96 -11 -23 -18 -43 -16 -46 3 -2 38 0 79
6 414 61 1068 77 1447 36 275 -30 603 -106 913 -211 611 -208 1098 -512 1554
-968 289 -290 500 -569 677 -896 250 -461 383 -1036 364 -1575 -22 -634 -220
-1208 -596 -1725 -308 -425 -692 -733 -1131 -905 -192 -75 -487 -136 -730
-151 -104 -6 -122 -10 -185 -42 l-70 -35 50 -13 c28 -8 69 -19 92 -25 l42 -11
-24 -48 c-14 -27 -51 -72 -85 -101 -33 -30 -60 -57 -60 -61 0 -25 176 14 262
58 29 15 83 57 121 96 75 76 135 109 232 127 93 17 98 16 82 -16 -8 -16 -18
-59 -22 -97 -8 -83 -23 -125 -64 -193 -17 -27 -31 -53 -31 -57 0 -28 121 38
208 114 65 58 97 104 132 188 18 42 47 98 66 123 34 47 116 110 194 149 25 12
59 36 77 53 29 27 33 28 39 13 4 -10 -1 -43 -10 -73 -14 -44 -16 -73 -11 -151
7 -88 5 -104 -19 -175 -37 -110 -35 -123 14 -91 69 46 178 171 218 251 12 23
33 91 48 152 31 133 69 198 170 289 38 34 71 62 74 62 3 0 11 -17 17 -37 6
-21 21 -65 33 -98 20 -53 22 -73 17 -168 -3 -69 -1 -110 6 -114 27 -17 147
182 186 311 18 57 21 92 20 210 -1 126 1 148 23 206 23 64 105 200 119 200 4
0 13 -26 19 -58 14 -74 33 -115 81 -178 52 -68 75 -123 94 -230 10 -50 21 -97
26 -105 40 -60 138 293 126 451 -3 36 -20 110 -37 165 -41 125 -50 255 -26
357 17 72 67 208 76 208 3 0 18 -24 32 -54 17 -34 45 -68 75 -93 107 -85 150
-138 202 -247 28 -58 55 -106 61 -106 36 0 51 226 26 390 -18 117 -42 176
-130 314 -73 117 -97 191 -103 331 -4 93 -2 115 14 145 30 57 53 52 116 -28
46 -58 69 -76 138 -112 97 -50 161 -106 235 -208 30 -39 59 -72 64 -72 49 0
-2 290 -79 455 -30 63 -58 102 -138 188 -65 69 -114 133 -137 176 -42 81 -73
202 -81 326 -4 50 -11 105 -15 123 -10 37 -10 37 58 -20 40 -34 85 -54 169
-73 87 -20 145 -52 235 -129 43 -36 85 -66 94 -66 52 0 -67 281 -182 432 -31
39 -78 80 -161 136 -142 97 -161 113 -208 176 -52 71 -80 130 -126 269 -24 73
-52 137 -70 159 -16 20 -29 39 -29 42 0 13 53 5 102 -16 46 -19 73 -22 213
-23 l160 0 94 -38 c51 -20 99 -37 107 -37 43 0 -17 89 -140 208 -153 148 -192
168 -461 241 -142 39 -252 123 -373 284 -38 51 -79 100 -90 110 -12 11 -18 25
-15 34 5 13 21 14 102 9 90 -7 103 -5 192 23 107 34 189 39 310 19 55 -9 72
-8 82 1 29 31 -195 189 -357 252 -76 30 -93 32 -261 39 -117 5 -194 13 -221
23 -104 38 -194 94 -310 192 -34 29 -78 59 -98 66 -20 7 -36 16 -36 20 0 11
57 26 120 34 37 4 76 18 115 41 152 88 172 94 383 120 27 3 42 10 42 19 0 38
-213 122 -381 151 -107 18 -152 15 -311 -21 -187 -44 -300 -28 -508 69 -63 30
-124 57 -135 61 l-20 6 20 15 c11 8 45 22 75 31 67 19 89 33 163 100 79 72
133 102 246 135 99 30 118 39 107 56 -22 36 -274 77 -421 69 -104 -5 -124 -11
-315 -91 -156 -64 -289 -68 -484 -11 -48 14 -94 25 -104 25 -9 0 -24 4 -32 10
-21 13 11 45 82 81 55 28 72 45 157 156 50 64 87 93 198 152 48 25 88 51 90
58 12 37 -235 42 -402 8 -105 -21 -157 -46 -292 -138 -166 -113 -203 -123
-467 -120 -192 2 -211 4 -229 21 -25 26 -14 47 53 98 54 41 85 82 118 156 36
82 79 135 172 209 50 40 89 77 87 83 -13 41 -276 -11 -442 -88 -59 -27 -96
-56 -193 -149 -173 -166 -252 -202 -521 -233 -117 -13 -136 -13 -149 -1 -18
19 -6 43 54 110 36 40 49 68 78 161 38 120 64 164 152 258 30 31 54 64 54 72
0 21 -39 20 -110 -3z"/>
<path d="M8948 7785 c-15 -9 -35 -30 -44 -47 -16 -31 -16 -33 7 -48 13 -8 34
-27 48 -43 l24 -27 20 21 c10 11 30 24 44 30 22 8 24 12 17 56 -3 27 -10 52
-14 56 -14 16 -75 17 -102 2z"/>
<path d="M8718 7775 c-25 -14 -58 -61 -58 -83 0 -5 11 -14 24 -21 13 -7 29
-24 36 -37 l13 -23 21 27 c28 37 46 50 79 57 34 8 35 34 3 64 -30 28 -83 36
-118 16z"/>
<path d="M8449 7765 c-38 -20 -44 -44 -15 -55 13 -4 33 -21 44 -35 l21 -27 34
21 c19 12 44 21 56 21 11 0 21 3 21 8 0 11 -30 55 -48 70 -21 16 -81 15 -113
-3z"/>
<path d="M8344 7689 c-17 -5 -39 -18 -48 -28 -18 -19 -17 -20 15 -34 19 -8 40
-21 47 -30 11 -13 16 -14 40 -1 15 8 37 14 50 14 12 0 22 3 22 6 0 4 -19 44
-24 51 -1 1 -18 9 -37 16 -23 10 -44 11 -65 6z"/>
<path d="M8553 7640 c-40 -24 -40 -30 -7 -61 14 -13 30 -35 35 -47 l9 -24 35
31 c20 17 41 31 48 31 46 1 42 39 -8 70 -41 25 -71 25 -112 0z"/>
<path d="M8794 7626 c-33 -33 -43 -56 -24 -56 5 0 25 -13 43 -30 33 -29 35
-29 51 -11 9 10 34 23 56 30 22 6 40 17 40 22 0 6 -15 26 -34 45 -24 25 -43
34 -66 34 -23 0 -41 -9 -66 -34z"/>
<path d="M9032 7615 c-39 -33 -40 -47 -4 -77 16 -13 34 -33 40 -43 9 -16 11
-8 11 45 0 36 -4 73 -8 84 -6 17 -9 16 -39 -9z"/>
<path d="M8250 7568 c-21 -48 -20 -54 8 -39 12 6 34 11 51 11 39 0 46 12 18
37 -42 38 -56 37 -77 -9z"/>
<path d="M8413 7568 c-30 -14 -32 -38 -7 -63 11 -11 25 -29 31 -40 10 -18 12
-18 57 -1 25 10 50 15 55 12 18 -11 20 10 4 42 -26 53 -88 75 -140 50z"/>
<path d="M8684 7541 c-12 -5 -31 -22 -44 -38 l-22 -28 44 -3 c53 -4 148 7 148
17 0 4 -10 17 -23 29 -27 25 -73 35 -103 23z"/>
<path d="M8893 7510 c-39 -23 -41 -32 -10 -49 13 -7 31 -26 41 -41 l17 -29 32
19 c18 11 41 20 53 20 31 0 35 10 16 42 -33 57 -93 72 -149 38z"/>
<path d="M8275 7501 c-42 -18 -47 -35 -17 -64 l27 -26 62 16 c54 13 61 18 53
32 -21 40 -82 60 -125 42z"/>
<path d="M8166 7388 c-14 -23 -24 -43 -22 -45 4 -4 106 51 106 58 0 5 -45 29
-55 29 -2 0 -15 -19 -29 -42z"/>
<path d="M8984 7377 l-27 -23 30 -25 c17 -14 36 -36 43 -48 10 -21 14 -22 27
-9 8 8 17 40 20 71 l6 57 -36 0 c-23 0 -45 -8 -63 -23z"/>
<path d="M8923 7303 c-3 -10 -17 -30 -30 -44 -24 -26 -24 -28 -8 -52 l17 -26
31 20 c18 10 41 19 53 19 11 0 24 3 27 6 11 11 -27 65 -56 80 -25 13 -28 13
-34 -3z"/>
<path d="M8778 7189 c-40 -21 -43 -26 -29 -48 8 -12 14 -13 36 -3 14 7 39 12
55 12 32 0 38 14 16 43 -17 22 -32 21 -78 -4z"/>
<path d="M8946 7169 c-32 -25 -32 -33 -1 -71 14 -16 25 -38 25 -48 0 -18 1
-18 39 0 35 18 39 23 45 71 5 38 4 54 -6 60 -24 15 -75 9 -102 -12z"/>
<path d="M8665 7117 l-27 -22 46 3 c41 4 45 6 35 23 -13 25 -22 24 -54 -4z"/>
<path d="M8792 7105 l-34 -15 26 -31 c14 -17 29 -41 32 -54 5 -22 7 -22 51 -9
25 8 49 11 54 8 5 -3 13 -3 18 1 16 9 -8 63 -41 90 -33 28 -58 31 -106 10z"/>
<path d="M9455 7076 c-27 -14 -43 -25 -34 -25 9 -1 30 -4 46 -7 24 -5 31 -2
41 21 20 44 17 44 -53 11z"/>
<path d="M8641 7055 l-33 -15 36 -40 c20 -22 36 -47 36 -55 0 -11 11 -13 53
-8 28 3 54 7 56 9 3 3 0 21 -5 41 -6 25 -20 45 -43 60 -39 27 -54 28 -100 8z"/>
<path d="M8547 6974 c-16 -19 -27 -38 -24 -41 9 -8 127 -16 127 -9 0 23 -51
85 -70 86 -3 0 -18 -16 -33 -36z"/>
<path d="M6477 6993 l-59 -4 42 -30 c23 -17 50 -46 62 -65 11 -18 24 -34 28
-34 30 0 100 91 100 130 0 10 -46 11 -173 3z"/>
<path d="M6818 6965 c17 -19 37 -53 43 -76 12 -40 14 -41 48 -35 59 9 118 65
123 116 l3 25 -124 3 -124 3 31 -36z"/>
<path d="M7158 6983 c-15 -4 -13 -10 12 -49 16 -25 32 -64 35 -86 7 -39 8 -40
38 -34 53 11 107 76 107 130 0 22 -5 25 -42 30 -85 10 -133 13 -150 9z"/>
<path d="M6161 6973 c-31 -4 -60 -25 -61 -44 0 -4 18 -18 39 -32 22 -15 47
-40 57 -56 17 -30 18 -30 46 -13 32 19 68 85 68 125 0 26 -1 27 -57 25 -32 0
-74 -3 -92 -5z"/>
<path d="M6689 6943 c-6 -20 -29 -56 -51 -79 l-39 -43 30 -15 c31 -17 81 -74
81 -94 0 -24 39 -11 68 23 58 65 52 157 -13 214 -46 40 -61 39 -76 -6z"/>
<path d="M8861 6959 c-13 -5 -21 -12 -18 -15 3 -3 18 1 34 10 31 17 21 20 -16
5z"/>
<path d="M7415 6950 c3 -5 20 -10 36 -10 18 0 28 4 24 10 -3 6 -20 10 -36 10
-18 0 -28 -4 -24 -10z"/>
<path d="M5833 6937 c-67 -9 -73 -12 -73 -33 0 -21 5 -24 34 -24 24 0 49 -11
80 -35 26 -19 55 -35 67 -35 25 0 51 58 47 104 -3 29 -6 31 -43 32 -22 1 -73
-3 -112 -9z"/>
<path d="M6360 6933 c-1 -29 -35 -96 -63 -123 -28 -26 -34 -40 -17 -40 21 0
86 -51 103 -80 10 -16 27 -30 37 -30 30 0 72 64 78 119 7 74 -26 124 -101 156
-35 14 -37 14 -37 -2z"/>
<path d="M7070 6920 c-12 -30 -75 -93 -101 -102 -11 -4 -9 -10 7 -29 29 -32
44 -63 44 -89 0 -31 25 -35 66 -9 38 23 73 85 74 128 0 33 -38 109 -60 121
-14 8 -20 4 -30 -20z"/>
<path d="M7546 6921 c-3 -4 -25 -14 -50 -21 l-44 -12 23 -41 c13 -23 27 -59
30 -80 6 -32 10 -37 29 -31 29 8 66 35 89 65 25 34 35 108 16 120 -18 11 -86
12 -93 0z"/>
<path d="M7700 6890 c0 -21 32 -28 59 -11 15 10 8 15 -31 25 -24 5 -28 3 -28
-14z"/>
<path d="M6028 6843 c-14 -37 -14 -39 9 -56 27 -21 29 -43 7 -68 -14 -16 -13
-20 25 -58 23 -23 41 -46 41 -53 0 -16 39 22 56 54 41 79 -11 191 -98 213 -21
5 -26 1 -40 -32z"/>
<path d="M7810 6853 c-19 -12 -40 -23 -47 -23 -8 0 -1 -18 16 -46 16 -25 33
-64 36 -86 7 -39 8 -40 38 -34 59 12 107 76 107 143 0 39 0 39 -58 54 -57 16
-59 15 -92 -8z"/>
<path d="M7345 6825 c-22 -23 -48 -46 -57 -51 -16 -9 -16 -13 7 -58 14 -27 25
-67 25 -88 0 -45 15 -49 66 -18 35 22 74 91 74 131 -1 34 -35 106 -57 117 -14
7 -26 1 -58 -33z"/>
<path d="M8016 6803 c4 -16 8 -30 10 -32 7 -8 75 14 75 23 0 8 -68 35 -89 36
-1 0 1 -12 4 -27z"/>
<path d="M6852 6758 c-11 -24 -34 -56 -51 -72 l-31 -30 34 -35 c19 -20 42 -53
51 -73 8 -21 20 -38 25 -38 22 0 81 65 91 100 17 57 4 108 -41 152 -21 21 -42
38 -48 38 -6 0 -20 -19 -30 -42z"/>
<path d="M7651 6759 c-18 -22 -49 -48 -67 -57 -34 -16 -34 -16 -15 -36 28 -31
51 -81 51 -111 0 -35 25 -42 68 -19 62 33 94 112 73 177 -12 35 -53 87 -68 87
-4 0 -23 -19 -42 -41z"/>
<path d="M2543 6774 c-23 -10 -14 -23 45 -60 31 -20 78 -56 103 -80 41 -41 48
-44 72 -35 34 13 34 17 -2 72 -51 79 -83 102 -148 106 -32 1 -64 0 -70 -3z"/>
<path d="M6546 6745 c-4 -19 -22 -54 -40 -78 l-33 -43 39 -33 c22 -18 47 -49
56 -67 8 -19 20 -34 25 -34 5 0 25 16 43 35 65 69 51 187 -28 235 -45 28 -55
25 -62 -15z"/>
<path d="M8140 6755 c-19 -14 -49 -28 -66 -31 l-32 -6 19 -41 c10 -23 19 -64
19 -91 l0 -49 40 6 c77 10 130 73 130 155 0 38 -19 72 -40 72 -5 0 -14 2 -22
5 -7 2 -29 -7 -48 -20z"/>
<path d="M5867 6759 c-64 -15 -94 -36 -125 -91 l-30 -53 32 -15 c41 -20 46
-52 11 -77 -89 -61 -146 -132 -127 -156 6 -7 11 -20 13 -30 5 -21 81 76 144
184 51 87 84 121 168 176 37 24 67 48 67 52 0 22 -81 27 -153 10z"/>
<path d="M7169 6707 c-15 -25 -41 -50 -65 -62 -21 -11 -41 -21 -43 -23 -3 -1
5 -9 17 -18 24 -17 62 -83 62 -109 0 -25 37 -17 75 16 62 55 71 147 19 209
-14 16 -29 30 -32 30 -4 0 -19 -20 -33 -43z"/>
<path d="M6230 6711 c0 -31 -27 -91 -53 -120 -18 -20 -19 -25 -7 -29 18 -6 90
-79 106 -107 11 -20 12 -20 39 5 56 51 68 117 35 184 -22 45 -53 71 -94 82
-22 5 -26 3 -26 -15z"/>
<path d="M8300 6675 c0 -53 1 -55 28 -55 28 0 105 39 106 53 1 8 -108 57 -126
57 -4 0 -8 -25 -8 -55z"/>
<path d="M7954 6669 c-15 -16 -44 -37 -64 -45 l-37 -16 13 -37 c7 -20 13 -58
14 -84 0 -45 1 -48 23 -42 103 31 151 119 113 209 -20 47 -29 49 -62 15z"/>
<path d="M5962 6657 c-5 -6 -13 -23 -17 -37 -4 -14 -17 -38 -28 -54 l-21 -29
33 6 c19 4 60 7 92 7 l59 0 -11 27 c-21 55 -87 104 -107 80z"/>
<path d="M7467 6621 c-14 -22 -43 -47 -65 -57 l-40 -19 21 -29 c11 -16 26 -45
33 -65 12 -35 14 -36 60 -36 44 0 50 3 71 34 25 37 31 107 12 144 -14 26 -50
67 -59 67 -4 0 -19 -18 -33 -39z"/>
<path d="M8451 6620 c-19 -16 -55 -34 -81 -41 l-48 -12 14 -33 c8 -18 14 -42
14 -53 0 -11 9 -25 20 -31 12 -6 20 -21 20 -35 0 -31 21 -32 68 -3 36 22 72
85 72 128 0 22 -34 111 -42 110 -2 -1 -18 -14 -37 -30z"/>
<path d="M8567 6607 c4 -12 8 -44 9 -72 3 -86 2 -85 29 -85 41 0 104 30 125
61 24 33 32 26 -94 83 -74 34 -77 34 -69 13z"/>
<path d="M6724 6583 c-10 -44 -43 -92 -80 -117 l-34 -23 31 -29 c17 -16 37
-41 45 -56 19 -36 35 -35 79 3 65 57 71 149 13 214 -36 42 -46 43 -54 8z"/>
<path d="M6427 6573 c-3 -5 -10 -27 -16 -51 -7 -23 -25 -57 -40 -74 l-28 -31
47 -46 c26 -25 49 -53 52 -61 8 -26 55 8 78 55 34 71 20 138 -39 188 -34 28
-46 33 -54 20z"/>
<path d="M7005 6560 c-3 -10 -26 -37 -50 -58 l-45 -39 22 -19 c25 -23 57 -90
58 -122 l0 -24 33 20 c35 23 77 92 77 129 0 13 -7 40 -15 60 -29 68 -67 93
-80 53z"/>
<path d="M7777 6551 c-20 -33 -67 -66 -112 -77 -33 -7 -91 -63 -78 -74 4 -3
44 -15 87 -25 l80 -18 32 36 c37 40 51 93 38 145 -12 46 -25 49 -47 13z"/>
<path d="M8216 6529 c-21 -16 -46 -29 -55 -30 -9 -1 18 -7 59 -14 41 -7 77
-11 79 -9 7 6 -24 77 -34 80 -6 1 -28 -11 -49 -27z"/>
<path d="M2481 6510 c-29 -12 -28 -13 66 -73 78 -50 116 -94 169 -199 29 -57
39 -68 71 -78 95 -31 218 -108 297 -186 l49 -49 -7 45 c-4 25 -16 58 -26 75
-11 16 -28 46 -39 66 -11 19 -40 48 -65 64 -51 32 -119 108 -159 177 -53 92
-156 153 -276 163 -31 3 -67 0 -80 -5z"/>
<path d="M5941 6509 c-105 -21 -168 -69 -265 -208 -62 -88 -110 -130 -192
-166 -28 -13 -58 -35 -67 -49 -15 -22 -46 -131 -47 -161 0 -5 30 20 68 56 103
101 219 170 335 199 40 11 47 16 61 55 28 73 91 150 158 194 111 72 107 68 75
80 -32 13 -63 13 -126 0z"/>
<path d="M6125 6469 c-9 -28 -28 -63 -41 -78 l-24 -28 49 -49 c26 -27 50 -56
53 -64 4 -13 8 -12 26 3 46 41 66 131 41 180 -14 28 -49 66 -70 77 -12 7 -19
-1 -34 -41z"/>
<path d="M7264 6489 c-16 -17 -46 -39 -67 -49 l-38 -17 25 -20 c23 -19 29 -19
88 -7 35 8 73 14 85 14 20 0 21 3 12 29 -11 31 -52 81 -67 81 -4 0 -21 -14
-38 -31z"/>
<path d="M2794 6474 c23 -43 84 -110 92 -101 10 10 -40 82 -76 107 l-32 23 16
-29z"/>
<path d="M8721 6435 c-18 -13 -55 -26 -82 -30 -46 -6 -49 -9 -42 -28 9 -24 10
-85 3 -132 -5 -28 -3 -30 30 -33 48 -4 118 34 141 78 21 39 24 92 8 139 -13
37 -14 37 -58 6z"/>
<path d="M305 6438 c-44 -3 -91 -11 -105 -17 -20 -9 -8 -10 55 -6 150 11 299
-27 368 -93 16 -15 48 -69 73 -119 64 -134 82 -144 267 -154 78 -4 156 -12
172 -17 79 -25 142 -68 229 -157 98 -100 127 -119 205 -136 104 -22 249 33
386 146 156 129 241 156 500 158 139 2 181 -1 230 -16 171 -52 309 -154 358
-265 15 -32 37 -113 51 -179 31 -158 65 -222 176 -334 61 -61 104 -95 151
-118 111 -55 151 -37 164 71 5 35 16 60 46 95 66 80 60 86 -95 103 -106 11
-162 36 -213 95 -40 46 -47 59 -143 260 -54 113 -71 138 -133 201 -83 82 -183
142 -302 180 -117 37 -219 41 -395 15 -260 -39 -344 -70 -490 -180 -98 -73
-177 -111 -233 -111 -57 1 -114 36 -220 138 -56 55 -121 109 -144 120 -47 24
-163 47 -196 38 -34 -8 -143 12 -188 34 -21 11 -73 53 -116 93 -43 40 -94 82
-114 95 -85 52 -200 72 -344 60z"/>
<path d="M7983 6435 c-84 -23 -130 -51 -221 -137 -118 -111 -160 -129 -321
-138 -167 -8 -191 -20 -332 -155 -60 -59 -126 -113 -146 -122 -83 -34 -181 -6
-296 85 -94 75 -139 100 -237 133 -122 40 -401 83 -495 75 -185 -17 -360 -100
-483 -230 -42 -45 -70 -92 -137 -230 -124 -259 -166 -297 -351 -316 -60 -6
-104 -16 -113 -25 -16 -15 -15 -16 42 -87 17 -22 31 -57 38 -94 15 -78 24 -94
58 -94 115 0 314 166 386 322 14 30 36 110 50 179 14 68 37 147 51 176 37 77
130 158 239 209 123 57 160 64 342 64 252 0 346 -30 498 -156 159 -131 311
-180 436 -139 45 15 71 35 155 120 148 150 233 185 445 185 70 0 94 4 130 23
39 20 50 35 95 122 58 112 108 164 182 190 70 24 187 35 274 27 89 -9 91 1 4
17 -82 15 -230 13 -293 -4z"/>
<path d="M8836 6366 l2 -81 28 -3 c40 -4 112 36 136 75 l19 32 -30 15 c-16 9
-44 16 -61 16 -17 0 -45 6 -63 13 l-32 14 1 -81z"/>
<path d="M6856 6404 c-4 -14 -24 -44 -45 -67 l-39 -42 44 -48 43 -48 36 28
c40 32 50 58 41 108 -7 33 -49 95 -66 95 -4 0 -11 -12 -14 -26z"/>
<path d="M8488 6373 c-21 -14 -58 -28 -83 -30 -43 -5 -44 -7 -37 -32 8 -29 9
-95 2 -126 -4 -17 1 -20 35 -23 86 -6 162 77 152 167 -7 64 -23 75 -69 44z"/>
<path d="M6580 6377 c0 -25 -54 -96 -87 -114 -25 -13 -33 -24 -33 -45 0 -15
-4 -38 -10 -52 -9 -24 -6 -27 27 -41 47 -20 85 -12 129 27 39 35 59 91 50 142
-10 52 -76 125 -76 83z"/>
<path d="M8126 6378 c-16 -52 -16 -67 4 -73 42 -13 160 50 144 77 -9 14 -144
10 -148 -4z"/>
<path d="M8023 6365 c-44 -13 -103 -51 -103 -65 0 -5 18 -19 41 -31 l41 -20
24 22 c23 22 49 81 42 98 -2 5 -22 3 -45 -4z"/>
<path d="M6286 6333 c-3 -21 -17 -55 -32 -77 -28 -41 -28 -39 21 -69 11 -6 42
-17 68 -23 47 -11 49 -11 58 13 21 56 1 123 -50 166 -44 36 -57 34 -65 -10z"/>
<path d="M7295 6361 c-27 -4 -41 -12 -43 -23 -2 -13 3 -18 18 -18 26 0 85 24
94 39 8 12 -3 12 -69 2z"/>
<path d="M7502 6349 c-26 -8 -32 -14 -27 -27 4 -9 10 -41 13 -69 4 -48 7 -53
29 -53 41 0 92 28 113 62 20 34 26 73 12 82 -18 11 -109 14 -140 5z"/>
<path d="M9079 6337 c13 -14 38 -31 55 -36 l31 -11 -24 19 c-14 10 -38 27 -55
36 l-31 18 24 -26z"/>
<path d="M2913 6343 c-34 -6 -28 -18 18 -38 56 -26 108 -79 147 -152 65 -123
146 -162 312 -149 86 7 260 35 260 42 0 2 -20 32 -45 65 -25 34 -48 72 -51 84
l-5 22 -57 -23 c-43 -18 -77 -24 -134 -24 -102 0 -169 25 -228 86 -67 68 -146
100 -217 87z"/>
<path d="M5455 6331 c-22 -10 -60 -39 -85 -65 -59 -61 -125 -86 -228 -86 -68
1 -102 8 -162 34 -12 5 -22 -5 -37 -38 -12 -24 -36 -60 -54 -81 -25 -29 -30
-38 -19 -45 25 -16 184 -34 290 -35 89 0 111 4 146 22 49 26 86 67 119 133 35
69 68 104 129 136 30 16 52 32 50 36 -10 15 -109 8 -149 -11z"/>
<path d="M7149 6325 c-89 -31 -127 -65 -74 -65 32 0 74 21 99 49 25 28 19 31
-25 16z"/>
<path d="M5901 6284 c-36 -57 -41 -80 -12 -64 20 10 58 96 48 106 -3 4 -20
-15 -36 -42z"/>
<path d="M7382 6309 c-13 -10 -42 -24 -63 -31 -28 -8 -38 -16 -34 -26 3 -7 8
-25 11 -39 6 -24 10 -25 52 -19 25 3 56 6 70 6 24 0 24 2 20 51 -7 66 -24 85
-56 58z"/>
<path d="M5992 6268 c-12 -28 -21 -52 -20 -53 2 -1 36 -5 76 -7 70 -5 72 -5
66 16 -6 22 -77 96 -91 96 -4 0 -18 -24 -31 -52z"/>
<path d="M8265 6295 c-16 -14 -55 -30 -86 -37 l-56 -11 13 -26 c8 -14 14 -31
14 -38 0 -13 81 -73 98 -73 19 0 71 70 78 105 7 39 -5 97 -21 101 -6 2 -23 -8
-40 -21z"/>
<path d="M5595 6286 c-35 -25 -128 -116 -119 -116 19 0 113 70 134 100 23 32
17 39 -15 16z"/>
<path d="M8981 6265 c-18 -13 -55 -26 -82 -30 -46 -6 -49 -9 -42 -28 9 -24 10
-85 3 -132 -5 -28 -3 -30 30 -33 48 -4 118 34 141 78 21 39 24 92 8 139 -13
37 -14 37 -58 6z"/>
<path d="M7182 6250 c-13 -11 -43 -25 -65 -32 -23 -6 -43 -12 -44 -13 -2 -1 4
-23 13 -49 9 -26 14 -60 12 -76 -3 -17 -2 -30 0 -30 3 0 27 20 53 45 27 25 60
50 74 57 29 13 32 36 9 84 -19 39 -21 40 -52 14z"/>
<path d="M6701 6213 c-9 -35 -25 -61 -61 -95 l-49 -47 42 -31 c23 -16 45 -29
48 -28 4 2 35 36 69 76 44 52 59 78 55 92 -6 19 -69 80 -83 80 -4 0 -14 -21
-21 -47z"/>
<path d="M7844 6180 c-37 -72 -39 -80 -20 -74 52 15 106 74 106 116 0 14 -27
38 -42 38 -2 0 -21 -36 -44 -80z"/>
<path d="M9095 6184 c0 -67 3 -78 20 -85 59 -23 141 2 179 54 l21 28 -35 29
c-27 22 -47 29 -95 33 -33 2 -67 7 -75 11 -13 5 -15 -6 -15 -70z"/>
<path d="M8060 6231 c0 -5 5 -13 10 -16 6 -3 10 -2 10 4 0 5 -4 13 -10 16 -5
3 -10 2 -10 -4z"/>
<path d="M6933 6204 c-20 -18 -22 -22 -7 -15 21 10 52 41 41 41 -3 0 -19 -12
-34 -26z"/>
<path d="M8755 6200 c-16 -11 -49 -25 -72 -31 l-43 -11 2 -47 c1 -25 -1 -63
-6 -83 l-8 -38 39 0 c101 0 179 110 143 204 -11 31 -16 32 -55 6z"/>
<path d="M7985 6200 c3 -5 11 -10 16 -10 6 0 7 5 4 10 -3 6 -11 10 -16 10 -6
0 -7 -4 -4 -10z"/>
<path d="M6977 6165 c-15 -13 -46 -30 -70 -36 -23 -7 -43 -13 -45 -14 -1 -1 5
-22 14 -46 10 -28 13 -60 10 -86 -5 -42 -5 -43 23 -43 33 0 86 33 115 73 25
34 28 110 7 150 -17 33 -19 33 -54 2z"/>
<path d="M8523 6148 c-29 -22 -57 -32 -93 -36 -42 -4 -50 -7 -44 -21 3 -9 9
-36 11 -61 9 -74 53 -106 106 -79 71 37 106 108 87 179 -6 21 -14 41 -18 44
-4 2 -26 -10 -49 -26z"/>
<path d="M8037 6153 c-26 -4 -28 -7 -20 -36 4 -18 8 -58 7 -89 l0 -58 33 0
c19 0 47 7 62 15 33 17 81 70 81 90 0 14 -107 86 -125 84 -5 -1 -23 -4 -38 -6z"/>
<path d="M9346 6141 c-11 -17 86 -82 101 -68 4 4 -82 77 -91 77 -2 0 -7 -4
-10 -9z"/>
<path d="M7920 6105 c-13 -14 -46 -33 -72 -43 -36 -12 -47 -21 -42 -32 4 -8 9
-43 12 -77 4 -60 5 -63 31 -63 43 0 97 44 116 95 19 49 15 109 -8 132 -11 11
-17 9 -37 -12z"/>
<path d="M8301 6086 c-9 -11 -6 -18 15 -35 33 -26 40 -21 24 19 -14 33 -22 37
-39 16z"/>
<path d="M6761 6040 c-23 -29 -40 -58 -38 -64 3 -11 75 -55 89 -56 3 0 12 16
18 36 13 39 7 90 -14 119 -12 17 -16 14 -55 -35z"/>
<path d="M9241 6053 c-20 -8 -55 -13 -81 -11 l-45 3 -1 -55 c0 -31 -8 -69 -18
-88 -10 -19 -15 -36 -13 -39 10 -9 86 -15 111 -9 38 9 93 62 106 102 13 39 4
114 -13 113 -7 0 -28 -7 -46 -16z"/>
<path d="M9001 6022 c-32 -19 -59 -26 -97 -27 l-52 0 1 -75 2 -75 50 -3 c55
-3 101 20 136 68 25 34 34 100 17 122 -12 16 -16 15 -57 -10z"/>
<path d="M9356 6020 c4 -17 -1 -51 -10 -80 -9 -28 -14 -56 -10 -62 10 -16 102
-3 132 19 34 25 67 85 59 106 -5 13 -19 17 -52 17 -25 0 -62 7 -82 15 -45 19
-43 20 -37 -15z"/>
<path d="M7703 6010 c-18 -16 -51 -34 -75 -41 -24 -7 -44 -13 -45 -14 -2 -1 4
-23 13 -49 10 -28 14 -62 11 -82 -6 -33 -5 -34 26 -34 41 0 92 31 118 72 16
26 19 45 16 91 -2 32 -10 64 -18 72 -12 12 -18 10 -46 -15z"/>
<path d="M3680 6015 c0 -2 10 -10 23 -16 20 -11 21 -11 8 4 -13 16 -31 23 -31
12z"/>
<path d="M5334 6011 c-20 -19 -86 -32 -163 -32 -45 0 -81 -2 -81 -5 0 -3 12
-28 27 -57 23 -44 27 -65 27 -132 0 -67 -4 -88 -27 -132 -39 -75 -81 -118
-145 -150 -49 -24 -69 -28 -142 -28 -73 0 -92 4 -136 27 -62 32 -105 74 -141
135 -21 36 -27 63 -31 124 -5 78 -5 79 -31 79 -46 0 -127 29 -179 63 l-49 34
-29 -25 c-48 -39 -149 -83 -208 -89 l-56 -6 0 -42 c0 -121 -86 -241 -205 -285
-154 -57 -331 18 -397 168 -39 88 -34 177 17 295 6 15 0 17 -68 17 -41 0 -93
7 -116 15 -22 8 -41 11 -41 7 0 -4 6 -43 14 -87 19 -107 106 -301 172 -382 47
-57 100 -80 216 -92 53 -5 106 -15 117 -21 33 -17 37 -57 10 -93 -12 -18 -31
-44 -42 -58 -11 -15 -23 -49 -28 -75 -15 -82 -28 -103 -69 -115 -71 -21 -181
32 -298 144 l-64 62 7 -40 c23 -129 112 -310 198 -402 33 -34 66 -63 74 -63
28 0 95 42 159 100 36 33 77 63 91 66 13 4 23 9 21 13 -2 3 -16 33 -33 66 -27
53 -30 70 -30 150 0 74 4 97 23 133 53 99 164 180 234 170 25 -4 31 0 47 37
26 59 84 120 139 147 38 19 63 23 137 23 78 0 97 -4 147 -28 64 -32 110 -81
134 -144 15 -39 18 -41 49 -36 74 12 179 -68 232 -175 23 -47 28 -70 28 -133
0 -68 -4 -84 -36 -146 l-36 -70 45 -23 c24 -13 51 -34 59 -46 18 -28 109 -91
144 -99 22 -5 34 3 90 62 72 78 135 188 173 307 36 110 34 116 -21 64 -138
-128 -283 -179 -337 -119 -9 10 -21 47 -27 82 -7 43 -19 74 -37 97 -94 116
-73 152 98 167 169 14 219 61 328 310 26 60 70 260 59 271 -2 2 -8 0 -13 -5z"/>
<path d="M5914 6010 c-19 -7 -74 -68 -74 -81 0 -3 27 -1 60 5 l60 10 0 38 c0
40 -7 44 -46 28z"/>
<path d="M7415 6009 c-75 -17 -97 -30 -91 -53 3 -12 6 -33 6 -48 0 -24 4 -28
28 -28 54 0 132 72 132 123 0 19 -13 20 -75 6z"/>
<path d="M7568 6013 c12 -2 30 -2 40 0 9 3 -1 5 -23 4 -22 0 -30 -2 -17 -4z"/>
<path d="M6152 5969 c24 -24 48 -53 54 -64 11 -20 12 -20 39 5 29 27 60 79 51
87 -3 3 -46 8 -96 11 l-90 5 42 -44z"/>
<path d="M8296 5917 l1 -92 40 1 c23 0 56 10 77 24 l38 23 -51 51 c-28 29 -64
59 -79 68 l-27 16 1 -91z"/>
<path d="M5780 5977 c-179 -66 -291 -192 -314 -351 l-8 -49 32 23 c17 12 49
47 72 78 96 133 123 164 170 194 41 27 116 114 106 123 -2 2 -28 -6 -58 -18z"/>
<path d="M8182 5970 c-18 -17 -53 -36 -78 -42 -42 -12 -45 -14 -37 -38 4 -14
7 -49 6 -79 l-1 -53 45 5 c78 9 133 70 133 149 0 36 -17 88 -29 88 -3 0 -21
-14 -39 -30z"/>
<path d="M6023 5973 c-20 -8 -15 -41 7 -48 11 -3 23 -18 27 -33 5 -21 0 -31
-27 -54 -19 -15 -32 -29 -29 -31 2 -2 20 -13 40 -25 19 -12 41 -33 49 -47 16
-30 27 -28 54 9 29 38 29 124 0 162 -35 48 -92 79 -121 67z"/>
<path d="M6336 5956 c-3 -14 -18 -39 -33 -57 -22 -26 -25 -33 -13 -37 17 -6
89 -78 107 -107 12 -19 13 -19 47 17 37 39 56 100 39 127 -11 18 -111 81 -129
81 -6 0 -15 -11 -18 -24z"/>
<path d="M8750 5959 c-19 -11 -55 -19 -80 -19 l-45 0 2 -82 c2 -78 3 -83 25
-86 13 -1 43 8 68 20 57 29 96 98 86 153 -8 39 -8 40 -56 14z"/>
<path d="M2740 5964 c0 -19 27 -48 77 -81 41 -27 78 -67 140 -151 47 -62 86
-112 88 -110 6 6 -12 79 -30 122 -20 48 -93 126 -154 165 -50 32 -121 65 -121
55z"/>
<path d="M3557 5949 c-20 -11 -49 -38 -65 -61 -23 -35 -27 -52 -27 -108 0 -83
31 -137 97 -169 153 -73 321 59 278 218 -9 34 -21 47 -87 90 -86 58 -130 65
-196 30z m189 -44 c95 -73 79 -217 -30 -266 -53 -24 -80 -24 -132 2 -56 27
-88 77 -88 139 0 130 147 204 250 125z"/>
<path d="M4738 5927 c-76 -48 -93 -75 -93 -153 2 -121 112 -204 240 -180 71
14 144 107 145 187 0 56 -45 135 -94 164 -66 38 -116 34 -198 -18z m155 -1
c18 -7 46 -28 62 -45 27 -29 30 -38 30 -101 0 -65 -2 -71 -34 -104 -67 -69
-153 -72 -221 -7 -123 117 7 324 163 257z"/>
<path d="M9562 5936 c-9 -20 -7 -27 16 -49 31 -30 72 -47 110 -47 25 0 22 5
-38 60 -36 32 -68 59 -71 60 -3 0 -11 -11 -17 -24z"/>
<path d="M7200 5879 c-33 -34 -63 -74 -69 -90 -9 -26 -8 -29 13 -29 28 0 82
35 108 71 24 31 37 109 18 109 -6 0 -38 -28 -70 -61z"/>
<path d="M7485 5894 c-27 -28 -55 -46 -85 -55 -25 -7 -46 -13 -48 -14 -1 -1 5
-21 13 -45 8 -23 15 -53 15 -66 0 -51 103 -19 152 47 28 37 32 97 11 140 l-18
36 -40 -43z"/>
<path d="M7952 5884 c-24 -19 -61 -37 -83 -40 -21 -4 -39 -7 -39 -8 0 0 7 -19
15 -41 8 -22 14 -59 15 -82 0 -36 3 -43 20 -43 61 0 131 61 145 127 6 31 -9
108 -23 116 -4 2 -26 -11 -50 -29z"/>
<path d="M8523 5908 c-13 -6 -23 -14 -23 -17 0 -4 18 -25 41 -46 l40 -40 -3
55 c-3 59 -14 68 -55 48z"/>
<path d="M2540 5901 c-18 -12 -22 -8 73 -71 78 -52 113 -92 160 -186 20 -40
35 -54 69 -69 52 -24 129 -94 171 -155 44 -65 117 -150 129 -150 15 0 0 66
-27 121 -14 26 -32 76 -41 112 -12 48 -23 71 -41 82 -13 9 -59 65 -103 124
-109 148 -172 189 -304 197 -40 3 -78 1 -86 -5z"/>
<path d="M5845 5886 c-93 -30 -142 -72 -231 -198 -54 -76 -99 -122 -140 -140
-14 -6 -27 -29 -39 -66 -9 -32 -30 -82 -45 -112 -30 -57 -49 -140 -32 -140 26
0 99 70 160 153 79 106 129 154 190 181 34 16 49 30 69 70 43 87 92 142 170
192 40 26 72 52 70 58 -5 16 -125 17 -172 2z"/>
<path d="M6534 5833 c-17 -53 -28 -73 -49 -93 l-24 -23 43 -28 c24 -15 52 -41
62 -58 19 -33 33 -37 64 -21 18 10 18 11 -1 55 -11 25 -23 69 -26 97 -4 36
-13 58 -27 70 -27 22 -35 22 -42 1z"/>
<path d="M9451 5833 c-20 -8 -55 -13 -81 -11 l-45 3 -1 -55 c0 -31 -8 -69 -18
-88 -10 -19 -15 -36 -13 -39 10 -9 86 -15 111 -9 38 9 93 62 106 102 13 39 4
114 -13 113 -7 0 -28 -7 -46 -16z"/>
<path d="M8442 5810 c-23 -16 -61 -31 -83 -35 -34 -6 -39 -10 -33 -27 6 -19 6
-69 1 -133 -2 -27 1 -30 31 -33 41 -4 110 29 137 66 25 34 28 136 5 169 l-16
22 -42 -29z"/>
<path d="M6220 5810 c0 -31 -28 -92 -56 -121 l-26 -27 38 -12 c20 -7 57 -33
81 -57 48 -50 58 -49 87 11 41 87 -8 194 -101 221 -19 5 -23 2 -23 -15z"/>
<path d="M9220 5813 c-23 -10 -54 -14 -91 -10 l-56 5 8 -42 c4 -23 4 -60 -1
-82 -15 -63 -14 -64 39 -64 52 0 100 25 132 70 25 34 34 100 17 121 -12 15
-16 15 -48 2z"/>
<path d="M9567 5799 c3 -16 -2 -51 -11 -80 -12 -35 -14 -55 -7 -62 19 -19 104
-19 141 0 43 22 82 79 78 113 -3 24 -5 25 -60 22 -40 -3 -69 2 -102 16 l-45
21 6 -30z"/>
<path d="M7747 5785 c-15 -13 -46 -30 -70 -36 -23 -7 -43 -13 -44 -14 -2 -1 4
-23 13 -49 10 -28 14 -62 11 -82 -7 -39 3 -43 56 -20 43 18 85 68 93 112 6 35
-10 114 -24 114 -4 0 -19 -12 -35 -25z"/>
<path d="M8976 5798 c-11 -6 -45 -8 -83 -5 -57 4 -64 3 -57 -12 22 -54 27 -96
14 -143 -10 -42 -10 -52 1 -59 43 -27 134 17 167 81 24 47 24 108 0 137 -13
16 -17 16 -42 1z"/>
<path d="M7263 5766 c-18 -18 -52 -39 -75 -46 -24 -8 -44 -14 -45 -15 -1 0 4
-19 12 -40 8 -22 14 -55 15 -72 0 -26 4 -33 20 -33 35 0 85 31 110 68 29 42
34 132 9 157 -12 12 -18 10 -46 -19z"/>
<path d="M6645 5745 c7 -43 24 -80 32 -71 9 9 -6 71 -23 92 -14 18 -15 16 -9
-21z"/>
<path d="M5956 5754 c4 -11 9 -50 9 -89 1 -38 7 -82 15 -97 10 -22 10 -30 0
-43 -14 -17 -7 -45 13 -45 18 0 63 49 76 83 31 80 -16 176 -98 202 -21 6 -23
5 -15 -11z"/>
<path d="M8235 5759 c-11 -17 -86 -49 -119 -49 -23 0 -27 -3 -20 -17 4 -10 9
-49 10 -88 0 -39 6 -71 12 -73 23 -7 93 20 121 49 41 40 55 95 39 145 -14 39
-31 53 -43 33z"/>
<path d="M8762 5758 c-7 -7 -35 -20 -62 -28 l-50 -15 51 -73 c28 -40 55 -70
60 -66 24 15 51 89 46 127 -7 49 -27 73 -45 55z"/>
<path d="M5873 5718 c-28 -30 -63 -90 -63 -106 0 -9 13 -12 47 -10 44 3 48 6
56 35 10 33 2 103 -12 103 -4 0 -17 -10 -28 -22z"/>
<path d="M6724 5685 c0 -51 2 -55 23 -55 46 0 134 64 102 74 -8 2 -34 9 -58
16 -23 6 -48 13 -55 16 -7 3 -11 -14 -12 -51z"/>
<path d="M8570 5715 c0 -13 -5 -36 -12 -50 -9 -21 -9 -28 1 -35 15 -9 71 -3
84 9 7 7 -57 101 -68 101 -3 0 -5 -11 -5 -25z"/>
<path d="M6976 5714 c-59 -16 -69 -24 -30 -24 16 1 45 9 64 20 40 22 34 23
-34 4z"/>
<path d="M9798 5697 l-17 -36 34 -30 c33 -29 90 -48 116 -39 7 2 -15 33 -52
72 l-64 68 -17 -35z"/>
<path d="M7537 5691 c-16 -16 -49 -35 -73 -42 -33 -10 -43 -17 -38 -29 18 -43
25 -86 19 -116 -5 -31 -4 -34 19 -34 63 0 128 59 142 128 6 31 -19 122 -34
122 -4 0 -20 -14 -35 -29z"/>
<path d="M7059 5681 c-14 -11 -45 -26 -67 -33 -31 -10 -41 -17 -36 -28 20 -48
26 -93 16 -130 -9 -36 -8 -40 10 -40 29 0 73 26 101 59 35 43 43 99 20 151
l-18 42 -26 -21z"/>
<path d="M8009 5674 c-18 -22 -58 -41 -103 -49 -35 -7 -37 -9 -30 -34 5 -14 8
-48 9 -76 0 -27 4 -53 9 -56 13 -10 77 8 105 29 52 37 74 116 51 176 -11 30
-22 33 -41 10z"/>
<path d="M6406 5632 c-3 -23 -21 -60 -40 -86 -20 -25 -30 -46 -24 -48 14 -5
194 34 203 44 10 10 -32 84 -58 101 -14 9 -36 19 -50 22 -22 6 -25 3 -31 -33z"/>
<path d="M4150 5627 c-56 -18 -125 -95 -146 -160 -15 -48 -20 -55 -35 -46 -49
26 -133 -4 -189 -67 -80 -92 -98 -212 -47 -316 35 -72 98 -134 165 -166 48
-22 64 -24 146 -20 75 3 103 9 142 29 103 53 60 81 -121 77 -114 -2 -126 0
-171 23 -62 32 -94 78 -94 134 0 61 19 73 61 38 30 -25 41 -28 138 -33 130 -7
168 -24 191 -89 9 -25 26 -49 42 -59 26 -15 29 -15 55 4 16 12 33 35 38 52 24
71 70 92 201 92 68 0 87 4 115 23 59 40 58 40 69 11 24 -63 -20 -142 -100
-177 -38 -17 -64 -20 -159 -18 -106 2 -181 -10 -181 -28 0 -16 39 -43 89 -62
64 -24 179 -25 244 -3 60 20 135 88 171 155 41 74 47 174 16 246 -25 58 -112
148 -154 159 -27 6 -69 2 -97 -10 -13 -6 -18 1 -22 31 -10 58 -59 127 -113
159 -41 24 -60 28 -133 31 -47 1 -102 -3 -121 -10z"/>
<path d="M6859 5621 c-14 -11 -44 -26 -67 -33 -23 -7 -41 -17 -39 -23 4 -11
138 -115 149 -115 4 0 12 19 19 42 12 45 3 96 -24 131 -12 18 -14 17 -38 -2z"/>
<path d="M7347 5607 c-29 -44 -69 -75 -114 -89 -33 -9 -42 -16 -37 -28 4 -8
12 -36 17 -62 10 -43 14 -48 39 -48 102 0 175 119 130 214 l-18 39 -17 -26z"/>
<path d="M9691 5603 c-20 -8 -55 -13 -81 -11 l-45 3 -1 -55 c0 -31 -8 -69 -18
-88 -10 -19 -15 -36 -13 -39 10 -9 86 -15 111 -9 38 9 93 62 106 102 13 39 4
114 -13 113 -7 0 -28 -7 -46 -16z"/>
<path d="M6126 5575 c-4 -19 -22 -55 -41 -80 -19 -25 -35 -47 -35 -49 0 -2 14
-9 30 -16 27 -11 41 -10 105 11 46 14 75 29 75 37 0 30 -35 84 -69 108 -47 32
-58 30 -65 -11z"/>
<path d="M9435 5595 c-16 -8 -52 -14 -80 -15 l-50 0 -2 -44 c-1 -24 -9 -59
-18 -77 -17 -32 -17 -33 5 -51 27 -22 100 -24 139 -3 66 33 104 118 82 178
-12 30 -30 33 -76 12z"/>
<path d="M9200 5585 c-14 -8 -48 -14 -76 -15 l-51 0 10 -45 c7 -32 7 -56 -1
-82 -14 -46 -4 -58 40 -49 84 16 147 98 133 172 -6 37 -17 41 -55 19z"/>
<path d="M7781 5565 c-13 -13 -43 -29 -68 -36 -34 -9 -43 -15 -37 -28 4 -9 9
-44 12 -79 4 -58 6 -62 26 -56 94 29 143 106 120 186 -12 40 -23 43 -53 13z"/>
<path d="M8620 5580 c-19 -5 -42 -7 -51 -4 -14 4 -17 -5 -18 -58 0 -35 -2 -74
-3 -88 -3 -24 0 -25 52 -28 61 -3 106 18 135 62 16 24 16 27 -12 73 -31 51
-46 57 -103 43z"/>
<path d="M2618 5574 c-30 -9 -21 -22 46 -64 91 -57 137 -113 200 -238 95 -189
245 -348 441 -466 90 -54 108 -48 48 17 -69 76 -137 205 -172 328 -13 46 -24
62 -61 91 -25 18 -66 63 -92 98 -87 120 -139 172 -203 201 -59 28 -167 44
-207 33z"/>
<path d="M6660 5570 c-12 -8 -11 -10 8 -10 12 0 22 5 22 10 0 13 -11 13 -30 0z"/>
<path d="M5797 5559 c-97 -23 -170 -82 -260 -210 -53 -76 -102 -122 -162 -151
-37 -18 -44 -27 -59 -74 -31 -98 -105 -232 -163 -294 -30 -33 -49 -60 -42 -60
8 0 53 13 100 28 177 58 382 260 483 477 51 108 102 168 192 225 35 22 64 44
64 49 0 21 -84 26 -153 10z"/>
<path d="M8445 5549 c-22 -10 -56 -19 -75 -19 l-36 0 4 -64 c2 -36 -1 -72 -7
-85 -11 -20 -9 -21 30 -21 79 0 141 64 143 146 1 57 -10 66 -59 43z"/>
<path d="M8991 5556 c-15 -18 -104 -40 -130 -31 -19 6 -20 3 -15 -47 8 -79 12
-92 34 -121 18 -22 24 -24 52 -17 64 19 114 96 105 163 -7 50 -28 75 -46 53z"/>
<path d="M9806 5528 c-4 -22 -15 -57 -26 -79 -11 -21 -20 -40 -20 -43 0 -3 17
-10 38 -17 74 -22 169 32 188 106 11 44 1 53 -53 48 -31 -3 -62 0 -85 10 l-36
15 -6 -40z"/>
<path d="M8226 5510 c-15 -10 -48 -21 -71 -25 -44 -6 -44 -6 -33 -36 6 -18 8
-57 4 -91 l-6 -60 37 7 c86 16 133 68 133 148 0 80 -12 90 -64 57z"/>
<path d="M7107 5460 c-16 -16 -47 -38 -70 -48 l-41 -18 67 -27 c37 -15 74 -27
81 -27 22 0 30 71 12 114 -8 20 -16 36 -18 36 -2 0 -16 -13 -31 -30z"/>
<path d="M7581 5465 c-13 -13 -44 -30 -68 -37 -33 -9 -42 -16 -37 -28 4 -8 12
-38 18 -67 11 -58 26 -68 74 -47 38 16 72 78 72 133 0 74 -17 88 -59 46z"/>
<path d="M5870 5446 c-25 -18 -56 -45 -70 -60 l-24 -27 32 -31 32 -32 56 27
56 28 -4 50 c-8 76 -23 85 -78 45z"/>
<path d="M10016 5443 l-18 -37 26 -23 c25 -22 91 -41 103 -30 4 5 -83 127 -91
127 -1 0 -10 -17 -20 -37z"/>
<path d="M8023 5443 c-18 -14 -49 -27 -70 -30 l-39 -5 1 -85 0 -85 38 5 c82
11 130 71 124 155 -2 29 -8 57 -13 61 -5 6 -22 -1 -41 -16z"/>
<path d="M6010 5395 c0 -16 16 -20 24 -6 3 5 -1 11 -9 15 -9 3 -15 0 -15 -9z"/>
<path d="M7377 5381 c-16 -16 -48 -35 -73 -42 -73 -22 -57 -33 69 -47 73 -9
77 -8 77 19 0 23 -30 99 -39 99 -3 0 -19 -14 -34 -29z"/>
<path d="M7820 5365 c-13 -14 -48 -33 -77 -41 -50 -15 -53 -17 -47 -42 4 -15
9 -30 13 -33 7 -7 105 -39 121 -39 27 0 49 101 34 158 -8 28 -15 28 -44 -3z"/>
<path d="M9211 5376 c-15 -18 -104 -40 -130 -31 -19 6 -20 3 -15 -42 4 -31 0
-64 -10 -93 -8 -24 -13 -47 -10 -50 3 -3 30 -5 60 -4 63 0 98 21 131 80 27 46
29 84 8 124 -18 34 -19 35 -34 16z"/>
<path d="M8685 5360 c-11 -5 -47 -9 -80 -9 l-61 -1 4 -38 c2 -21 -3 -56 -12
-76 -21 -51 -21 -53 13 -61 45 -10 103 11 141 49 28 29 34 45 38 91 5 58 0 63
-43 45z"/>
<path d="M8780 5323 c0 -59 -23 -105 -77 -152 l-44 -39 27 -21 c32 -25 81 -35
124 -26 40 9 95 57 108 94 9 25 4 37 -39 103 -35 54 -55 77 -74 80 -24 5 -25
3 -25 -39z"/>
<path d="M9440 5355 c-14 -8 -49 -14 -77 -15 -52 0 -53 0 -53 -30 0 -17 -7
-47 -15 -67 -24 -56 -20 -71 20 -79 26 -5 47 0 82 17 60 30 99 98 89 154 -8
39 -10 40 -46 20z"/>
<path d="M9660 5358 c-14 -5 -48 -8 -76 -6 l-50 4 -1 -46 c0 -26 -8 -61 -17
-79 -21 -40 -14 -51 31 -51 77 0 135 53 149 137 7 46 0 55 -36 41z"/>
<path d="M8445 5329 c-19 -12 -48 -19 -77 -19 l-48 0 0 -49 c0 -27 -3 -63 -7
-81 l-6 -33 48 5 c82 10 138 68 139 144 1 26 -3 48 -9 50 -5 1 -23 -6 -40 -17z"/>
<path d="M9745 5307 c-4 -23 -15 -57 -26 -75 -10 -18 -19 -40 -19 -48 0 -30
98 -46 143 -23 64 33 107 110 92 166 -5 22 -9 24 -38 17 -40 -10 -73 -10 -114
-2 -31 7 -32 6 -38 -35z"/>
<path d="M9985 5320 c8 -25 -12 -98 -36 -131 -26 -37 -24 -46 15 -59 90 -29
196 46 196 140 0 29 -2 30 -42 30 -24 0 -63 9 -87 20 -53 25 -54 25 -46 0z"/>
<path d="M6845 5323 c-323 -29 -589 -104 -882 -249 -178 -88 -217 -114 -170
-114 36 0 76 -20 82 -40 9 -30 -5 -49 -68 -87 -33 -20 -57 -38 -51 -39 106
-27 125 -36 135 -61 12 -32 -8 -57 -60 -74 -61 -20 -130 -58 -171 -96 -22 -19
-40 -39 -40 -43 0 -4 17 -11 38 -15 61 -11 119 -41 127 -65 10 -32 -17 -54
-100 -80 -38 -12 -88 -34 -110 -49 l-40 -26 90 -6 c99 -6 183 -37 230 -83 28
-28 31 -44 12 -71 -11 -14 -34 -20 -114 -26 -108 -8 -154 -25 -243 -90 l-44
-32 24 -16 c44 -28 111 -94 126 -124 14 -25 14 -31 -1 -53 -19 -29 -18 -29
-128 -2 -77 19 -97 20 -151 11 -33 -6 -74 -16 -89 -22 l-29 -11 54 -54 c62
-60 108 -143 108 -193 0 -27 -5 -35 -26 -43 -23 -9 -36 -4 -98 33 -101 63
-125 69 -276 73 -74 2 -159 9 -188 15 -30 6 -55 9 -57 7 -2 -2 -6 -14 -9 -28
-4 -21 2 -30 36 -55 31 -22 52 -52 82 -112 51 -101 73 -126 151 -162 33 -16
83 -46 109 -66 110 -84 160 -94 272 -54 41 15 99 24 189 29 86 6 176 19 264
40 157 37 195 37 199 0 3 -29 -41 -79 -117 -134 l-43 -31 58 -18 c33 -9 66
-25 74 -35 9 -9 33 -26 55 -37 86 -44 155 -143 170 -245 14 -100 -44 -140 -84
-57 -49 101 -150 183 -209 171 -27 -5 -40 0 -84 34 -68 51 -119 82 -138 82 -8
0 -65 -20 -125 -45 -61 -25 -117 -45 -126 -45 -9 0 -36 -26 -60 -57 l-45 -58
32 -42 c17 -22 45 -76 63 -120 47 -117 64 -145 111 -178 38 -27 49 -30 123
-30 66 0 99 6 165 30 69 25 85 28 102 17 11 -6 32 -12 47 -12 43 0 144 53 188
99 97 102 135 2 45 -122 -39 -55 -111 -103 -182 -121 -31 -8 -66 -19 -77 -25
-11 -7 -82 -11 -168 -11 -81 0 -188 -5 -236 -11 -86 -10 -89 -10 -140 16 -29
15 -82 47 -119 70 l-66 43 -4 -91 c-6 -127 9 -182 62 -229 48 -43 111 -67 195
-74 111 -9 125 -14 135 -38 16 -42 147 -50 246 -15 73 26 94 21 94 -20 0 -64
-140 -145 -250 -145 -134 0 -179 11 -325 78 -77 35 -173 74 -213 86 -71 20
-75 24 -120 86 -26 35 -63 91 -83 124 l-37 60 -16 -40 c-21 -54 -20 -123 3
-168 25 -49 101 -119 174 -161 50 -28 62 -44 58 -73 -1 -13 73 -71 115 -89 23
-11 70 -22 103 -25 66 -7 84 -20 79 -56 -2 -18 -15 -26 -63 -41 -78 -24 -167
-18 -235 15 -28 14 -50 23 -50 21 0 -14 110 -144 205 -242 316 -327 729 -563
1160 -664 205 -48 323 -61 555 -61 392 0 696 69 1045 239 483 234 864 616
1101 1100 112 230 180 447 220 707 25 159 25 519 1 676 -42 262 -109 478 -222
707 -68 140 -172 315 -186 315 -4 0 -28 -35 -55 -77 -209 -340 -408 -601 -652
-855 l-93 -97 51 -63 c67 -81 164 -279 157 -316 -19 -96 -36 -222 -42 -312 -5
-76 -13 -119 -30 -155 -12 -27 -25 -62 -29 -77 -15 -66 -114 -160 -197 -188
-55 -19 -85 -15 -103 13 -9 14 1 27 51 74 40 37 71 78 87 113 29 62 31 82 14
109 -10 16 -7 29 15 73 59 118 76 232 44 295 -13 25 -89 103 -100 103 -2 0 -2
-47 1 -104 7 -154 0 -184 -59 -257 -28 -35 -82 -115 -121 -178 -74 -120 -105
-161 -121 -161 -5 0 -18 -11 -29 -25 -70 -89 -235 -138 -338 -101 -29 11 -35
18 -35 42 0 27 4 30 60 45 34 9 76 24 94 33 45 24 122 96 115 108 -11 18 6 53
34 70 46 28 140 124 162 168 24 48 26 129 4 172 -9 17 -41 64 -71 104 l-56 74
-32 -78 c-63 -154 -78 -175 -150 -207 -27 -12 -113 -64 -190 -115 -77 -51
-156 -97 -175 -101 -19 -4 -60 -15 -90 -23 -30 -9 -71 -16 -90 -16 -90 0 -230
69 -230 114 0 39 20 48 81 35 103 -22 249 9 249 53 0 21 24 33 97 47 113 23
217 95 242 170 16 48 14 81 -10 173 -13 51 -19 106 -18 147 2 58 0 66 -17 69
-10 2 -59 17 -109 34 -104 35 -156 33 -217 -7 -47 -31 -99 -110 -129 -195 -27
-77 -35 -90 -61 -90 -14 0 -27 -17 -46 -57 -23 -50 -27 -71 -27 -150 0 -98 -8
-117 -45 -111 -28 4 -66 73 -82 151 -14 66 -2 144 32 209 11 21 20 47 20 58 0
11 25 49 55 85 80 94 197 247 216 282 13 24 34 37 98 61 143 55 196 65 333 66
l127 1 16 35 c53 111 241 364 419 563 203 226 276 352 284 488 4 67 1 84 -21
133 -33 71 -96 154 -178 232 -166 157 -315 217 -629 254 -173 20 -294 44 -379
74 -41 15 -139 19 -246 9z"/>
<path d="M8968 5301 c-21 -9 -38 -18 -38 -22 0 -3 14 -25 32 -49 l32 -43 13
29 c14 32 17 91 6 97 -5 2 -25 -3 -45 -12z"/>
<path d="M5735 5279 c-21 -39 -15 -45 25 -24 31 16 31 17 14 36 -9 10 -19 19
-20 19 -2 0 -11 -14 -19 -31z"/>
<path d="M8230 5275 c-14 -7 -45 -16 -70 -20 l-45 -6 -1 -80 c-1 -88 1 -89 63
-64 54 22 93 81 93 139 0 50 -3 52 -40 31z"/>
<path d="M10187 5189 l-26 -54 21 -22 c24 -26 82 -47 116 -41 21 3 19 8 -31
86 l-54 84 -26 -53z"/>
<path d="M8015 5209 c-22 -10 -52 -19 -67 -19 -43 0 -33 -22 29 -59 l56 -34
19 23 c18 22 27 111 11 109 -5 0 -26 -9 -48 -20z"/>
<path d="M8960 5151 c0 -18 -62 -81 -99 -100 l-35 -19 34 -21 c43 -26 112 -28
160 -3 19 9 35 24 35 33 0 8 -21 39 -47 68 -27 29 -48 48 -48 42z"/>
<path d="M9415 5131 c-16 -8 -51 -15 -77 -15 l-46 -1 5 -45 c3 -28 -1 -62 -11
-90 -8 -24 -13 -46 -11 -48 2 -2 21 -6 42 -9 100 -12 207 115 163 196 -14 26
-31 30 -65 12z"/>
<path d="M9628 5145 c-3 -3 -25 -9 -49 -13 -43 -7 -44 -8 -41 -43 2 -19 -6
-59 -18 -88 -11 -30 -19 -56 -16 -59 12 -11 74 10 107 38 44 36 68 106 51 145
-11 24 -23 31 -34 20z"/>
<path d="M2784 5119 c-7 -12 -4 -15 71 -59 56 -32 121 -96 156 -153 19 -30 37
-43 79 -59 30 -11 71 -22 90 -24 l35 -5 -30 23 c-81 62 -177 153 -229 217
l-58 71 -54 0 c-29 0 -56 -5 -60 -11z"/>
<path d="M5634 5100 c-44 -64 -136 -160 -209 -218 -77 -63 -85 -88 -17 -53 21
11 54 22 75 26 31 6 41 15 65 59 35 60 86 109 165 157 32 18 56 38 54 44 -2 5
-28 11 -58 13 -50 2 -55 0 -75 -28z"/>
<path d="M8415 5115 c-16 -8 -51 -14 -76 -15 l-47 0 -5 -52 c-3 -29 -8 -63
-12 -75 -7 -22 -4 -23 37 -23 77 0 144 62 150 139 3 39 -6 44 -47 26z"/>
<path d="M8513 5096 c0 -19 -10 -58 -23 -87 l-24 -51 29 -24 c89 -72 217 -35
249 72 5 18 0 24 -37 38 -24 9 -57 29 -73 45 -19 19 -44 30 -76 35 l-46 7 1
-35z"/>
<path d="M9170 5114 c-19 -7 -48 -13 -64 -13 l-29 -1 42 -45 c23 -25 49 -61
58 -80 20 -41 27 -43 48 -11 23 34 29 88 15 130 -13 39 -17 40 -70 20z"/>
<path d="M3840 5093 c0 -33 46 -76 99 -92 57 -17 224 -4 217 16 -4 8 -6 19 -6
24 0 23 -67 42 -145 41 -58 -1 -91 4 -122 18 l-43 19 0 -26z"/>
<path d="M4645 5102 c-20 -11 -59 -17 -117 -18 -47 -1 -97 -5 -110 -9 -32 -10
-58 -35 -58 -55 0 -15 14 -19 95 -25 88 -6 99 -5 142 17 51 25 87 66 81 91 -3
14 -6 14 -33 -1z"/>
<path d="M9711 5055 c-7 -27 -18 -58 -26 -68 -21 -29 0 -67 38 -67 66 0 124
51 141 123 13 54 3 63 -73 62 l-69 0 -11 -50z"/>
<path d="M9914 5044 c-3 -24 -17 -61 -30 -80 -31 -45 -30 -50 7 -63 41 -14 94
-14 122 0 64 33 107 110 92 166 -5 22 -9 24 -38 17 -40 -10 -73 -10 -114 -2
-32 7 -32 7 -39 -38z"/>
<path d="M8216 5068 c-11 -6 -39 -16 -63 -22 l-44 -11 41 -40 40 -39 21 20
c21 21 42 91 30 98 -3 2 -15 0 -25 -6z"/>
<path d="M10155 5022 c-3 -21 -15 -54 -25 -74 l-19 -37 33 -20 c64 -40 159
-23 205 35 24 30 26 55 10 83 -10 14 -21 17 -59 13 -33 -3 -60 2 -93 16 l-45
20 -7 -36z"/>
<path d="M9064 4977 c-26 -18 -59 -31 -88 -34 -54 -6 -59 -21 -23 -73 37 -55
72 -75 131 -75 73 0 90 16 83 76 -6 45 -38 123 -54 132 -5 2 -27 -9 -49 -26z"/>
<path d="M8785 4970 c-18 -55 -101 -117 -164 -122 -17 -1 -31 -6 -31 -10 0
-13 47 -39 83 -45 75 -12 159 47 173 123 6 31 3 40 -17 55 -31 24 -36 23 -44
-1z"/>
<path d="M2733 4920 c-34 -14 -29 -24 27 -54 27 -15 63 -38 79 -52 35 -29 41
-30 34 -5 -7 27 30 61 68 61 74 0 -35 46 -131 55 -30 3 -65 1 -77 -5z"/>
<path d="M5685 4916 c-27 -7 -63 -20 -80 -29 l-30 -16 30 -1 c44 0 78 -27 72
-56 -5 -27 5 -31 23 -9 6 8 41 31 76 52 35 20 64 42 64 49 0 24 -77 29 -155
10z"/>
<path d="M3733 4905 c-17 -7 -58 -38 -92 -69 -115 -106 -192 -125 -326 -82
-81 26 -182 35 -170 16 9 -15 126 -66 204 -91 92 -28 176 -38 225 -26 23 5
117 10 210 11 l168 1 34 39 33 39 10 -24 c25 -67 89 -90 239 -86 134 3 176 19
202 75 17 37 26 40 35 12 15 -47 48 -55 225 -57 91 0 184 -5 206 -11 42 -9
116 -2 199 19 57 15 225 90 225 100 0 18 -90 9 -172 -17 -133 -42 -210 -23
-324 80 -32 29 -73 60 -90 69 -29 15 -33 15 -45 0 -41 -49 -157 -93 -244 -93
-59 0 -144 23 -193 51 -34 19 -34 19 -65 0 -18 -11 -61 -27 -97 -36 -117 -31
-239 -7 -329 64 -34 27 -39 28 -68 16z"/>
<path d="M10393 4901 c-10 -15 -8 -22 10 -38 42 -38 49 -36 27 8 -13 24 -23
45 -24 46 -1 1 -7 -6 -13 -16z"/>
<path d="M8313 4903 c-35 -2 -63 -9 -63 -14 0 -9 15 -34 46 -77 6 -8 64 30 83
54 24 30 27 45 9 42 -7 -1 -41 -3 -75 -5z"/>
<path d="M8440 4870 c-7 -17 -28 -43 -46 -60 -41 -35 -42 -49 -8 -90 65 -77
166 -80 234 -6 20 23 22 28 10 36 -61 34 -89 57 -112 90 -15 21 -36 43 -46 49
-17 9 -22 6 -32 -19z"/>
<path d="M9460 4842 c0 -30 -7 -69 -16 -88 -9 -19 -14 -37 -11 -41 4 -3 28 -8
54 -10 86 -8 163 58 163 138 0 46 -15 53 -117 54 l-73 0 0 -53z"/>
<path d="M9216 4879 c-4 -13 -14 -98 -19 -159 -2 -24 1 -25 60 -28 61 -3 64
-2 104 36 38 35 43 45 47 94 l4 56 -63 -1 c-35 -1 -79 2 -96 7 -25 6 -34 5
-37 -5z"/>
<path d="M9798 4885 c-3 -3 -25 -9 -49 -13 -42 -7 -44 -9 -50 -47 -3 -22 -8
-47 -10 -55 -5 -20 35 -25 82 -11 33 10 99 69 99 89 0 7 -52 42 -62 42 -3 0
-7 -2 -10 -5z"/>
<path d="M8880 4860 c0 -21 -68 -85 -113 -105 l-48 -21 21 -27 c64 -82 199
-78 250 6 l20 31 -50 44 c-27 23 -52 51 -55 62 -6 20 -25 28 -25 10z"/>
<path d="M9992 4845 c-65 -9 -74 -13 -91 -40 -10 -17 -32 -43 -50 -57 -17 -15
-31 -29 -31 -32 0 -13 63 -36 99 -36 53 0 102 24 128 63 24 35 40 102 26 109
-4 2 -41 -1 -81 -7z"/>
<path d="M2928 4834 c-28 -8 -21 -22 29 -57 107 -74 144 -120 193 -238 23 -56
23 -57 73 -63 72 -8 139 -44 241 -131 50 -41 95 -75 101 -75 9 0 6 21 -8 69
-19 63 -24 70 -61 89 -77 38 -124 81 -176 161 -47 71 -58 82 -106 102 -76 30
-104 54 -104 89 0 25 -5 31 -39 40 -50 13 -121 20 -143 14z"/>
<path d="M5515 4829 c-68 -15 -113 -40 -119 -64 -4 -14 -24 -33 -49 -47 -30
-17 -58 -47 -100 -108 -76 -112 -95 -131 -186 -179 l-77 -42 -21 -72 c-12 -39
-20 -73 -18 -75 8 -8 70 33 147 98 94 80 167 120 233 128 l45 5 49 101 c51
105 78 137 174 203 52 36 57 48 25 57 -29 7 -53 6 -103 -5z"/>
<path d="M10129 4834 c-2 -7 -5 -18 -12 -56 -4 -21 -20 -52 -34 -69 l-27 -32
23 -18 c32 -26 115 -26 159 1 44 27 72 76 72 127 l0 41 -59 -5 c-33 -3 -73 -1
-90 5 -17 6 -32 9 -32 6z"/>
<path d="M10360 4778 c0 -28 -9 -57 -25 -83 -14 -22 -28 -48 -31 -57 -4 -10
-10 -18 -15 -18 -20 0 -7 -21 23 -36 22 -11 48 -15 85 -12 44 4 60 11 88 38
40 39 41 48 18 108 -14 38 -24 47 -72 70 -31 14 -59 28 -63 30 -5 2 -8 -16 -8
-40z"/>
<path d="M2727 4739 c-15 -6 -26 -16 -24 -22 2 -7 39 -25 83 -41 67 -25 89
-40 147 -98 59 -58 76 -69 129 -83 34 -8 63 -14 65 -11 2 2 -6 28 -17 57 -27
71 -80 142 -132 176 -37 25 -52 28 -132 30 -50 1 -104 -2 -119 -8z"/>
<path d="M5615 4739 c-55 -15 -112 -75 -155 -161 -45 -91 -50 -114 -21 -98 11
5 43 15 72 21 44 10 61 20 97 60 51 57 94 85 181 119 35 14 66 30 68 37 10 28
-166 45 -242 22z"/>
<path d="M9098 4743 c-32 -5 -33 -5 -13 -42 20 -39 43 -47 54 -18 27 73 29 70
-41 60z"/>
<path d="M9640 4697 c-20 -19 -106 -47 -144 -47 l-30 0 29 -30 c35 -37 90 -55
139 -46 44 8 100 56 115 96 10 29 9 30 -22 30 -18 0 -41 3 -52 6 -11 3 -27 -1
-35 -9z"/>
<path d="M8658 4682 c-7 -10 -25 -27 -40 -36 -36 -23 -35 -37 3 -81 59 -66
146 -71 215 -11 42 37 41 39 -29 51 -27 4 -52 19 -83 51 -25 24 -46 44 -49 44
-2 0 -10 -8 -17 -18z"/>
<path d="M8340 4665 c0 -15 4 -24 10 -20 6 3 10 12 10 20 0 8 -4 17 -10 20 -6
4 -10 -5 -10 -20z"/>
<path d="M8995 4643 c-21 -18 -44 -33 -52 -33 -32 0 -2 -72 47 -114 18 -14 36
-26 41 -26 5 0 24 30 43 68 l34 67 -37 36 -38 35 -38 -33z"/>
<path d="M3986 4651 c-15 -16 -16 -25 -6 -62 14 -50 48 -121 63 -131 6 -3 21
0 33 9 45 29 338 27 368 -3 19 -18 41 7 67 75 24 63 24 100 2 116 -15 11 -22
9 -46 -11 -45 -38 -118 -54 -237 -50 -108 3 -167 21 -199 60 -17 21 -24 20
-45 -3z"/>
<path d="M5160 4644 c-41 -12 -95 -26 -120 -29 l-45 -7 0 -84 c0 -46 1 -84 3
-84 9 0 92 46 119 67 30 21 139 169 121 162 -2 -1 -37 -12 -78 -25z"/>
<path d="M9337 4653 c-15 -8 -50 -14 -77 -15 -48 0 -50 -1 -43 -21 9 -23 10
-106 2 -147 -4 -24 -2 -25 43 -24 91 1 162 93 141 182 -10 41 -25 47 -66 25z"/>
<path d="M9786 4632 c-8 -15 -23 -36 -35 -46 l-21 -19 25 -23 c50 -46 133 -43
189 7 19 16 39 42 44 57 l10 28 -59 -4 c-39 -3 -72 1 -99 12 l-40 16 -14 -28z"/>
<path d="M3330 4639 c0 -17 86 -121 119 -142 72 -48 76 -46 77 38 l0 75 -30 1
c-17 0 -61 8 -98 18 -38 9 -68 14 -68 10z"/>
<path d="M3603 4623 c-31 -6 -29 -18 10 -45 28 -20 43 -23 132 -23 55 0 121 6
148 14 39 11 47 18 47 37 l0 24 -157 -1 c-87 -1 -168 -4 -180 -6z"/>
<path d="M4570 4611 c0 -27 48 -42 157 -48 104 -6 129 -2 168 29 26 20 26 22
9 29 -10 4 -90 8 -176 8 -149 1 -158 0 -158 -18z"/>
<path d="M8433 4584 c13 -78 73 -129 152 -129 29 0 57 3 61 7 4 4 -13 26 -38
48 -25 21 -51 53 -58 70 -10 24 -18 30 -44 30 -17 0 -42 3 -55 7 -23 6 -24 5
-18 -33z"/>
<path d="M9142 4585 c-16 -35 -15 -43 8 -72 l19 -25 7 26 c7 30 -3 96 -15 96
-4 0 -13 -11 -19 -25z"/>
<path d="M10030 4581 c-7 -17 -30 -47 -51 -66 l-39 -35 27 -17 c39 -26 123
-24 159 3 36 26 61 62 69 96 7 26 6 26 -52 31 -32 2 -67 7 -79 11 -17 6 -23 2
-34 -23z"/>
<path d="M8346 4584 c-9 -8 -16 -23 -16 -32 0 -9 -11 -43 -24 -74 -26 -62 -23
-68 34 -68 31 0 100 29 100 41 0 5 -11 25 -25 45 -13 20 -27 51 -31 70 -7 38
-15 42 -38 18z"/>
<path d="M10518 4569 l-27 -26 27 -26 c15 -14 39 -30 54 -36 l27 -10 -20 57
c-11 31 -23 59 -27 62 -4 3 -19 -6 -34 -21z"/>
<path d="M3560 4531 c0 -59 21 -163 49 -243 24 -70 93 -202 125 -242 l24 -28
51 38 c28 21 51 41 50 44 0 3 -21 19 -47 36 -84 54 -142 179 -142 302 0 63 -1
65 -42 103 -58 52 -68 50 -68 -10z"/>
<path d="M4902 4542 c-41 -36 -42 -38 -52 -125 -15 -139 -66 -231 -162 -293
-21 -14 -53 -24 -72 -24 l-35 0 22 -47 c13 -31 21 -69 21 -105 1 -32 3 -58 6
-58 3 0 32 23 63 51 63 56 130 145 172 229 76 151 132 410 88 410 -4 0 -27
-17 -51 -38z"/>
<path d="M9457 4573 c-4 -3 -7 -14 -7 -22 0 -9 -9 -33 -20 -53 l-20 -37 26
-30 c68 -81 208 -55 250 46 22 52 20 54 -49 47 -64 -6 -121 8 -157 41 -9 8
-20 12 -23 8z"/>
<path d="M10235 4523 c-9 -21 -33 -55 -53 -76 l-37 -38 25 -19 c64 -50 153
-45 209 11 29 29 56 94 45 111 -3 4 -25 8 -50 8 -25 0 -62 9 -84 20 l-40 20
-15 -37z"/>
<path d="M3878 4533 c-54 -16 -58 -28 -38 -120 16 -74 25 -83 52 -51 13 14 42
38 66 52 23 15 42 28 42 30 0 17 -54 106 -63 105 -7 -1 -33 -8 -59 -16z"/>
<path d="M4529 4495 l-27 -55 52 -31 c28 -18 62 -43 75 -57 l23 -26 14 26 c15
29 36 147 28 159 -6 10 -100 39 -123 39 -9 0 -27 -24 -42 -55z"/>
<path d="M8857 4505 c-15 -14 -48 -30 -73 -36 -37 -10 -44 -15 -44 -36 0 -61
62 -130 133 -147 39 -9 58 5 102 75 29 48 35 64 24 67 -8 3 -35 27 -62 53 -26
27 -48 49 -50 49 -1 0 -15 -12 -30 -25z"/>
<path d="M3722 4509 c-20 -8 -23 -13 -17 -41 10 -45 18 -51 54 -43 29 6 31 9
31 51 0 39 -2 44 -22 43 -13 0 -33 -4 -46 -10z"/>
<path d="M4737 4513 c-16 -15 -7 -72 12 -83 32 -17 58 -12 65 13 13 49 7 64
-25 71 -39 8 -44 8 -52 -1z"/>
<path d="M9730 4450 c-7 -17 -33 -49 -58 -70 -25 -22 -43 -42 -41 -44 36 -31
120 -34 167 -6 36 22 72 74 72 106 0 18 -8 22 -42 27 -24 3 -52 9 -64 12 -17
5 -23 0 -34 -25z"/>
<path d="M10461 4440 c-6 -22 -28 -56 -47 -76 -20 -20 -33 -41 -30 -49 8 -21
80 -55 117 -55 38 0 89 23 119 54 20 22 20 27 9 64 -10 34 -17 41 -44 46 -18
4 -49 18 -69 31 -20 14 -38 25 -40 25 -1 0 -8 -18 -15 -40z"/>
<path d="M2837 4453 c-21 -8 -36 -20 -34 -26 2 -6 39 -22 84 -36 76 -25 193
-98 193 -121 0 -5 18 -19 41 -30 40 -21 91 -21 104 0 10 16 -75 68 -155 95
-43 14 -84 33 -90 40 -13 15 -6 65 8 65 5 0 17 7 28 15 17 13 11 14 -61 14
-50 0 -94 -6 -118 -16z"/>
<path d="M5500 4465 c0 -3 16 -11 35 -19 38 -16 56 -56 35 -81 -6 -7 -46 -25
-89 -40 -75 -25 -151 -67 -151 -85 0 -4 13 -11 29 -15 37 -8 93 20 141 70 48
50 88 73 173 99 80 24 91 42 37 62 -33 12 -210 20 -210 9z"/>
<path d="M4153 4451 c-69 -9 -79 -19 -63 -68 20 -59 28 -66 79 -58 84 11 82
10 79 73 -3 64 -4 64 -95 53z"/>
<path d="M4282 4448 c-16 -16 -15 -93 1 -106 6 -5 36 -13 65 -17 l52 -7 15 36
c8 19 15 47 15 60 0 26 3 25 -105 42 -17 2 -36 -1 -43 -8z"/>
<path d="M3090 4441 c-42 -9 -80 -28 -80 -41 0 -5 26 -17 58 -26 75 -22 124
-47 170 -88 28 -25 49 -34 89 -39 58 -7 106 -28 189 -87 51 -36 122 -66 132
-56 2 2 -8 27 -22 55 -18 35 -37 56 -64 70 -20 11 -75 51 -122 90 -47 40 -108
83 -135 96 -55 27 -154 39 -215 26z"/>
<path d="M5285 4423 c-58 -21 -94 -45 -188 -125 -68 -58 -133 -98 -161 -98
-15 0 -56 -67 -56 -90 0 -28 83 1 178 65 87 57 133 75 193 75 22 0 42 7 50 17
26 31 104 74 171 94 41 12 68 25 68 33 0 38 -175 57 -255 29z"/>
<path d="M9344 4414 c-12 -8 -39 -18 -62 -22 l-40 -7 46 -77 c50 -83 58 -85
88 -27 17 34 18 110 2 131 -12 15 -15 15 -34 2z"/>
<path d="M9906 4386 c-9 -24 -28 -53 -41 -66 -14 -13 -25 -27 -25 -31 0 -15
78 -32 114 -25 44 8 100 56 114 95 10 28 10 28 -38 34 -27 3 -62 13 -78 21
l-30 15 -16 -43z"/>
<path d="M3980 4386 c-30 -18 -56 -39 -58 -47 -1 -8 13 -33 32 -54 l35 -40 47
26 c26 14 52 32 57 40 11 18 -27 109 -45 109 -7 -1 -38 -16 -68 -34z"/>
<path d="M8640 4409 c-14 -6 -51 -8 -84 -4 l-59 6 6 -38 c7 -42 30 -77 71
-107 36 -27 120 -29 159 -3 l28 18 -30 42 c-17 23 -33 54 -37 70 -7 29 -15 31
-54 16z"/>
<path d="M4436 4370 c-9 -22 -16 -47 -16 -55 0 -15 84 -75 104 -75 18 0 76 77
71 92 -7 17 -107 78 -128 78 -8 0 -22 -18 -31 -40z"/>
<path d="M3738 4388 c-32 -11 -33 -16 -14 -63 12 -27 19 -33 38 -29 20 5 21 4
6 -6 -20 -12 -22 -28 -8 -50 8 -12 15 -9 39 20 35 40 39 54 14 48 -15 -4 -18
2 -18 41 0 50 -10 57 -57 39z"/>
<path d="M4718 4364 c-3 -22 -1 -44 4 -51 7 -8 3 -10 -11 -6 -29 7 -26 -6 8
-47 l28 -34 13 24 c11 20 10 25 -6 38 -18 13 -18 13 6 10 22 -3 26 2 34 35 11
43 4 54 -41 63 -29 6 -31 5 -35 -32z"/>
<path d="M8410 4374 c-17 -11 -44 -14 -87 -11 -57 4 -63 3 -63 -14 0 -61 63
-133 126 -145 41 -8 113 11 120 30 3 8 -6 30 -20 51 -14 20 -28 52 -32 71 -7
38 -8 38 -44 18z"/>
<path d="M10115 4339 c-4 -12 -25 -41 -47 -65 -22 -24 -37 -48 -33 -54 11 -19
83 -50 115 -50 45 0 92 23 123 60 41 48 33 72 -23 77 -25 2 -64 15 -87 29
l-42 24 -6 -21z"/>
<path d="M9440 4326 c0 -31 -32 -98 -61 -127 -27 -27 -10 -59 32 -59 60 0 118
47 138 112 17 51 7 74 -32 81 -17 4 -42 9 -54 13 -20 5 -23 3 -23 -20z"/>
<path d="M3843 4257 c-24 -28 -43 -57 -43 -64 0 -7 21 -24 47 -39 l46 -28 39
43 c21 24 38 50 38 58 0 21 -52 83 -70 83 -8 0 -34 -24 -57 -53z"/>
<path d="M4570 4270 c-21 -26 -29 -44 -23 -54 12 -22 73 -86 81 -86 19 0 82
53 82 68 0 21 -77 112 -95 112 -7 0 -27 -18 -45 -40z"/>
<path d="M8162 4245 c-28 -35 -48 -66 -44 -69 13 -13 79 -5 110 14 17 11 32
21 32 22 0 2 -11 24 -24 50 l-23 46 -51 -63z"/>
<path d="M9607 4282 c-3 -4 -7 -24 -11 -45 -4 -20 -21 -53 -38 -72 -36 -42
-29 -59 35 -76 83 -22 177 34 193 115 10 54 4 60 -53 57 -28 -1 -66 4 -86 13
-20 8 -38 12 -40 8z"/>
<path d="M4112 4254 c-60 -30 -331 -279 -349 -321 -7 -16 -12 -49 -13 -74 0
-38 8 -58 48 -120 l47 -74 1 -140 c1 -146 3 -159 52 -223 34 -44 131 -116 207
-152 35 -17 117 -44 182 -60 137 -35 190 -64 306 -168 187 -167 320 -198 532
-123 49 17 142 41 205 51 136 24 201 45 333 111 114 58 216 122 272 172 50 45
44 46 -132 6 -76 -17 -190 -34 -253 -39 -63 -4 -135 -15 -159 -24 -64 -23
-142 -31 -185 -16 -20 6 -63 31 -95 55 -33 24 -83 56 -112 71 -117 59 -169
113 -198 205 -13 41 -48 77 -117 122 -37 24 -56 47 -79 92 -30 59 -30 62 -31
230 0 141 -4 177 -19 213 l-18 44 -21 -42 c-77 -151 -296 -251 -415 -191 -73
38 -102 121 -66 190 36 70 161 139 224 125 67 -16 102 -90 65 -142 -36 -52
-121 -69 -148 -30 -21 30 -21 62 0 54 9 -3 20 -6 25 -6 5 0 9 -7 9 -15 0 -8 8
-15 19 -15 22 0 71 44 71 64 0 20 -39 46 -70 46 -37 0 -128 -56 -150 -93 -27
-43 -25 -69 6 -106 67 -81 210 -54 329 62 59 58 70 86 60 152 -8 60 -38 91
-107 115 -86 30 -189 27 -256 -6z"/>
<path d="M10622 4251 l-33 -28 31 -27 c56 -46 71 -31 47 46 l-12 36 -33 -27z"/>
<path d="M10340 4239 c-7 -16 -33 -48 -58 -69 -43 -39 -44 -41 -28 -59 44 -49
122 -63 183 -35 38 19 83 77 83 110 0 18 -8 22 -45 27 -25 4 -62 18 -84 31
l-39 25 -12 -30z"/>
<path d="M2827 4226 c-60 -20 -117 -57 -117 -76 0 -4 41 -10 91 -13 104 -7
179 -36 273 -107 33 -25 60 -39 67 -34 7 4 51 10 98 13 l86 6 -40 27 c-27 19
-62 31 -108 37 -99 14 -120 40 -76 95 l20 26 -28 11 c-113 45 -168 49 -266 15z"/>
<path d="M5525 4236 c-22 -7 -53 -19 -68 -27 l-28 -15 21 -19 c44 -40 10 -95
-59 -95 -48 0 -104 -19 -137 -46 l-29 -23 65 -1 c36 0 80 -4 99 -10 31 -9 39
-6 95 34 111 79 190 106 308 106 62 0 64 20 6 54 -90 51 -193 67 -273 42z"/>
<path d="M8813 4208 c8 -62 21 -66 53 -19 15 23 25 43 23 45 -2 2 -21 6 -43 9
l-39 6 6 -41z"/>
<path d="M9832 4185 c-6 -23 -23 -56 -37 -73 -39 -47 -34 -62 23 -62 79 0 152
63 152 133 0 25 -3 27 -39 27 -22 0 -50 4 -64 9 -22 8 -24 6 -35 -34z"/>
<path d="M3230 4201 c-48 -15 -110 -52 -110 -65 0 -9 18 -16 53 -21 95 -12
118 -25 222 -124 71 -68 120 -106 167 -129 64 -31 69 -32 102 -18 28 12 35 21
41 53 3 21 12 49 19 62 13 23 11 29 -18 68 -25 34 -37 42 -64 43 -43 0 -93 22
-155 66 -95 69 -177 89 -257 65z"/>
<path d="M5161 4194 c-19 -8 -57 -31 -84 -50 -71 -51 -125 -74 -177 -74 -45 0
-48 -2 -99 -67 l-54 -67 34 -29 c19 -16 58 -40 87 -54 l54 -25 66 33 c45 23
100 66 169 131 106 100 120 108 225 123 59 8 66 18 31 43 -69 49 -185 65 -252
36z"/>
<path d="M8710 4199 c-14 -6 -50 -8 -82 -4 -55 6 -58 5 -58 -15 0 -61 58 -125
127 -140 44 -10 74 0 97 34 16 26 16 28 -3 52 -11 14 -23 38 -26 54 -7 32 -15
35 -55 19z"/>
<path d="M8320 4150 c0 -62 62 -134 126 -146 39 -7 105 9 123 29 8 10 5 22
-14 47 -13 18 -27 46 -30 62 -6 27 -10 29 -33 22 -35 -11 -109 -11 -144 -1
-24 6 -28 4 -28 -13z"/>
<path d="M10005 4123 c-9 -21 -30 -52 -46 -69 l-30 -31 26 -31 c69 -82 209
-57 252 45 12 29 11 36 -3 58 -12 19 -25 25 -53 25 -20 0 -56 9 -80 20 -24 11
-45 20 -47 20 -2 0 -11 -17 -19 -37z"/>
<path d="M10556 4134 c-4 -14 -27 -45 -52 -69 -39 -38 -44 -47 -34 -65 18 -33
87 -63 136 -57 58 6 104 40 104 76 0 47 -12 91 -25 91 -6 0 -34 11 -61 25 -61
31 -60 31 -68 -1z"/>
<path d="M8230 4134 c-15 -9 -45 -13 -78 -12 -52 3 -52 3 -52 -27 0 -69 72
-135 147 -135 45 0 93 17 93 33 0 5 -11 23 -25 39 -14 17 -31 50 -37 74 -13
48 -13 48 -48 28z"/>
<path d="M7982 4037 c-47 -53 -51 -62 -35 -68 31 -13 98 -10 118 5 19 14 19
15 2 50 -9 20 -17 46 -17 56 0 30 -10 24 -68 -43z"/>
<path d="M9433 4093 c-27 -5 -27 -3 -6 -48 19 -41 28 -44 37 -12 8 31 7 67 -1
66 -5 -1 -18 -4 -30 -6z"/>
<path d="M9520 4048 c0 -8 -11 -35 -23 -61 -21 -41 -22 -49 -11 -76 15 -35 39
-40 82 -17 37 19 67 55 80 94 12 36 15 33 -53 50 -22 5 -48 13 -57 17 -12 5
-18 3 -18 -7z"/>
<path d="M10249 4009 c-11 -28 -66 -83 -105 -105 -17 -10 -15 -13 23 -33 88
-44 182 -11 220 77 16 39 5 62 -31 62 -11 1 -38 7 -58 14 -36 13 -37 13 -49
-15z"/>
<path d="M2980 3965 l0 -65 51 37 52 37 -34 28 c-55 47 -69 39 -69 -37z"/>
<path d="M9707 4022 c-3 -4 -7 -24 -11 -45 -4 -20 -21 -53 -38 -72 -25 -29
-28 -38 -18 -50 18 -21 87 -38 127 -30 67 12 134 100 119 158 -4 20 -11 22
-54 19 -28 -2 -64 3 -85 12 -20 8 -38 12 -40 8z"/>
<path d="M8630 3980 c0 -25 27 -80 39 -80 5 0 20 18 34 39 29 44 31 42 -40 56
-29 6 -33 4 -33 -15z"/>
<path d="M3190 3971 c-63 -13 -127 -48 -179 -98 -76 -74 -68 -87 39 -58 82 22
167 19 256 -9 75 -24 78 -24 143 -9 112 27 112 27 62 52 -24 13 -66 43 -93 69
-60 56 -130 72 -228 53z"/>
<path d="M5229 3971 c-34 -5 -55 -16 -80 -41 -19 -18 -61 -50 -93 -71 -60 -38
-60 -38 -30 -44 16 -3 54 -12 85 -20 52 -13 60 -13 133 10 89 29 174 32 256
10 103 -28 112 -18 49 50 -76 83 -201 124 -320 106z"/>
<path d="M8530 3959 c-14 -6 -49 -8 -77 -5 l-53 6 0 -33 c0 -65 67 -134 137
-144 35 -5 44 -2 67 23 29 32 33 56 11 74 -8 7 -20 30 -27 51 -12 41 -18 44
-58 28z"/>
<path d="M10430 3919 c-7 -16 -33 -48 -58 -69 -43 -39 -44 -41 -28 -59 44 -49
122 -63 183 -35 38 19 83 77 83 110 0 18 -8 22 -45 27 -25 4 -62 18 -84 31
l-39 25 -12 -30z"/>
<path d="M10698 3920 l-28 -17 30 -28 c16 -16 32 -26 35 -24 2 3 1 23 -3 45
l-7 41 -27 -17z"/>
<path d="M7909 3922 c-16 -104 100 -198 195 -158 20 8 36 17 36 19 0 2 -7 18
-16 36 -9 18 -18 50 -21 72 -5 32 -9 39 -22 33 -28 -13 -110 -16 -141 -5 -17
5 -30 7 -31 3z"/>
<path d="M8150 3903 c0 -39 47 -109 86 -128 41 -19 97 -19 134 0 17 9 30 17
30 19 0 2 -11 24 -25 47 -14 24 -25 55 -25 68 0 19 -3 22 -17 15 -23 -11 -131
-11 -160 -1 -21 7 -23 5 -23 -20z"/>
<path d="M9922 3896 c-7 -18 -21 -41 -32 -51 -29 -26 -25 -50 15 -89 71 -72
199 -56 245 29 14 26 13 29 -10 44 -14 9 -35 26 -48 39 -13 12 -33 22 -45 22
-12 0 -42 9 -66 20 -24 11 -44 20 -45 20 -1 0 -7 -15 -14 -34z"/>
<path d="M4663 3872 c-49 -34 -53 -39 -53 -77 0 -89 10 -116 49 -132 71 -30
213 -53 332 -53 135 0 178 -11 272 -68 37 -23 72 -42 78 -42 29 0 -29 117 -87
175 -53 53 -119 81 -245 105 -130 25 -184 46 -245 95 -23 19 -44 35 -46 34 -2
0 -27 -17 -55 -37z"/>
<path d="M7813 3830 c-23 -30 -39 -58 -37 -62 8 -13 53 -9 85 8 22 11 28 19
21 27 -6 7 -14 28 -19 47 l-9 34 -41 -54z"/>
<path d="M9538 3833 c-22 -5 -22 -5 -4 -48 29 -67 129 -90 201 -45 l40 25 -53
7 c-57 9 -101 27 -121 52 -13 16 -29 18 -63 9z"/>
<path d="M10637 3800 c-11 -22 -40 -56 -67 -77 -27 -21 -49 -41 -50 -45 0 -3
17 -17 37 -29 46 -29 116 -30 161 -4 30 18 32 23 32 76 0 57 0 58 -46 88 -25
17 -46 31 -47 31 -1 0 -10 -18 -20 -40z"/>
<path d="M3673 3810 c-12 -5 -69 -18 -127 -29 -58 -11 -127 -29 -153 -41 -77
-34 -162 -126 -183 -200 -13 -45 4 -46 73 -2 94 60 141 72 268 72 106 0 249
17 249 29 0 3 -11 24 -25 46 -14 22 -35 61 -47 87 -13 26 -25 47 -28 47 -3 0
-15 -4 -27 -9z"/>
<path d="M3100 3791 l-25 -7 31 -31 c34 -34 102 -58 137 -47 38 11 89 46 80
55 -13 13 -124 39 -163 38 -19 -1 -46 -4 -60 -8z"/>
<path d="M10206 3782 c-4 -10 -22 -35 -41 -56 -39 -43 -38 -54 19 -104 68 -59
171 -47 221 26 13 19 22 39 20 42 -3 4 -19 10 -37 14 -19 4 -48 24 -75 51 -47
50 -96 62 -107 27z"/>
<path d="M3002 3758 c-8 -8 -12 -46 -12 -103 l0 -91 39 -22 c38 -22 77 -27
116 -16 20 5 78 111 69 126 -3 5 -17 8 -32 8 -38 0 -104 40 -127 77 -22 35
-34 40 -53 21z"/>
<path d="M9806 3734 c-10 -15 -43 -37 -73 -51 l-54 -25 18 -31 c11 -19 38 -42
65 -55 64 -32 129 -23 176 24 17 17 32 39 32 48 0 8 -19 24 -44 34 -24 11 -54
34 -67 51 -12 17 -25 31 -28 31 -3 0 -14 -12 -25 -26z"/>
<path d="M8440 3720 c0 -30 18 -80 29 -79 3 0 21 19 39 42 l34 41 -34 12 c-55
21 -68 18 -68 -16z"/>
<path d="M7719 3697 c-22 -35 -20 -71 7 -111 18 -28 89 -66 123 -66 21 0 81
26 81 35 0 3 -9 22 -20 42 -11 21 -20 56 -20 79 0 51 -4 55 -41 42 -20 -7 -43
-7 -70 0 -39 10 -41 9 -60 -21z"/>
<path d="M7940 3689 c0 -84 65 -149 150 -149 25 0 55 7 67 15 l22 15 -19 43
c-11 23 -20 57 -20 75 0 17 -1 32 -3 32 -1 0 -17 -4 -36 -10 -22 -6 -48 -6
-75 1 -94 24 -86 26 -86 -22z"/>
<path d="M8190 3694 c0 -50 40 -117 84 -138 52 -24 108 -21 136 9 l23 24 -22
50 c-11 27 -21 56 -21 63 0 10 -19 13 -72 13 -40 0 -85 4 -100 9 -27 8 -28 7
-28 -30z"/>
<path d="M9570 3660 c0 -23 13 -26 29 -6 9 11 8 15 -5 20 -23 9 -24 8 -24 -14z"/>
<path d="M10015 3619 c-11 -22 -37 -56 -58 -74 -38 -33 -39 -35 -24 -58 55
-85 214 -69 260 25 15 31 15 32 -12 49 -15 9 -43 35 -63 58 -48 56 -78 56
-103 0z"/>
<path d="M10445 3617 c-11 -17 -39 -42 -63 -55 -23 -13 -42 -27 -42 -32 0 -4
14 -22 32 -39 79 -77 195 -55 247 47 14 27 7 42 -21 42 -25 0 -108 47 -108 60
0 21 -26 8 -45 -23z"/>
<path d="M9613 3598 c-19 -22 -20 -26 -6 -85 14 -61 16 -63 54 -73 22 -6 50
-8 62 -4 30 9 87 44 87 53 0 4 -25 18 -56 31 -40 16 -64 34 -83 61 -14 21 -29
38 -32 39 -3 0 -15 -10 -26 -22z"/>
<path d="M10726 3593 l-29 -15 26 -26 c31 -31 39 -26 35 21 l-3 35 -29 -15z"/>
<path d="M3442 3569 c-52 -10 -164 -68 -159 -83 5 -16 58 -26 102 -19 29 4 51
17 78 45 33 35 49 70 30 67 -5 -1 -27 -5 -51 -10z"/>
<path d="M3545 3553 c-4 -10 -9 -45 -11 -77 -3 -35 -14 -75 -26 -98 -12 -21
-19 -41 -15 -44 4 -4 28 -9 55 -12 79 -7 141 37 161 115 16 60 2 93 -42 93
-18 0 -50 9 -72 20 -47 24 -41 24 -50 3z"/>
<path d="M7620 3533 c0 -4 -8 -18 -18 -31 -15 -19 -22 -21 -49 -13 -37 11 -43
2 -43 -58 0 -102 118 -177 215 -137 l39 17 -31 19 c-53 32 -86 85 -91 146 -2
30 -8 57 -13 60 -5 3 -9 2 -9 -3z"/>
<path d="M7690 3498 c0 -83 66 -148 150 -148 67 0 90 20 90 79 0 26 -3 50 -6
53 -3 3 -20 1 -38 -4 -41 -13 -133 11 -161 42 -27 30 -35 25 -35 -22z"/>
<path d="M10246 3506 c-3 -13 -24 -42 -46 -65 -45 -46 -44 -54 9 -105 36 -34
112 -46 161 -26 29 12 80 63 80 80 0 4 -12 11 -27 15 -45 10 -97 50 -118 89
-22 41 -50 47 -59 12z"/>
<path d="M8212 3465 c7 -82 19 -88 73 -35 25 24 45 47 45 50 0 5 -99 40 -115
40 -4 0 -5 -25 -3 -55z"/>
<path d="M10624 3467 c-27 -29 -61 -60 -75 -69 -23 -16 -23 -18 -9 -45 9 -16
36 -38 64 -52 45 -22 52 -23 95 -12 25 7 49 18 53 24 4 7 8 44 8 84 l0 71 -37
23 c-21 13 -40 24 -43 25 -3 1 -28 -21 -56 -49z"/>
<path d="M7987 3504 c-15 -15 -7 -100 13 -132 43 -69 135 -95 179 -48 22 23
22 25 6 49 -9 14 -20 47 -23 72 l-7 47 -65 2 c-36 1 -72 5 -81 9 -8 4 -18 4
-22 1z"/>
<path d="M2986 3472 c-3 -15 -8 -48 -12 -74 l-6 -48 42 0 c55 0 105 25 129 64
34 54 32 60 -24 57 -28 -1 -67 5 -87 13 l-36 16 -6 -28z"/>
<path d="M7360 3493 c-66 -10 -70 -12 -70 -44 0 -86 101 -166 184 -145 l25 6
-21 47 c-15 33 -19 59 -16 94 l5 49 -41 -1 c-23 -1 -52 -3 -66 -6z"/>
<path d="M9846 3454 c-10 -15 -43 -37 -73 -51 l-54 -25 18 -31 c51 -86 191
-98 251 -22 31 40 28 52 -22 73 -24 11 -54 34 -67 51 -12 17 -25 31 -28 31 -3
0 -14 -12 -25 -26z"/>
<path d="M7161 3442 l-75 -25 27 -23 c15 -13 43 -26 62 -30 40 -7 89 2 80 16
-3 5 -9 27 -13 48 l-7 39 -74 -25z"/>
<path d="M3206 3434 c-10 -37 1 -60 37 -83 80 -49 181 -26 222 51 11 20 17 39
14 42 -3 4 -21 -1 -39 -11 -49 -24 -139 -22 -182 5 -44 27 -44 27 -52 -4z"/>
<path d="M3760 3440 c0 -11 7 -20 15 -20 13 0 14 4 5 20 -6 11 -13 20 -15 20
-3 0 -5 -9 -5 -20z"/>
<path d="M9630 3383 c0 -5 5 -15 10 -23 8 -12 10 -11 10 8 0 12 -4 22 -10 22
-5 0 -10 -3 -10 -7z"/>
<path d="M7036 3356 c-9 -14 -16 -33 -16 -41 0 -14 15 -51 25 -63 2 -2 14 4
28 13 14 8 53 22 88 30 36 7 52 14 36 14 -36 1 -96 26 -123 52 l-21 20 -17
-25z"/>
<path d="M10055 3340 c-22 -49 -76 -99 -116 -107 -39 -7 -37 -18 11 -49 75
-50 186 -20 224 61 l17 36 -35 40 c-20 21 -36 44 -36 49 0 6 -11 10 -23 10
-18 0 -28 -10 -42 -40z"/>
<path d="M3790 3359 c0 -6 5 -19 11 -31 6 -11 11 -43 13 -71 2 -58 16 -68 70
-47 l28 10 -36 41 c-20 22 -44 55 -53 74 -16 34 -33 46 -33 24z"/>
<path d="M3690 3318 c-32 -30 -35 -37 -36 -93 0 -38 -7 -73 -18 -94 l-18 -34
29 7 c65 16 114 77 115 146 0 39 -18 100 -31 100 -3 0 -22 -15 -41 -32z"/>
<path d="M3100 3318 c-22 -11 -57 -18 -94 -18 l-58 0 4 -53 c6 -76 37 -131 74
-135 70 -6 141 83 131 166 -3 24 -9 47 -13 51 -5 4 -25 -1 -44 -11z"/>
<path d="M10455 3310 c-16 -16 -49 -37 -74 -47 -25 -9 -48 -18 -50 -20 -10 -7
48 -74 80 -92 61 -35 128 -25 182 27 39 37 35 59 -13 78 -22 9 -53 32 -68 50
l-28 34 -29 -30z"/>
<path d="M7960 3283 c0 -84 66 -153 147 -153 45 0 103 23 103 40 0 5 -14 25
-31 45 -24 27 -39 35 -65 35 -37 0 -102 29 -123 54 -21 26 -31 19 -31 -21z"/>
<path d="M9672 3286 c-17 -29 -20 -45 -15 -86 6 -48 7 -50 37 -50 36 0 90 30
106 59 9 18 6 23 -29 40 -21 11 -48 32 -58 47 l-20 26 -21 -36z"/>
<path d="M3210 3265 c0 -25 -7 -62 -15 -82 -20 -46 -19 -48 10 -61 94 -43 207
24 217 128 2 30 0 35 -17 32 -58 -10 -133 -5 -162 11 l-33 18 0 -46z"/>
<path d="M7860 3302 c-19 -2 -41 -10 -47 -19 -21 -27 -16 -96 10 -133 37 -55
72 -75 132 -75 29 0 56 3 60 7 4 4 -9 21 -28 38 -42 37 -77 104 -77 148 0 36
-4 39 -50 34z"/>
<path d="M7291 3291 c-10 -7 10 -17 68 -35 84 -27 131 -33 131 -17 0 4 -25 11
-56 14 -30 3 -71 15 -90 26 -41 24 -35 23 -53 12z"/>
<path d="M3470 3245 c0 -47 -16 -85 -52 -122 -17 -17 -27 -36 -24 -42 4 -6 29
-11 55 -11 52 0 100 25 132 70 21 28 34 99 22 116 -4 6 -36 14 -70 17 l-63 7
0 -35z"/>
<path d="M6955 3244 c-14 -22 -15 -31 -5 -55 15 -35 20 -35 43 -4 16 23 16 27
2 55 -8 16 -17 30 -19 30 -2 0 -11 -12 -21 -26z"/>
<path d="M7547 3254 c-4 -4 -7 -26 -7 -49 0 -47 27 -95 73 -129 36 -27 121
-29 159 -4 l26 17 -24 47 c-13 26 -24 62 -24 79 l0 32 -49 -11 c-46 -9 -81 -4
-137 20 -5 2 -13 1 -17 -2z"/>
<path d="M10226 3236 c-3 -13 -24 -42 -46 -65 l-41 -42 19 -37 c26 -50 62 -74
119 -79 68 -7 143 32 143 73 0 2 -18 13 -40 24 -41 21 -90 82 -90 112 0 16
-27 38 -48 38 -6 0 -13 -11 -16 -24z"/>
<path d="M10718 3243 c-33 -5 -35 -14 -10 -36 28 -25 42 -21 42 13 0 17 -1 29
-2 29 -2 -1 -15 -4 -30 -6z"/>
<path d="M7477 3189 c-9 -33 -8 -141 1 -156 5 -8 15 -8 40 2 17 8 32 17 32 20
0 3 -10 19 -21 35 -12 16 -27 50 -34 76 -10 41 -13 44 -18 23z"/>
<path d="M9831 3169 c-13 -17 -43 -40 -67 -51 -53 -23 -55 -40 -10 -83 73 -68
189 -52 239 34 l18 30 -55 26 c-31 14 -64 37 -75 51 -10 13 -21 24 -23 24 -2
0 -15 -14 -27 -31z"/>
<path d="M3920 3170 c-8 -5 -27 -10 -41 -10 -36 0 -40 -8 -24 -41 8 -15 15
-51 15 -80 l0 -52 46 6 c58 6 112 55 120 107 5 32 2 37 -35 58 -44 24 -59 27
-81 12z"/>
<path d="M10631 3148 c-13 -16 -40 -37 -60 -45 -84 -37 -83 -36 -77 -65 15
-73 94 -125 173 -113 46 7 44 1 63 129 6 38 7 72 3 76 -4 4 -24 16 -43 27
l-35 21 -24 -30z"/>
<path d="M6876 3145 c-9 -13 -16 -40 -16 -60 0 -36 24 -95 38 -95 4 0 15 26
25 58 18 56 18 59 0 90 -22 38 -26 39 -47 7z"/>
<path d="M3755 3110 c-16 -17 -51 -38 -77 -48 -47 -16 -48 -18 -41 -47 5 -16
8 -52 7 -79 l-1 -48 49 4 c76 8 128 67 128 148 0 34 -22 100 -33 100 -2 0 -16
-14 -32 -30z"/>
<path d="M8180 3092 c-25 -8 -51 -16 -57 -18 -20 -5 -16 -81 5 -99 9 -8 38
-33 63 -55 51 -44 78 -49 134 -26 39 17 39 20 -6 108 -20 41 -77 109 -88 107
-4 -1 -26 -8 -51 -17z"/>
<path d="M10051 3078 c-17 -50 -57 -95 -101 -114 -22 -10 -40 -23 -40 -30 0
-27 58 -54 118 -57 50 -2 64 2 93 24 19 15 40 38 48 52 13 24 11 28 -23 69
-20 23 -39 53 -42 65 -9 34 -40 29 -53 -9z"/>
<path d="M3080 3073 l-34 -15 34 -29 c19 -15 40 -27 45 -25 6 1 11 21 13 44 4
47 -2 49 -58 25z"/>
<path d="M3187 3030 c-2 -19 -7 -42 -11 -50 -5 -12 11 -25 60 -54 60 -34 68
-36 82 -22 17 17 28 123 15 142 -4 6 -38 13 -75 16 l-66 4 -5 -36z"/>
<path d="M4135 3050 c-3 -5 -1 -20 6 -32 6 -12 12 -49 13 -82 l1 -61 30 3 c65
7 120 62 127 127 3 28 0 31 -42 42 -56 14 -127 16 -135 3z"/>
<path d="M6797 3054 c-4 -4 -7 -15 -7 -25 0 -9 -11 -39 -25 -66 -45 -86 -43
-205 5 -278 l19 -29 -6 56 c-7 66 10 146 42 206 l24 42 -22 51 c-13 27 -26 47
-30 43z"/>
<path d="M7840 3006 c0 -100 112 -182 203 -147 26 10 27 14 20 48 -4 21 -7 61
-6 90 l2 51 -34 -14 c-44 -18 -96 -18 -142 1 -19 8 -37 15 -39 15 -2 0 -4 -20
-4 -44z"/>
<path d="M3525 3030 c-11 -5 -46 -9 -77 -9 l-58 -1 0 -40 c0 -22 -7 -57 -15
-77 -8 -19 -15 -37 -15 -39 0 -11 136 -63 151 -59 10 3 31 21 48 40 38 44 49
107 27 158 -15 38 -26 42 -61 27z"/>
<path d="M9676 3033 c-3 -4 -6 -42 -6 -85 0 -64 3 -78 15 -78 32 0 115 52 115
71 0 5 -15 15 -33 23 -18 7 -45 27 -59 44 -14 17 -29 28 -32 25z"/>
<path d="M4030 2994 c-21 -21 -52 -40 -78 -47 -36 -10 -42 -15 -37 -32 3 -11
8 -44 12 -72 5 -49 8 -53 33 -53 72 0 132 55 144 130 6 37 -12 101 -29 107 -6
2 -26 -13 -45 -33z"/>
<path d="M7600 2991 c0 -38 19 -78 53 -109 l24 -23 11 28 c15 41 32 95 32 103
0 4 -19 10 -42 13 -24 2 -51 8 -60 12 -15 6 -18 2 -18 -24z"/>
<path d="M7765 3010 c-3 -5 4 -27 15 -50 23 -45 35 -54 20 -14 -6 14 -10 36
-10 50 0 24 -14 32 -25 14z"/>
<path d="M10408 2993 c-21 -14 -58 -28 -83 -31 -38 -4 -45 -8 -45 -26 0 -11 9
-36 20 -54 51 -84 162 -97 238 -29 29 27 28 32 -13 57 -20 12 -46 41 -58 65
l-22 43 -37 -25z"/>
<path d="M5810 2953 c1 -33 7 -42 48 -73 60 -45 62 -46 62 -21 0 55 -53 131
-90 131 -17 0 -20 -7 -20 -37z"/>
<path d="M7513 2980 c-19 -8 -21 -13 -12 -42 5 -18 9 -52 7 -76 -1 -29 3 -46
12 -52 20 -13 62 -12 95 0 l27 10 -36 40 c-20 22 -41 60 -48 85 -7 25 -15 45
-18 44 -3 0 -15 -4 -27 -9z"/>
<path d="M4398 2965 c-3 -3 3 -22 13 -43 11 -20 19 -50 19 -67 0 -18 2 -34 6
-37 11 -12 78 12 103 37 l26 26 -47 44 c-37 35 -54 45 -81 45 -18 0 -36 -2
-39 -5z"/>
<path d="M5956 2923 c7 -21 13 -46 14 -55 0 -10 17 -26 41 -38 54 -28 121 -96
154 -157 l26 -48 -5 48 c-12 100 -64 179 -153 229 -30 17 -57 37 -60 44 -3 8
-11 14 -18 14 -10 0 -10 -7 1 -37z"/>
<path d="M10178 2888 c-28 -29 -59 -51 -77 -54 -37 -8 -39 -25 -10 -66 41 -57
128 -74 198 -38 53 27 57 43 15 75 -33 25 -61 67 -73 111 -5 19 -10 17 -53
-28z"/>
<path d="M3811 2896 c-18 -18 -51 -39 -74 -46 -58 -19 -58 -19 -47 -40 5 -10
12 -38 14 -62 3 -37 8 -44 36 -56 28 -11 36 -10 63 5 17 10 40 34 51 53 25 42
28 126 5 157 l-16 23 -32 -34z"/>
<path d="M4322 2900 c-23 -31 -89 -70 -118 -70 -12 0 -15 -5 -9 -22 4 -13 9
-47 12 -77 l6 -53 40 5 c74 10 127 73 127 150 0 31 -23 97 -33 97 -2 0 -13
-13 -25 -30z"/>
<path d="M9808 2879 c-21 -20 -51 -40 -68 -44 -16 -4 -32 -10 -34 -14 -10 -16
35 -71 73 -91 73 -37 154 -17 198 49 26 39 24 46 -16 54 -17 4 -49 25 -71 47
-22 22 -41 39 -42 39 -2 -1 -20 -19 -40 -40z"/>
<path d="M10673 2872 c-26 -4 -30 -33 -12 -79 l12 -28 13 50 c16 59 16 61 -13
57z"/>
<path d="M4574 2819 c-15 -16 -45 -35 -66 -41 -21 -6 -38 -13 -38 -15 0 -2 9
-16 21 -32 11 -15 23 -47 26 -69 5 -39 8 -42 36 -42 66 0 127 68 127 142 0 27
-7 38 -39 60 l-38 27 -29 -30z"/>
<path d="M8297 2833 c-10 -10 -8 -56 4 -92 12 -34 29 -42 29 -12 0 10 3 39 6
65 6 41 5 46 -13 46 -11 0 -23 -3 -26 -7z"/>
<path d="M10574 2819 c-26 -28 -67 -49 -117 -58 -36 -6 -42 -10 -40 -29 4 -36
43 -80 87 -97 44 -18 117 -13 134 8 19 25 21 61 5 79 -9 10 -24 40 -33 68
l-17 50 -19 -21z"/>
<path d="M3585 2800 l-28 -29 47 -21 c26 -11 49 -20 51 -20 4 0 -10 60 -20 83
-10 23 -17 22 -50 -13z"/>
<path d="M7880 2828 c0 -2 11 -25 25 -52 14 -27 25 -62 25 -78 0 -24 6 -32 35
-44 81 -34 105 -12 105 96 l0 59 -53 -6 c-36 -4 -64 0 -91 11 -38 16 -46 18
-46 14z"/>
<path d="M4086 2790 c-16 -18 -47 -36 -73 -43 -38 -10 -43 -14 -38 -32 4 -11
9 -44 12 -72 5 -51 7 -53 45 -65 34 -10 42 -9 66 9 58 42 78 131 46 199 -9 19
-19 34 -23 34 -3 0 -19 -14 -35 -30z"/>
<path d="M5355 2800 c-4 -6 -25 -24 -46 -40 -25 -18 -36 -31 -28 -35 12 -8 97
70 87 80 -3 4 -9 1 -13 -5z"/>
<path d="M5108 2747 c-42 -16 -60 -29 -67 -47 -5 -14 -12 -33 -16 -42 -17 -42
90 -8 122 38 24 33 38 74 26 73 -4 0 -34 -10 -65 -22z"/>
<path d="M4730 2750 c0 -5 10 -10 23 -10 18 0 19 2 7 10 -19 13 -30 13 -30 0z"/>
<path d="M7500 2725 c0 -47 11 -58 46 -45 32 12 61 36 74 60 7 13 -2 15 -56
15 l-64 0 0 -30z"/>
<path d="M9660 2733 c0 -16 -3 -59 -7 -97 l-6 -69 44 24 c24 13 50 36 58 51
15 26 14 28 -34 72 -27 25 -50 46 -52 46 -2 0 -3 -12 -3 -27z"/>
<path d="M10017 2745 c-10 -25 -86 -73 -127 -80 -22 -4 -40 -11 -40 -17 0 -20
62 -67 96 -74 57 -11 102 4 145 47 l40 40 -51 49 c-28 28 -53 50 -55 50 -1 0
-5 -7 -8 -15z"/>
<path d="M4383 2702 c-28 -35 -48 -47 -106 -66 -16 -5 -16 -8 -4 -33 8 -16 18
-47 22 -70 6 -38 10 -43 40 -49 66 -12 135 63 135 147 0 35 -29 100 -47 106
-5 2 -23 -14 -40 -35z"/>
<path d="M3868 2690 l-36 -38 42 -16 c55 -21 66 -20 66 4 0 20 -26 91 -32 89
-2 0 -19 -18 -40 -39z"/>
<path d="M4823 2705 c-39 -13 -51 -24 -37 -33 6 -4 19 -22 28 -39 13 -27 22
-33 49 -33 42 0 92 31 112 70 9 18 15 33 13 35 -10 9 -138 9 -165 0z"/>
<path d="M10328 2693 c-21 -14 -58 -28 -83 -31 -38 -4 -45 -8 -45 -26 0 -11 9
-36 20 -54 51 -84 162 -97 238 -29 29 27 28 32 -13 57 -20 12 -46 41 -58 65
l-22 43 -37 -25z"/>
<path d="M5187 2667 c-19 -26 -45 -46 -77 -60 l-48 -20 19 -36 c10 -20 20 -54
22 -76 4 -40 5 -40 46 -39 75 2 131 67 131 153 0 44 -28 104 -53 114 -6 2 -25
-14 -40 -36z"/>
<path d="M7408 2679 c-33 -27 -36 -33 -26 -55 14 -29 14 -29 56 -4 27 17 32
25 26 43 -13 45 -18 46 -56 16z"/>
<path d="M8260 2648 c0 -37 7 -63 22 -88 l22 -35 9 53 c8 50 7 54 -22 88 l-31
35 0 -53z"/>
<path d="M5315 2675 c4 -11 10 -46 13 -77 4 -52 7 -58 27 -58 52 0 56 8 31 58
-25 50 -87 116 -71 77z"/>
<path d="M4689 2642 c-9 -16 -35 -38 -57 -48 -42 -19 -50 -32 -32 -50 5 -5 16
-36 23 -69 13 -57 15 -60 46 -63 18 -2 43 3 55 12 56 36 74 147 33 207 -29 43
-48 46 -68 11z"/>
<path d="M7280 2615 c-19 -7 -44 -14 -55 -14 -39 -2 -49 -16 -36 -49 7 -17 21
-38 32 -48 18 -16 21 -15 74 21 60 42 60 42 43 80 -13 28 -11 28 -58 10z"/>
<path d="M4168 2586 c-16 -19 -28 -37 -28 -40 0 -4 95 -36 107 -36 6 0 -10 54
-24 83 -7 15 -17 27 -21 27 -4 0 -19 -16 -34 -34z"/>
<path d="M9758 2579 c-21 -20 -51 -40 -68 -44 -16 -4 -32 -10 -34 -14 -10 -16
35 -71 73 -91 68 -34 146 -20 189 35 31 39 28 61 -8 68 -16 4 -48 25 -70 47
-22 22 -41 39 -42 39 -2 -1 -20 -19 -40 -40z"/>
<path d="M7898 2555 l-26 -54 29 -10 c28 -10 31 -8 64 42 l35 52 -27 12 c-42
18 -46 16 -75 -42z"/>
<path d="M10102 2564 c-24 -19 -52 -34 -62 -34 -48 0 -31 -39 31 -71 47 -23
90 -24 135 -3 41 20 42 28 5 59 -15 14 -34 38 -41 55 -7 16 -15 30 -19 29 -3
0 -25 -16 -49 -35z"/>
<path d="M4942 2570 c-45 -25 -44 -21 -22 -65 23 -44 27 -129 8 -170 -15 -34
-7 -39 34 -22 95 40 121 164 52 247 -30 35 -29 35 -72 10z"/>
<path d="M10583 2572 c-27 -3 -33 -8 -33 -26 0 -29 19 -86 29 -86 7 0 45 110
39 113 -2 1 -18 1 -35 -1z"/>
<path d="M4497 2534 c-9 -16 -25 -39 -36 -51 -11 -12 -17 -24 -13 -26 15 -10
124 -28 129 -23 11 11 -17 82 -41 105 l-24 23 -15 -28z"/>
<path d="M8209 2548 c-4 -52 8 -96 39 -131 14 -16 16 -15 34 14 l19 31 -36 39
c-19 21 -35 44 -35 49 0 15 -20 12 -21 -2z"/>
<path d="M7090 2518 c-53 -25 -157 -34 -217 -20 -54 12 -47 -1 19 -34 67 -34
139 -41 211 -20 31 9 59 21 62 26 5 8 -21 72 -28 69 -1 0 -22 -10 -47 -21z"/>
<path d="M4822 2486 c-8 -30 -27 -61 -57 -91 -40 -42 -45 -52 -45 -92 l0 -46
40 6 c79 10 130 68 130 147 0 45 -26 111 -45 117 -6 2 -16 -17 -23 -41z"/>
<path d="M10472 2499 c-22 -17 -57 -30 -124 -44 -45 -9 -32 -70 27 -125 22
-21 36 -25 87 -25 l60 0 19 49 c17 43 18 51 5 65 -8 9 -23 35 -33 58 l-18 42
-23 -20z"/>
<path d="M5388 2493 c-22 -5 -22 -2 -2 -49 12 -28 15 -55 10 -97 -6 -57 -5
-58 17 -52 28 8 67 36 81 58 8 12 5 21 -11 39 -12 13 -29 42 -38 66 -17 41
-22 44 -57 35z"/>
<path d="M5262 2433 l-42 -42 51 -41 c28 -22 55 -40 59 -40 16 0 23 71 11 110
-17 58 -30 61 -79 13z"/>
<path d="M6209 2444 c-41 -42 -136 -91 -199 -102 -44 -8 -45 -9 -42 -42 2 -19
5 -36 6 -38 2 -1 26 2 54 8 92 20 170 86 207 173 8 20 14 37 12 37 -2 0 -19
-16 -38 -36z"/>
<path d="M7789 2426 c-19 -18 -44 -38 -55 -44 -18 -10 -18 -11 0 -31 17 -18
83 -48 90 -39 14 16 76 121 74 123 -11 9 -49 25 -60 25 -7 0 -29 -16 -49 -34z"/>
<path d="M9928 2410 c-38 -36 -48 -53 -48 -79 0 -84 68 -151 155 -151 28 0 60
6 70 14 19 14 19 15 -9 43 -37 37 -56 82 -56 136 0 36 -5 47 -30 65 -16 12
-30 21 -32 20 -2 -1 -24 -22 -50 -48z"/>
<path d="M9618 2421 c-5 -32 2 -36 35 -22 17 6 16 8 -6 29 l-25 23 -4 -30z"/>
<path d="M10232 2413 c-15 -10 -45 -17 -80 -17 -31 -1 -60 -5 -63 -10 -12 -15
12 -80 39 -109 34 -37 74 -57 109 -57 35 0 113 35 113 51 0 6 -15 29 -34 50
-19 21 -38 54 -42 73 -7 40 -10 41 -42 19z"/>
<path d="M8171 2344 c-14 -32 -46 -77 -77 -108 -45 -45 -49 -52 -29 -48 44 8
127 66 158 110 l31 43 -29 29 -30 29 -24 -55z"/>
<path d="M5171 2381 c-10 -7 -11 -13 -1 -32 7 -12 16 -45 20 -73 l8 -51 1 70
c1 76 -7 99 -28 86z"/>
<path d="M5049 2319 c-31 -31 -60 -51 -88 -59 -22 -6 -41 -14 -41 -18 0 -15
19 -36 26 -29 5 4 21 -20 36 -54 26 -58 29 -61 55 -54 34 8 70 40 90 79 20 39
13 125 -13 158 l-19 24 -46 -47z"/>
<path d="M9658 2352 c-42 -15 -48 -21 -48 -45 0 -41 36 -105 73 -127 38 -24
104 -26 152 -6 40 17 41 21 19 66 -9 18 -19 52 -22 76 -3 33 -9 44 -22 44 -9
0 -37 2 -61 4 -26 2 -64 -3 -91 -12z"/>
<path d="M5823 2327 c-60 -20 -63 -22 -63 -54 l0 -33 75 0 c69 0 75 2 80 23 6
26 -7 80 -21 83 -5 1 -37 -7 -71 -19z"/>
<path d="M5504 2292 c-17 -15 -39 -32 -50 -38 -18 -10 -17 -11 5 -23 15 -8 39
-11 67 -6 38 5 44 10 44 30 0 12 -8 32 -17 44 l-18 20 -31 -27z"/>
<path d="M5617 2280 c9 -38 11 -40 54 -40 36 0 39 2 39 29 0 28 -2 29 -50 33
-48 3 -49 2 -43 -22z"/>
<path d="M7684 2278 c-35 -40 -135 -97 -191 -109 -63 -14 -51 -27 28 -28 76
-1 143 24 201 78 l52 48 -31 17 c-40 20 -36 20 -59 -6z"/>
<path d="M10431 2218 c0 -18 4 -42 8 -53 7 -18 11 -15 30 22 28 55 27 63 -9
63 -27 0 -30 -3 -29 -32z"/>
<path d="M4815 2225 c-16 -8 -42 -14 -57 -15 -24 0 -27 -5 -34 -45 -7 -49 2
-163 15 -184 11 -17 69 -6 99 20 21 17 46 81 58 149 5 25 -28 91 -43 89 -5 0
-21 -7 -38 -14z"/>
<path d="M9552 2162 c-17 -58 -17 -67 -5 -70 18 -5 93 28 93 39 0 5 -15 29
-34 53 l-34 44 -20 -66z"/>
<path d="M10336 2197 c-22 -11 -63 -23 -93 -25 -52 -4 -53 -5 -53 -37 0 -64
68 -133 134 -138 37 -2 41 1 69 44 28 45 28 48 13 78 -9 17 -20 46 -24 64 l-7
34 -39 -20z"/>
<path d="M5142 2119 c-24 -27 -55 -52 -68 -55 -13 -3 -24 -10 -24 -16 0 -10
75 -114 89 -123 15 -9 50 16 72 52 18 29 18 34 5 70 -8 21 -18 57 -23 79 l-8
42 -43 -49z"/>
<path d="M9860 2134 c-24 -13 -61 -24 -82 -24 -48 0 -54 -13 -36 -76 17 -62
80 -114 136 -114 82 0 100 19 62 67 -27 34 -43 99 -35 140 3 18 5 32 3 32 -2
-1 -23 -12 -48 -25z"/>
<path d="M10100 2139 c-14 -6 -52 -9 -85 -7 l-60 3 2 -44 c2 -49 33 -101 74
-125 34 -20 111 -21 149 -1 34 18 37 27 13 46 -21 18 -52 87 -53 117 0 24 -4
25 -40 11z"/>
<path d="M9666 2092 c-13 -21 -84 -52 -120 -52 -32 0 -36 -3 -47 -39 -15 -49
-9 -65 33 -91 39 -23 104 -26 152 -6 44 18 51 32 32 61 -9 14 -22 51 -29 82
-8 34 -16 52 -21 45z"/>
<path d="M5243 1936 l-22 -34 51 -21 c61 -25 67 -26 84 -3 19 25 17 30 -18 47
-18 8 -42 21 -53 29 -19 14 -22 13 -42 -18z"/>
<path d="M10270 1937 c0 -9 5 -28 10 -43 l11 -28 20 33 c23 38 23 37 -14 46
-21 6 -27 4 -27 -8z"/>
<path d="M4808 1933 c-25 -6 -23 -10 24 -62 53 -58 59 -60 51 -19 -6 34 -39
89 -51 87 -4 -1 -15 -3 -24 -6z"/>
<path d="M10185 1914 c-17 -7 -56 -13 -87 -14 -56 0 -58 -1 -58 -26 0 -65 57
-130 124 -141 31 -5 36 -2 64 39 l31 45 -22 55 -22 54 -30 -12z"/>
<path d="M9445 1870 c-20 -38 -16 -45 19 -29 29 14 33 31 12 48 -12 10 -18 7
-31 -19z"/>
<path d="M5405 1860 l-16 -30 68 -31 67 -30 18 23 c9 13 22 36 27 51 12 33 12
33 -81 41 -67 6 -67 6 -83 -24z"/>
<path d="M9950 1878 c-14 -5 -53 -7 -87 -4 l-63 5 0 -31 c0 -18 9 -51 21 -75
34 -70 116 -100 198 -72 37 13 38 19 6 67 -13 20 -27 56 -31 80 -7 46 -7 46
-44 30z"/>
<path d="M9705 1859 c-23 -11 -64 -19 -97 -19 -56 0 -58 -1 -58 -27 0 -43 38
-110 77 -134 42 -26 106 -28 152 -5 32 17 39 30 21 41 -18 11 -43 69 -49 115
l-6 47 -40 -18z"/>
<path d="M5875 1829 c-39 -15 -69 -18 -135 -16 -47 3 -93 7 -102 11 -12 6 -21
0 -32 -23 -9 -16 -16 -32 -16 -34 0 -8 88 -27 123 -27 60 0 133 28 178 70 24
21 42 39 39 38 -3 0 -27 -9 -55 -19z"/>
<path d="M4937 1823 c-19 -18 -5 -72 28 -109 l34 -39 1 33 c0 52 -45 134 -63
115z"/>
<path d="M9455 1785 c-16 -7 -38 -16 -47 -19 -15 -4 -74 -104 -66 -111 33 -28
101 -32 153 -10 42 17 51 35 34 67 -7 13 -15 36 -18 52 -8 35 -17 39 -56 21z"/>
<path d="M5050 1723 c0 -16 -3 -44 -6 -63 -5 -31 -2 -37 25 -52 26 -14 30 -14
35 -1 10 26 6 57 -14 101 -22 48 -40 55 -40 15z"/>
<path d="M10104 1668 c3 -17 8 -33 10 -36 7 -6 25 7 36 28 8 15 5 20 -21 29
l-31 11 6 -32z"/>
<path d="M10020 1648 c-14 -5 -56 -8 -95 -6 l-70 3 -3 -37 c-6 -66 40 -132
104 -152 18 -5 31 5 74 54 l53 61 -13 40 c-16 48 -18 49 -50 37z"/>
<path d="M5154 1593 c-5 -29 -3 -39 12 -50 46 -33 147 -42 219 -18 33 11 36
13 15 14 -51 2 -146 32 -192 61 l-47 29 -7 -36z"/>
<path d="M9515 1599 c-22 -10 -57 -19 -77 -19 -44 0 -45 -3 -18 -48 27 -44 76
-72 128 -72 46 0 47 1 30 33 -6 12 -14 44 -17 73 l-6 51 -40 -18z"/>
<path d="M9610 1576 c0 -55 35 -112 85 -136 49 -24 83 -25 131 -5 l35 14 -27
40 c-14 23 -29 60 -31 83 l-5 43 -94 0 -94 0 0 -39z"/>
<path d="M9293 1539 c-23 -16 -63 -60 -89 -97 l-47 -67 19 -35 c28 -51 77 -80
135 -80 54 0 65 10 48 42 -16 30 -12 113 7 154 16 33 16 37 -1 74 -10 22 -21
40 -24 39 -3 0 -25 -14 -48 -30z"/>
<path d="M9404 1424 c-4 -14 -4 -48 -2 -75 4 -42 12 -58 41 -87 33 -33 43 -36
102 -40 70 -5 73 -2 54 45 -6 15 -11 54 -10 86 l1 57 -46 0 c-25 0 -62 9 -84
20 -49 25 -48 25 -56 -6z"/>
<path d="M9910 1400 c0 -19 3 -21 12 -12 9 9 9 15 0 24 -9 9 -12 7 -12 -12z"/>
<path d="M9636 1367 c-13 -53 42 -158 83 -157 9 1 47 29 84 63 61 56 68 65 62
90 -6 23 -10 26 -34 19 -34 -9 -106 -9 -152 1 -33 7 -37 5 -43 -16z"/>
<path d="M9108 1313 c-31 -37 -31 -43 2 -32 32 12 35 16 22 37 -7 10 -12 8
-24 -5z"/>
<path d="M9164 1224 c-4 -14 -4 -48 -2 -75 4 -42 12 -58 41 -87 33 -33 43 -36
102 -40 70 -5 73 -2 54 45 -6 15 -11 54 -10 86 l1 57 -46 0 c-25 0 -62 9 -84
20 -49 25 -48 25 -56 -6z"/>
<path d="M9070 1223 c-35 -4 -90 -46 -90 -69 0 -16 61 -44 98 -44 30 0 30 0
31 60 0 33 0 59 -2 58 -1 0 -18 -3 -37 -5z"/>
<path d="M9397 1171 c-12 -57 32 -151 71 -151 29 0 90 54 95 85 3 16 8 38 12
48 6 15 1 17 -36 17 -24 0 -57 7 -73 15 -43 23 -63 19 -69 -14z"/>
<path d="M9636 1158 c-24 -34 -19 -41 14 -17 16 12 27 26 24 31 -9 14 -22 9
-38 -14z"/>
<path d="M8906 1079 c-14 -17 -26 -38 -26 -47 1 -28 27 -92 46 -113 24 -26 78
-49 116 -49 29 0 29 0 22 48 -4 30 -1 62 9 89 16 47 14 53 -18 53 -12 0 -43
11 -69 25 -26 14 -49 25 -51 25 -2 0 -15 -14 -29 -31z"/>
<path d="M9121 999 c-6 -18 -11 -40 -11 -50 0 -32 32 -99 46 -99 19 0 177 80
186 94 15 21 8 26 -39 26 -33 0 -67 9 -108 30 -33 16 -61 30 -62 30 0 0 -6
-14 -12 -31z"/>
<path d="M8814 995 c-19 -14 -18 -14 4 -15 13 0 22 6 22 15 0 19 -1 19 -26 0z"/>
<path d="M8682 883 c-34 -27 -61 -53 -62 -59 -1 -27 93 -84 139 -84 16 0 19 9
24 73 3 39 8 82 12 95 6 19 4 22 -22 22 -21 0 -50 -15 -91 -47z"/>
<path d="M8839 878 c-15 -27 -15 -116 -1 -130 11 -11 145 26 224 62 l43 19
-40 -5 c-55 -8 -114 10 -160 46 -45 36 -51 37 -66 8z"/>
<path d="M8521 745 c-57 -65 -36 -77 95 -54 l63 11 -52 39 c-28 21 -57 39 -63
39 -7 0 -26 -16 -43 -35z"/>
<path d="M8404 685 c-18 -14 -18 -14 9 -15 17 0 27 5 27 15 0 19 -11 19 -36 0z"/>
</g>
</svg>
