<svg xmlns="http://www.w3.org/2000/svg" width="512" height="512" viewBox="0 0 512 512">
  <defs>
    <style>
      .cls-1 {
        fill-rule: evenodd;
      }
    </style>
  </defs>
  <path id="Многоугольник_1" data-name="Многоугольник 1" class="cls-1" d="M345.473-.007a40,40,0,0,1,28.284,11.716L500.292,138.243a40,40,0,0,1,11.715,28.284V345.473a40,40,0,0,1-11.715,28.284L373.757,500.292a40,40,0,0,1-28.284,11.715H166.527a40,40,0,0,1-28.284-11.715L11.708,373.757A40,40,0,0,1-.007,345.473V166.527a40,40,0,0,1,11.716-28.284L138.243,11.708A40,40,0,0,1,166.527-.007H345.473Z"/>
</svg>
