<?xml version="1.0" standalone="no"?>
<!DOCTYPE svg PUBLIC "-//W3C//DTD SVG 20010904//EN"
 "http://www.w3.org/TR/2001/REC-SVG-20010904/DTD/svg10.dtd">
<svg version="1.0" xmlns="http://www.w3.org/2000/svg"
 width="379.000000pt" height="301.000000pt" viewBox="0 0 379.000000 301.000000"
 preserveAspectRatio="xMidYMid meet">

<g transform="translate(0.000000,301.000000) scale(0.100000,-0.100000)"
fill="#ffffff" stroke="none">
<path d="M1832 2899 c-24 -12 -79 -56 -124 -97 -139 -132 -261 -305 -334 -476
-37 -86 -104 -297 -104 -328 0 -11 -14 -33 -31 -50 l-30 -31 -122 7 c-67 4
-198 7 -292 7 -198 1 -257 -12 -509 -105 -166 -62 -196 -78 -196 -104 0 -43
210 -312 346 -443 120 -116 294 -224 378 -235 57 -8 104 -36 117 -72 25 -63
-6 -197 -95 -412 -62 -151 -105 -290 -113 -366 -7 -67 16 -94 80 -94 147 0
375 57 587 146 236 100 326 153 440 260 l55 52 73 -64 c131 -115 198 -155 444
-260 205 -88 356 -127 539 -141 79 -5 88 -4 108 16 29 29 27 66 -8 192 -34
117 -61 194 -119 324 -49 112 -65 180 -66 272 -1 94 17 115 119 138 115 25
290 140 416 272 132 139 309 370 309 403 0 30 -33 48 -205 110 -289 105 -283
104 -560 100 -399 -7 -364 -9 -390 22 -13 15 -26 46 -30 70 -13 76 -84 279
-130 370 -73 146 -151 255 -269 374 -104 103 -187 164 -225 164 -9 0 -35 -10
-59 -21z m87 -361 c30 -155 71 -730 71 -1009 0 -64 9 -184 20 -265 11 -82 20
-152 20 -156 0 -8 140 -82 144 -76 1 2 12 41 24 88 69 267 261 470 499 526 87
20 273 14 353 -11 l55 -18 -76 -13 c-273 -48 -499 -213 -626 -459 -41 -81 -79
-183 -70 -191 2 -2 26 -20 53 -39 120 -86 226 -216 277 -343 27 -65 61 -204
55 -222 -1 -5 -30 27 -63 72 -161 218 -410 374 -689 433 -61 12 -78 12 -139
-1 -282 -59 -544 -226 -707 -452 -25 -34 -46 -58 -48 -54 -6 18 27 151 51 212
57 139 165 275 283 352 l62 41 -24 70 c-104 307 -363 525 -687 582 l-72 12 55
18 c82 26 277 32 360 10 89 -23 205 -85 274 -147 111 -98 200 -257 228 -402 7
-36 15 -66 18 -66 3 0 37 17 75 38 l70 37 17 120 c9 66 22 253 28 415 15 419
54 906 76 942 12 19 23 5 33 -44z"/>
</g>
</svg>
