<?xml version="1.0" encoding="UTF-8" standalone="no"?>
<!DOCTYPE svg PUBLIC "-//W3C//DTD SVG 20010904//EN" "http://www.w3.org/TR/2001/REC-SVG-20010904/DTD/svg10.dtd">
<svg version="1.0" xmlns="http://www.w3.org/2000/svg" width="2048.000000pt" height="2048.000000pt" viewBox="0 0 2048.000000 2048.000000" preserveAspectRatio="xMidYMid meet">

<g transform="translate(0.000000,2048.000000) scale(0.100000,-0.100000)" fill="#111111" stroke="none">
<path d="M9955 20289 c-661 -69 -1376 -499 -1892 -1139 -272 -337 -500 -786 -574 -1129 -15 -71 -22 -148 -26 -296 -6 -215 8 -365 48 -537 27 -116 2142 -5344 2161 -5342 7 1 56 14 108 28 177 49 262 60 460 60 131 0 211 -5 275 -17 81 -15 247 -57 285 -71 12 -5 237 543 1083 2630 981 2419 1070 2646 1092 2753 63 306 61 611 -5 867 -115 446 -412 936 -805 1329 -505 504 -1088 805 -1674 865 -119 12 -419 11 -536 -1z"/>
<path d="M12980 19720 c-198 -16 -404 -52 -597 -107 l-93 -26 105 -109 c266 -278 494 -613 638 -938 136 -309 185 -526 194 -873 l6 -207 131 128 c200 195 360 307 591 418 363 172 786 269 1268 290 86 4 157 8 157 10 0 11 -125 217 -187 309 -243 355 -537 630 -873 812 -175 96 -462 204 -645 244 -209 46 -479 65 -695 49z"/>
<path d="M7125 19710 c-262 -19 -470 -69 -745 -180 -450 -180 -822 -491 -1120 -935 -70 -105 -170 -273 -170 -287 0 -4 37 -8 83 -8 384 0 860 -89 1193 -224 319 -128 557 -285 792 -524 l92 -94 0 143 c1 396 78 711 265 1079 150 293 354 577 592 821 l75 76 -122 32 c-318 84 -661 121 -935 101z"/>
<path d="M4870 18090 c-537 -39 -1008 -187 -1380 -435 -276 -183 -564 -485 -732 -767 -437 -732 -500 -1854 -153 -2718 116 -288 255 -495 464 -692 98 -91 255 -212 351 -268 36 -21 1235 -534 2665 -1140 1430 -606 2603 -1104 2606 -1106 4 -2 30 38 58 89 160 286 394 521 673 674 48 26 88 51 88 55 0 4 -498 1183 -1106 2620 -1062 2511 -1108 2617 -1179 2723 -149 224 -350 431 -540 557 -290 191 -747 343 -1185 392 -173 20 -470 27 -630 16z"/>
<path d="M15095 18090 c-475 -42 -931 -180 -1263 -381 -213 -130 -480 -407 -621 -647 -28 -47 -1841 -4303 -2234 -5244 l-15 -37 91 -51 c286 -159 521 -393 674 -672 26 -48 51 -88 55 -88 4 0 1183 497 2619 1105 2827 1197 2675 1128 2883 1293 100 78 270 252 343 349 205 273 368 707 433 1156 79 536 26 1126 -142 1592 -52 143 -171 386 -245 500 -173 264 -464 554 -721 719 -319 204 -699 333 -1154 391 -145 19 -559 27 -703 15z"/>
<path d="M18300 15318 c0 -287 -57 -683 -137 -948 -132 -441 -306 -741 -599 -1034 l-106 -106 149 0 c367 0 676 -72 1018 -239 311 -151 592 -347 855 -598 50 -47 93 -83 96 -80 14 13 76 272 99 412 66 396 48 783 -51 1112 -206 682 -591 1146 -1276 1537 l-48 27 0 -83z"/>
<path d="M2070 15323 c-496 -290 -848 -654 -1060 -1096 -122 -256 -178 -424 -222 -664 -20 -113 -23 -160 -23 -398 0 -288 9 -378 61 -609 23 -105 62 -247 70 -255 2 -2 51 42 110 98 384 367 857 647 1287 761 171 45 292 61 520 67 l208 6 -119 121 c-65 66 -143 153 -174 191 -329 417 -512 983 -544 1683 -4 83 -10 152 -13 151 -3 0 -49 -25 -101 -56z"/>
<path d="M2577 13009 c-113 -13 -292 -62 -441 -121 -824 -325 -1563 -1087 -1835 -1895 -93 -275 -128 -528 -118 -853 6 -198 28 -353 73 -520 241 -889 1079 -1761 1989 -2068 184 -63 293 -82 497 -89 194 -6 330 5 512 42 100 20 375 129 2737 1084 1444 584 2630 1065 2636 1069 8 5 4 31 -12 89 -97 334 -97 652 0 987 13 44 23 82 22 82 -1 1 -1188 482 -2637 1069 -2427 984 -2644 1070 -2750 1091 -63 13 -159 28 -212 33 -113 13 -349 12 -461 0z"/>
<path d="M17385 13005 c-55 -8 -141 -23 -190 -35 -119 -27 -5351 -2142 -5349 -2162 1 -7 14 -56 28 -108 47 -172 59 -263 60 -450 0 -98 -5 -210 -12 -255 -12 -73 -62 -278 -76 -315 -9 -21 5220 -2141 5351 -2170 219 -48 482 -63 691 -39 265 29 622 168 930 360 732 456 1294 1212 1436 1929 45 228 59 528 35 748 -63 585 -353 1144 -854 1648 -168 169 -267 254 -435 374 -317 227 -667 391 -985 462 -120 26 -481 34 -630 13z"/>
<path d="M10076 11650 c-322 -41 -607 -180 -836 -410 -210 -209 -339 -454 -397 -755 -23 -123 -23 -366 2 -495 104 -549 508 -984 1040 -1120 236 -60 474 -60 710 0 532 136 936 571 1040 1120 25 129 25 372 2 495 -58 301 -187 547 -396 756 -203 202 -446 333 -724 390 -115 23 -333 33 -441 19z"/>
<path d="M11730 9427 c-159 -286 -393 -521 -672 -674 -48 -26 -88 -52 -88 -56 0 -5 495 -1179 1101 -2610 693 -1639 1117 -2630 1146 -2677 124 -204 354 -455 528 -578 439 -310 1156 -484 1822 -443 656 40 1171 221 1588 558 130 105 340 321 435 448 266 353 427 792 492 1340 19 162 16 616 -6 779 -73 556 -251 1019 -509 1324 -131 155 -342 335 -504 430 -37 23 -1211 525 -2608 1117 -1397 592 -2570 1089 -2607 1105 l-67 29 -51 -92z"/>
<path d="M6077 8405 c-1611 -682 -2634 -1120 -2675 -1146 -265 -166 -516 -417 -654 -653 -105 -178 -228 -506 -282 -748 -97 -433 -109 -894 -35 -1333 74 -440 232 -826 466 -1137 92 -121 285 -324 406 -425 374 -312 846 -497 1442 -565 163 -18 599 -15 760 6 514 66 961 226 1258 449 97 73 271 243 349 343 164 208 97 58 1293 2879 609 1435 1108 2612 1111 2616 2 4 -38 30 -89 58 -286 160 -521 394 -674 673 -26 48 -52 87 -58 87 -5 0 -1184 -497 -2618 -1104z"/>
<path d="M8597 6006 c-1166 -2876 -1099 -2700 -1128 -2975 -17 -160 -6 -437 21 -566 43 -200 145 -461 264 -673 426 -759 1179 -1366 1917 -1546 318 -77 722 -87 1034 -25 782 156 1578 775 2023 1574 120 214 220 471 262 670 27 131 37 397 21 557 -30 286 44 90 -1120 2969 -585 1444 -1066 2630 -1070 2637 -5 8 -24 6 -71 -9 -199 -63 -439 -89 -642 -71 -156 14 -347 53 -443 92 -1 0 -481 -1185 -1068 -2634z"/>
<path d="M19540 8144 c-78 -81 -278 -252 -393 -338 -310 -231 -668 -409 -982 -491 -148 -38 -299 -57 -508 -62 l-197 -6 128 -131 c194 -200 305 -355 413 -581 177 -371 274 -791 295 -1278 l7 -157 66 37 c393 218 737 526 954 853 136 205 285 547 341 785 76 326 78 717 6 1086 -18 90 -79 329 -84 329 -1 0 -22 -21 -46 -46z"/>
<path d="M872 8061 c-32 -120 -62 -265 -84 -411 -8 -54 -13 -185 -13 -355 0 -238 3 -285 23 -399 66 -365 228 -745 438 -1026 194 -260 472 -506 781 -692 177 -106 163 -105 163 -12 0 290 59 687 141 959 130 430 306 732 595 1020 l102 102 -197 6 c-108 3 -241 13 -296 22 -510 78 -1036 357 -1511 800 l-110 103 -32 -117z"/>
<path d="M7155 2929 c-237 -240 -478 -401 -785 -522 -320 -127 -655 -196 -1062 -219 l-208 -11 32 -56 c277 -490 626 -849 1048 -1074 124 -66 358 -161 495 -201 337 -96 722 -112 1112 -45 115 20 381 84 391 94 3 3 -28 40 -69 83 -256 261 -466 558 -620 877 -165 339 -226 587 -238 963 l-6 203 -90 -92z"/>
<path d="M13227 2818 c-7 -223 -23 -346 -66 -514 -111 -423 -384 -891 -751 -1285 -57 -61 -100 -112 -98 -114 10 -10 241 -67 363 -89 208 -39 346 -49 579 -43 324 8 519 48 830 173 243 98 404 190 591 338 193 154 392 373 544 600 68 101 171 274 171 287 0 3 -73 9 -162 13 -438 18 -816 97 -1161 240 -283 118 -503 265 -725 487 l-109 109 -6 -202z"/>
</g>
<style xmlns="" type="text/css" id="igtranslator-color"/></svg>