<?xml version="1.0" standalone="no"?>
<!DOCTYPE svg PUBLIC "-//W3C//DTD SVG 20010904//EN"
 "http://www.w3.org/TR/2001/REC-SVG-20010904/DTD/svg10.dtd">
<svg version="1.0" xmlns="http://www.w3.org/2000/svg"
 width="2500.000000pt" height="2000.000000pt" viewBox="0 0 2500.000000 2000.000000"
 preserveAspectRatio="xMidYMid meet">

<g transform="translate(0.000000,2000.000000) scale(0.100000,-0.100000)"
fill="#000000" stroke="none">
<path d="M14270 18986 c0 -2 50 -31 110 -65 284 -159 531 -349 786 -605 201
-202 311 -334 449 -541 838 -1257 766 -2883 -182 -4070 -48 -60 -150 -173
-225 -251 -76 -77 -138 -144 -138 -148 0 -4 23 -41 51 -82 108 -160 139 -264
139 -465 0 -109 20 -195 69 -291 51 -101 65 -109 194 -111 l106 -2 46 -45 c26
-25 55 -61 65 -80 23 -46 47 -145 62 -252 14 -103 1 -107 143 48 567 620 935
1360 1079 2164 49 279 60 412 60 740 0 419 -31 671 -134 1075 -79 308 -169
543 -338 875 -170 337 -227 524 -227 750 0 142 14 201 67 290 76 125 290 251
617 361 113 38 151 60 151 85 0 23 -77 71 -168 104 -333 122 -1519 349 -2507
480 -126 17 -240 33 -252 35 -13 3 -23 4 -23 1z"/>
<path d="M10430 18944 c-1091 -156 -2129 -356 -2452 -474 -91 -33 -168 -81
-168 -104 0 -26 37 -46 165 -90 288 -99 498 -215 577 -318 90 -118 119 -286
83 -486 -26 -150 -46 -203 -122 -330 -328 -546 -523 -1117 -600 -1762 -24
-203 -24 -697 0 -900 100 -840 406 -1575 925 -2224 90 -112 290 -338 312 -351
6 -4 10 9 10 33 0 52 16 141 42 230 16 56 32 85 65 122 54 60 90 72 196 68
106 -4 124 7 172 106 54 113 75 209 75 345 0 173 29 262 141 427 l48 71 -112
114 c-495 506 -817 1106 -951 1772 -49 245 -60 363 -60 662 -1 285 6 376 45
605 170 985 794 1879 1683 2412 72 43 138 82 146 87 24 16 -38 11 -220 -15z"/>
<path d="M12379 18039 c-265 -174 -510 -415 -759 -749 -172 -232 -273 -391
-517 -819 -96 -168 -193 -330 -215 -358 -73 -96 -188 -225 -418 -473 -394
-425 -522 -586 -695 -880 -60 -102 -225 -410 -225 -421 0 -2 82 77 182 176
254 251 453 405 703 544 158 88 248 121 333 121 62 0 71 -3 95 -28 22 -23 27
-37 27 -80 0 -29 -6 -62 -12 -73 -7 -12 -123 -118 -258 -237 -391 -344 -628
-592 -849 -887 -54 -71 -101 -135 -105 -142 -4 -7 22 -44 61 -89 59 -67 68
-75 78 -59 55 93 198 300 265 385 102 129 370 403 505 517 116 98 314 234 400
274 47 23 74 29 126 29 58 0 68 -3 92 -28 23 -24 27 -37 27 -85 0 -66 8 -54
-200 -277 -247 -263 -397 -440 -552 -650 -120 -162 -181 -257 -174 -269 7 -10
176 -118 201 -127 8 -3 32 31 65 93 76 145 244 391 363 533 132 159 373 393
472 459 71 47 81 51 138 51 52 0 65 -4 89 -27 25 -24 28 -34 28 -89 l0 -62
-111 -158 c-250 -356 -396 -585 -520 -819 -77 -144 -105 -203 -98 -209 6 -5
188 -96 192 -96 2 0 7 57 10 128 19 366 170 671 464 936 174 157 381 262 613
312 109 24 475 27 585 5 308 -61 580 -228 794 -487 193 -234 300 -516 301
-796 0 -43 2 -78 5 -78 14 0 195 96 195 103 0 17 -111 228 -197 375 -95 162
-216 346 -401 610 l-122 174 0 62 c0 55 3 65 28 89 24 23 37 27 89 27 57 0 67
-4 138 -51 99 -66 340 -300 472 -458 118 -142 275 -371 352 -514 29 -53 54
-97 57 -97 9 0 153 92 181 117 l33 28 -83 117 c-177 251 -358 470 -621 751
-228 244 -216 228 -216 294 0 48 4 61 27 85 24 25 34 28 92 28 83 0 140 -26
306 -138 166 -112 292 -220 490 -423 185 -189 299 -330 415 -512 41 -64 78
-115 81 -114 10 3 129 144 129 153 0 11 -133 186 -239 314 -136 164 -442 468
-676 671 -110 96 -221 195 -247 221 -46 45 -48 49 -48 104 0 49 4 62 27 86 24
25 33 28 95 28 81 0 155 -26 308 -106 234 -125 480 -309 722 -542 l142 -137
-69 130 c-135 256 -256 448 -398 630 -106 135 -177 216 -427 485 -230 247
-344 377 -418 473 -22 28 -119 190 -215 358 -365 640 -576 938 -877 1239 -177
178 -457 390 -515 390 -13 0 -65 -28 -116 -61z m-941 -1640 c392 -159 689
-489 807 -896 24 -80 60 -292 52 -300 -3 -2 -19 22 -37 54 -57 102 -122 186
-215 278 -135 136 -205 178 -412 246 -340 113 -433 190 -433 359 0 66 22 153
62 241 36 80 26 79 176 18z m2281 -20 c41 -91 61 -170 61 -237 0 -180 -97
-255 -495 -382 -222 -71 -415 -250 -591 -546 -8 -13 -9 2 -3 56 50 465 346
888 764 1091 68 33 203 85 226 88 4 1 21 -31 38 -70z m-2749 -492 c11 -45 37
-138 56 -207 129 -455 320 -757 695 -1098 163 -148 177 -176 73 -153 -126 28
-302 121 -448 235 -319 249 -486 598 -486 1010 0 138 18 251 45 293 24 36 39
17 65 -80z m3158 24 c25 -82 24 -392 -2 -511 -21 -97 -67 -232 -103 -305 -145
-289 -474 -567 -776 -656 -76 -23 -111 -21 -101 5 3 8 70 74 150 146 303 276
498 551 619 875 20 54 62 189 92 299 30 111 59 207 65 214 17 20 36 -3 56 -67z"/>
<path d="M10665 15047 c-376 -153 -859 -548 -1159 -947 -31 -41 -56 -80 -56
-86 0 -14 129 -194 138 -193 4 0 46 53 94 117 202 272 495 578 858 897 207
181 249 221 250 238 0 15 -48 5 -125 -26z"/>
<path d="M14220 15071 c0 -13 91 -97 280 -261 303 -263 657 -632 844 -882 32
-43 60 -78 62 -78 7 0 134 189 134 200 0 26 -172 231 -310 370 -227 229 -485
424 -730 554 -155 82 -280 125 -280 97z"/>
<path d="M11025 14661 c-86 -40 -284 -176 -400 -274 -132 -112 -351 -337 -455
-467 -81 -102 -223 -310 -271 -399 l-24 -43 45 -39 44 -38 62 59 c56 54 66 60
106 60 43 0 43 1 93 77 159 245 386 523 695 853 160 171 200 217 200 230 0 17
-33 11 -95 -19z"/>
<path d="M13890 14680 c0 -13 40 -59 200 -230 309 -330 536 -608 695 -853 28
-42 56 -77 63 -77 8 0 44 -29 81 -65 l67 -65 58 59 c45 45 57 63 52 79 -12 35
-180 284 -266 392 -104 131 -323 355 -455 467 -209 176 -495 346 -495 293z"/>
<path d="M11447 14340 c-100 -67 -296 -256 -424 -410 -118 -141 -287 -388
-362 -531 -28 -53 -51 -98 -51 -101 0 -8 187 -108 200 -108 6 0 16 12 23 28
27 63 165 315 230 422 85 140 226 351 376 564 144 205 146 228 8 136z"/>
<path d="M13460 14376 c0 -8 55 -92 122 -188 265 -377 422 -628 543 -867 31
-61 58 -111 60 -111 2 0 19 8 37 19 18 10 64 35 101 55 l68 38 -46 86 c-73
137 -244 386 -358 522 -128 154 -324 343 -424 410 -77 51 -103 61 -103 36z"/>
<path d="M12360 14324 c-381 -49 -715 -253 -927 -569 -85 -126 -154 -293 -189
-455 -14 -63 -18 -128 -18 -250 0 -122 4 -187 18 -250 110 -511 495 -896 1006
-1006 119 -26 381 -26 500 0 338 73 626 268 817 551 85 126 154 293 189 455
26 119 26 381 0 500 -35 162 -104 329 -189 455 -56 83 -77 108 -170 203 -166
169 -383 288 -627 343 -83 19 -331 33 -410 23z m-356 -259 c77 -20 133 -54
194 -119 79 -84 105 -147 177 -437 36 -144 65 -265 65 -270 0 -4 -20 -22 -45
-39 l-44 -31 -55 31 c-41 23 -58 40 -67 65 -12 31 -14 33 -33 19 -11 -8 -31
-14 -44 -14 -18 0 -23 -4 -18 -16 3 -9 6 -31 6 -49 0 -33 1 -34 34 -28 27 4
47 -2 91 -27 l57 -33 -5 -55 c-3 -30 -7 -55 -9 -56 -2 -1 -124 -37 -272 -80
l-269 -78 -106 4 c-97 3 -113 6 -174 36 -81 40 -152 109 -185 180 -21 47 -24
64 -20 136 11 181 114 302 286 336 52 11 62 16 56 29 -29 67 -37 105 -38 166
-1 83 28 153 94 228 92 104 193 136 324 102z m1198 -17 c59 -25 150 -120 183
-190 31 -67 33 -167 5 -248 -25 -72 -26 -70 15 -70 43 0 131 -32 175 -65 83
-61 146 -204 138 -313 -14 -191 -228 -342 -450 -317 -52 5 -553 144 -578 160
-5 3 -10 30 -10 60 l0 54 56 32 c50 28 60 31 90 21 32 -10 34 -9 28 12 -3 12
-1 34 5 48 9 24 8 27 -19 33 -16 3 -34 13 -41 21 -12 14 -34 20 -25 6 13 -21
-25 -69 -76 -96 l-55 -30 -45 33 -44 32 66 268 c38 154 79 293 94 326 40 81
125 168 199 205 109 53 194 59 289 18z m-625 -878 c91 -55 81 -192 -17 -243
-89 -46 -200 24 -200 126 0 80 58 137 140 137 27 0 58 -8 77 -20z m-154 -274
l47 -19 0 -69 c0 -60 -3 -72 -24 -93 -22 -22 -23 -25 -7 -30 10 -3 28 -16 41
-30 l23 -24 19 24 c10 13 27 27 37 30 18 5 18 7 -5 32 -20 22 -24 36 -24 89
l0 64 51 25 50 26 176 -168 c97 -92 194 -189 217 -214 207 -230 149 -560 -112
-635 -76 -22 -202 -15 -259 14 -44 23 -107 79 -137 122 -16 24 -17 24 -28 6
-26 -46 -85 -98 -144 -127 -60 -30 -68 -31 -157 -27 -81 3 -103 8 -161 37 -97
48 -144 117 -167 245 -14 82 0 157 47 256 32 69 51 91 247 282 117 114 214
206 217 205 3 -1 26 -10 53 -21z"/>
<path d="M10110 13393 c-35 -29 -192 -258 -233 -338 -44 -88 -57 -152 -63
-300 -2 -77 -11 -167 -19 -200 -21 -80 -68 -179 -110 -231 -51 -62 -88 -75
-193 -72 -134 5 -159 -20 -202 -202 -27 -111 -33 -308 -12 -377 21 -69 90
-162 206 -278 310 -309 755 -560 1271 -715 487 -147 1000 -244 1550 -295 155
-15 186 -15 340 0 553 51 1064 148 1550 295 516 155 961 406 1271 715 116 116
185 209 206 278 21 69 15 266 -12 377 -43 182 -68 207 -202 202 -105 -3 -142
10 -193 72 -42 52 -89 151 -110 231 -8 33 -17 123 -19 200 -8 206 -25 255
-176 480 -135 202 -163 217 -266 141 -84 -62 -291 -179 -571 -323 l-242 -124
-6 -47 c-37 -296 -138 -527 -326 -739 -212 -239 -455 -385 -749 -449 -122 -27
-478 -27 -600 0 -259 56 -475 174 -667 365 -121 120 -200 223 -264 344 -58
112 -113 274 -129 382 -7 44 -14 89 -16 100 -3 15 -67 52 -249 144 -283 143
-534 283 -619 347 -70 51 -101 55 -146 17z"/>
<path d="M15949 11876 c-130 -135 -136 -143 -142 -191 -15 -110 -102 -233
-293 -414 -167 -158 -380 -309 -605 -430 l-92 -49 84 -27 c132 -42 312 -83
464 -107 126 -20 178 -23 512 -23 205 0 375 -4 379 -8 21 -21 -229 -92 -431
-123 -170 -26 -546 -26 -698 -1 -153 26 -327 70 -476 120 l-129 44 -48 -20
c-84 -32 -371 -116 -557 -162 -384 -95 -745 -155 -1227 -204 -84 -8 -82 -8 62
-10 312 -2 943 -114 1456 -257 353 -98 724 -228 1060 -370 226 -95 618 -288
666 -328 68 -55 224 -154 302 -191 222 -105 429 -80 672 81 267 178 522 532
598 830 26 106 30 164 13 213 -22 62 -72 66 -211 16 -253 -90 -343 -70 -543
124 -63 60 -155 136 -215 177 l-105 70 -82 290 c-73 253 -205 769 -260 1010
l-18 81 -136 -141z m296 -1475 c125 -33 208 -79 345 -189 200 -162 295 -199
483 -188 124 6 133 -2 51 -46 -103 -56 -224 -72 -325 -42 -72 21 -103 41 -239
149 -161 129 -175 138 -266 184 -94 47 -217 84 -329 100 -139 20 -148 22 -138
32 34 34 287 34 418 0z m-467 -191 c103 -13 233 -51 317 -92 36 -17 131 -84
212 -149 241 -193 354 -237 576 -224 125 7 138 2 88 -34 -75 -54 -179 -83
-296 -82 -137 0 -216 38 -400 191 -267 221 -420 290 -741 335 -59 9 -110 17
-112 19 -8 9 41 27 96 35 82 12 166 12 260 1z m-326 -235 c109 -19 241 -64
321 -109 34 -19 118 -81 187 -138 143 -117 198 -155 290 -196 94 -43 164 -54
319 -52 167 3 158 4 135 -21 -45 -50 -178 -98 -295 -106 -155 -10 -256 29
-425 166 -216 174 -271 213 -389 271 -146 72 -254 104 -445 131 -147 22 -158
24 -147 35 32 33 307 44 449 19z"/>
<path d="M8885 11932 c-39 -181 -181 -739 -258 -1006 l-82 -290 -105 -70 c-60
-41 -152 -117 -215 -177 -200 -194 -290 -214 -543 -124 -142 51 -190 46 -212
-21 -35 -105 35 -335 168 -559 107 -180 287 -374 444 -479 242 -160 451 -186
670 -82 80 38 236 137 304 192 48 40 440 233 666 328 458 194 973 361 1434
465 411 93 852 160 1067 163 72 0 116 3 97 5 -467 49 -628 71 -920 129 -289
56 -605 138 -847 220 l-101 35 -122 -41 c-146 -49 -318 -92 -467 -117 -150
-25 -518 -25 -688 0 -201 30 -462 103 -441 124 4 4 177 8 384 8 334 1 392 4
509 23 210 34 533 117 516 132 -4 4 -66 40 -138 80 -148 82 -292 179 -412 275
-101 81 -283 261 -342 337 -47 63 -90 156 -92 203 -2 55 -14 72 -136 199
l-122 125 -16 -77z m259 -1521 c16 -6 26 -14 23 -17 -2 -3 -50 -12 -106 -19
-258 -36 -389 -95 -606 -270 -149 -121 -185 -144 -258 -167 -72 -22 -144 -23
-222 -3 -62 17 -157 63 -162 80 -2 7 43 11 134 11 124 -1 145 2 203 25 79 30
147 74 265 173 132 111 237 161 398 192 83 16 286 12 331 -5z m325 -202 c61
-9 107 -26 99 -35 -2 -2 -56 -11 -119 -19 -202 -28 -356 -77 -488 -155 -72
-42 -124 -81 -282 -209 -59 -48 -136 -100 -179 -120 -73 -35 -78 -36 -195 -36
-130 0 -197 17 -277 70 -62 41 -50 47 80 40 212 -12 341 34 537 196 61 49 139
109 175 133 169 112 442 169 649 135z m489 -239 c17 -6 32 -16 32 -20 0 -5
-26 -11 -57 -15 -221 -25 -398 -72 -545 -146 -110 -55 -168 -95 -328 -228
-195 -160 -303 -211 -449 -211 -108 0 -278 57 -325 109 -23 25 -34 24 144 22
252 -3 346 37 620 264 159 131 265 183 460 226 69 15 116 18 250 15 98 -2 178
-8 198 -16z"/>
<path d="M5645 10729 c-350 -44 -632 -258 -744 -565 -50 -138 -61 -213 -61
-433 0 -501 131 -847 415 -1094 45 -40 154 -124 241 -187 461 -333 569 -464
694 -836 90 -271 114 -471 70 -586 -73 -193 -10 -205 995 -193 336 4 880 9
1211 10 656 3 629 1 685 62 41 45 110 147 202 301 l86 142 -15 35 c-8 19 -14
43 -14 54 0 88 -96 122 -231 82 -99 -31 -166 -98 -231 -231 -51 -105 -103
-165 -192 -218 -94 -57 -245 -101 -410 -117 l-69 -7 7 49 c28 192 110 343 221
408 23 14 82 39 130 55 94 32 135 54 135 72 0 18 -69 77 -121 103 -52 27 -116
32 -140 13 -9 -7 -36 -42 -61 -78 -59 -84 -196 -215 -274 -263 -34 -20 -93
-49 -130 -64 -62 -25 -82 -27 -199 -28 -110 0 -141 4 -202 24 -123 40 -123 34
-3 152 125 124 189 161 370 214 182 54 285 93 306 116 18 20 18 21 1 34 -29
21 -142 38 -203 30 -113 -14 -194 -51 -309 -140 -44 -34 -100 -72 -125 -85
-88 -45 -222 -35 -340 25 l-51 26 27 49 c39 71 131 155 211 192 54 26 84 33
151 36 l84 5 -7 26 c-11 43 -39 85 -76 109 -69 48 -183 11 -302 -97 -37 -33
-81 -68 -98 -76 -68 -36 -181 -29 -287 16 l-43 19 27 51 c15 28 56 77 90 109
74 69 145 99 254 109 l75 6 -50 51 c-56 56 -120 84 -192 84 -33 0 -62 -11
-130 -50 -96 -55 -132 -65 -201 -56 -52 7 -198 74 -225 104 -17 19 -16 21 40
66 66 52 145 86 204 86 34 0 91 -16 162 -45 32 -13 18 17 -27 61 -30 28 -64
48 -108 63 -82 27 -118 63 -125 125 -6 53 -2 55 85 33 80 -21 125 -58 167
-138 37 -71 45 -78 63 -56 9 10 6 25 -11 58 -14 29 -23 68 -25 116 -4 60 0 80
21 125 14 29 37 67 51 83 l26 30 31 -35 c81 -92 108 -220 69 -325 -27 -73 -29
-115 -7 -149 14 -21 178 -139 184 -132 2 1 -13 32 -33 69 -62 117 -54 219 25
308 l38 43 50 -47 c72 -68 97 -129 91 -228 -3 -55 -11 -87 -27 -114 -18 -30
-19 -40 -9 -54 53 -70 106 -106 177 -117 58 -9 61 10 12 92 -45 74 -56 115
-48 175 6 48 51 140 82 169 l22 21 45 -51 c94 -107 113 -185 79 -314 -27 -102
-26 -121 5 -184 39 -78 123 -122 158 -83 18 20 18 22 -17 88 -38 74 -57 147
-57 221 0 96 51 232 107 284 l25 23 45 -50 c64 -73 116 -181 117 -248 0 -44
-7 -69 -44 -142 -40 -80 -44 -96 -45 -161 0 -67 2 -75 29 -103 62 -65 140 -78
213 -36 23 14 43 28 43 30 0 2 -13 25 -29 50 -45 71 -64 157 -59 263 4 79 9
99 41 164 20 40 52 91 72 113 l35 40 45 -50 c82 -92 125 -203 125 -325 0 -83
-14 -140 -51 -214 -26 -52 -28 -64 -19 -92 14 -42 69 -90 118 -103 45 -13 106
1 139 31 l21 20 -23 35 c-61 88 -89 234 -65 334 18 77 60 156 116 218 l48 54
38 -43 c127 -143 153 -370 63 -555 l-32 -67 51 -38 c65 -49 149 -88 207 -96
32 -4 58 0 98 16 37 14 72 20 105 19 l51 -3 27 64 c39 94 62 202 55 270 -10
111 -52 165 -198 252 -193 114 -372 193 -869 383 -355 135 -394 153 -670 303
-218 118 -276 158 -377 265 -103 109 -155 212 -217 429 -60 206 -95 295 -159
403 -196 330 -549 590 -934 690 -188 49 -413 66 -588 44z m465 -187 c56 -56
81 -145 81 -292 0 -81 -6 -137 -20 -190 -25 -98 -135 -362 -155 -375 -29 -18
-47 7 -108 155 -82 199 -99 269 -99 410 0 147 25 236 81 292 37 37 40 38 110
38 70 0 73 -1 110 -38z m-635 -231 c66 -30 160 -106 220 -178 87 -105 245
-446 224 -485 -5 -10 -14 -18 -20 -18 -30 0 -344 141 -405 182 -149 99 -267
261 -268 365 -1 49 2 55 44 99 25 25 54 50 65 55 26 11 89 3 140 -20z m1194
15 c37 -19 99 -89 107 -120 8 -33 -19 -121 -54 -176 -46 -73 -126 -153 -207
-209 -81 -57 -397 -196 -421 -187 -8 3 -17 12 -20 20 -8 21 120 322 168 396
86 131 204 235 310 271 65 22 81 23 117 5z m-1149 -601 c104 -32 352 -139 358
-153 3 -8 1 -22 -5 -30 -10 -16 -157 -81 -301 -132 -167 -60 -365 -61 -494 -4
-80 37 -98 64 -98 152 0 61 3 74 26 102 31 36 65 55 136 75 72 20 301 14 378
-10z m1382 -4 c34 -13 69 -36 87 -57 29 -32 31 -41 31 -108 0 -63 -3 -77 -24
-99 -29 -32 -77 -56 -141 -73 -65 -18 -252 -17 -336 0 -62 13 -358 128 -386
149 -22 16 -14 46 15 61 63 32 318 129 375 142 97 21 306 13 379 -15z m-981
-253 c3 -30 -5 -54 -66 -196 -79 -187 -116 -246 -219 -347 -91 -89 -171 -136
-248 -143 -48 -5 -49 -4 -110 57 l-61 61 6 50 c9 77 61 164 153 255 96 96 148
128 342 211 144 62 201 76 203 52z m358 -52 c84 -35 181 -83 217 -107 169
-110 301 -299 279 -399 -4 -16 -31 -51 -61 -80 l-56 -53 -54 6 c-138 14 -326
189 -418 389 -62 133 -118 279 -112 294 10 25 52 15 205 -50z m-203 -101 c79
-184 103 -264 111 -361 12 -131 0 -241 -33 -314 -39 -87 -59 -100 -155 -100
-73 0 -79 2 -108 30 -16 17 -40 56 -52 88 -30 77 -38 265 -15 370 17 80 128
366 154 395 29 33 46 15 98 -108z"/>
<path d="M18958 10725 c-195 -27 -353 -76 -518 -161 -259 -134 -479 -337 -617
-569 -64 -108 -99 -197 -159 -403 -62 -217 -114 -320 -217 -429 -101 -107
-159 -147 -377 -265 -268 -146 -318 -169 -565 -263 -629 -239 -837 -332 -1047
-469 -83 -54 -128 -136 -128 -237 0 -56 30 -175 62 -249 l25 -55 47 3 c32 3
66 -3 106 -18 46 -17 70 -21 105 -16 53 8 165 63 216 105 l36 30 -32 66 c-90
185 -63 413 65 558 l36 40 48 -54 c144 -160 164 -386 50 -554 l-24 -36 22 -19
c81 -66 212 -31 255 68 13 31 12 37 -16 95 -37 78 -50 134 -51 217 0 119 44
234 125 325 l45 50 35 -40 c20 -22 52 -73 72 -113 32 -65 37 -85 41 -164 5
-106 -14 -192 -59 -263 -16 -25 -29 -48 -29 -50 0 -2 20 -16 43 -30 73 -42
152 -29 212 34 28 30 30 38 30 106 -1 68 -5 81 -44 157 -59 111 -60 165 -8
270 20 40 56 96 80 123 l45 50 26 -24 c36 -33 82 -129 97 -199 21 -104 -2
-237 -57 -324 -45 -70 -7 -106 71 -68 53 25 80 60 96 122 11 40 10 57 -10 138
-35 139 -18 212 77 320 l45 51 22 -21 c31 -29 76 -121 82 -169 8 -60 -3 -101
-48 -175 -49 -82 -46 -101 12 -92 71 11 125 47 177 117 9 12 6 25 -13 64 -20
38 -25 64 -25 119 0 90 29 154 95 215 l48 45 38 -43 c40 -45 69 -115 69 -167
0 -43 -25 -117 -57 -167 -13 -21 -23 -40 -21 -42 7 -7 169 108 185 131 22 34
20 76 -7 149 -39 105 -12 233 69 325 l31 35 26 -30 c14 -16 37 -54 51 -83 21
-45 25 -65 21 -125 -2 -48 -11 -87 -25 -116 -17 -33 -20 -48 -11 -58 18 -22
26 -15 63 56 42 80 87 117 167 138 87 22 91 20 85 -33 -6 -60 -43 -97 -120
-123 -33 -11 -75 -32 -93 -46 -37 -28 -70 -72 -61 -81 3 -3 29 5 59 18 38 16
71 23 118 23 78 -1 132 -23 207 -85 51 -42 52 -44 36 -62 -31 -34 -175 -99
-234 -105 -69 -7 -109 6 -207 64 -56 32 -84 43 -116 43 -71 0 -135 -28 -191
-84 l-50 -51 75 -7 c124 -10 199 -47 282 -135 25 -28 56 -69 67 -92 l22 -41
-43 -19 c-107 -45 -219 -52 -289 -15 -19 9 -63 44 -98 77 -72 67 -145 105
-218 113 -40 5 -54 2 -82 -18 -37 -24 -65 -66 -76 -109 l-6 -26 85 -5 c67 -5
99 -12 151 -37 78 -36 171 -121 209 -191 l27 -49 -49 -25 c-81 -41 -158 -59
-231 -54 -80 6 -128 29 -236 113 -115 89 -196 126 -309 140 -61 8 -174 -9
-203 -30 -17 -13 -17 -14 1 -34 21 -23 124 -62 306 -116 181 -53 245 -90 370
-214 120 -118 120 -112 -3 -152 -61 -20 -92 -24 -202 -24 -117 1 -137 3 -199
28 -37 15 -96 44 -130 64 -78 48 -215 179 -274 263 -25 36 -52 71 -61 78 -24
19 -88 14 -140 -13 -52 -26 -121 -85 -121 -103 0 -18 38 -39 135 -72 50 -18
109 -43 132 -56 109 -63 191 -216 218 -407 l6 -49 -68 7 c-163 16 -315 60
-410 117 -88 53 -140 111 -194 220 -28 55 -68 119 -89 142 -57 61 -146 100
-231 101 -96 0 -139 -31 -139 -101 0 -14 -7 -38 -15 -54 -14 -28 -13 -31 71
-172 93 -154 162 -256 203 -301 55 -61 29 -59 685 -62 330 -1 876 -6 1211 -10
1005 -12 1068 0 995 193 -44 115 -20 315 70 586 125 372 233 503 694 836 87
63 196 147 241 187 170 148 285 331 345 548 33 121 70 325 70 386 0 21 5 39
10 39 6 0 10 48 10 125 0 77 -4 125 -10 125 -5 0 -10 16 -10 35 0 55 -28 180
-61 269 -153 420 -587 635 -1131 561z m142 -183 c56 -56 81 -145 81 -292 0
-141 -17 -211 -99 -410 -61 -148 -79 -173 -108 -155 -20 13 -130 277 -155 375
-14 53 -20 109 -20 190 0 147 25 236 81 292 37 37 40 38 110 38 70 0 73 -1
110 -38z m-614 -242 c81 -40 180 -132 248 -233 59 -87 191 -388 182 -414 -3
-7 -12 -16 -19 -19 -23 -8 -325 122 -402 173 -138 92 -239 211 -271 320 -19
66 -14 91 29 139 72 83 119 89 233 34z m1227 -18 c38 -38 50 -58 54 -91 12
-91 -110 -266 -260 -372 -39 -27 -135 -76 -222 -113 -190 -81 -200 -83 -213
-59 -19 35 122 354 203 461 74 98 191 190 278 218 67 22 104 11 160 -44z
m-1203 -557 c104 -32 352 -139 358 -153 10 -28 -14 -44 -158 -104 -199 -82
-267 -98 -409 -98 -157 0 -251 27 -307 87 -21 22 -24 36 -24 99 0 64 3 76 27
104 28 34 91 66 158 80 65 14 292 5 355 -15z m1383 -5 c33 -13 70 -37 87 -57
27 -31 30 -40 30 -104 0 -89 -17 -116 -98 -152 -105 -47 -245 -56 -402 -25
-54 10 -364 130 -387 150 -19 15 -16 46 5 57 53 28 331 134 384 146 98 23 306
14 381 -15z m-976 -255 c7 -19 -105 -289 -156 -377 -45 -79 -199 -234 -269
-271 -30 -16 -76 -31 -106 -34 l-54 -6 -56 53 c-30 29 -57 64 -61 80 -22 100
110 289 279 400 77 50 348 168 389 169 16 1 30 -5 34 -14z m359 -51 c187 -80
254 -122 348 -217 82 -83 134 -174 143 -247 l6 -50 -61 -61 c-61 -61 -61 -62
-111 -57 -71 7 -153 52 -237 131 -98 91 -151 175 -229 357 -104 246 -102 248
141 144z m-263 9 c25 -29 136 -315 153 -395 23 -105 15 -293 -15 -370 -12 -32
-36 -71 -52 -88 -29 -28 -35 -30 -108 -30 -91 0 -111 11 -146 80 -34 68 -46
128 -46 241 0 137 14 203 78 364 89 223 99 238 136 198z"/>
<path d="M11790 9955 c-340 -59 -552 -107 -870 -200 -981 -286 -1638 -640
-1640 -883 0 -79 69 -156 197 -220 73 -37 249 -102 283 -105 8 0 60 18 115 40
105 43 278 92 405 115 108 19 418 16 549 -5 57 -9 188 -37 290 -61 207 -50
366 -78 546 -98 171 -19 1491 -18 1660 0 181 20 381 56 563 101 244 61 358 76
567 76 244 0 443 -38 660 -128 55 -22 107 -40 115 -40 34 3 210 68 283 105
128 64 197 141 197 220 -1 183 -384 438 -1017 676 -509 192 -1011 327 -1527
412 l-180 30 -500 -1 -501 0 -195 -34z"/>
<path d="M10297 8526 c-160 -66 -228 -160 -248 -338 -18 -160 -59 -261 -222
-538 -150 -255 -196 -386 -168 -473 15 -45 86 -109 163 -148 31 -16 107 -42
168 -59 61 -17 134 -42 163 -56 90 -46 247 -158 417 -299 309 -257 388 -299
585 -312 156 -10 340 34 456 108 32 21 139 116 236 211 234 228 353 307 538
359 88 24 132 24 220 0 185 -52 304 -131 538 -359 97 -95 204 -190 236 -211
116 -74 300 -118 456 -108 197 13 276 55 585 312 170 141 327 253 417 299 29
14 102 39 163 56 130 35 207 72 272 129 55 49 73 94 64 165 -11 91 -48 173
-176 392 -156 264 -201 375 -219 534 -17 156 -78 252 -201 315 -99 50 -111 51
-281 11 -282 -65 -664 -124 -1034 -158 -197 -18 -1663 -18 -1860 0 -368 34
-756 93 -1030 157 -82 19 -156 35 -165 35 -8 0 -41 -11 -73 -24z m1237 -451
c224 -39 323 -127 341 -303 7 -62 15 -80 106 -234 54 -92 99 -168 99 -170 0
-2 -33 27 -72 64 -197 184 -438 304 -763 381 -357 85 -816 74 -1157 -28 -28
-8 -53 -13 -55 -11 -5 5 183 90 287 129 225 84 467 143 708 172 152 18 400 18
506 0z m2421 0 c334 -39 726 -153 960 -279 52 -27 48 -28 -45 -2 -343 94 -777
102 -1125 19 -325 -77 -566 -197 -762 -381 -40 -37 -73 -66 -73 -64 0 2 45 78
99 170 91 154 99 172 106 234 22 224 183 315 560 317 83 1 209 -6 280 -14z
m-2872 -380 c209 -27 396 -85 588 -181 106 -53 284 -166 349 -223 41 -36 33
-38 -72 -16 -102 21 -181 49 -340 116 -75 33 -142 59 -147 59 -6 0 -11 -11
-11 -23 0 -46 -59 -144 -120 -201 -114 -105 -268 -159 -396 -138 -189 31 -391
202 -419 355 -4 20 -8 37 -10 37 -2 0 -47 -9 -101 -20 -84 -17 -103 -25 -126
-50 -58 -63 -34 -106 141 -251 137 -114 201 -141 385 -159 230 -23 589 44 909
170 l97 38 0 -42 c0 -81 -59 -169 -143 -213 -52 -26 -87 -33 -227 -43 -145
-10 -297 -44 -529 -119 l-124 -40 -99 50 c-205 103 -391 225 -490 322 -121
117 -209 328 -179 427 17 57 36 64 160 55 183 -14 238 -5 331 55 33 21 65 31
120 38 118 15 328 13 453 -3z m3262 4 c70 -8 100 -17 135 -40 94 -59 149 -68
331 -54 124 9 143 2 160 -55 30 -99 -58 -310 -179 -427 -99 -97 -285 -219
-490 -322 l-99 -50 -124 40 c-232 75 -384 109 -529 119 -140 10 -175 17 -227
43 -84 44 -143 132 -143 213 l0 42 98 -38 c319 -126 678 -193 908 -170 184 18
248 45 385 159 175 145 199 188 142 251 -24 25 -43 33 -127 50 -54 11 -99 20
-101 20 -2 0 -6 -17 -10 -37 -28 -152 -227 -321 -416 -355 -127 -22 -284 32
-399 138 -61 57 -120 155 -120 201 0 12 -5 23 -11 23 -5 0 -72 -26 -147 -59
-159 -67 -238 -95 -340 -116 -105 -22 -113 -20 -72 16 116 101 361 240 535
305 258 97 573 135 840 103z"/>
<path d="M10767 7541 c-41 -14 -57 -30 -57 -59 0 -66 89 -175 179 -222 125
-63 299 -7 369 120 45 82 16 115 -126 146 -82 17 -326 27 -365 15z"/>
<path d="M13945 7540 c-154 -19 -235 -54 -235 -103 0 -39 56 -114 112 -151
128 -84 250 -70 369 41 85 80 112 167 62 200 -31 21 -190 27 -308 13z"/>
<path d="M9530 6873 c-176 -398 -281 -902 -266 -1283 14 -368 115 -842 269
-1265 207 -567 597 -1241 868 -1500 47 -44 183 -156 303 -250 120 -93 268
-212 329 -266 156 -134 358 -346 447 -468 41 -57 89 -121 105 -144 55 -74 369
-223 606 -287 108 -28 124 -30 304 -30 180 0 196 2 304 30 149 41 287 96 446
179 101 53 137 77 160 108 17 23 64 87 105 144 89 122 291 334 447 468 61 54
209 173 329 266 120 94 256 206 303 250 268 255 652 916 863 1484 153 412 260
912 274 1281 15 381 -90 885 -266 1283 l-22 49 -51 -7 c-86 -11 -84 -9 -91
-83 -17 -163 -57 -279 -171 -497 -183 -351 -271 -632 -282 -901 -7 -169 2
-238 63 -486 133 -545 102 -1015 -91 -1397 -99 -198 -209 -317 -505 -553 -374
-297 -551 -483 -813 -849 -53 -75 -105 -144 -117 -154 -19 -18 -20 -18 -20 2
0 11 11 51 24 89 94 271 320 610 567 850 89 85 165 148 373 309 223 171 347
343 425 587 66 209 87 467 57 707 -20 150 -44 240 -111 416 -67 177 -86 254
-92 385 -5 102 -3 126 20 211 56 208 164 445 375 823 91 162 160 338 185 473
l6 32 -52 -16 c-138 -40 -296 -117 -404 -197 -32 -23 -112 -90 -179 -147 -212
-185 -397 -319 -511 -372 -43 -20 -63 -22 -203 -21 -140 0 -164 3 -245 28
-226 69 -423 200 -605 401 -29 33 -50 51 -46 40 30 -81 40 -149 40 -285 0
-169 -10 -212 -84 -359 -62 -122 -85 -216 -77 -316 3 -41 9 -79 12 -86 5 -7
20 2 44 24 45 44 92 57 202 57 170 0 311 -54 427 -165 109 -102 117 -122 117
-280 0 -158 -13 -193 -107 -292 -88 -91 -103 -98 -223 -98 -99 0 -100 1 -180
45 -159 87 -188 100 -209 94 -12 -4 -57 -41 -101 -84 -107 -103 -139 -115
-310 -115 -171 0 -203 12 -310 115 -44 43 -89 80 -101 84 -21 6 -50 -7 -209
-94 -80 -44 -81 -45 -180 -45 -120 0 -135 7 -223 98 -94 99 -107 134 -107 292
0 158 8 178 117 280 116 111 257 165 427 165 110 0 157 -13 202 -57 24 -22 39
-31 44 -24 3 7 9 45 12 86 8 100 -15 194 -77 316 -74 147 -84 190 -84 359 0
136 10 204 40 285 4 11 -17 -7 -46 -40 -182 -201 -379 -332 -605 -401 -81 -25
-105 -28 -245 -28 -140 -1 -160 1 -203 21 -114 53 -299 187 -511 372 -67 57
-147 124 -179 147 -108 80 -266 157 -404 197 l-52 16 6 -32 c25 -135 94 -311
185 -473 211 -378 319 -615 375 -823 23 -85 25 -109 20 -211 -6 -131 -25 -208
-92 -385 -100 -261 -132 -443 -122 -700 17 -456 163 -756 493 -1010 208 -161
284 -224 373 -309 247 -240 473 -579 567 -850 13 -38 24 -78 24 -89 0 -20 -1
-20 -20 -2 -12 10 -64 79 -117 154 -262 366 -439 552 -813 849 -296 236 -406
355 -505 553 -193 382 -224 852 -91 1397 61 248 70 317 63 486 -11 269 -99
550 -282 901 -114 218 -154 334 -171 497 -7 74 -5 72 -91 83 l-51 7 -22 -49z
m2448 -825 c-2 -6 -89 -66 -194 -133 -348 -223 -511 -351 -754 -594 -227 -227
-376 -410 -579 -708 -46 -68 -90 -128 -99 -135 -39 -33 31 167 111 312 238
436 573 792 974 1033 142 86 321 172 432 208 96 32 114 34 109 17z m1134 -14
c108 -34 298 -125 440 -210 344 -208 671 -530 879 -869 115 -187 198 -361 215
-450 6 -35 5 -38 -8 -27 -9 7 -53 67 -99 135 -203 298 -352 481 -579 708 -243
243 -406 371 -754 594 -172 110 -217 145 -187 145 5 0 47 -12 93 -26z m-3607
-392 c81 -441 120 -598 239 -976 76 -239 85 -276 66 -276 -14 0 -81 94 -134
188 -165 293 -259 632 -272 987 -6 151 5 286 27 327 11 19 12 20 21 4 5 -10
29 -124 53 -254z m6067 215 c20 -66 16 -397 -6 -532 -35 -216 -78 -367 -153
-545 -73 -171 -204 -390 -233 -390 -19 0 -10 37 66 276 118 375 171 591 244
1004 45 253 55 277 82 187z m-3012 -1273 c145 -123 237 -303 216 -419 -12 -62
-95 -138 -181 -164 -37 -12 -82 -21 -100 -21 -18 0 -63 9 -100 21 -86 26 -169
102 -181 164 -15 82 32 211 115 314 49 62 147 151 166 151 6 0 36 -21 65 -46z
m-1311 -154 c98 -28 192 -67 441 -185 326 -154 537 -239 719 -289 l86 -23 100
28 c187 52 374 128 705 284 389 184 467 209 640 210 124 0 210 -20 315 -72
104 -53 248 -168 316 -255 l30 -37 -193 -154 c-561 -449 -1110 -796 -1542
-976 -116 -48 -339 -121 -371 -121 -32 0 -255 73 -371 121 -432 180 -981 527
-1542 976 l-193 154 30 37 c69 87 213 203 316 254 57 29 131 54 196 68 69 14
234 4 318 -20z m-489 -766 c0 -3 -11 -20 -24 -37 -35 -46 -41 -79 -21 -121 40
-83 171 -162 500 -299 707 -295 943 -424 1062 -581 86 -113 143 -276 143 -405
0 -65 -15 -73 -37 -19 -147 367 -340 522 -933 748 -276 106 -427 179 -576 278
-183 123 -284 231 -284 305 0 37 40 88 90 113 43 22 80 31 80 18z m3550 -18
c50 -25 90 -76 90 -113 0 -74 -101 -182 -284 -305 -149 -99 -300 -172 -576
-278 -593 -226 -786 -381 -933 -748 -10 -24 -22 -40 -27 -37 -30 18 4 222 54
330 115 245 301 362 1141 712 329 137 460 216 500 299 20 42 14 75 -21 121
-13 17 -24 34 -24 37 0 13 37 4 80 -18z m-2410 -1817 c149 -80 246 -126 454
-215 37 -16 69 -34 70 -39 2 -16 -62 -18 -143 -5 -216 35 -423 147 -558 303
-71 81 -43 74 177 -44z m1400 91 c0 -5 -15 -26 -32 -47 -136 -156 -343 -268
-559 -303 -80 -13 -144 -11 -144 4 0 6 75 42 166 81 91 39 220 100 285 135
277 148 284 151 284 130z"/>
<path d="M10957 4348 c-48 -10 -49 -11 -43 -41 9 -42 38 -99 57 -110 25 -16
67 1 115 45 24 22 46 39 48 37 1 -2 9 -26 16 -52 31 -115 90 -126 180 -32 l35
36 12 -66 c13 -73 39 -133 64 -148 27 -17 69 2 123 53 l52 49 11 -68 c11 -74
38 -139 64 -154 26 -16 68 1 118 48 l48 45 11 -61 c12 -68 39 -128 63 -142 27
-17 69 2 123 53 l53 50 11 -61 c12 -68 39 -128 63 -142 30 -19 73 4 142 73 37
38 67 73 67 79 0 5 -46 24 -102 41 -158 49 -358 131 -623 255 -132 62 -267
124 -300 138 -169 70 -311 97 -408 75z"/>
<path d="M13861 4349 c-112 -22 -211 -61 -536 -214 -265 -124 -465 -206 -622
-255 -57 -17 -103 -36 -103 -41 0 -6 30 -41 68 -79 68 -69 111 -92 141 -73 24
14 51 74 63 142 l11 61 53 -50 c54 -51 96 -70 123 -53 24 14 51 74 63 142 l11
61 48 -45 c50 -47 92 -64 118 -48 26 15 53 80 64 154 l11 68 52 -49 c54 -51
96 -70 123 -53 25 15 51 75 64 148 l12 66 35 -36 c90 -94 149 -83 180 32 7 26
15 50 16 52 2 2 24 -15 48 -37 48 -44 90 -61 115 -45 19 11 48 68 57 109 6 31
5 31 -52 42 -65 13 -99 14 -163 1z"/>
<path d="M10845 4038 c-24 -13 -95 -79 -95 -89 0 -9 265 -205 440 -326 376
-260 749 -468 1042 -582 58 -22 111 -41 116 -41 11 0 -3 111 -23 169 -36 108
-79 108 -187 3 l-58 -56 0 35 c0 45 -27 147 -46 177 -31 48 -75 41 -143 -23
l-47 -44 -11 64 c-12 71 -39 133 -64 148 -24 15 -65 0 -110 -40 -22 -20 -41
-34 -43 -32 -2 2 -8 31 -14 63 -14 68 -39 125 -63 139 -24 15 -65 0 -107 -38
l-38 -34 -17 72 c-29 122 -69 151 -141 102 -21 -14 -39 -25 -41 -23 -1 2 -7
30 -13 62 -14 68 -39 125 -63 139 -22 14 -62 2 -97 -28 -17 -14 -32 -25 -35
-25 -2 0 -7 22 -11 50 -18 136 -66 194 -131 158z"/>
<path d="M14067 4032 c-22 -24 -45 -91 -53 -152 -4 -28 -9 -50 -11 -50 -3 0
-18 11 -35 25 -35 30 -75 42 -97 28 -24 -14 -49 -71 -63 -139 -6 -32 -12 -60
-13 -62 -2 -2 -20 9 -41 23 -72 49 -112 20 -141 -102 l-17 -72 -38 34 c-42 38
-83 53 -107 38 -24 -14 -49 -71 -63 -139 -6 -32 -12 -61 -14 -63 -2 -2 -21 12
-43 32 -45 40 -86 55 -110 40 -25 -15 -52 -77 -64 -148 l-11 -64 -47 44 c-50
47 -92 64 -118 48 -25 -15 -52 -78 -64 -151 -6 -37 -12 -69 -14 -71 -1 -2 -29
21 -62 52 -105 101 -152 89 -185 -48 -21 -88 -26 -135 -15 -135 6 0 59 19 117
41 293 114 666 322 1042 582 175 121 440 317 440 326 0 10 -72 77 -97 90 -31
16 -58 14 -76 -7z"/>
<path d="M12420 6849 c-51 -8 -60 -14 -131 -87 -124 -128 -182 -272 -182 -452
0 -116 17 -180 83 -309 61 -119 83 -206 83 -336 1 -122 -24 -213 -81 -300 -41
-62 -108 -133 -117 -123 -3 3 2 24 10 48 21 60 19 116 -7 161 -39 70 -133 93
-260 65 -148 -33 -270 -110 -326 -205 -24 -40 -27 -56 -26 -126 1 -93 22 -151
79 -213 46 -51 98 -76 157 -74 48 1 89 18 212 90 37 22 90 46 117 52 73 18
110 1 204 -90 98 -94 145 -115 260 -115 115 0 162 21 260 115 94 91 131 108
204 90 27 -6 80 -30 117 -52 123 -72 164 -89 212 -90 59 -2 111 23 157 74 57
62 78 120 79 213 1 70 -2 86 -26 126 -56 95 -178 172 -326 205 -127 28 -221 5
-260 -65 -26 -45 -28 -101 -7 -161 8 -24 13 -45 10 -48 -9 -10 -76 61 -117
123 -57 87 -82 178 -81 300 0 130 22 217 83 336 66 129 83 193 83 309 0 178
-57 322 -180 450 -53 57 -82 79 -106 83 -74 13 -125 15 -177 6z"/>
<path d="M7580 6660 c-157 -5 -501 -16 -765 -24 -264 -9 -517 -17 -562 -19
-71 -2 -85 -5 -109 -27 -14 -14 -35 -43 -44 -65 -29 -67 -293 -1320 -286
-1358 10 -54 36 -73 107 -81 688 -73 1486 -119 2069 -120 699 -1 803 22 895
204 57 113 69 234 100 1003 10 240 11 366 4 385 -19 54 -33 71 -68 88 -33 16
-85 18 -546 20 -280 1 -638 -2 -795 -6z m-1211 -154 l23 -25 -22 -258 c-23
-272 -29 -297 -75 -309 -29 -7 -70 16 -80 45 -3 11 3 124 15 251 11 127 20
239 20 249 0 10 9 30 21 45 26 34 68 34 98 2z m2172 -134 c121 -58 216 -177
239 -301 28 -152 -9 -291 -125 -463 -119 -178 -355 -333 -560 -369 -91 -16
-269 -6 -370 20 -165 43 -349 162 -446 290 -66 87 -144 246 -170 346 -23 86
-29 278 -11 325 8 21 11 13 20 -49 14 -95 67 -206 127 -266 25 -26 76 -61 113
-78 63 -30 74 -32 177 -32 103 0 114 2 179 33 97 45 184 136 215 222 53 147
105 223 195 285 88 60 145 76 256 72 82 -3 105 -8 161 -35z m-1828 -114 c17
-9 18 -18 12 -81 -9 -96 -21 -107 -107 -95 -96 13 -92 8 -85 94 7 101 14 108
97 99 36 -4 73 -11 83 -17z m-24 -241 c10 -9 12 -28 6 -82 -9 -94 -14 -99 -98
-92 -94 8 -101 15 -93 101 9 95 14 100 101 91 38 -4 76 -12 84 -18z m-32 -239
c12 -10 14 -26 9 -82 -9 -95 -14 -100 -101 -91 -95 9 -99 13 -90 100 4 38 12
76 18 84 14 17 141 9 164 -11z m-372 -33 c14 -13 25 -31 25 -38 0 -39 -80
-508 -89 -526 -15 -26 -55 -37 -87 -22 -48 21 -48 40 -10 287 20 126 39 242
42 258 13 64 75 86 119 41z m325 -195 c24 -6 25 -10 24 -83 -2 -102 -9 -110
-93 -101 -102 10 -104 13 -96 97 9 94 21 108 89 100 28 -4 62 -9 76 -13z"/>
<path d="M8315 6150 c-121 -50 -79 -260 53 -260 45 0 95 22 120 55 40 50 23
162 -29 199 -25 17 -109 21 -144 6z"/>
<path d="M16185 6661 c-103 -7 -135 -18 -154 -56 -29 -57 -30 -80 -16 -432 31
-769 43 -890 100 -1003 38 -76 89 -126 148 -148 194 -72 754 -81 1672 -27 433
26 1162 86 1207 101 19 6 48 62 48 93 0 33 -268 1281 -285 1327 -9 22 -29 54
-46 70 -29 27 -35 29 -127 32 -53 1 -302 9 -552 17 -1018 34 -1711 43 -1995
26z m2530 -156 c14 -13 25 -32 25 -42 0 -10 9 -127 21 -261 l21 -243 -23 -25
c-12 -13 -33 -24 -46 -24 -28 0 -73 41 -73 67 0 10 -9 127 -21 261 l-21 243
23 25 c29 31 63 31 94 -1z m-1911 -134 c121 -59 196 -154 257 -321 29 -81 115
-172 209 -221 63 -33 69 -34 180 -34 108 0 119 2 182 32 37 17 88 52 113 78
60 60 113 171 127 266 9 62 12 69 20 49 17 -45 13 -229 -6 -310 -23 -96 -110
-275 -176 -362 -54 -71 -141 -146 -236 -203 -194 -117 -473 -149 -689 -78
-170 55 -350 193 -455 348 -114 170 -149 303 -120 456 28 150 163 292 313 330
18 4 73 7 123 6 80 -3 99 -7 158 -36z m1636 -105 c16 -20 26 -161 12 -170 -6
-4 -41 -10 -78 -15 -88 -10 -100 0 -109 95 -8 82 -6 85 65 95 75 11 97 10 110
-5z m29 -239 c6 -8 13 -45 17 -83 5 -55 3 -72 -9 -82 -21 -18 -143 -28 -161
-13 -19 16 -32 146 -16 166 19 23 151 32 169 12z m29 -239 c6 -7 13 -45 17
-83 9 -87 5 -91 -90 -100 -87 -9 -92 -4 -101 91 -7 76 -1 88 46 97 52 9 118 7
128 -5z m292 -28 c26 -14 34 -49 76 -314 38 -247 38 -266 -10 -287 -32 -15
-72 -4 -87 22 -9 18 -89 487 -89 526 0 21 46 63 70 63 12 0 30 -5 40 -10z
m-246 -290 c10 -89 6 -94 -91 -104 -51 -5 -70 -4 -80 7 -19 18 -30 161 -14
171 6 4 39 11 74 15 88 11 100 2 111 -89z"/>
<path d="M16531 6144 c-52 -37 -69 -149 -29 -199 12 -15 36 -34 54 -41 75 -31
144 -8 175 59 34 76 21 133 -40 174 -42 28 -124 32 -160 7z"/>
<path d="M5834 4900 c-39 -16 -73 -71 -104 -168 -17 -53 -94 -291 -171 -528
-76 -237 -139 -443 -139 -458 0 -30 26 -92 42 -102 5 -4 33 -12 61 -19 29 -7
163 -42 299 -79 563 -152 1367 -332 1858 -417 384 -66 701 -93 809 -70 131 28
215 165 255 416 25 160 104 811 133 1091 9 86 -24 156 -88 190 -57 29 -466 53
-2067 119 -938 39 -860 37 -888 25z m256 -100 c11 -11 20 -28 20 -37 0 -10
-27 -119 -60 -243 -61 -231 -70 -250 -117 -250 -27 0 -63 33 -63 58 0 9 27
118 59 242 41 152 65 228 77 237 26 19 61 16 84 -7z m258 -246 c85 -24 89 -30
68 -108 -28 -101 -30 -103 -109 -82 -103 28 -104 30 -82 112 27 104 29 105
123 78z m727 -112 c0 -128 0 -128 38 -204 58 -118 145 -189 274 -222 81 -21
138 -20 215 4 98 30 174 85 239 171 77 102 113 135 191 174 95 47 166 60 252
47 143 -22 265 -114 328 -249 25 -53 33 -84 36 -148 8 -153 -45 -274 -177
-406 -174 -172 -365 -256 -607 -266 -101 -4 -134 -2 -205 16 -269 68 -498 260
-595 501 -67 164 -89 354 -59 500 13 66 60 210 69 210 0 0 1 -58 1 -128z
m-791 -120 c33 -10 64 -25 70 -34 13 -21 -22 -146 -44 -161 -20 -12 -156 27
-163 48 -8 19 29 147 45 157 18 11 25 10 92 -10z m-384 -152 c11 -11 20 -28
20 -37 0 -10 -34 -119 -76 -241 -63 -182 -81 -226 -100 -234 -33 -15 -73 -2
-87 29 -10 23 -3 52 63 247 41 121 83 229 93 238 23 24 62 23 87 -2z m323 -80
c36 -11 67 -27 71 -35 9 -25 -35 -154 -55 -160 -19 -6 -126 21 -146 37 -17 14
-16 45 3 104 28 84 29 84 127 54z m-79 -226 c89 -25 93 -30 72 -108 -28 -102
-30 -103 -112 -82 -98 26 -101 30 -79 113 19 71 30 93 48 93 6 0 38 -7 71 -16z"/>
<path d="M8179 4145 c-40 -22 -59 -59 -61 -119 -2 -65 18 -101 67 -122 73 -30
151 -10 181 48 21 40 20 122 -1 155 -32 48 -130 68 -186 38z"/>
<path d="M18950 4903 c-36 -2 -391 -17 -790 -33 -1491 -62 -1892 -85 -1949
-114 -64 -34 -97 -105 -88 -190 34 -335 120 -1021 142 -1142 42 -229 134 -352
273 -370 121 -15 428 14 782 75 491 85 1295 265 1858 417 136 37 270 72 299
79 28 7 56 15 61 19 16 10 42 72 42 102 0 28 -322 1037 -346 1085 -7 15 -27
38 -44 53 -34 28 -45 29 -240 19z m34 -96 c12 -9 36 -85 77 -237 32 -124 59
-233 59 -242 0 -25 -36 -58 -63 -58 -48 0 -57 19 -118 250 -32 124 -59 233
-59 243 0 44 66 72 104 44z m-1002 -432 c43 -194 -2 -447 -113 -631 -43 -72
-135 -172 -210 -230 -76 -58 -224 -129 -323 -154 -204 -52 -473 -2 -664 122
-97 64 -218 184 -265 266 -78 133 -88 289 -29 414 67 139 179 224 328 249 60
11 80 10 140 -5 81 -20 169 -65 213 -108 17 -17 56 -63 86 -104 65 -86 86
-103 179 -150 208 -102 458 -13 557 199 33 70 34 75 34 200 l0 129 23 -54 c13
-29 33 -93 44 -143z m755 183 c6 -7 18 -44 28 -81 22 -83 19 -87 -78 -112 -83
-22 -87 -19 -112 78 -22 81 -19 85 63 109 71 20 87 21 99 6z m61 -226 c16 -11
53 -138 45 -158 -8 -21 -142 -60 -162 -47 -23 15 -58 140 -45 161 6 9 35 24
65 33 63 20 79 22 97 11z m371 -152 c12 -6 44 -84 96 -236 85 -246 88 -269 33
-288 -59 -21 -68 -7 -152 236 -42 122 -76 231 -76 241 0 42 58 69 99 47z
m-300 -83 c6 -8 19 -44 28 -80 21 -80 17 -87 -70 -111 -91 -26 -90 -27 -132
124 -8 26 10 41 71 60 71 23 88 24 103 7z m68 -229 c6 -7 18 -44 28 -81 22
-83 19 -87 -78 -112 -83 -22 -87 -19 -112 78 -22 81 -19 85 63 109 71 20 87
21 99 6z"/>
<path d="M16673 4145 c-44 -19 -64 -54 -65 -113 0 -60 22 -107 62 -127 59 -31
153 -11 186 40 22 33 21 112 -1 154 -29 56 -111 77 -182 46z"/>
<path d="M5393 3440 c-17 -10 -37 -29 -44 -42 -39 -72 -429 -1077 -429 -1106
0 -39 21 -92 44 -111 22 -18 251 -126 566 -266 1022 -454 2087 -848 2408 -891
29 -3 52 -10 52 -15 0 -5 27 -9 60 -9 33 0 60 4 60 9 0 5 10 11 23 15 45 11
115 85 152 159 56 113 89 269 217 1002 74 427 74 421 54 487 -17 59 -52 99
-107 122 -97 40 -638 162 -2328 522 -245 52 -493 106 -552 119 -129 30 -135
30 -176 5z m244 -142 c13 -12 23 -28 23 -37 0 -8 -34 -119 -75 -245 -76 -235
-86 -256 -134 -256 -25 0 -71 37 -71 58 0 39 151 482 168 491 28 17 64 12 89
-11z m261 -274 c85 -24 89 -30 68 -108 -28 -101 -30 -103 -109 -82 -103 28
-104 30 -82 112 27 104 29 105 123 78z m951 -174 c-46 -122 -43 -265 8 -368
54 -108 176 -198 301 -223 116 -22 278 24 362 104 123 116 202 151 350 151
100 1 109 -1 173 -32 149 -74 247 -229 247 -393 0 -50 -30 -161 -60 -219 -26
-51 -155 -170 -236 -219 -156 -92 -277 -124 -474 -124 -119 -1 -146 3 -225 27
-303 92 -540 352 -596 656 -29 159 -11 353 47 502 22 58 102 188 115 188 4 0
-2 -23 -12 -50z m-1015 -58 c33 -10 64 -25 70 -34 13 -21 -22 -146 -44 -161
-20 -12 -156 27 -163 48 -8 19 29 147 45 157 18 11 25 10 92 -10z m-417 -124
c13 -12 23 -28 23 -36 0 -8 -32 -114 -71 -236 -72 -224 -93 -266 -134 -266
-29 0 -75 37 -75 59 0 40 151 480 168 490 28 17 64 12 89 -11z m356 -108 c36
-11 67 -27 71 -35 9 -25 -35 -154 -55 -160 -19 -6 -126 21 -146 37 -17 14 -16
45 3 104 28 84 29 84 127 54z m-79 -226 c89 -25 93 -30 72 -108 -28 -102 -30
-103 -112 -82 -98 26 -101 30 -79 113 19 71 30 93 48 93 6 0 38 -7 71 -16z"/>
<path d="M7815 2238 c-56 -44 -73 -143 -33 -193 40 -51 139 -72 186 -39 58 40
80 149 40 199 -44 56 -143 73 -193 33z"/>
<path d="M19485 3450 c-30 -8 -705 -153 -1485 -320 -869 -186 -1383 -304
-1459 -336 -55 -23 -90 -63 -107 -122 -20 -66 -20 -60 54 -487 128 -733 161
-889 217 -1002 37 -74 107 -148 152 -159 13 -4 23 -10 23 -15 0 -5 27 -9 60
-9 33 0 60 4 60 9 0 5 23 12 52 15 320 43 1387 437 2408 891 315 140 544 248
566 266 23 19 44 72 44 111 0 29 -390 1034 -429 1106 -27 50 -87 70 -156 52z
m-44 -142 c14 -10 40 -75 94 -244 41 -126 75 -236 75 -244 0 -23 -42 -60 -67
-60 -53 0 -60 12 -138 253 -41 127 -75 238 -75 246 0 23 41 61 67 61 13 0 32
-6 44 -12z m-254 -280 c6 -7 18 -44 28 -81 22 -83 19 -87 -78 -112 -83 -22
-87 -19 -112 78 -22 81 -19 85 63 109 71 20 87 21 99 6z m-1011 -190 c47 -73
86 -165 110 -258 20 -78 23 -275 5 -370 -61 -326 -333 -605 -655 -671 -112
-23 -204 -24 -327 -3 -180 31 -321 101 -454 226 -85 81 -112 125 -141 233 -37
136 10 298 116 404 105 105 253 144 399 106 88 -23 123 -42 212 -118 90 -77
135 -102 226 -123 199 -47 411 66 485 258 30 78 28 210 -4 306 -13 39 -22 72
-18 72 3 0 24 -28 46 -62z m1072 -36 c16 -11 53 -138 45 -158 -8 -21 -142 -60
-162 -47 -23 15 -58 140 -45 161 6 9 35 24 65 33 63 20 79 22 97 11z m412
-122 c14 -8 40 -75 95 -243 41 -128 75 -239 75 -247 0 -23 -42 -60 -67 -60
-52 0 -61 16 -138 256 -41 126 -75 236 -75 244 0 23 42 60 67 60 14 0 33 -5
43 -10z m-341 -113 c6 -8 19 -44 28 -80 21 -80 17 -87 -70 -111 -91 -26 -90
-27 -132 124 -8 26 10 41 71 60 71 23 88 24 103 7z m68 -229 c6 -7 18 -44 28
-81 22 -83 19 -87 -78 -112 -83 -22 -87 -19 -112 78 -22 81 -19 85 63 109 71
20 87 21 99 6z"/>
<path d="M17034 2246 c-68 -30 -92 -101 -59 -179 20 -49 59 -77 107 -77 85 0
148 52 148 122 0 116 -92 179 -196 134z"/>
</g>
</svg>
