<?xml version="1.0" standalone="no"?>
<!DOCTYPE svg PUBLIC "-//W3C//DTD SVG 20010904//EN"
 "http://www.w3.org/TR/2001/REC-SVG-20010904/DTD/svg10.dtd">
<svg version="1.0" xmlns="http://www.w3.org/2000/svg"
 width="2120.000000pt" height="2000.000000pt" viewBox="0 0 2120.000000 2000.000000"
 preserveAspectRatio="xMidYMid meet">

<g transform="translate(0.000000,2000.000000) scale(0.100000,-0.100000)"
fill="#000000" stroke="none">
<path d="M10556 18817 c-15 -11 -33 -235 -165 -2085 -82 -1141 -151 -2075
-153 -2077 -2 -3 -303 860 -667 1918 -365 1057 -670 1932 -677 1945 -22 34
-106 23 -119 -17 -3 -9 168 -918 380 -2021 212 -1102 384 -2007 383 -2010 -2
-4 -507 741 -1124 1654 -945 1401 -1125 1661 -1146 1664 -35 4 -91 -44 -84
-72 3 -12 395 -824 870 -1805 476 -982 864 -1786 863 -1787 -1 -1 -664 571
-1472 1272 -809 700 -1478 1274 -1488 1274 -26 0 -79 -56 -75 -80 2 -10 548
-648 1214 -1417 666 -769 1223 -1412 1238 -1430 33 -39 233 -134 -1799 851
-869 421 -1585 766 -1592 766 -21 0 -64 -62 -61 -88 3 -21 215 -168 1328 -920
2171 -1466 2202 -1487 2395 -1584 188 -95 354 -164 489 -202 48 -15 92 -26 96
-26 4 0 11 42 15 93 26 349 158 639 406 886 258 259 558 390 927 408 435 20
819 -131 1102 -434 226 -242 354 -531 376 -850 5 -71 11 -103 19 -103 26 0
215 61 320 103 139 56 324 148 463 232 59 35 874 583 1812 1218 1435 971 1705
1158 1708 1179 3 26 -40 88 -61 88 -9 0 -3040 -1467 -3331 -1612 l-79 -40 28
34 c15 18 573 662 1239 1431 666 769 1212 1407 1214 1417 4 24 -49 80 -75 80
-10 0 -684 -578 -1498 -1284 -814 -706 -1482 -1282 -1483 -1280 -2 1 390 814
872 1806 482 992 876 1809 876 1815 0 21 -62 64 -88 61 -21 -3 -202 -265
-1146 -1660 -616 -911 -1122 -1655 -1124 -1653 -2 2 170 905 383 2008 212
1102 383 2011 380 2019 -15 39 -97 50 -119 16 -15 -25 -1346 -3870 -1346
-3890 0 -6 -2 -9 -5 -6 -3 3 -72 945 -155 2094 -133 1866 -151 2090 -166 2101
-23 17 -75 17 -98 0z"/>
<path d="M10331 18234 c-405 -120 -739 -324 -956 -585 -41 -49 -75 -95 -75
-102 -1 -20 905 -2640 907 -2625 2 7 55 738 118 1623 63 886 117 1634 120
1663 6 62 7 62 -114 26z"/>
<path d="M10765 18208 c3 -29 57 -780 120 -1668 63 -888 116 -1624 117 -1634
2 -11 183 500 402 1135 219 635 425 1229 457 1321 l58 167 -47 63 c-154 208
-419 409 -697 530 -106 46 -314 118 -383 133 l-32 7 5 -54z"/>
<path d="M9018 16855 c-24 -74 -52 -335 -78 -705 -11 -162 -27 -369 -36 -459
l-15 -163 37 -57 c82 -125 497 -737 505 -745 4 -5 6 0 3 10 -2 10 -94 489
-204 1064 -110 575 -201 1052 -203 1060 -2 11 -5 9 -9 -5z"/>
<path d="M11983 15772 c-110 -576 -200 -1048 -199 -1048 0 -1 120 174 265 389
l264 390 -17 181 c-9 100 -26 312 -36 471 -24 343 -57 645 -73 661 -1 2 -93
-468 -204 -1044z"/>
<path d="M8110 15299 c-211 -148 -263 -191 -248 -205 7 -7 141 -123 298 -259
l285 -246 42 87 c24 48 43 93 43 99 0 19 -288 605 -297 605 -4 0 -60 -37 -123
-81z"/>
<path d="M12859 15153 c-61 -126 -126 -262 -146 -305 l-35 -76 44 -93 43 -92
280 243 c154 133 288 250 298 260 18 17 15 20 -75 87 -109 82 -283 203 -292
203 -3 0 -56 -102 -117 -227z"/>
<path d="M7374 14619 c-69 -89 -184 -261 -184 -273 0 -6 180 -98 401 -205 397
-193 400 -194 420 -175 19 20 17 22 -257 339 -152 176 -288 333 -304 348 l-27
29 -49 -63z"/>
<path d="M13482 14333 c-300 -346 -301 -348 -282 -368 20 -19 20 -19 92 16 40
20 220 107 401 194 180 87 327 164 327 170 0 19 -221 335 -234 335 -2 0 -139
-156 -304 -347z"/>
<path d="M10405 13844 c-491 -75 -921 -441 -1068 -910 -50 -157 -62 -238 -62
-414 0 -176 12 -257 62 -414 124 -396 463 -735 859 -859 157 -50 238 -62 414
-62 176 0 257 12 414 62 396 124 735 463 859 859 50 157 62 238 62 414 0 176
-12 257 -62 414 -105 336 -373 641 -696 795 -239 113 -522 155 -782 115z m822
-744 c43 -26 63 -68 63 -130 0 -94 -53 -150 -141 -150 -36 0 -51 -5 -70 -26
-21 -23 -24 -35 -24 -104 0 -69 3 -81 24 -104 l24 -26 334 0 c369 0 376 -1
413 -63 27 -43 27 -131 0 -174 -38 -63 -34 -63 -508 -63 l-429 0 -24 -26 c-21
-23 -24 -35 -24 -104 0 -88 17 -120 64 -120 36 0 87 -33 106 -69 19 -39 19
-123 0 -162 -9 -16 -30 -39 -48 -49 -31 -19 -55 -20 -660 -20 -693 0 -668 -2
-707 63 -27 43 -27 131 0 174 22 36 66 63 105 63 36 0 85 50 85 87 0 16 -7 39
-16 51 -14 21 -22 22 -155 22 -157 0 -186 8 -219 63 -14 21 -20 50 -20 87 0
37 6 66 20 87 37 62 46 63 397 63 298 0 320 -1 350 -20 43 -26 63 -68 63 -132
0 -93 -53 -148 -144 -148 -35 0 -48 -5 -60 -22 -23 -33 -19 -72 10 -107 l26
-31 264 0 264 0 20 33 c29 47 27 133 -3 178 -18 26 -32 35 -62 40 -85 11 -125
59 -125 149 0 61 23 110 62 132 14 8 74 15 158 18 l134 5 23 34 c32 48 32 135
0 182 l-23 34 -609 5 c-478 4 -615 8 -633 18 -38 22 -62 71 -62 130 0 64 20
106 63 132 31 19 56 20 847 20 791 0 816 -1 847 -20z"/>
<path d="M6750 13418 c-278 -701 -380 -914 -583 -1217 -149 -223 -684 -826
-1126 -1269 l-161 -162 132 -99 c161 -120 387 -269 525 -346 l102 -57 73 62
c215 181 473 312 718 365 42 9 151 19 248 22 162 6 174 7 184 27 25 46 154
169 203 192 63 30 152 32 211 5 47 -21 126 -100 158 -158 78 -138 573 -238
1411 -284 296 -16 2651 -24 3148 -10 787 22 1202 64 1523 156 143 41 228 86
260 136 41 66 115 140 159 160 24 11 63 19 100 19 89 0 144 -30 243 -133 45
-48 82 -90 82 -95 0 -5 78 -12 173 -15 97 -3 205 -13 247 -22 250 -54 508
-184 712 -359 l78 -66 39 20 c132 67 406 245 598 388 l123 92 -196 197 c-299
302 -671 709 -922 1011 -157 189 -283 384 -409 635 -95 190 -127 265 -319 746
-96 239 -176 436 -178 438 -2 3 -105 -64 -229 -148 l-225 -152 49 -61 c104
-128 129 -214 129 -444 0 -240 -18 -311 -173 -682 -93 -223 -130 -332 -148
-434 -13 -77 -4 -130 42 -240 26 -61 29 -79 29 -178 0 -136 -8 -155 -104 -245
-110 -105 -235 -160 -489 -217 -478 -108 -1119 -153 -2297 -163 -1596 -13
-2583 57 -3064 218 -147 49 -212 85 -295 163 -90 87 -101 113 -101 240 0 93 3
113 30 179 16 41 35 98 41 127 22 103 -13 232 -159 582 -142 340 -162 419
-162 652 0 223 34 332 136 447 25 28 42 55 37 59 -13 13 -441 300 -446 300 -3
0 -73 -172 -157 -382z m-314 -1384 c243 -216 480 -340 771 -404 47 -10 90 -25
94 -32 24 -37 -1 -122 -42 -143 -40 -21 -136 -18 -215 6 -226 70 -474 249
-627 454 -84 113 -138 225 -108 225 4 0 62 -48 127 -106z m8470 75 c-3 -17
-23 -59 -43 -93 -150 -250 -404 -457 -669 -545 -121 -41 -209 -43 -252 -6 -32
27 -47 76 -37 118 6 22 18 27 103 47 202 47 397 129 557 235 44 29 136 103
205 164 69 61 129 111 134 111 5 0 6 -14 2 -31z"/>
<path d="M7456 13359 c-153 -170 -175 -408 -65 -709 11 -30 60 -152 109 -270
137 -333 174 -490 151 -645 -10 -70 -19 -99 -67 -226 -15 -40 -16 -52 -5 -88
87 -293 1099 -441 3021 -441 1922 0 2934 148 3021 441 11 36 10 48 -5 88 -48
127 -57 156 -67 226 -23 152 14 314 143 625 117 283 126 306 153 405 66 237
30 452 -98 589 l-42 45 -375 -255 c-206 -140 -423 -284 -483 -320 -233 -139
-499 -257 -711 -316 l-113 -31 -7 -91 c-25 -335 -158 -619 -406 -866 -209
-209 -424 -327 -710 -387 -121 -26 -459 -25 -580 0 -284 61 -516 189 -722 398
-237 242 -364 523 -393 871 l-7 78 -41 10 c-186 47 -363 117 -592 233 -123 62
-265 151 -612 384 l-452 302 -45 -50z"/>
<path d="M4692 10527 c-152 -197 -227 -305 -350 -502 -140 -225 -189 -298
-293 -435 -62 -81 -115 -167 -179 -289 -104 -201 -104 -202 -95 -247 5 -30 40
-63 253 -246 904 -776 1924 -1683 2248 -1999 216 -212 269 -236 344 -161 29
29 50 70 95 187 58 151 182 459 229 570 52 124 31 162 -138 252 -247 132 -711
475 -1226 907 -371 310 -464 445 -477 687 -8 148 18 268 97 437 46 99 149 258
233 360 32 40 58 75 56 76 -8 7 -559 445 -620 494 l-67 52 -110 -143z"/>
<path d="M16075 10414 c-176 -141 -331 -264 -344 -273 l-25 -18 61 -74 c163
-198 281 -424 319 -609 21 -107 15 -259 -14 -350 -62 -189 -188 -318 -737
-759 -433 -348 -743 -569 -943 -675 -167 -88 -189 -127 -136 -251 43 -101 188
-463 239 -595 73 -190 125 -231 227 -179 23 12 114 92 202 178 324 316 1344
1223 2248 1999 214 184 248 216 254 246 8 44 6 49 -95 246 -63 122 -113 201
-195 311 -61 81 -169 241 -241 355 -153 245 -236 366 -387 561 -61 79 -111
143 -112 143 0 0 -145 -115 -321 -256z"/>
<path d="M6569 10560 c-410 -65 -820 -330 -1049 -678 -106 -159 -157 -306
-167 -477 -10 -189 50 -352 197 -527 98 -117 169 -180 505 -446 306 -244 360
-290 535 -456 203 -193 308 -260 429 -272 99 -11 150 13 251 115 47 47 115
129 152 181 135 192 336 533 517 879 l91 175 -15 49 c-10 32 -51 97 -123 195
-150 201 -286 410 -457 697 -79 133 -172 280 -206 325 -93 123 -186 190 -315
225 -70 19 -266 28 -345 15z m162 -486 c136 -25 291 -97 379 -173 35 -31 35
-31 -45 9 -120 59 -187 73 -325 68 -134 -6 -208 -29 -257 -80 -57 -60 -64 -92
-36 -149 65 -131 -20 -293 -165 -315 -106 -16 -216 59 -242 165 -24 100 28
238 124 329 145 137 344 188 567 146z m245 -189 c96 -40 182 -150 208 -264 56
-244 -48 -504 -274 -688 -57 -47 -229 -143 -255 -143 -5 0 25 22 67 50 122 80
213 194 259 326 30 85 35 155 15 207 -23 62 -51 84 -112 89 -151 14 -245 168
-185 304 29 64 46 82 106 110 58 27 120 31 171 9z m-995 -323 c16 -80 83 -205
146 -273 73 -79 129 -111 192 -111 48 0 91 15 91 32 0 5 15 26 32 46 86 98
240 98 325 1 41 -47 56 -96 51 -167 -10 -141 -128 -217 -320 -208 -77 4 -96 9
-170 46 -160 79 -276 216 -337 397 -47 142 -62 270 -44 391 l7 49 8 -75 c4
-41 13 -99 19 -128z"/>
<path d="M14325 10554 c-89 -19 -176 -60 -241 -112 -75 -59 -157 -174 -321
-451 -158 -266 -337 -537 -476 -722 -55 -73 -92 -134 -101 -164 l-15 -48 54
-108 c84 -167 268 -497 372 -669 140 -229 238 -365 333 -461 119 -121 186
-141 324 -99 92 29 190 98 346 247 188 178 238 220 545 465 336 266 407 329
505 446 129 153 186 282 197 447 13 201 -59 416 -210 625 -22 30 -90 105 -151
165 -206 205 -469 354 -740 421 -132 32 -320 41 -421 18z m436 -480 c136 -25
291 -97 379 -173 35 -31 35 -31 -45 9 -120 59 -187 73 -325 68 -134 -6 -208
-29 -257 -80 -57 -60 -64 -92 -36 -149 65 -131 -20 -293 -165 -315 -106 -16
-216 59 -242 165 -24 100 28 238 124 329 145 137 344 188 567 146z m245 -189
c96 -40 182 -150 208 -264 56 -244 -48 -504 -274 -688 -57 -47 -229 -143 -255
-143 -5 0 25 22 67 50 122 80 213 194 259 326 30 85 35 155 15 207 -23 62 -51
84 -112 89 -151 14 -245 168 -185 304 29 64 46 82 106 110 58 27 120 31 171 9z
m-995 -323 c16 -80 83 -205 146 -273 73 -79 129 -111 192 -111 48 0 91 15 91
32 0 5 15 26 32 46 86 98 240 98 325 1 41 -47 56 -96 51 -167 -10 -141 -128
-217 -320 -208 -77 4 -96 9 -170 46 -160 79 -276 216 -337 397 -47 142 -62
270 -44 391 l7 49 8 -75 c4 -41 13 -99 19 -128z"/>
<path d="M7555 10491 c-81 -34 -83 -162 -4 -330 78 -168 336 -568 502 -781 63
-80 155 -217 227 -338 145 -242 207 -315 314 -367 180 -89 376 -85 651 11 454
159 677 214 1084 265 210 27 342 27 552 0 407 -51 630 -106 1084 -265 275 -96
471 -100 651 -11 101 49 173 130 280 313 115 194 167 272 284 422 112 144 294
417 403 605 96 167 129 257 131 352 1 65 -2 75 -25 98 -55 56 -150 43 -406
-56 -228 -88 -343 -115 -598 -139 -157 -16 -588 -15 -1115 0 -460 14 -1802 8
-2345 -9 -329 -11 -662 -1 -840 24 -162 23 -259 48 -448 120 -243 91 -324 109
-382 86z m2838 -957 c57 -19 113 -79 123 -129 30 -160 -193 -290 -361 -211
-58 27 -78 47 -100 100 -64 153 150 304 338 240z m653 -17 c130 -66 162 -195
70 -283 -52 -49 -113 -69 -194 -61 -144 13 -249 120 -227 234 8 45 73 113 126
131 57 19 166 9 225 -21z m-1311 -135 c120 -59 135 -183 35 -283 -143 -143
-400 -89 -400 84 0 156 215 273 365 199z m1945 2 c141 -44 208 -198 129 -298
-86 -109 -321 -81 -400 48 -74 120 -15 243 126 266 46 8 82 4 145 -16z m-2639
-159 c108 -39 156 -142 109 -234 -58 -114 -234 -165 -356 -103 -48 25 -69 47
-89 96 -64 152 152 306 336 241z m3318 0 c102 -31 173 -132 156 -222 -9 -48
-75 -114 -132 -131 -176 -53 -367 74 -338 225 8 46 74 113 126 130 50 16 128
15 188 -2z"/>
<path d="M10358 8622 c-157 -157 -208 -213 -208 -232 0 -19 51 -75 208 -232
157 -157 213 -208 232 -208 35 0 440 405 440 440 0 19 -51 75 -208 232 -157
157 -213 208 -232 208 -19 0 -75 -51 -232 -208z"/>
<path d="M10265 8789 c-266 -40 -558 -112 -775 -189 -338 -122 -463 -146 -690
-137 -232 10 -307 42 -461 197 l-107 106 -40 -65 c-22 -37 -77 -133 -123 -216
-99 -180 -133 -235 -350 -567 -245 -373 -294 -478 -294 -633 0 -118 21 -161
123 -256 157 -144 377 -269 606 -344 163 -53 257 -69 359 -62 138 11 224 42
500 179 363 180 541 254 775 322 106 31 294 73 403 91 34 5 38 10 58 63 27 73
83 146 145 189 197 135 461 37 542 -200 14 -42 19 -47 52 -52 397 -66 676
-164 1188 -417 411 -204 525 -219 851 -113 230 75 449 200 605 344 102 95 123
138 123 256 0 156 -49 261 -304 649 -199 303 -260 403 -381 622 -122 223 -97
212 -215 96 -168 -165 -261 -197 -560 -189 -206 5 -268 18 -510 107 -175 65
-400 130 -570 165 -133 27 -365 65 -400 65 -13 0 32 -52 148 -168 l167 -168 0
-79 0 -79 -217 -219 c-120 -120 -230 -225 -245 -233 -15 -8 -50 -14 -78 -14
-28 0 -63 6 -78 14 -15 8 -125 113 -244 233 l-218 219 0 78 0 79 167 168 c184
187 181 178 48 158z m-480 -266 c-45 -95 -41 -181 12 -243 14 -18 81 -68 147
-112 153 -102 276 -224 326 -323 31 -61 35 -78 35 -145 0 -53 -6 -88 -19 -118
-10 -23 -22 -42 -25 -42 -3 1 -26 44 -51 98 -44 94 -117 216 -167 277 -65 80
-191 197 -316 292 -142 109 -173 140 -183 180 -16 64 31 110 159 154 45 15 87
28 93 29 6 0 2 -20 -11 -47z m1665 27 c66 -18 155 -65 173 -94 41 -62 14 -103
-145 -227 -224 -174 -300 -250 -400 -397 -50 -73 -148 -260 -148 -281 0 -27
-19 -7 -40 41 -72 168 55 383 335 568 125 83 160 112 183 155 24 47 20 131
-11 199 -23 49 -24 56 -9 52 9 -3 37 -10 62 -16z m-3134 -446 c22 -46 67 -74
119 -74 22 0 87 12 145 27 97 25 120 27 300 27 206 0 287 -10 483 -60 307 -76
616 -277 676 -438 12 -32 24 -86 28 -120 l6 -61 -32 60 c-18 33 -47 75 -64 94
-72 76 -334 250 -357 236 -5 -3 -10 -14 -10 -23 0 -33 -59 -119 -117 -173
-113 -104 -276 -168 -397 -154 -129 14 -251 80 -354 190 -62 65 -132 189 -132
231 0 23 -2 24 -82 24 -46 0 -101 3 -122 7 l-39 6 6 -47 c23 -164 171 -368
326 -450 115 -60 199 -77 405 -82 212 -4 253 -15 323 -80 l48 -44 -55 27 c-54
28 -56 28 -232 25 -174 -3 -339 9 -428 30 -114 28 -246 121 -376 265 -125 138
-163 167 -258 197 -85 28 -116 48 -158 106 -46 64 -44 70 15 48 56 -22 211
-37 220 -21 3 5 -8 28 -24 52 -19 29 -29 57 -29 80 l0 36 20 -32 c21 -35 55
-49 90 -38 18 6 21 12 15 33 -16 68 -17 83 -1 107 9 14 18 25 21 25 2 0 12
-16 21 -36z m4590 5 c13 -27 14 -38 4 -75 -14 -50 -8 -64 28 -64 29 0 63 23
80 55 11 19 11 18 12 -7 0 -36 -17 -78 -42 -105 -11 -12 -17 -27 -13 -33 11
-18 149 -7 217 18 l58 20 -20 -38 c-32 -63 -99 -114 -183 -138 -89 -26 -133
-60 -251 -193 -92 -105 -188 -183 -281 -229 -102 -51 -190 -63 -461 -64 l-240
-1 -55 -28 -54 -29 30 32 c17 18 50 44 75 58 42 25 53 27 235 33 307 11 416
45 551 171 110 103 192 244 209 362 l8 49 -39 -6 c-22 -4 -76 -7 -120 -7 l-82
0 -7 -37 c-25 -139 -198 -318 -370 -383 -86 -33 -215 -32 -305 1 -132 50 -259
160 -307 266 -14 32 -27 60 -29 62 -6 6 -166 -92 -243 -149 -93 -69 -145 -126
-178 -194 l-25 -51 5 60 c3 33 15 87 28 120 57 154 337 343 633 429 172 50
324 70 526 70 166 0 196 -3 297 -27 61 -15 128 -27 148 -27 52 0 92 24 115 70
11 22 22 40 25 40 2 0 12 -14 21 -31z m-4959 -590 c258 -36 496 -181 577 -353
19 -39 39 -94 46 -123 23 -100 15 -259 -13 -250 -7 2 -38 62 -70 133 -113 249
-262 429 -419 507 -72 36 -208 77 -254 77 -13 0 -26 5 -29 10 -8 13 63 13 162
-1z m5443 2 c0 -5 -23 -11 -51 -15 -80 -11 -198 -52 -267 -93 -81 -48 -213
-185 -276 -285 -26 -43 -74 -135 -105 -205 -31 -70 -62 -128 -68 -130 -18 -6
-28 43 -27 132 3 221 123 396 346 504 104 50 182 75 286 90 78 12 162 13 162
2z"/>
<path d="M8903 7915 c-56 -24 -57 -92 -4 -200 51 -104 139 -174 217 -175 71 0
178 81 219 167 29 60 31 101 5 128 -65 69 -345 120 -437 80z"/>
<path d="M12027 7914 c-93 -17 -166 -46 -197 -79 -18 -19 -22 -32 -17 -59 13
-84 79 -170 159 -210 61 -31 98 -32 153 -7 103 47 204 223 181 316 -14 54
-118 68 -279 39z"/>
<path d="M3963 8573 c-13 -105 -9 -420 5 -488 82 -380 362 -927 798 -1556 58
-83 109 -162 114 -174 11 -29 -11 -61 -54 -79 -47 -19 -137 -114 -201 -210
-258 -389 -360 -944 -239 -1305 59 -179 146 -321 284 -465 354 -371 878 -469
1318 -247 279 141 502 398 603 694 l39 112 0 730 0 731 -30 32 c-28 31 -120
82 -148 82 -57 0 -411 238 -682 458 -267 217 -443 385 -858 822 -143 151 -381
390 -527 530 -147 140 -296 288 -332 328 -36 39 -69 72 -73 72 -5 0 -12 -30
-17 -67z m1752 -2797 c90 -24 232 -98 307 -161 114 -95 200 -228 250 -385 19
-64 23 -96 23 -215 0 -160 -17 -232 -86 -365 -180 -347 -590 -505 -962 -370
-357 130 -576 514 -501 878 67 326 317 573 639 632 70 13 259 5 330 -14z"/>
<path d="M5393 5415 c-218 -68 -341 -303 -274 -523 35 -115 116 -207 231 -260
74 -35 212 -43 291 -17 155 50 263 177 289 339 31 197 -86 391 -277 457 -66
22 -195 25 -260 4z"/>
<path d="M17100 8512 c-69 -70 -276 -275 -460 -457 -185 -181 -468 -466 -630
-631 -293 -300 -415 -410 -687 -622 -229 -178 -529 -372 -576 -372 -29 0 -134
-61 -155 -90 l-23 -30 3 -743 3 -742 34 -90 c44 -118 67 -162 143 -276 108
-162 293 -327 463 -412 72 -35 208 -82 290 -98 98 -19 330 -18 425 3 421 92
777 424 907 844 26 85 27 98 28 304 0 243 -16 352 -81 549 -95 286 -272 559
-406 627 -65 33 -71 61 -27 122 120 170 334 496 432 660 245 410 401 759 459
1027 22 104 14 555 -10 555 -4 0 -63 -58 -132 -128z m-1205 -2737 c33 -9 103
-37 155 -62 82 -41 108 -60 196 -147 87 -88 106 -114 147 -196 67 -137 81
-200 81 -355 0 -155 -14 -218 -81 -355 -41 -82 -60 -108 -147 -196 -88 -87
-114 -106 -196 -147 -137 -67 -200 -81 -355 -81 -155 0 -218 14 -355 81 -82
41 -108 60 -196 147 -87 88 -106 114 -147 196 -67 137 -81 200 -81 355 0 155
14 218 82 355 39 81 60 109 142 191 127 128 258 199 421 228 73 13 260 5 334
-14z"/>
<path d="M15575 5417 c-118 -39 -207 -117 -258 -225 -30 -63 -32 -74 -32 -177
0 -103 2 -114 32 -177 41 -88 113 -160 201 -201 63 -30 74 -32 177 -32 103 0
114 2 177 32 88 41 160 113 201 201 30 63 32 74 32 177 0 103 -2 114 -32 177
-41 88 -113 160 -201 201 -58 27 -79 32 -162 34 -59 2 -110 -2 -135 -10z"/>
<path d="M10515 7379 c-86 -25 -144 -119 -195 -311 -45 -168 -60 -309 -60
-551 -1 -439 -57 -617 -198 -617 -49 0 -116 25 -107 40 3 5 25 14 48 21 65 17
104 46 128 95 18 38 21 58 17 117 -9 128 -87 236 -217 300 -62 30 -72 32 -176
32 -148 -1 -204 -22 -296 -114 -77 -77 -108 -145 -116 -256 -9 -118 36 -254
108 -326 20 -20 90 -69 156 -107 151 -89 226 -145 317 -235 135 -133 246 -307
296 -462 60 -184 138 -259 300 -287 125 -22 251 13 333 91 47 44 68 84 112
210 57 163 153 311 291 448 90 90 166 146 317 235 66 38 136 87 156 107 72 72
117 208 108 326 -8 111 -39 179 -116 256 -92 92 -148 113 -296 114 -105 0
-114 -2 -177 -33 -130 -64 -207 -171 -216 -299 -8 -118 37 -184 145 -212 56
-15 62 -28 19 -46 -72 -30 -141 -16 -188 40 -57 67 -88 265 -88 562 0 241 -15
383 -59 548 -50 188 -97 270 -176 306 -42 20 -119 23 -170 8z"/>
<path d="M10045 7044 c-209 -37 -342 -88 -726 -275 -426 -208 -572 -253 -809
-252 -83 1 -151 8 -244 27 -236 49 -562 173 -713 273 -98 65 -117 73 -166 73
-62 0 -116 -41 -153 -117 -28 -55 -29 -64 -28 -188 1 -148 25 -259 90 -412 65
-157 152 -421 244 -748 194 -683 282 -912 466 -1212 177 -290 301 -433 834
-963 396 -393 471 -473 558 -590 154 -208 302 -346 462 -429 154 -81 399 -149
618 -172 300 -32 749 85 977 256 101 76 223 204 327 345 87 117 162 197 558
590 533 530 657 673 834 963 186 303 269 519 475 1242 98 345 164 546 236 718
64 154 88 264 89 412 1 124 0 133 -28 188 -37 76 -91 117 -153 117 -48 0 -71
-10 -153 -65 -167 -113 -519 -245 -772 -291 -121 -22 -298 -22 -410 0 -145 28
-278 80 -598 236 -321 156 -445 207 -599 246 -102 26 -267 51 -276 42 -4 -3 1
-43 11 -89 11 -55 18 -154 21 -289 2 -113 6 -211 9 -218 3 -9 23 3 59 36 111
98 204 125 396 112 92 -5 127 -12 170 -32 70 -33 148 -95 200 -161 23 -28 53
-58 68 -66 87 -46 177 -144 233 -255 39 -78 124 -166 196 -204 205 -108 524
-114 827 -15 97 31 167 65 306 149 59 35 112 64 118 64 38 0 -27 -110 -124
-206 -68 -69 -173 -140 -268 -183 l-64 -29 -6 -188 c-3 -104 -13 -236 -22
-294 -69 -453 -233 -858 -517 -1276 -359 -529 -819 -940 -1385 -1236 -129 -68
-134 -69 -170 -57 -21 6 -42 14 -46 16 -5 3 49 36 121 73 742 389 1311 986
1630 1710 156 353 212 637 198 995 -3 88 -9 169 -12 180 -5 19 -14 20 -182 21
-204 1 -280 16 -417 83 -128 64 -172 109 -249 259 -36 70 -83 146 -104 168
l-37 39 -6 -110 c-9 -161 -44 -241 -148 -337 -32 -30 -97 -77 -143 -103 -203
-117 -320 -214 -420 -348 -78 -105 -120 -184 -159 -292 -45 -129 -74 -181
-133 -241 -91 -91 -184 -124 -346 -124 -156 0 -243 29 -336 114 -58 51 -99
123 -144 251 -38 109 -82 190 -160 293 -104 137 -229 241 -409 340 -140 77
-247 192 -283 305 -6 18 -13 82 -17 142 l-6 110 -42 -44 c-26 -27 -64 -88 -98
-158 -41 -84 -69 -128 -104 -162 -136 -131 -344 -195 -611 -189 l-135 3 -6
-65 c-11 -107 -10 -351 2 -461 26 -262 110 -522 269 -834 332 -655 869 -1188
1554 -1546 70 -36 124 -69 120 -71 -5 -3 -26 -11 -46 -17 -34 -11 -42 -9 -138
39 -718 360 -1333 982 -1676 1695 -190 394 -268 714 -289 1177 l-7 146 -41 16
c-131 50 -301 184 -376 298 -38 56 -52 98 -33 98 5 0 67 -35 138 -77 222 -132
379 -183 628 -202 177 -15 341 10 463 70 95 46 160 112 223 225 61 109 131
185 213 235 30 18 62 44 71 59 28 49 139 143 204 173 53 25 82 31 179 38 190
13 279 -13 394 -112 54 -46 57 -47 63 -26 3 12 6 92 6 177 0 133 14 279 36
383 5 26 4 27 -33 26 -21 0 -74 -7 -118 -15z m-1113 -1853 c180 -89 417 -249
703 -476 373 -295 608 -415 892 -455 182 -25 482 77 753 258 58 39 179 129
270 201 284 226 499 372 685 467 150 76 260 72 353 -11 157 -141 156 -345 -2
-670 -167 -342 -515 -770 -836 -1028 -386 -311 -816 -471 -1215 -454 -478 21
-943 258 -1371 700 -426 438 -722 968 -689 1231 9 76 54 163 109 214 68 62 97
73 187 69 66 -3 88 -9 161 -46z"/>
<path d="M8920 5130 c0 -27 55 -172 102 -268 107 -221 294 -467 519 -687 144
-140 213 -197 324 -265 250 -154 588 -233 855 -201 266 32 501 124 710 279 96
71 308 278 417 407 109 128 248 337 312 468 53 110 105 249 99 267 -4 14 -247
-132 -401 -242 -67 -48 -196 -146 -287 -218 -209 -167 -344 -256 -495 -331
-146 -71 -241 -103 -380 -125 -99 -16 -111 -16 -210 0 -276 45 -510 166 -870
451 -197 157 -357 272 -495 357 -157 97 -200 120 -200 108z"/>
</g>
</svg>
