<?xml version="1.0" encoding="utf-8"?>
<!-- Generator: Adobe Illustrator 25.0.0, SVG Export Plug-In . SVG Version: 6.00 Build 0)  -->
<svg version="1.1" id="Слой_1" xmlns="http://www.w3.org/2000/svg" xmlns:xlink="http://www.w3.org/1999/xlink" x="0px" y="0px"
	 viewBox="0 0 5892.2 4445.9" style="enable-background:new 0 0 5892.2 4445.9;" xml:space="preserve">
<style type="text/css">
	.st0{fill:#111111;}
</style>
<g transform="translate(0.000000,8192.000000) scale(0.100000,-0.100000)">
	<path d="M463.9,81427.3l-83-6l59-145c414-1026,1056-1936,1922-2722l96-87l498-80c275-44,500-79,501-78c2,2-381,537-393,548
		c-5,4-50-1-102-12c-51-10-97-16-102-14c-5,3-257,299-561,656c-402,473-558,663-571,697c-25,63-32,164-17,235
		c33,162,172,339,320,410c256,122,622,112,1030-27c69-24,133-47,143-51c16-7,17,4,17,153v161l-83,25c-753,230-1578,350-2357,344
		C651.9,81433.3,508.9,81430.3,463.9,81427.3z"/>
	<path d="M57725.9,81426.3c-653-39-1305-154-1902-336l-83-25v-161c0-149,1-160,18-153c9,4,73,27,142,51c408,139,774,149,1030,27
		c148-71,287-248,320-410c15-71,8-172-17-235c-13-34-169-224-571-697c-304-357-556-653-561-656c-5-2-51,4-102,14
		c-52,11-97,16-102,12c-12-11-395-546-393-548c1-1,226,34,501,78l498,80l96,87c866,786,1496,1679,1922,2721c33,79,57,146,54,149
		C58566.9,81433.3,57874.9,81434.3,57725.9,81426.3z"/>
	<path class="st0" d="M3500.9,80745.3v-201l-29,5c-138,28-348,41-646,42c-294,0-328-2-420-22c-56-13-132-38-173-59
		c-161-79-181-194-72-409c106-210,294-440,657-802l272-273h164h164l23-62c28-78,124-292,223-499l75-156l143-6c150-5,315-34,468-82
		c231-72,659-159,1422-290c1863-319,4774-709,5789-774c237-15,894-22,970-11c159,25,340,107,585,264c201,130,315,166,524,166
		c137,0,274-23,568-95c455-112,527-117,820-56c518,108,790,131,1023,84c111-22,200-70,315-169c110-95,203-146,300-166
		c46-9,101-9,245,0c269,18,24871,18,25140,0c144-9,199-9,245,0c97,20,190,71,300,166c115,99,204,147,315,169c233,47,505,24,1023-84
		c293-61,365-56,820,56c294,72,431,95,568,95c209,0,323-36,525-166c244-157,425-239,584-264c76-11,733-4,970,11
		c1015,65,3926,455,5789,774c763,131,1191,218,1422,290c153,48,318,77,468,82l143,6l75,156c99,207,195,421,223,499l23,62h164h164
		l272,273c363,362,551,592,657,802c109,215,89,330-72,409c-41,21-117,46-173,59c-92,20-126,22-420,22c-298-1-508-14-646-42l-29-5
		v201v202l-42-6c-110-15-1383-156-2028-224c-5494-585-11083-949-16710-1091c-462-11-1192-26-2000-41c-775-13-4330-24-4330-13
		c0,5-368,9-870,9s-870-4-870-9c0-11-3555,0-4330,13c-808,15-1538,30-2000,41c-5627,142-11216,506-16710,1091
		c-645,68-1918,209-2027,224l-43,6V80745.3z"/>
	<path d="M13269.9,77164.3c-21-14-45-46-64-83l-30-60l-3-222c-2-123,1-243,6-268c7-32,6-45-2-46c-6,0-69-6-139-13
		c-136-14-159-23-201-80c-19-25-21-44-24-239c-2-117,0-227,3-245s20-48,36-67c51-57,76-60,309-31c1001,123,1986,128,2970,13
		c151-17,298-32,327-32c56,0,90,18,127,69c20,26,21,41,21,266s-1,240-21,266c-42,57-65,66-201,80c-70,7-133,13-140,13
		c-8,1-9,10-2,33c16,56,11,457-6,515c-19,64-52,112-93,136c-32,19-34,19-190-7c-671-111-1300-134-1952-71c-186,18-413,49-559,75
		C13308.9,77191.3,13310.9,77191.3,13269.9,77164.3z"/>
	<path d="M42809.9,77164.3c-21-14-45-46-64-83l-30-60l-3-232c-2-132,1-247,7-267c7-26,6-36-2-37c-7,0-70-6-140-13
		c-136-14-159-23-201-80c-20-26-21-41-21-266s1-240,21-266c37-51,71-69,127-69c29,0,176,15,327,32c984,115,1969,110,2970-13
		c233-29,258-26,309,31c16,19,33,49,36,67s5,128,3,245c-3,195-5,214-24,239c-42,57-65,66-201,80c-70,7-133,13-139,13c-8,1-9,14-2,46
		c5,25,8,145,6,268c-3,206-5,226-26,272c-27,59-54,89-92,105c-23,10-56,7-177-14c-755-129-1523-139-2288-30c-99,14-214,32-255,40
		C42853.9,77190.3,42849.9,77190.3,42809.9,77164.3z"/>
	<path class="st0" d="M14505.9,75660.3c-337-35-651-133-916-285c-78-44-89-54-93-82c-2-18-106-6483-231-14367
		c-124-7884-229-14444-232-14577l-6-243h1663h1663l-6,243c-3,133-108,6697-232,14587c-125,7890-229,14355-231,14367
		c-9,47-331,203-552,267c-230,67-357,86-597,91C14631.9,75662.3,14527.9,75662.3,14505.9,75660.3z"/>
	<path class="st0" d="M44090.9,75660.3c-204-24-306-44-462-90c-222-65-543-220-552-267c-2-12-106-6477-231-14367
		c-124-7890-229-14454-232-14587l-6-243h1663h1663l-6,243c-3,133-108,6693-232,14577c-125,7884-229,14349-231,14367
		c-4,28-15,38-93,82c-221,127-475,216-746,262C44510.9,75656.3,44180.9,75671.3,44090.9,75660.3z"/>
	<path class="st0" d="M7020.9,70366.3v-1340h3000h3000v1340v1340h-3000h-3000V70366.3z"/>
	<path class="st0" d="M16430.9,70366.3v-1340h13050h13050v1340v1340h-13050h-13050V70366.3z"/>
	<path class="st0" d="M45930.9,70366.3v-1340h3000h3000v1340v1340h-3000h-3000V70366.3z"/>
	<path d="M13056.9,45759.3c-8-16-152-284-319-598l-304-570l1138-3c627-1,1651-1,2278,0l1138,3l-317,595l-317,595l-1641,3l-1641,2
		L13056.9,45759.3z"/>
	<path d="M42596.9,45759.3c-8-16-152-284-319-598l-304-570l1138-3c627-1,1651-1,2278,0l1138,3l-317,595l-317,595l-1641,3l-1641,2
		L42596.9,45759.3z"/>
	<path d="M12205.9,44332.3c-41-18-83-69-90-109c-3-18-5-262-3-544c3-499,4-512,24-539c11-15,33-37,48-48l27-21h2499h2499l27,21
		c15,11,37,33,48,48c21,27,21,38,21,566s0,539-21,566c-11,15-33,37-48,48l-27,21l-2487,2
		C12670.9,44345.3,12230.9,44343.3,12205.9,44332.3z"/>
	<path d="M41745.9,44332.3c-41-18-83-69-90-109c-3-18-5-262-3-544c3-499,4-512,24-539c11-15,33-37,48-48l27-21h2499h2499l27,21
		c15,11,37,33,48,48c21,27,21,38,21,566s0,539-21,566c-11,15-33,37-48,48l-27,21l-2487,2
		C42210.9,44345.3,41770.9,44343.3,41745.9,44332.3z"/>
	<path d="M12575.9,42801.3l-25-24v-2391v-2391l25-24l24-25h2111h2111l24,25l25,24v2391v2391l-25,24l-24,25h-2111h-2111
		L12575.9,42801.3z"/>
	<path d="M42115.9,42801.3l-25-24v-2391v-2391l25-24l24-25h2111h2111l24,25l25,24v2391v2391l-25,24l-24,25h-2111h-2111
		L42115.9,42801.3z"/>
</g>
</svg>
