<svg xmlns="http://www.w3.org/2000/svg" xmlns:xlink="http://www.w3.org/1999/xlink" width="2048" height="2048" viewBox="0 0 2048 2048">
  <defs>
    <style>
      .cls-1 {
        fill-rule: evenodd;
        fill: url(#radial-gradient);
      }
    </style>
    <radialGradient id="radial-gradient" cx="1024.081" cy="1024.049" r="1005.331" gradientUnits="userSpaceOnUse">
      <stop offset="0" stop-color="#f9d57a"/>
      <stop offset="0.003" stop-color="#f9d57a"/>
      <stop offset="0.71" stop-color="#ebc33c"/>
      <stop offset="0.91" stop-color="#dcac06"/>
      <stop offset="1" stop-color="#dcac06"/>
    </radialGradient>
  </defs>
  <path id="Imperial" class="cls-1" d="M1005.1,19.11c-17.149,2.22-33.036,6.829-47,13.978-47.481,23.666-83.215,71.777-92.1,123.708-2.539,14.767-2.059,26.365,1.59,44.622,1.43,6.829,10.318,53.041,20.167,102.422,15.717,80.036,112.911,576.127,115.451,588.835l0.95,4.919h20c19.06,0,19.85-.16,20.33-2.06,0.32-1.109,4.76-23.815,10.01-50.5s31.91-163.25,59.55-303.305c27.47-140.225,54.31-276.951,59.55-303.946,11.28-56.85,11.75-62.729,8.74-81.146-11.28-65.748-64.47-122.908-126.09-135.455C1046.86,19.429,1013.99,18,1005.1,19.11ZM843.756,35.147c-38.593,5.879-65.269,17.147-85.435,36.044l-6.349,6.039,3.969,1.27c32.395,10.478,72.728,40.973,91.315,69.078l3.969,5.879,1.75-7.619c3.649-16.517,11.908-36.523,21.756-53.36a177.4,177.4,0,0,1,28.425-36.843L913.474,45l-9.688-3.179c-15.718-5.079-23.346-6.349-40.813-6.669C853.914,34.827,845.346,34.827,843.756,35.147Zm329.354-.16c-0.79.16-4.92,0.95-9.05,1.43a151.909,151.909,0,0,0-18.27,4.759l-10.95,3.34,10.31,10.638a182.621,182.621,0,0,1,28.43,37c10.17,17.147,18.27,37.474,21.92,54.15l1.74,8.1,2.06-3.339c16.2-26.675,55.58-58.12,87.98-70.347a56.287,56.287,0,0,0,7.94-3.339c1.27-.95-10.32-11.278-19.85-17.467-16.36-10.958-32.55-17.467-54.79-22.076-9.69-2.06-15.72-2.7-29.21-2.86C1182.32,34.827,1173.9,34.827,1173.11,34.987ZM680.824,83.428c-24.455,3.18-56.22,15.877-75.746,30.5-28.265,21.276-50.821,58.279-58.76,96.712-7.309,35.414-3.809,73.527,8.888,97.183,2.06,3.809,39.224,60.5,82.736,125.927C905.525,836.943,956.5,913.64,957.136,914.43c0.48,0.479,5.24-1.27,10.639-3.97A156.777,156.777,0,0,1,986.042,903c4.449-1.27,8.1-2.86,8.1-3.34,0-.95-73.687-367.3-122.279-608.2C850.105,183.48,850.9,187.449,847.086,178.241c-15.878-37.633-56.531-72.567-100.843-87.184C725.127,84.218,699.091,81.2,680.824,83.428Zm656.166,0.15c-56.22,6.829-108.94,42.242-132.28,88.454-6.83,13.658,3.97-37.953-101.63,485.133-26.99,133.706-48.91,243.287-48.75,243.437s4.29,1.43,9.05,3.019a127.683,127.683,0,0,1,17.94,7.309c7.46,3.809,9.21,4.289,10.32,3.179,0.64-.79,45.42-67.967,99.42-149.273,54.15-81.305,143.71-216.281,198.97-299.656,55.42-83.366,102.42-154.673,104.33-158.642,4.45-8.738,8.26-21.6,10.17-34.614,2.22-14.137,1.43-45.261-1.59-58.919-9.05-41.923-30.01-77.017-59.23-98.773-17.95-13.337-43.67-24.615-65.9-28.9C1365.9,83.108,1347.47,82.308,1336.99,83.578ZM536.79,162.5c-25.886,1.75-47.482,9.528-73.048,26.835-21.6,14.448-37.313,31.764-48.121,52.721-2.86,5.559-5.239,10.318-5.239,10.638,0,0.16,8.418.64,18.736,0.95,14.608,0.48,21.437,1.11,31.125,3.179,23.026,4.759,48.751,14.928,64.949,25.406l6.348,4.129L530.9,283.5c-7.459-34.144-2.06-80.826,13.017-114.02a58.665,58.665,0,0,0,3.18-7.619C546.958,162.034,542.349,162.184,536.79,162.5Zm965.51,0.64c0.32,0.95,2.54,6.669,5.08,12.867a202.6,202.6,0,0,1,12.07,45.412c2.06,14.288,2.06,40.493.16,53.521-0.79,5.559-1.43,10.008-1.27,10.168s3.18-1.59,6.83-3.809c16.98-10.479,41.13-19.847,63.68-24.456,9.84-2.06,17.14-2.859,31.12-3.339l18.27-.64-3.49-7.309c-7.62-15.877-20.65-32.874-33.51-43.992-10-8.579-29.06-21.116-39.38-26.045a144.323,144.323,0,0,0-51.45-13.5C1502.3,161.394,1501.82,161.554,1502.3,163.144ZM400.383,269.375c-3.649.48-10.8,1.909-16.037,3.179-29.065,6.669-50.971,19.537-74.477,44.143-20.966,21.756-32.234,42.712-38.743,72.726-2.06,9.209-2.22,13.338-2.22,33.5,0,21.116.16,23.975,2.54,35.573,6.669,30.805,20.966,59.71,38.743,77.816,8.259,8.419-38.9-23.666,444.8,301.406l166.421,111.64,2.539-3.339c3.34-4.449,17.627-18.737,22.076-22.076l3.34-2.54-56.22-83.845c-75.587-112.43-287.43-427.493-321.734-478.784-20.967-31.125-29.215-42.712-34.614-47.962-18.417-18.266-48.752-33.344-80.036-39.542C444.526,268.9,412.291,267.8,400.383,269.375Zm1202.6,0c-35.41,4.919-70.02,20.486-90.83,40.812-8.58,8.259,29.06-47.161-301.41,444.8l-111.79,166.42,3.34,2.54c4.45,3.339,18.74,17.627,22.08,22.076l2.54,3.339,20.96-13.817c21.12-14.138,286.95-192.786,478.79-321.733,113.22-76.226,111.95-75.116,124.03-92.893,12.39-18.107,21.11-39.223,26.04-62.409,2.54-11.588,2.7-14.447,2.7-35.574,0-20.166-.32-24.3-2.22-33.5-6.82-31.765-18.26-52.241-42.56-76.547-23.66-23.665-43.99-34.774-75.12-41.442-7.93-1.75-14.28-2.22-30.01-2.54C1618.38,268.745,1606.47,268.9,1602.98,269.375ZM245.55,413.889c-23.026,11.118-41.763,27.945-57.8,51.931-11.908,17.947-17.627,30.644-21.756,47.641-2.22,9.529-4.919,31.605-3.969,32.554,0.16,0.16,4.759-1.429,10.168-3.809a218.071,218.071,0,0,1,42.243-12.548c13.977-2.539,46.372-3.179,59.869-1.109a75.456,75.456,0,0,0,10.638,1.269c0.16-.159-1.269-2.7-3.339-5.719-5.559-8.738-13.658-26.365-18.267-39.542-6.349-19.057-9.208-34.934-10.008-56.22l-0.64-18.267ZM1794.5,429.136c-0.48,14.768-1.11,21.437-3.18,31.285-4.76,23.026-14.45,47.8-24.93,64l-4.76,7.149,2.86-.64c34.14-7.459,80.82-2.06,114.02,13.018l7.3,3.339v-7.149c0-16.517-5.55-37.953-14.6-55.74-11.91-23.815-32.4-48.121-50.34-60.029-6.99-4.609-23.82-13.817-25.25-13.817C1795.29,410.39,1794.81,418.808,1794.5,429.136ZM221.414,543.786c-52.4,8.258-96.393,37.313-118.309,78.446-10.958,20.806-17.627,41.762-19.687,62.729-3.179,29.854,6.669,67.807,25.086,97.822,19.217,31.285,49.7,57.64,77.017,66.378,3.489,1.27,57.49,12.388,119.9,24.936C696.7,953.343,900.446,994.305,900.606,994c0.16-.159,1.43-4.289,3.02-9.048A128.362,128.362,0,0,1,910.934,967c3.81-7.468,4.29-9.208,3.18-10.318-1.27-1.11-342.85-228.359-532.457-354.127-37.634-24.935-71.3-46.841-75.117-48.751-8.579-4.289-21.6-8.258-33.984-10.008C260.638,542.036,233,542.036,221.414,543.786ZM1785.28,543c-16.19,1.43-33.98,6.349-44.94,12.228-3.81,2.059-59.87,38.9-124.5,81.785-380.48,252.5-481.48,319.5-482.11,320.143-0.48.48,1.27,5.239,3.96,10.638a158.846,158.846,0,0,1,7.47,18.267c1.27,4.449,2.86,8.1,3.34,8.1,0.95,0,278.38-55.74,606.31-121.8,54.63-11.118,102.58-20.966,106.4-22.236,9.05-2.7,20.65-8.418,30.01-14.927,42.41-29.215,70.99-80.036,74.16-131.327,1.43-24.615-5.56-53.36-19.85-80.515C1918.04,570.461,1851.19,536.957,1785.28,543ZM71.191,758.327c-16.517,18.267-26.835,39.543-33.344,68.918-2.539,11.118-2.859,14.608-2.859,31.445-0.16,20.966.95,28.264,6.669,45.261l3.179,9.369L55.473,903a187.627,187.627,0,0,1,36.844-28.425c17.147-10.168,37.473-18.267,53.99-21.916l7.939-1.75-5.239-3.339c-26.835-18.107-53.361-51.131-66.538-82.736-2.54-6.349-4.919-11.748-5.239-12.068S74.21,754.988,71.191,758.327Zm1898.46-2.389c-6.35,19.846-23.35,47.321-40.49,66.218-7.46,8.1-20.81,19.847-28.43,24.936l-5.88,3.969,7.62,1.75c31.61,7.148,64.95,25.565,89.73,49.7,5.56,5.4,10.31,9.848,10.63,9.848,1.43,0,7.62-22.386,9.37-33.034,3.18-20.967.16-49.7-7.15-72.417-3.65-11.438-11.58-27.315-17.94-36.2-5.88-8.258-14.45-18.416-15.57-18.416C1971.24,752.289,1970.45,753.878,1969.65,755.938ZM155.516,866.148c-51.131,9.369-98.933,45.1-122.119,91.474C23.869,976.678,19.9,993.2,18.95,1017.65c-0.95,25.25,2.22,45.41,10.318,64.47,21.756,50.82,72.567,90.67,127.678,100.2,14.767,2.54,26.365,2.06,44.622-1.59,6.829-1.43,53.041-10.32,102.422-20.16,80.036-15.72,576.13-112.91,588.838-115.45l4.919-.95v-20.01c0-19.06-.16-19.85-2.06-20.33-2.219-.64-464.969-91.31-596.776-117.035-49.541-9.689-94.484-18.417-99.883-19.537C184.571,864.089,168.534,863.769,155.516,866.148Zm1706.314-1.27c-5.72.95-671.57,131.327-706.19,138.312l-4.92.95v20.01c0,19.06.16,19.85,2.06,20.33,2.22,0.64,465.13,91.31,596.78,117.04,49.54,9.68,94.48,18.41,99.88,19.53,19.85,3.97,33.83,3.65,54.47-1.59,47-11.91,89.57-46.05,111.32-88.92a144.59,144.59,0,0,0,12.23-37.01c2.54-13.81,2.54-47,.16-59.7-10.96-54.79-55.42-102.9-113.07-122.118C1896.76,865.828,1873.74,862.819,1861.83,864.878Zm-853.08,54.311A107.492,107.492,0,0,0,921.4,998.115c-2.22,8.575-2.54,11.435-2.54,26.045s0.32,17.63,2.54,26.05a108.229,108.229,0,0,0,76.7,76.69c8.581,2.22,11.441,2.54,26.041,2.54s17.63-.32,26.21-2.54a107.308,107.308,0,0,0,76.55-76.54c2.22-8.58,2.54-11.44,2.54-26.05s-0.32-17.63-2.54-26.045c-10.17-37.634-39.55-67.018-76.7-76.547C1039.4,918.709,1018.92,917.6,1008.75,919.189ZM781.667,1077.51c-63.209,12.87-192.467,38.91-287.43,57.96-263.924,53.2-304.267,61.46-309.506,63.2-38.9,13.02-78.447,56.53-93.694,103.54-13.978,42.71-10.318,80.83,11.588,122.91,19.687,37.79,60.819,67.02,107.981,76.85,35.414,7.31,73.527,3.81,97.183-8.88,3.97-2.06,60.5-39.23,125.928-82.74C499.146,1367,633.8,1277.43,733.055,1211.7c99.253-65.9,180.879-120.21,181.189-120.53,0.48-.48-1.27-5.24-3.969-10.64a156.9,156.9,0,0,1-7.459-18.27c-2.06-6.67-2.7-8.1-4.449-7.94C897.587,1054.32,845.026,1064.81,781.667,1077.51Zm363.493-15.25a171.256,171.256,0,0,1-7.46,18.27c-3.97,8.26-4.61,10.17-3.49,11.28,0.64,0.64,67.8,45.41,149.27,99.41,81.31,54.15,216.28,143.71,299.66,198.97,83.36,55.42,154.67,102.43,158.64,104.34,8.74,4.45,21.6,8.25,34.61,10.16,14.14,2.22,45.27,1.43,58.92-1.59,48.44-10.31,87.82-37.16,108.14-73.68,16.84-29.86,24.46-61.93,21.44-89.73a172.878,172.878,0,0,0-25.24-73.99c-18.42-30.65-49.71-57.64-77.02-66.22-3.49-1.27-38.74-8.58-78.45-16.52-39.54-7.94-163.09-33.03-274.41-55.42s-238.2-48.11-281.87-56.85c-43.83-8.89-79.72-16.04-80.04-16.04C1147.86,1054.16,1146.43,1057.82,1145.16,1062.26ZM761.181,1206.3c-442.893,297.9-442.893,297.9-450.2,305.21-17.947,17.95-32.555,47.16-39.223,78.45-2.54,11.59-2.7,14.45-2.7,35.57,0,20.17.32,24.3,2.22,33.51,6.989,32.71,19.686,54.94,45.262,79.39,21.756,20.97,42.712,32.24,72.727,38.75,9.209,2.06,13.338,2.22,33.5,2.22,21.117,0,23.976-.16,35.574-2.54,30.805-6.67,59.71-20.97,77.817-38.75,8.578-8.26-27.316,44.62,301.407-444.8l111.791-166.25-3.34-2.54c-5.719-4.29-16.837-15.25-20.646-20.32a33.661,33.661,0,0,0-4.129-4.76C920.933,1099.27,848.835,1147.39,761.181,1206.3Zm361.749-102.42c-3.97,4.91-14.93,16.03-20.65,20.32l-3.34,2.54,56.22,83.85c72.42,107.98,285.84,425.42,321.74,478.78,30.17,44.94,34.46,50.02,50.66,61.14a178.792,178.792,0,0,0,62.41,26.21c11.58,2.38,14.44,2.54,35.57,2.54,20.17,0,24.3-.32,33.5-2.22,32.72-6.99,54.94-19.69,79.4-45.27,20.97-21.75,32.23-42.71,38.74-72.72,2.06-9.21,2.22-13.34,2.22-33.51,0-21.11-.16-23.97-2.54-35.57a174.7,174.7,0,0,0-26.04-62.25c-9.05-13.18-17.15-20.97-34.62-32.71-37.95-25.73-588.67-395.57-589.14-395.57C1126.74,1099.11,1124.84,1101.18,1122.93,1103.88Zm-186.12,59.86c-11.118,16.99-61.619,92.9-112.111,168.8-201.045,302.2-267.423,402.56-270.912,409.23-4.45,8.74-8.1,21.6-10.169,34.62-2.219,14.13-1.429,45.26,1.59,58.92,10.8,50.18,38.273,89.4,77.017,109.89,21.126,11.11,42.082,17.62,63.209,19.69,35.733,3.34,78.446-9.85,111.48-34.93,24.616-18.42,44.783-44.62,52.091-67.33,1.27-3.49,12.228-56.37,24.456-117.35,73.847-364.6,120.689-597.4,120.369-597.72-0.16-.16-4.289-1.43-9.048-3.02a127.113,127.113,0,0,1-17.627-7.15c-4.759-2.38-9.049-4.45-9.369-4.45C957.3,1133.09,947.928,1146.91,936.81,1163.74Zm144.82-26.52a140.476,140.476,0,0,1-17.14,7.15c-5.56,1.75-10.32,3.65-10.32,4.29,0,0.95,53.52,266.78,121.8,606.3,11.12,54.63,20.96,102.58,22.23,106.4,11.75,39.54,55.74,80.04,104.02,95.91,42.87,13.98,80.82,10.48,122.9-11.43,43.2-22.55,74-71.62,79.88-127.04,3.02-28.27-1.27-57.01-11.28-76.7-2.38-4.76-34.46-53.99-71.29-109.41-36.85-55.58-126.41-190.55-199.14-299.82-72.57-109.41-132.6-198.97-133.4-198.97C1089.26,1133.41,1085.45,1135.16,1081.63,1137.22ZM41.656,1144.21c-5.559,17.15-6.669,24.45-6.669,44.78,0.16,16.04.48,20.17,2.859,31.45,3.339,16.51,7.459,28.26,13.818,40.97,4.919,9.85,16.677,26.36,22.386,31.76l2.859,2.86,4.289-10.96c12.228-31.28,40.013-66.53,66.218-84l5.879-3.97-7.618-1.75c-16.518-3.65-36.524-11.91-53.361-21.76a177.378,177.378,0,0,1-36.844-28.42l-10.638-10.32Zm1953.564-.95c-25.09,25.4-60.82,45.41-93.22,52.4l-7.94,1.75,5.24,3.34c26.84,18.11,53.36,51.13,66.54,82.73,2.54,6.35,4.92,11.75,5.24,12.07,0.95,0.95,12.71-13.34,18.42-21.91,10.31-16.04,16.35-31.13,20.96-53.53,2.54-11.9,2.86-15.4,2.86-31.44,0-11.28-.48-20.65-1.43-24.94-1.27-6.03-7.78-28.42-8.42-28.42C2003.32,1135.16,1999.67,1138.65,1995.22,1143.26Zm-991.55,9.37c-0.32,1.11-4.761,23.81-10.01,50.5-5.239,26.67-31.914,163.09-59.549,303.3-27.476,140.23-54.311,276.95-59.55,303.95-11.118,56.69-11.748,62.73-8.739,80.98,11.438,67.02,65.739,124.34,128.628,136.1,13.82,2.54,47,2.54,59.71.16,62.89-12.55,116.4-69.72,127.84-136.1,2.86-16.83,2.22-25.24-4.61-60.02-3.18-16.04-14.77-74.8-25.73-131.01-23.81-121.96-105.44-537.69-106.87-544.84l-0.95-4.92h-20C1005.1,1150.56,1004.3,1150.72,1003.67,1152.63ZM162.815,1512.15c1.749,33.04,18.416,67.65,45.572,94.81,12.547,12.54,21.436,19.05,35.733,26.2l9.049,4.61,0.64-18.74c0.48-14.6,1.11-21.43,3.179-31.12,4.759-22.71,14.608-47.96,24.936-64l4.759-7.15-2.859.64c-34.145,7.46-80.826,2.06-114.021-13.02l-7.458-3.34Zm1718.075-8.26c-11.75,6.04-35.1,12.87-53.99,15.57-13.66,1.91-40.66,1.91-53.37,0-5.55-.79-10-1.43-10.16-1.27s1.59,3.18,3.81,6.83c10.31,16.84,19.68,40.81,24.29,63.04,2.06,9.53,2.86,16.52,3.18,30.64,0.64,21.12-.79,19.85,13.66,12.23,19.54-10.17,37.63-27.15,51.61-48.12,16.84-25.25,24.14-45.41,26.36-73.69C1886.91,1501.03,1886.6,1500.87,1880.89,1503.89Zm-363.5,260.59c7.46,34.14,2.06,80.82-13.02,114.02l-3.34,7.46,9.53-.64c35.73-2.54,69.4-18.42,97.02-46.06,12.71-12.54,19.22-21.43,26.37-35.41l4.29-8.58-17.79-.64c-17.63-.64-28.74-2.22-43.51-5.88-17.63-4.61-39.38-13.81-52.72-22.38l-7.15-4.76ZM524.4,1766.55c-3.02,1.91-10.009,5.72-15.568,8.42a193.161,193.161,0,0,1-84.8,19.84H410.222l5.559,10.8c10.478,20.17,25.245,36.84,44.942,50.82,19.846,14.14,35.734,21.44,55.26,26.05,13.5,3.02,30.805,4.45,29.855,2.22a217.047,217.047,0,0,1-17.147-57.8c-2.06-14.29-2.06-40.5-.16-53.52,0.79-5.56,1.43-10.17,1.27-10.17C529.961,1763.21,527.261,1764.48,524.4,1766.55Zm324.113,131c-3.969,6.67-14.927,19.54-24.455,28.75-17.787,16.84-38.594,30.8-59.23,39.22-6.349,2.54-11.748,4.92-12.068,5.24s3.02,3.34,7.149,6.99c20.646,17.31,39.223,25.88,68.758,31.91,13.018,2.7,16.987,3.18,30.964,3.18,12.548,0,18.267-.48,26.046-2.06,8.738-1.91,25.086-6.67,26.365-7.77,0.16-.16-4.129-4.92-9.528-10.64a194.253,194.253,0,0,1-49.231-87.98l-2.54-10.64Zm346.975,5.09c-3.64,16.52-11.9,36.53-21.75,53.36a184.575,184.575,0,0,1-27.95,36.53l-10,10.32,3.64,1.42c33.35,13.82,83.22,10.96,119.9-7.14a134.1,134.1,0,0,0,29.54-19.54c6.35-5.4,7.15-6.35,5.56-6.99-26.37-10.32-40.34-18.42-59.87-34.46-13.66-11.28-25.57-23.98-33.83-36.21l-3.49-5.24Z"/>
</svg>
