<svg xmlns="http://www.w3.org/2000/svg" xmlns:xlink="http://www.w3.org/1999/xlink" width="2048" height="2048" viewBox="0 0 2048 2048">
  <defs>
    <style>
      .cls-1 {
        fill-rule: evenodd;
        fill: url(#linear-gradient);
      }
    </style>
    <linearGradient id="linear-gradient" x1="1024.439" y1="2024.16" x2="1024.439" y2="23.906" gradientUnits="userSpaceOnUse">
      <stop offset="0" stop-color="#a15f0b"/>
      <stop offset="0.003" stop-color="#a15f0b"/>
      <stop offset="0.588" stop-color="#feda19"/>
      <stop offset="1" stop-color="#f3c014"/>
    </linearGradient>
  </defs>
  <path id="Фигура_2_копия" data-name="Фигура 2 копия" class="cls-1" d="M939.405,24.4C790.3,37.454,644.944,83.923,517.193,159.064,403.681,226.1,300.451,318.641,221.349,424.829,67.691,630.875-.337,889.52,31.7,1146.19c45.089,361.47,282.991,668.96,622.738,805.2,92.155,36.98,207.249,63.08,299.6,68.02,13.645,0.79,24.917,2.18,24.917,3.17,0,0.79,20.567,1.58,45.484,1.58,25.12,0,45.48-.79,45.48-1.58,0-.99,11.28-2.38,24.92-3.17,126.37-6.72,275.48-48.64,392.35-110.53,93.94-49.64,169.28-105.2,244.23-180.34,114.5-114.3,194-243.62,244.23-396.47,101.45-308.68,44.1-653.539-151.68-911.987-41.53-54.972-105.4-122.6-153.85-162.939C1517.05,129.8,1350.15,56.437,1150.02,28.555c-25.71-3.559-40.94-4.152-115.69-4.548C987.064,23.809,944.349,23.809,939.405,24.4Zm-26.3,176.78c62.887,24.916,84.838,41.526,103.827,78.306l6.32,12.26,6.33-11.865c14.24-26.5,31.84-44.294,58.14-57.938,17.41-9.294,70.8-30.848,75.94-30.848,2.37,0,16.81,2.571,32.24,5.735C1436.76,246.466,1645,401.3,1764.84,619.6q77.13,140.89,97.3,312.035c4.94,41.526,4.94,138.421,0,179.941-6.72,57.15-16.61,105.6-32.23,156.81l-9.1,30.26-21.95,17.2c-57.35,45.28-78.91,54.97-119.65,53.39-9.88-.39-17.99-0.2-17.99.2s3.36,5.73,7.32,11.67c10.28,15.42,17.79,36.38,20.17,55.56,2.37,17.8,1.18,33.42-5.94,84.24-4.94,35-3.75,32.63-37.77,70-125.97,138.02-297.23,230.96-480.94,261.02-56.56,9.29-76.73,10.87-139.62,10.87s-83.058-1.58-139.616-10.87c-183.717-30.06-354.974-123-480.946-261.02-34.014-37.37-32.827-35-37.771-70-7.119-50.82-8.306-66.44-5.933-84.24,2.373-18.78,10.877-41.92,20.567-56.16l6.724-9.89-24.127-1.18c-42.32-2.37-57.152-9.3-113.315-53.59l-21.951-17.2-9.1-30.26C177.842,1133.34,171.118,993.335,199,853.927,231.236,692.372,310.735,544.66,429.191,426.41c89.387-89.576,191.429-154.435,309.886-197.345,43.111-15.82,125.971-37.373,144.362-37.769C886.01,191.1,899.26,195.646,913.1,201.183Zm-21.358,18.983c-4.153,4.944-34.8,18.984-68.226,31.046-52.6,18.983-63.876,24.322-58.734,27.486,0.989,0.593,19.38,1.977,41.134,3.164,116.083,6.525,161.172,14.83,180.947,33.616,18.784,17.8,12.459,49.633-9.69,49.633-6.328,0-8.7-.989-11.272-5.142-3.164-4.745-3.164-5.141.791-9.1,3.56-3.757,4.944-3.955,9.295-1.977,9.294,4.152,16.414-3.164,13.843-14.04-4.549-18.192-34.608-20.169-47.066-3.164-4.351,6.13-6.526,19.972-4.549,30.453,1.78,9.1,13.25,21.751,22.347,24.915,18,5.932,42.515-3.164,49.635-18.588,8.31-17.6,10.48-45.282,5.34-65.65-10.08-38.164-37.77-61.893-92.154-78.9C897.085,215.816,895.305,215.618,891.745,220.166Zm231.575,4.351c-12.46,4.152-29.47,10.875-37.58,15.028-26.69,13.446-47.85,40.141-53.59,67.825-4.74,23.136,1.58,58.927,12.46,69.8,10.28,10.085,32.43,14.633,45.68,8.9,8.7-3.559,18.79-15.424,20.37-23.926,1.98-10.481-.2-24.323-4.55-30.453-12.45-17-42.51-15.028-47.06,3.164-2.57,10.876,4.55,18.192,13.84,14.04,4.35-1.978,5.74-1.78,9.3,1.977,3.95,3.955,3.95,4.351.79,9.1-2.57,4.153-4.95,5.142-11.28,5.142-22.14,0-28.47-31.837-9.69-49.633,19.78-18.786,64.87-27.091,180.95-33.616,21.76-1.187,40.15-2.571,41.14-3.164,5.14-3.164-6.14-8.5-58.74-27.486-33.42-12.062-64.07-26.1-68.22-31.046C1153.38,215.618,1149.42,216.014,1123.32,224.517ZM901.831,314.884c-63.48,12.458-148.714,38.362-183.519,55.961-18.787,9.492-51.812,32.43-66.842,46.272L637.825,429.97l18.787-4.548c10.283-2.373,37.178-7.712,59.723-11.667,22.346-3.955,48.252-9.294,57.349-12.062,25.511-7.712,50.033-14.238,72.379-19.577a292.266,292.266,0,0,0,39.552-13.644c10.481-4.745,23.731-9.887,29.268-11.073l10.085-2.373,1.385-10.283a42.014,42.014,0,0,1,7.119-18.983c3.362-4.746,5.735-9.1,5.142-9.689C937.032,314.687,908.159,313.7,901.831,314.884Zm211.8,0.791-4.75,2.176,5.14,5.339c6.33,6.525,9.3,14.237,9.3,23.728v7.515l13.64,3.361c7.72,1.978,20.77,6.921,29.47,11.074,17.01,8.305,28.87,12.26,52.8,17.006,8.7,1.779,26.7,6.723,39.95,11.073,23.93,7.514,38.36,10.678,93.54,20.565,15.82,2.768,35.4,6.723,43.5,8.9l14.84,3.758-13.65-12.854c-15.03-14.039-48.05-36.977-67.04-46.667-29.27-14.632-97.3-36.384-156.62-50.028C1149.23,314.884,1120.75,312.709,1113.63,315.675ZM906.379,369.856C861.291,386.664,806.71,437.879,754.7,512.23c-8.306,11.865-27.686,42.119-43.111,67.232C671.246,645.31,640.4,690.4,614.688,721.44c-4.351,5.339-6.922,9.492-5.735,9.492s12.063-1.384,24.324-3.164a534.745,534.745,0,0,0,225.047-84.831c33.817-22.542,33.421-22.147,31.246-34.011-0.989-5.142-2.373-23.136-2.966-39.549-0.791-25.9-.4-33.418,3.361-52.006,9.295-47.853,22.545-73.955,52.011-102.43L956.807,400.7l-7.119-3.757c-11.074-5.734-22.149-19.972-22.149-28.87C927.539,363.924,921.013,364.517,906.379,369.856Zm215.361,2.967c-2.57,8.107-19.58,25.9-25.12,25.9-1.58,0-2.96.4-2.96,0.988s5.93,6.526,13.05,13.249c24.32,22.74,39.94,50.029,49.63,85.622,4.35,17.006,5.34,24.915,6.13,55.368,0.6,23.135,0,40.932-1.58,51.017-2.96,17.994-6.33,13.644,29.67,37.768,66.64,44.888,143.57,73.956,225.04,85.029,12.26,1.78,23.14,3.164,24.33,3.164s-1.39-4.153-5.74-9.492c-25.71-31.045-56.56-76.13-96.9-141.978-15.42-25.113-34.8-55.367-43.11-67.232-52.8-75.537-108.77-127.543-154.05-143.164-6.33-2.176-12.46-3.955-13.84-3.955S1122.92,368.472,1121.74,372.823Zm-291.5,23.135c-32.63,7.119-78.312,26.695-108.173,46.667-44.1,29.464-83.652,71.583-109.953,117.063l-5.538,9.492,14.635-1.385a527.319,527.319,0,0,0,73.17-12.062l20.962-4.943,19.578-29.068c31.443-47.063,70.006-92.543,101.449-119.634,5.735-5.141,9.69-9.294,8.9-9.1C844.284,392.992,837.56,394.376,830.243,395.958Zm163.545-.4c-29.466,7.119-61.305,37.966-78.51,76.13-14.436,31.639-20.369,78.306-15.622,120.82C905,638.982,918.64,693.954,935.647,736.271,948.7,768.9,978.561,848.983,1004.86,921.159c11.27,31.243,20.96,56.949,21.56,56.949s13.45-34.011,28.47-75.734c15.23-41.526,36-97.289,46.28-123.984,31.64-82.063,39.16-106.583,48.25-156.809,5.74-32.232,6.33-85.424.99-109.944-7.71-35.989-22.15-62.882-46.67-87.2-18.79-18.785-31.44-26.1-50.62-29.463C1037.29,392.2,1006.05,392.6,993.788,395.563Zm239.282,25.706c35.01,35,69.42,78.306,95.13,120.227l5.73,9.294,20.76,4.943a520.151,520.151,0,0,0,72.98,12.062l14.63,1.385-5.54-9.492a355.777,355.777,0,0,0-109.95-117.063c-30.26-20.169-81.87-42.119-111.53-47.458l-10.09-1.582ZM683.309,570.959c-8.7,1.978-24.126,4.746-34.212,5.933l-18.589,2.57-9.69,10.876c-7.91,8.9-25.511,38.164-25.511,42.514,0,1.978,41.134,1.385,56.361-.791,16.216-2.373,14.832-.791,37.97-38.757,12.26-19.774,15.425-26.5,12.854-26.3C700.712,567.2,692.011,568.982,683.309,570.959ZM1345,567.993c0,0.989,8.31,15.028,18.4,31.441,14.83,23.729,19.57,29.859,24.12,31.243,7.52,2.175,66.05,4.35,66.05,2.373,0-4.548-17.4-33.616-25.71-42.91-9.49-10.678-10.28-11.073-22.14-12.458-12.07-1.384-44.5-7.118-55.38-9.887C1347.18,567,1344.81,567.2,1345,567.993ZM865.641,652.824c-15.029,9.887-35.794,22.543-46.077,27.882L800.975,690.4v9.294c0,5.141,1.977,23.333,4.35,40.537,3.362,24.322,4.351,41.525,4.351,77.91l0.2,46.864,4.153-1.779c34.014-12.853,83.255-48.051,111.732-79.492l10.086-11.469L930.9,759.011c-2.768-7.316-8.306-21.751-12.261-31.836-3.955-10.283-10.876-33.023-15.029-50.424-4.351-17.6-8.5-34.209-9.295-36.978l-1.384-5.141Zm290.509-16.412c-0.4,1.384-2.77,11.469-5.15,22.344-6.32,28.08-15.02,58.136-21.95,74.747-3.36,7.909-8.1,20.367-10.87,27.683l-4.95,13.447,9.1,10.282c26.3,29.661,76.93,65.65,110.55,78.306l4.15,1.779,0.2-46.864c0-36.187.99-53.786,4.35-78.306,2.37-17.4,4.35-35.791,4.35-40.734V690l-18.2-10.481c-21.75-12.26-52.99-32.034-63.28-40.141C1159.11,635.225,1156.74,634.434,1156.15,636.412ZM772.3,703.644c-9.69,3.955-22.544,8.9-28.082,10.875-9.1,2.769-10.481,3.955-11.469,9.294-1.582,11.074-7.12,74.944-6.329,75.735,0.4,0.4,8.7-1.582,18.194-4.35C765.181,789.266,799,773.446,799,769.887c0-1.186-1.384-11.667-2.966-23.136s-2.967-27.09-2.967-35c0-7.712-.593-14.633-1.384-15.028C790.691,696.327,782.188,699.491,772.3,703.644Zm485.49,0.988c0,5.339-1.38,20.368-2.96,33.221-4.55,36.78-5.94,33.22,15.42,43.305,16.61,8.108,52.41,20.17,54.19,18.39,0.79-.791-4.75-64.661-6.33-75.735-0.99-5.339-2.18-6.327-12.26-9.491-6.13-1.978-18.39-6.723-27.09-10.481-8.9-3.757-17.21-7.316-18.4-7.909C1258.39,695.141,1257.79,697.514,1257.79,704.632ZM922.2,806.271l-18,17.8,3.56,22.345c1.977,12.458,4.746,35.395,6.13,51.413l2.373,28.87,11.075-6.328c21.16-11.864,50.625-32.627,50.032-35.4-0.989-5.339-35-96.695-35.992-96.695C940.789,788.277,932.285,796.384,922.2,806.271Zm181.34-6.723c-12.85,34.012-31.64,85.82-31.64,87.4,0,2.175,31.64,23.333,49.64,33.22l11.07,6.328,2.38-28.87c1.38-15.82,4.15-39.153,6.13-51.808l3.75-22.938-17.2-17.4c-9.3-9.491-17.8-17.2-18.59-17.2C1108.49,788.277,1105.92,793.418,1103.54,799.548ZM555.756,795c-16.018,42.514-42.913,98.673-73.961,155.425-51.417,93.535-76.532,157.8-85.431,218.105-3.56,24.33-2.967,52.6,1.779,69.61l2.571,9.89,13.052-.6c13.25-.79,24.522,2.37,31.641,8.9,3.165,2.77,3.362,2.57,4.351-1.58,10.283-50.03,29.664-83.05,65.062-111.53,18.392-14.83,50.428-34.21,72.182-43.7,8.108-3.36,15.425-7.51,16.413-9.09,3.164-5.74,6.329-58.93,5.142-90.57-1.78-51.017-8.5-92.147-22.149-137.628-7.317-23.927-23.731-67.627-26.895-70.791C558.525,790.452,556.942,791.836,555.756,795Zm925.894,8.7c-32.82,73.362-49.04,172.232-42.12,254.489,1.39,15.23,2.77,29.07,3.36,30.65,0.4,1.78,7.72,6.13,16.22,9.69,17.6,7.52,51.81,26.9,67.63,38.56,23.34,17.01,45.29,42.52,57.95,67.83,5.93,11.27,15.22,41.92,15.22,49.24,0,5.93.2,5.93,8.9,0,7.52-5.15,19.18-7.72,30.46-6.73,6.52,0.6,6.92.4,9.49-9.29,12.66-46.27-2.77-120.82-43.11-209.01-6.33-13.85-23.34-47.264-37.97-74.157-38.17-70.792-56.36-107.967-72.58-149.888-2.57-6.526-5.14-12.656-5.93-13.447S1485.02,796.187,1481.65,803.7Zm-1020.818,35c-8.108,11.864-17.6,32.429-19.182,41.328-0.791,5.339.593,10.876,5.933,23.333,3.757,9.1,9.492,24.718,12.656,34.605,2.967,10.085,6.131,18.39,6.922,18.39,0.593,0,8.9-14.237,18.391-31.836,16.612-30.453,17.007-31.837,14.634-37.967-7.712-19.774-28.279-56.751-31.443-56.751C467.754,829.8,464.194,833.757,460.832,838.7Zm1112.388,2.768c-8.31,13.842-24.72,48.051-24.72,51.611,0,1.384,7.71,16.808,17.2,34.209l17.21,31.639,8.1-24.52c4.55-13.447,10.68-30.057,13.65-36.78,6.53-14.238,6.13-18.983-2.77-37.769-6.52-14.039-17.2-30.056-19.77-30.056C1581.13,829.8,1577.17,835.142,1573.22,841.469ZM648.7,879.633c-16.81,11.865-31.839,22.345-33.421,23.136-2.373,1.384-2.176,6.328,1.78,33.221l4.746,31.44,16.018-7.909c8.7-4.548,24.72-11.667,35.4-15.82L692.8,935.99,691.615,917.8c-1.384-19.378-6.13-45.876-9.888-54.576l-2.373-5.339Zm719.238-12.655c-5.53,18.39-7.91,33.22-8.1,51.61l-0.2,18.588,20.76,8.5c11.47,4.746,26.7,11.667,34.02,15.424,15.03,7.909,14.24,8.5,16.41-11.667,0.59-6.525,2.57-19.379,4.15-28.277,1.78-9.1,2.77-16.808,2.38-17.006-0.4-.395-11.28-7.909-24.33-17s-27.88-19.379-33.02-23.136l-9.3-6.723ZM408.427,888.136c-34.41,63.08-48.648,138.024-39.552,207.034,2.967,22.15,10.086,52.4,15.426,65.06l2.768,6.72,1.582-7.91c8.108-45.48,31.246-109.74,58.734-163.728,8.7-17.006,9.888-20.367,8.7-27.486-3.164-19.181-32.63-96.5-36.98-96.5C418.315,871.328,413.371,878.842,408.427,888.136ZM1618.9,892.091c-10.29,23.531-24.13,63.87-26.11,75.735-0.98,6.525,0,9.887,6.73,22.345,22.74,41.719,48.84,110.139,58.34,153.049,5.53,24.92,5.53,24.92,14.43-7.91,21.36-79.09,9.49-171.637-31.84-247.174-4.94-9.294-9.88-16.808-10.68-16.808C1628.79,871.328,1623.84,880.622,1618.9,892.091ZM762.412,907.119c-22.149,14.633-61.7,35.4-87.211,46.074-14.041,5.735-31.443,13.446-38.76,17.2l-13.448,6.525-0.2,31.838c0,17.4-.791,41.33-1.582,53.39-0.989,11.86-1.385,22.15-.989,22.54s9.888-1.98,20.962-5.34c33.025-9.89,56.954-15.82,73.763-18.19,44.693-6.13,44.891-6.13,47.858-13.45,9.492-22.74,18.391-73.359,18.391-104.8,0-24.52-2.175-43.9-4.746-43.7C775.266,899.21,768.938,902.769,762.412,907.119Zm506.458,5.933c-4.15,39.746,1.58,88.588,14.83,129.518,4.55,13.84-.4,11.67,41.33,17.4,27.09,3.76,76.93,16.61,101.45,26.11,3.36,1.18,3.56,0,2.37-22.15-0.59-13.05-1.38-37.18-1.78-53.99l-0.59-30.447-11.67-5.933c-6.33-3.361-23.93-11.073-39.15-17.4a583.63,583.63,0,0,1-84.05-43.7c-10.09-6.327-18.98-11.469-19.97-11.469C1270.85,900.989,1269.66,906.526,1268.87,913.052ZM859.313,970.4c-13.052,6.327-34.014,15.423-46.473,20.169-22.346,8.5-22.742,8.7-25.115,16.414-5.735,19.18-12.063,43.3-11.47,43.9,1.384,1.38,101.252-16.22,103.427-18.39,1.78-1.58,2.966-12.46,3.757-38.167,0.594-19.774.791-35.989,0.4-35.791C883.439,958.532,872.365,963.871,859.313,970.4Zm306.127,22.938c0.59,19.375,1.58,36.585,2.18,38.165,0.99,2.17,14.43,5.34,52.6,11.67,28.28,4.74,51.81,8.3,52.41,7.71s-1.19-8.9-3.96-18.39c-2.77-9.69-5.54-20.77-6.13-24.92-1.19-6.92-2.18-7.908-10.48-10.874-22.55-8.305-52.8-21.158-69.61-29.463l-18.2-9.294ZM310.933,976.527c-6.131,28.473-7.12,38.753-7.12,71.783,0,41.52,1.78,52.99,17.6,115.08,12.261,48.05,22.94,82.26,30.059,96.5,5.735,11.47,13.843,22.74,16.414,22.74,0.988,0,2.768-3.16,3.955-6.92,1.977-6.13,9.888-14.63,18.391-19.78,3.164-1.77,3.164-2.76.4-11.86-1.78-5.54-4.351-21.16-5.933-34.8a227.6,227.6,0,0,0-9.69-46.47c-3.757-11.87-9.69-34.01-13.25-49.24a476.481,476.481,0,0,0-16.018-54.38c-5.34-14.63-14.832-41.33-20.765-59.32S313.9,967.035,313.7,966.639C313.306,966.442,312.119,970.99,310.933,976.527Zm1411.2,27.683c-28.08,82.06-31.25,92.15-34.41,110.34-1.78,10.28-7.32,30.25-12.07,44.49-7.11,21.16-9.09,29.66-10.48,47.46a266.014,266.014,0,0,1-4.94,35.59c-2.97,11.47-2.97,13.84-.79,14.44,4.94,1.58,19.58,18.19,19.58,22.15,0,5.73,3.16,4.94,8.5-2.58,7.71-10.08,14.24-24.52,21.95-48.44,9.1-27.88,27.49-100.06,32.24-124.97,6.32-34.81,3.56-109.553-5.15-132.887C1735.77,967.43,1731.03,978.9,1722.13,1004.21ZM948.3,1033.67c-52.6,9.69-179.761,31.05-214.962,36.19-83.849,12.66-159.986,40.34-204.877,75.14-17.007,12.86-38.364,36.58-47.857,52.4-16.809,28.28-24.917,63.68-19.973,87.21,4.746,22.14,27.092,57.94,43.9,70.39,26.5,19.38,67.83,26.7,109.557,19.58,65.062-11.47,139.815-66.24,211.4-155.23,27.488-34.4,128.542-155.82,149.108-179.55,5.933-6.72,9.493-12.26,8.109-12.06C981.131,1027.94,965.706,1030.51,948.3,1033.67Zm180.156,71.19c35.6,42.71,76.73,92.94,91.36,111.53,57.35,72.37,122.81,127.54,176.6,149.09,25.31,10.09,39.55,12.86,69.02,12.86,29.46,0.19,43.11-2.57,64.67-12.86,20.17-9.69,33.81-25.7,51.41-61.1,7.12-14.24,7.52-15.62,7.52-34.6,0-23.34-4.75-41.33-17.01-63.87-20.37-38.17-50.82-65.46-99.67-89.38-47.46-23.14-97.3-37.38-175.01-49.24-43.91-6.72-209.63-35-228.02-38.96C1064.58,1027.35,1074.28,1040,1128.46,1104.86Zm-234.342,48.25c-17.6,21.16-32.432,39.75-33.025,41.33-0.791,1.78,1.186,3.16,6.526,3.95,4.153,0.79,15.227,3.76,24.72,6.53l17.2,5.14,11.47-9.89c15.623-13.44,44.5-35,58.339-43.5,6.328-3.96,11.47-7.71,11.47-8.7,0-2.97-56.559-33.42-62.492-33.42C927.144,1114.55,911.719,1131.95,894.118,1153.11Zm210.022-31.84c-19.98,9.69-46.28,25.12-45.69,26.9,0.4,0.79,9.3,7.31,20.18,14.63,10.67,7.32,27.88,19.97,38.16,28.47,10.29,8.31,19.78,16.02,21.36,17.01,1.98,1.58,21.16-2.57,48.06-10.48,4.15-1.19,1.78-4.35-29.47-42.32-18.59-22.54-35-40.93-36.19-40.93S1111.85,1117.52,1104.14,1121.27Zm-859.456,30.26c-2.571,2.37-1.384,13.64,6.724,60.9,5.339,32.43,7.91,53.59,7.91,66.64v19.18l11.272,10.88c31.641,30.05,54.779,44.49,78.51,48.84,15.623,2.97,36.783,1.19,50.823-4.15,26.3-9.89,53-35.6,53-51.22,0-24.91-15.82-43.7-36.585-43.7-24.324.2-41.529,18.19-36.387,38.56,4.153,16.61,21.358,25.9,33.025,17.6,5.735-3.96,5.933-13.84.2-15.62-2.966-.99-3.757-2.77-3.362-7.32,1.384-13.84,18.194-8.5,20.567,6.33,2.175,13.84-13.645,28.47-30.652,28.47-18.985,0-43.507-19.57-72.182-57.54-8.306-11.27-29.861-42.51-47.857-69.8-18-27.09-32.828-49.44-33.223-49.44A4.247,4.247,0,0,0,244.684,1151.53Zm1545.866,15.82c-64.67,100.65-95.71,139.8-121.42,153.64-18.79,10.09-36.59,6.92-47.07-8.9-8.3-12.06-1.98-28.27,10.29-27.09,5.14,0.4,6.32,1.58,6.72,6.33,0.59,3.96-.59,6.33-3.36,8.5-9.49,6.53-1.98,18.39,11.67,18.39,14.83,0,27.09-21.75,20.76-36.97-1.78-3.96-4.55-9.1-6.53-11.28-9.29-10.48-33.42-14.43-45.08-7.31-12.46,7.51-20.57,23.33-20.57,39.94,0,10.48,10.48,24.52,27.29,36.78,17.4,12.46,32.63,18.39,50.82,19.78,35.4,2.57,62.69-10.48,104.22-50.23l11.27-10.68v-19.18c0-13.25,2.57-33.81,8.11-66.64,8.31-49.63,9.1-59.32,5.93-61.3C1802.61,1150.54,1796.68,1157.86,1790.55,1167.35Zm-950.617,51.41c-4.944,6.33-14.436,18.19-21.16,26.69-6.526,8.31-24.324,27.1-39.749,41.73l-27.686,26.89,21.357,10.28c11.668,5.74,32.037,16.42,44.891,23.93,13.052,7.32,24.72,13.45,25.907,13.45,3.361,0,22.544-12.86,49.043-33.03,22.94-17.6,62.689-42.31,85.036-53.19,6.13-3.16,11.272-6.13,11.272-6.92,0-4.55-42.122-29.86-69.017-41.53-19.578-8.3-56.954-19.57-65.458-19.57C850.414,1207.49,847.052,1210.26,839.933,1218.76Zm328.867-6.13a356.094,356.094,0,0,0-39.75,13.84c-28.67,12.06-74.55,39.75-70.99,42.91,0.59,0.4,9.49,5.14,19.77,10.68,27.49,14.43,51.62,29.66,83.26,53.19,15.43,11.47,32.04,22.94,36.59,25.71l8.3,4.94,19.58-11.27c10.68-6.13,31.05-17.01,45.09-24.12,14.24-7.12,26.1-13.06,26.5-13.45s-11.87-12.85-27.29-27.68c-15.23-14.83-33.23-33.62-39.75-41.93-30.06-37.96-30.06-37.96-36.39-37.96C1190.36,1207.69,1179.09,1209.86,1168.8,1212.63ZM728,1331.27c-11.47,8.9-60.118,37.18-73.565,42.52q-69.413,27.585-135.662,2.37c-2.373-.99-2.768,0-1.582,4.95,1.78,8.5-3.559,26.1-9.888,32.03-2.768,2.57-4.944,5.73-4.944,7.32,0,4.74,26.7,24.52,46.473,34.2,55.768,27.29,125.378,39.75,236.32,42.52,78.9,1.98,156.822,7.91,186.683,14.04l5.735,1.19-5.735-7.52c-38.761-52.2-85.827-97.29-138.43-132.49-26.1-17.4-85.431-48.24-92.55-48.05C738.681,1324.35,732.749,1327.52,728,1331.27Zm558.668,1.78c-74.56,33.62-149.11,92.94-199.74,159.19-14.63,18.98-15.23,20.17-9.89,18.98,3.17-.59,20.37-2.97,38.37-5.14,32.83-3.96,71.78-6.33,169.08-9.89,76.93-2.77,128.15-10.08,174.82-24.91,36.98-11.67,60.71-23.93,82.27-42.91l7.71-6.73-6.13-7.12a43.12,43.12,0,0,1-10.09-31.44c0.59-6.33.2-7.31-2.37-6.33-1.58.8-10.09,3.56-18.79,6.13-31.24,9.3-69.41,8.11-103.23-3.36-22.74-7.71-65.46-31.04-87.6-47.85-5.54-4.15-11.08-7.51-12.46-7.51C1307.43,1324.16,1297.54,1328.11,1286.67,1333.05Zm-390.772,9.3c-11.47,8.7-25.51,18.59-31.443,21.95-10.284,5.93-10.481,6.13-6.724,9.09,2.175,1.78,13.052,10.29,24.324,18.99,11.075,8.7,21.16,15.62,22.347,15.22,6.328-1.78,70.6-32.82,70.6-34.01,0-1.58-19.38-20.56-28.675-28.08-7.317-5.93-27.29-19.38-28.675-19.38C917.058,1326.33,907.368,1333.45,895.9,1342.35Zm218.522-4.75c-13.45,8.9-42.52,35-42.52,37.97,0,0.79,16.61,9.09,36.78,18.59l36.99,17,13.64-11.27c7.52-6.33,18.39-14.83,23.93-18.98,5.73-4.16,10.48-8.11,10.88-8.9,0.19-.79-2.97-3.16-6.93-5.34-4.15-2.18-17.79-11.67-30.45-21.36-12.66-9.49-24.32-17.2-25.71-17.2C1129.45,1328.11,1122.13,1332.46,1114.42,1337.6Zm-665.255,9.49c-44.693,12.07-75.346,51.61-75.346,97.69,0,14.24,10.482,68.02,14.041,72.37,1.187,1.39,6.724,4.75,12.261,7.32,10.877,5.14,32.234,20.96,67.633,50.62,21.951,18.39,37.772,29.26,39.749,27.29,0.791-.6-12.261-28.08-28.477-61.1-16.414-33.03-33.025-68.03-36.98-78.11-18.392-46.87-19.578-75.54-3.956-89.38,10.086-8.7,20.963-11.27,30.257-6.72,11.866,5.73,15.821,20.36,6.131,23.33-6.724,2.17-11.668-.79-11.668-7.12,0-8.5-7.91-11.86-15.425-6.33-8.5,6.13-11.074,13.05-8.108,21.95,8.108,25.51,37.376,29.47,56.559,7.71,15.029-17.2,9.294-42.91-12.657-56.95C472.7,1343.14,465.579,1342.55,449.165,1347.09Zm1116.535,2.57c-21.95,14.04-27.68,39.75-12.65,56.95,7.31,8.31,19.38,14.24,28.67,14.44,20.96,0,37.18-26.7,24.32-40.34-5.93-6.33-10.87-7.91-16.01-5.14-2.58,1.38-3.96,4.15-3.96,7.71,0,9.1-12.26,11.67-16.02,3.36-3.16-6.72,1.39-15.22,10.48-19.57,6.13-2.97,8.51-3.17,15.43-1.39,10.48,2.77,21.16,12.46,23.73,21.36,7.51,27.48-3.96,63.08-51.02,157.2-15.82,31.24-28.08,57.54-27.29,58.14,2.57,2.77,6.92-.4,72.97-54.38,11.07-8.9,25.71-18.98,32.43-22.35,6.92-3.56,13.25-7.31,14.44-8.7,3.16-3.75,12.06-48.05,13.25-66.24,3.16-49.04-27.69-91.16-75.74-103.81C1582.31,1342.55,1576.18,1343.14,1565.7,1349.66ZM483.772,1429.35c-5.932,3.17-10.481,3.76-19.38,3.17-10.877-.79-11.47-0.6-10.283,3.16,5.339,17.8,25.313,41.53,79.1,94.13,45.681,44.69,71.983,64.86,106.591,82.06,24.522,12.06,60.316,25.9,60.316,23.33,0-.59-6.526-7.91-14.437-16.21s-23.137-25.71-34.014-38.76c-25.511-30.85-111.139-116.47-126.367-126.16-6.526-4.15-16.611-12.46-22.742-18.19l-11.074-10.48Zm1061.758,8.31a159.423,159.423,0,0,1-21.75,17.99c-16.42,10.68-99.67,94.52-129.93,130.51-13.84,16.22-29.47,34.01-35,39.55-5.54,5.34-10.09,10.48-10.09,11.07,0,2.97,35.4-10.48,60.32-22.93,35.99-17.8,61.1-37.38,111.53-87.01,52.01-51.21,68.62-71.19,74.36-89.58,1.19-4.35.99-4.54-8.5-3.16-7.52.99-11.67,0.4-19.19-2.97-5.14-2.37-9.88-3.95-10.68-3.75C1556.01,1427.38,1551.07,1432.12,1545.53,1437.66Zm-972.965,47.26c20.567,23.93,56.954,51.61,90.375,68.62,47.66,24.71,92.551,36.58,146.736,38.95l27.488,1.19-6.526-9.69c-10.876-16.22-34.212-44.49-49.637-60.31l-14.634-15.23-26.7-1.19c-60.514-2.96-131.311-16.21-173.433-32.23C564.259,1474.24,567.226,1478.79,572.565,1484.92Zm896.825-4.35c-39.35,14.04-99.47,24.12-169.67,28.67l-20.37,1.19-17.21,19.18c-18.39,20.37-33.22,38.76-43.9,54.38l-6.52,9.69,27.48-1.19c80.69-3.76,151.88-31.44,212.2-83.25,15.03-12.85,33.81-33.02,30.45-32.63C1481.06,1476.61,1475.33,1478.39,1469.39,1480.57Zm-682.258,30.45c0,0.59,4.746,6.13,10.679,12.26,10.876,11.67,27.488,31.84,33.025,40.14,3.757,5.74,22.544,9.89,44.3,9.69,23.928-.2,24.126-0.2,14.831-16.61-11.667-21.16-26.1-41.13-31.641-43.9C853.578,1510.23,787.132,1508.65,787.132,1511.02Zm421.818,0.4-20.17.79-8.7,11.27c-4.95,6.13-13.25,19.18-18.99,29.07-10.09,17.6-10.09,17.79-5.73,19.38,5.73,2.17,43.5.39,53.39-2.58,5.34-1.58,10.09-5.73,18.59-16.41,6.33-7.71,17.2-20.76,24.13-28.67l12.65-14.24-17.4.4C1237.03,1510.63,1220.02,1511.22,1208.95,1511.42Z"/>
</svg>
