<?xml version="1.0" standalone="no"?>
<!DOCTYPE svg PUBLIC "-//W3C//DTD SVG 20010904//EN"
 "http://www.w3.org/TR/2001/REC-SVG-20010904/DTD/svg10.dtd">
<svg version="1.0" xmlns="http://www.w3.org/2000/svg"
 width="1024.000000pt" height="1024.000000pt" viewBox="0 0 1024.000000 1024.000000"
 preserveAspectRatio="xMidYMid meet">

<g transform="translate(0.000000,1024.000000) scale(0.100000,-0.100000)"
fill="#000000" stroke="none">
<path d="M4770 10169 c-777 -54 -1544 -292 -2215 -687 -574 -339 -1096 -807
-1496 -1344 -777 -1042 -1121 -2350 -959 -3648 228 -1828 1431 -3383 3149
-4072 1437 -577 3095 -450 4436 340 377 222 690 466 1010 787 579 578 981
1232 1235 2005 513 1561 223 3305 -767 4612 -277 366 -635 724 -998 999 -964
729 -2182 1091 -3395 1008z m-220 -901 c1 -156 54 -305 136 -377 31 -27 70
-48 126 -67 131 -43 168 -89 227 -280 54 -175 78 -166 141 51 50 171 65 188
220 244 119 43 178 93 270 227 80 117 158 202 207 227 28 15 38 14 159 -13
1203 -265 2231 -1038 2828 -2127 260 -475 425 -1001 492 -1578 25 -210 25
-700 0 -910 -34 -294 -86 -545 -167 -805 -46 -151 -133 -386 -148 -403 -4 -4
-34 8 -67 28 -119 72 -274 101 -377 71 -41 -12 -73 -31 -119 -72 -35 -30 -76
-62 -91 -70 -49 -26 -115 -27 -222 -4 -153 33 -184 35 -191 17 -8 -21 23 -64
118 -164 114 -119 122 -148 92 -313 -23 -129 -13 -180 72 -360 57 -122 89
-228 79 -260 -9 -28 -322 -342 -449 -450 -597 -506 -1303 -835 -2060 -959
-286 -47 -388 -55 -706 -55 -318 0 -420 8 -706 55 -873 143 -1672 555 -2305
1188 -118 119 -309 330 -309 343 0 3 22 19 49 36 64 42 152 138 182 199 26 53
30 127 14 275 -7 68 -5 81 14 121 12 25 62 91 111 146 50 56 90 108 90 116 0
32 -67 28 -220 -14 -135 -38 -173 -29 -289 68 -41 34 -86 68 -100 76 -53 27
-139 45 -267 55 -72 6 -154 17 -182 25 l-50 15 -32 83 c-49 128 -125 388 -158
542 -64 295 -90 510 -98 815 -27 938 259 1859 813 2617 255 350 589 684 935
936 494 359 1082 619 1658 731 309 60 280 63 280 -26z"/>
<path d="M6090 8883 c-388 -38 -694 -140 -812 -271 -101 -112 -86 -340 29
-441 116 -102 333 -67 382 62 6 16 11 52 11 81 0 96 -70 161 -163 153 -59 -5
-91 -33 -115 -99 -9 -26 -20 -48 -24 -48 -12 0 -23 51 -22 106 0 72 27 113 94
146 128 64 381 59 840 -15 176 -28 216 -31 415 -31 231 0 292 8 453 56 l73 21
-68 44 c-200 130 -425 205 -702 233 -96 9 -310 11 -391 3z"/>
<path d="M3711 8869 c-264 -30 -491 -106 -684 -232 l-68 -44 73 -21 c161 -48
222 -56 453 -56 199 0 239 3 415 31 459 74 712 79 840 15 67 -33 94 -74 94
-146 1 -55 -10 -106 -22 -106 -4 0 -15 22 -24 48 -24 66 -56 94 -115 99 -58 5
-107 -18 -141 -68 -20 -29 -23 -44 -20 -100 3 -54 9 -73 31 -103 78 -102 259
-115 360 -25 115 101 130 329 29 441 -101 112 -337 203 -657 253 -121 19 -448
27 -564 14z"/>
<path d="M5755 8488 c21 -97 96 -184 254 -289 135 -91 276 -161 420 -209 187
-63 330 -82 886 -115 138 -9 267 -18 288 -22 20 -3 37 -1 37 4 0 5 -39 43 -86
84 -250 218 -488 327 -942 433 -314 74 -567 118 -795 141 l-69 7 7 -34z"/>
<path d="M4375 8503 c-197 -23 -304 -39 -430 -64 -710 -139 -993 -251 -1289
-508 -47 -41 -86 -79 -86 -84 0 -4 19 -6 43 -3 73 9 164 16 432 31 409 23 575
48 757 111 191 67 443 213 549 318 50 50 93 122 104 174 7 35 5 36 -80 25z"/>
<path d="M6845 8483 c-168 -20 -195 -26 -185 -38 16 -20 195 -91 285 -114 107
-26 219 -41 318 -41 91 0 276 25 290 39 13 13 -121 85 -213 116 -41 13 -113
29 -160 35 -79 9 -268 11 -335 3z"/>
<path d="M3015 8469 c-38 -5 -104 -21 -145 -34 -92 -31 -226 -103 -213 -116
14 -14 199 -39 290 -39 99 0 211 15 318 41 84 22 233 79 275 107 25 16 25 16
-45 29 -93 17 -392 24 -480 12z"/>
<path d="M5057 8258 c-49 -66 -105 -196 -143 -334 -43 -158 -58 -357 -58 -759
0 -433 20 -658 90 -1015 37 -194 167 -750 174 -750 7 0 122 452 160 626 71
330 89 976 45 1604 -24 334 -48 425 -139 511 -28 27 -54 64 -65 94 -10 27 -23
51 -29 53 -6 2 -21 -12 -35 -30z"/>
<path d="M2595 8258 c-7 -22 -65 -296 -65 -308 0 -7 18 6 39 28 21 22 67 59
102 83 35 24 89 62 120 84 31 23 71 47 88 55 45 18 22 30 -61 30 -38 0 -93 9
-130 20 -74 23 -87 24 -93 8z"/>
<path d="M7510 8250 c-31 -11 -85 -19 -125 -20 -86 0 -109 -12 -64 -30 17 -8
57 -32 88 -55 31 -22 85 -60 120 -84 35 -24 81 -61 102 -83 21 -22 39 -34 39
-27 0 8 -15 82 -33 164 -37 170 -34 166 -127 135z"/>
<path d="M5752 8218 c-7 -7 -12 -17 -12 -23 0 -6 -20 -31 -45 -55 -55 -54 -57
-77 -15 -164 95 -197 490 -595 830 -836 248 -176 530 -330 703 -385 61 -19
112 -34 113 -32 6 6 -151 257 -227 362 -159 221 -362 445 -514 565 -44 35
-159 115 -255 178 -186 122 -271 186 -388 295 -70 64 -136 107 -165 107 -7 0
-18 -5 -25 -12z"/>
<path d="M4383 8204 c-18 -9 -77 -55 -130 -103 -131 -115 -194 -163 -348 -262
-178 -115 -256 -170 -353 -252 -133 -112 -334 -340 -475 -540 -67 -94 -208
-320 -203 -325 2 -1 57 15 122 36 184 61 343 145 619 328 223 147 355 254 554
449 242 237 371 406 388 509 5 34 2 41 -37 81 -23 23 -47 54 -54 66 -14 30
-41 34 -83 13z"/>
<path d="M4791 8055 c-18 -8 -41 -15 -50 -15 -43 0 -92 -23 -116 -55 -14 -18
-41 -76 -59 -129 -37 -106 -58 -144 -194 -366 -165 -268 -235 -423 -310 -686
-62 -214 -105 -456 -128 -704 l-6 -74 73 68 c322 298 553 681 729 1207 103
306 162 644 129 738 -12 35 -20 36 -68 16z"/>
<path d="M5351 8039 c-24 -70 -2 -254 59 -494 69 -271 151 -493 271 -735 144
-288 311 -515 528 -716 l73 -68 -6 74 c-23 248 -66 490 -128 704 -75 263 -145
418 -310 686 -136 222 -157 260 -194 366 -18 53 -45 111 -59 129 -24 32 -73
55 -116 55 -9 0 -33 7 -52 15 -50 21 -53 20 -66 -16z"/>
<path d="M3719 7925 c-343 -78 -704 -229 -889 -370 -66 -51 -242 -233 -289
-299 l-33 -48 48 7 c397 55 809 245 1109 512 111 99 234 233 214 232 -8 0 -80
-15 -160 -34z"/>
<path d="M6381 7888 c309 -349 799 -608 1273 -673 l48 -7 -33 49 c-19 26 -95
109 -169 183 -103 103 -155 147 -220 185 -210 122 -534 245 -807 304 -78 17
-145 31 -148 31 -4 0 22 -32 56 -72z"/>
<path d="M2538 7789 c-52 -30 -79 -333 -35 -394 11 -15 21 -8 87 57 81 79 217
177 319 227 34 18 61 34 60 35 -2 2 -47 9 -99 15 -52 6 -138 24 -190 41 -104
33 -117 34 -142 19z"/>
<path d="M7500 7764 c-63 -18 -149 -36 -190 -41 l-75 -9 65 -33 c105 -54 239
-151 320 -229 66 -65 76 -72 87 -57 45 62 17 366 -37 395 -26 14 -39 12 -170
-26z"/>
<path d="M4250 7502 c-233 -173 -486 -417 -628 -607 -92 -122 -154 -242 -201
-385 -24 -76 -61 -223 -61 -246 0 -3 33 18 74 45 304 205 566 512 722 847 43
92 140 362 132 369 -2 2 -19 -9 -38 -23z"/>
<path d="M5936 7503 c18 -71 90 -267 133 -358 156 -330 415 -632 717 -836 41
-27 74 -48 74 -45 0 23 -37 170 -61 246 -47 143 -109 263 -201 385 -141 187
-397 438 -601 586 -66 49 -67 49 -61 22z"/>
<path d="M2971 7200 c-82 -17 -185 -30 -268 -35 -100 -5 -136 -11 -140 -21 -7
-18 47 -132 99 -208 46 -69 126 -166 136 -166 4 0 22 33 40 73 37 83 130 216
221 317 34 39 59 70 54 69 -4 0 -68 -13 -142 -29z"/>
<path d="M7151 7159 c110 -127 213 -282 238 -361 7 -21 16 -38 21 -38 14 0 78
79 140 172 62 94 106 189 97 212 -4 10 -40 15 -139 20 -109 6 -318 39 -402 63
-11 3 7 -24 45 -68z"/>
<path d="M4718 7072 c-112 -215 -194 -426 -248 -641 -42 -170 -54 -268 -47
-400 6 -115 41 -328 57 -344 10 -11 98 135 149 245 138 300 194 548 195 873 1
185 -17 395 -33 395 -3 0 -36 -57 -73 -128z"/>
<path d="M5399 7102 c-20 -140 -18 -460 4 -593 41 -249 130 -503 247 -708 37
-64 70 -116 75 -116 11 0 21 36 40 145 23 126 30 302 16 401 -26 179 -106 443
-199 657 -45 102 -148 298 -161 306 -5 3 -15 -38 -22 -92z"/>
<path d="M3330 6785 c-63 -29 -151 -63 -195 -75 -92 -25 -164 -58 -178 -81
-17 -28 2 -67 60 -124 62 -62 259 -198 277 -192 6 2 14 37 18 79 9 104 73 295
146 441 6 12 -10 6 -128 -48z"/>
<path d="M6752 6833 c73 -146 137 -337 146 -441 4 -42 12 -77 18 -79 18 -6
215 130 277 192 58 57 77 96 60 124 -13 22 -85 55 -174 79 -41 12 -131 46
-200 76 -132 60 -133 60 -127 49z"/>
<path d="M6302 6539 c22 -90 38 -246 43 -423 2 -76 6 -140 8 -143 21 -21 387
225 387 261 0 14 -127 122 -190 161 -25 16 -72 54 -105 85 -73 68 -146 130
-155 130 -4 0 2 -32 12 -71z"/>
<path d="M3869 6563 c-24 -20 -71 -62 -104 -93 -33 -31 -80 -69 -105 -85 -63
-39 -190 -147 -190 -161 0 -36 366 -282 387 -261 2 3 6 67 8 143 5 177 21 333
43 423 10 39 16 71 12 71 -4 0 -26 -17 -51 -37z"/>
<path d="M4303 6293 c-37 -43 -130 -139 -206 -213 -95 -94 -137 -142 -137
-157 0 -50 126 -138 313 -218 127 -55 142 -57 133 -12 -23 113 -30 210 -31
429 0 137 -1 248 -2 248 -1 0 -32 -35 -70 -77z"/>
<path d="M5845 6124 c-1 -221 -8 -317 -31 -431 -9 -45 6 -43 133 12 187 80
313 168 313 218 0 15 -42 63 -137 157 -76 74 -169 171 -208 214 l-70 79 0
-249z"/>
<path d="M7792 6265 c-46 -7 -89 -18 -94 -23 -7 -7 0 -23 23 -51 62 -72 199
-380 199 -447 0 -36 18 3 60 131 24 72 70 185 103 252 33 68 58 125 55 129
-26 25 -210 30 -346 9z"/>
<path d="M8212 6254 c-19 -37 -72 -197 -97 -293 -91 -361 -85 -744 19 -1102
47 -161 43 -159 83 -44 94 276 146 571 147 845 1 169 -1 194 -26 290 -27 108
-73 243 -100 294 -14 28 -16 28 -26 10z"/>
<path d="M2122 6200 c-18 -4 -36 -11 -39 -14 -4 -3 23 -68 59 -144 37 -75 83
-189 104 -252 37 -116 54 -152 54 -114 0 69 132 368 196 443 25 29 33 46 26
53 -27 27 -317 48 -400 28z"/>
<path d="M7335 6186 c-84 -27 -231 -95 -263 -122 l-24 -20 57 -39 c71 -49 219
-206 282 -299 l48 -71 3 45 c6 96 33 279 47 319 8 23 18 71 21 107 6 54 4 68
-11 84 -24 26 -71 25 -160 -4z"/>
<path d="M1962 6128 c-120 -289 -139 -535 -71 -941 33 -201 131 -549 149 -531
5 5 25 63 44 129 120 419 112 849 -24 1259 -58 174 -60 176 -98 84z"/>
<path d="M7596 6128 c-9 -40 -22 -100 -29 -133 -19 -92 -15 -592 7 -780 54
-473 217 -1004 341 -1114 41 -36 47 -36 106 -16 24 9 55 13 70 10 21 -5 31 -1
43 17 22 31 20 79 -8 211 -36 169 -44 234 -56 452 -5 110 -15 241 -21 290 -24
190 -115 493 -225 742 -58 133 -194 393 -205 393 -4 0 -14 -33 -23 -72z"/>
<path d="M8360 6180 c0 -6 6 -23 14 -39 26 -49 48 -193 53 -353 l6 -156 52 67
c29 38 92 106 139 151 106 102 108 113 34 184 -98 94 -298 192 -298 146z"/>
<path d="M2735 6120 c-15 -16 -17 -31 -12 -82 3 -35 13 -82 21 -106 14 -39 42
-225 48 -326 l3 -39 49 72 c62 92 210 247 280 296 31 21 56 42 56 47 0 12
-216 114 -294 137 -86 27 -128 27 -151 1z"/>
<path d="M2577 6092 c-87 -137 -237 -474 -306 -685 -78 -240 -104 -381 -116
-622 -11 -230 -25 -357 -56 -510 -42 -203 -34 -263 31 -250 14 3 45 -1 69 -10
60 -21 66 -20 110 20 111 100 268 594 325 1020 45 335 46 751 2 954 -14 62
-27 116 -30 118 -2 3 -16 -13 -29 -35z"/>
<path d="M1780 6106 c-111 -42 -270 -170 -270 -218 0 -17 28 -52 95 -117 52
-52 114 -120 137 -152 l43 -58 7 157 c6 161 24 280 52 347 9 20 16 41 16 46 0
13 -39 10 -80 -5z"/>
<path d="M4799 5990 c-20 -30 -50 -82 -67 -115 -16 -33 -44 -78 -62 -100 -60
-75 -110 -154 -110 -174 0 -33 70 -76 178 -110 104 -32 219 -57 228 -48 3 3
-8 43 -24 88 -42 119 -92 336 -101 432 l-7 82 -35 -55z"/>
<path d="M5367 5959 c-7 -92 -60 -322 -102 -437 -15 -41 -24 -76 -21 -79 9 -9
123 15 228 48 108 34 178 77 178 110 0 20 -49 99 -109 173 -17 22 -52 78 -77
126 -25 48 -56 100 -68 115 l-23 28 -6 -84z"/>
<path d="M6980 5988 c1 -63 28 -263 50 -363 78 -356 269 -719 508 -965 l73
-75 -6 45 c-42 349 -119 650 -228 890 -70 156 -193 320 -328 440 l-69 62 0
-34z"/>
<path d="M3139 5849 c-207 -203 -312 -387 -414 -728 -51 -171 -127 -583 -110
-599 3 -3 36 27 73 68 318 347 505 762 552 1224 7 63 10 120 8 127 -2 6 -51
-35 -109 -92z"/>
<path d="M6757 5891 c-122 -55 -250 -127 -272 -151 -14 -16 -8 -22 73 -69 120
-69 292 -189 375 -263 l68 -60 -7 43 c-3 24 -15 82 -25 129 -11 47 -24 132
-30 190 -15 158 -31 225 -54 227 -11 2 -68 -19 -128 -46z"/>
<path d="M8727 5860 c-14 -30 -93 -192 -176 -358 -156 -316 -235 -501 -271
-637 -37 -142 -53 -304 -47 -470 10 -243 36 -341 114 -419 l38 -37 33 73 c135
293 312 833 369 1128 23 117 26 160 26 330 0 159 -3 213 -20 295 -12 55 -26
111 -31 125 -10 24 -11 23 -35 -30z"/>
<path d="M8845 5874 c4 -11 11 -31 15 -47 12 -37 35 -290 33 -355 -1 -46 1
-51 14 -41 8 7 24 31 35 53 12 23 51 72 87 110 l66 68 -110 105 c-118 112
-154 139 -140 107z"/>
<path d="M3316 5853 c-15 -48 -26 -119 -35 -214 -6 -57 -19 -142 -30 -189 -10
-47 -22 -104 -25 -128 l-6 -43 82 72 c87 75 315 232 399 274 27 14 49 29 49
33 0 19 -173 114 -323 178 -90 39 -104 41 -111 17z"/>
<path d="M1451 5753 c-64 -274 -50 -564 44 -908 82 -299 192 -620 290 -844
l58 -132 34 33 c88 84 116 197 117 473 2 372 -38 500 -353 1134 -89 178 -163
326 -165 328 -2 3 -13 -36 -25 -84z"/>
<path d="M1263 5722 c-154 -141 -147 -121 -71 -200 36 -37 74 -85 86 -108 11
-22 27 -46 35 -52 11 -10 13 -3 13 41 -1 85 25 329 39 371 8 22 12 42 10 44
-2 2 -52 -41 -112 -96z"/>
<path d="M6251 5635 c-118 -57 -320 -202 -308 -222 4 -6 35 -20 69 -33 103
-37 391 -186 473 -246 43 -30 79 -53 81 -51 2 2 -21 74 -50 160 -30 86 -57
179 -61 207 -12 87 -44 194 -62 207 -28 21 -64 15 -142 -22z"/>
<path d="M6494 5619 c80 -363 186 -611 386 -909 238 -354 649 -772 848 -862
64 -29 73 -23 94 57 39 144 36 159 -64 272 -58 66 -116 155 -193 298 -151 279
-235 407 -363 550 -176 198 -417 412 -630 560 -73 51 -82 55 -78 34z"/>
<path d="M3828 5598 c-18 -15 -41 -90 -59 -192 -6 -39 -36 -140 -65 -225 -30
-85 -52 -156 -50 -158 2 -2 38 21 81 51 82 60 370 209 473 246 34 13 65 27 69
33 12 20 -190 165 -308 222 -78 37 -115 43 -141 23z"/>
<path d="M9037 5494 c-91 -118 -155 -237 -201 -374 -35 -104 -70 -303 -64
-357 3 -27 4 -26 51 32 121 151 248 380 282 510 21 77 33 285 17 285 -6 0 -45
-43 -85 -96z"/>
<path d="M3635 5505 c-327 -234 -632 -533 -790 -774 -35 -53 -111 -184 -170
-291 -122 -220 -148 -261 -216 -336 -81 -89 -103 -148 -78 -211 6 -15 17 -50
23 -78 8 -34 17 -51 29 -53 70 -14 356 215 576 462 383 428 595 804 697 1235
14 57 23 105 22 107 -2 1 -44 -26 -93 -61z"/>
<path d="M1090 5448 c0 -85 14 -179 36 -246 43 -131 184 -371 283 -482 l40
-45 1 35 c0 54 -27 216 -50 300 -24 85 -102 255 -151 327 -47 70 -140 183
-150 183 -5 0 -9 -33 -9 -72z"/>
<path d="M5931 5298 c12 -24 46 -82 75 -129 234 -377 613 -692 1020 -845 l66
-25 -23 38 c-62 104 -182 278 -252 366 -101 127 -272 303 -370 382 -118 94
-361 213 -510 249 l-28 7 22 -43z"/>
<path d="M5744 5294 c-51 -25 -156 -117 -218 -189 -31 -36 -56 -70 -56 -74 0
-4 30 -13 68 -20 112 -20 352 -91 431 -127 41 -19 76 -32 78 -30 6 6 -25 65
-86 165 -27 45 -55 99 -62 119 -16 51 -69 155 -83 164 -17 12 -38 9 -72 -8z"/>
<path d="M4202 5235 c-122 -41 -298 -129 -380 -190 -210 -154 -491 -487 -676
-803 -5 -7 17 -3 56 12 403 154 771 452 1000 811 64 100 121 205 111 205 -4 0
-55 -16 -111 -35z"/>
<path d="M4414 5232 c-14 -9 -67 -113 -83 -164 -7 -20 -35 -74 -62 -120 -62
-102 -92 -159 -86 -164 2 -2 37 11 78 30 82 38 326 110 432 128 37 7 67 16 67
20 0 17 -125 151 -188 202 -84 68 -129 87 -158 68z"/>
<path d="M9117 5118 c-128 -131 -229 -273 -315 -444 -22 -43 -83 -189 -137
-324 -195 -493 -345 -721 -474 -720 -45 0 -108 29 -143 65 -37 36 -35 46 4 34
89 -25 155 2 183 75 71 184 -188 302 -319 145 -53 -62 -70 -109 -70 -184 0
-47 5 -80 16 -101 28 -51 106 -123 172 -157 119 -61 239 -39 391 75 94 70 171
144 273 263 235 274 415 623 477 920 21 103 33 399 16 409 -7 5 -36 -17 -74
-56z"/>
<path d="M1023 5094 c-10 -27 6 -324 22 -404 97 -479 526 -1092 881 -1257 89
-42 177 -39 261 6 72 39 143 105 169 158 27 54 25 155 -3 209 -70 133 -187
182 -292 123 -57 -31 -82 -66 -88 -121 -7 -60 25 -122 72 -145 29 -14 45 -15
95 -7 33 6 60 7 60 4 0 -14 -68 -70 -102 -84 -176 -74 -321 128 -588 814 -64
164 -131 298 -209 416 -65 97 -204 261 -245 288 -24 15 -27 15 -33 0z"/>
<path d="M5350 4921 c0 -9 292 -288 447 -429 196 -178 426 -335 803 -551 237
-136 759 -399 855 -431 82 -28 186 -32 257 -10 37 11 59 12 99 4 40 -9 52 -8
56 2 15 40 -108 214 -244 344 -238 228 -844 578 -1338 773 -196 77 -935 313
-935 298z"/>
<path d="M4682 4840 c-461 -131 -626 -191 -898 -329 -405 -204 -1064 -616
-1216 -759 -82 -78 -101 -108 -123 -192 -12 -48 -26 -75 -53 -103 -36 -38 -37
-39 -17 -54 43 -32 339 7 496 66 97 37 447 214 604 306 357 209 649 426 984
734 214 195 409 380 401 380 -3 0 -83 -22 -178 -49z"/>
<path d="M5321 4773 c-14 -28 -51 -151 -67 -226 -19 -94 -18 -150 5 -178 l18
-23 129 13 c71 7 185 13 254 14 l125 2 -70 50 c-78 55 -293 261 -340 324 -34
46 -40 48 -54 24z"/>
<path d="M4855 4689 c-46 -62 -277 -282 -344 -327 -33 -22 -57 -43 -54 -46 4
-3 67 -6 142 -6 74 0 184 -5 244 -12 109 -12 109 -12 128 11 23 29 24 84 4
181 -19 91 -67 233 -80 237 -5 1 -23 -16 -40 -38z"/>
<path d="M5290 4251 c0 -30 247 -220 368 -284 211 -111 588 -195 962 -213 170
-8 169 -12 29 92 -296 220 -638 356 -1004 399 -145 17 -355 20 -355 6z"/>
<path d="M4601 4189 c-271 -29 -571 -124 -803 -255 -97 -55 -236 -149 -293
-198 l-40 -35 66 -1 c326 -1 814 96 1034 208 116 58 375 253 375 283 0 11
-222 10 -339 -2z"/>
<path d="M5220 4165 c-16 -42 -33 -244 -28 -334 6 -99 26 -147 63 -157 17 -4
70 8 155 35 71 23 180 51 242 62 62 11 130 25 151 31 l38 11 -108 52 c-111 53
-419 252 -462 299 -30 32 -39 33 -51 1z"/>
<path d="M4959 4104 c-42 -46 -363 -252 -469 -303 l-103 -48 69 -17 c38 -9
108 -23 157 -31 48 -8 143 -34 211 -56 141 -47 166 -46 192 3 40 77 19 478
-24 478 -5 0 -19 -12 -33 -26z"/>
<path d="M5880 3729 c-177 -19 -480 -86 -539 -119 -19 -10 99 -70 284 -143
163 -64 291 -104 465 -146 263 -64 274 -65 675 -66 318 0 383 -3 466 -19 133
-26 154 -21 239 64 39 39 70 74 70 79 0 5 -14 21 -32 36 -128 108 -581 243
-1008 300 -141 19 -504 27 -620 14z"/>
<path d="M3910 3664 c-409 -36 -858 -143 -1094 -260 -67 -34 -126 -78 -126
-96 0 -15 129 -138 155 -148 38 -14 84 -12 162 7 57 13 132 16 453 18 374 1
389 2 520 28 169 33 348 82 513 140 139 50 407 166 407 177 0 17 -279 89 -446
116 -95 15 -447 26 -544 18z"/>
<path d="M5226 3554 c-18 -47 9 -433 33 -457 13 -13 109 18 211 68 36 18 122
51 191 74 130 43 185 70 143 71 -59 1 -350 128 -498 218 -37 23 -69 42 -71 42
-2 0 -6 -7 -9 -16z"/>
<path d="M4965 3494 c-72 -55 -382 -202 -491 -233 l-69 -19 47 -20 c26 -11 84
-32 130 -47 46 -14 126 -45 178 -69 137 -62 198 -82 211 -69 15 15 28 118 35
279 7 134 2 194 -14 194 -4 0 -16 -8 -27 -16z"/>
<path d="M7632 3364 c-141 -71 -193 -263 -99 -362 44 -46 78 -62 133 -62 60 0
108 29 135 82 27 52 20 92 -26 149 -19 24 -32 45 -30 47 11 11 77 -12 113 -38
57 -41 75 -80 70 -149 -12 -143 -132 -344 -418 -701 -161 -201 -256 -343 -320
-475 -45 -94 -110 -279 -123 -352 l-6 -33 67 34 c188 95 393 270 528 451 297
400 485 975 403 1228 -33 100 -176 196 -306 204 -59 4 -75 1 -121 -23z"/>
<path d="M2405 3312 c-115 -40 -203 -115 -227 -194 -19 -62 -16 -247 5 -348
41 -195 155 -481 275 -685 163 -279 404 -515 654 -641 l67 -34 -5 33 c-15 77
-88 282 -134 372 -69 136 -153 258 -330 480 -337 424 -451 656 -380 772 25 41
86 82 136 90 l38 6 -30 -39 c-46 -59 -57 -83 -51 -120 12 -75 73 -124 152
-124 53 0 89 16 126 57 40 43 49 66 49 130 0 72 -32 143 -86 195 -72 68 -158
85 -259 50z"/>
<path d="M6040 3234 c-280 -33 -502 -93 -717 -194 -53 -25 -83 -44 -77 -50 13
-12 166 -56 266 -75 233 -45 490 -20 836 79 145 42 437 156 425 166 -11 10
-123 37 -234 55 -90 15 -423 28 -499 19z"/>
<path d="M3830 3163 c-130 -13 -380 -61 -380 -72 0 -7 67 -36 205 -88 314
-121 664 -192 885 -179 155 8 440 73 443 101 2 13 -182 94 -315 139 -122 41
-307 80 -450 95 -91 10 -309 12 -388 4z"/>
<path d="M7095 3135 c-207 -34 -574 -140 -777 -224 -231 -97 -473 -224 -658
-346 -86 -56 -249 -194 -259 -218 -5 -14 320 -1 474 18 250 31 490 84 660 146
50 18 172 74 271 124 224 114 323 157 477 206 178 58 217 89 182 143 -10 14
-22 47 -29 72 -18 72 -46 88 -159 91 -50 1 -132 -4 -182 -12z"/>
<path d="M2867 3075 c-48 -17 -46 -13 -62 -75 -7 -28 -21 -62 -30 -76 -36 -55
11 -87 234 -160 95 -31 211 -82 386 -169 137 -68 298 -140 356 -160 172 -57
429 -110 654 -135 111 -13 435 -25 435 -17 0 11 -122 122 -192 175 -138 104
-462 280 -703 382 -139 59 -392 142 -565 184 -255 62 -433 80 -513 51z"/>
<path d="M5247 2914 c-10 -11 -9 -107 3 -204 21 -162 52 -241 98 -248 28 -4
69 24 157 108 39 36 116 99 172 140 56 40 100 76 98 80 -2 4 -44 10 -92 13
-129 9 -337 65 -424 114 -3 2 -8 0 -12 -3z"/>
<path d="M4919 2823 c-68 -35 -270 -83 -384 -91 l-99 -7 104 -75 c58 -41 138
-106 180 -145 94 -89 134 -117 162 -113 47 7 79 89 98 258 13 106 10 193 -5
195 -5 1 -31 -9 -56 -22z"/>
<path d="M7482 2815 c-195 -67 -433 -217 -587 -369 -135 -134 -192 -210 -457
-608 -193 -289 -221 -337 -199 -331 68 16 233 79 312 118 200 101 371 238 603
484 227 241 376 416 501 586 l87 120 -38 12 c-64 19 -142 15 -222 -12z"/>
<path d="M2526 2767 l-38 -12 72 -100 c217 -299 651 -767 855 -922 160 -121
321 -205 499 -262 54 -18 100 -30 101 -29 1 2 -39 63 -89 135 -50 73 -145 214
-211 314 -168 256 -254 369 -370 484 -119 119 -248 212 -405 294 -197 102
-311 129 -414 98z"/>
<path d="M6845 2575 c-355 -83 -667 -246 -942 -493 -101 -90 -278 -296 -259
-300 32 -7 264 40 365 74 167 55 316 144 531 317 102 82 420 398 420 417 0 13
4 13 -115 -15z"/>
<path d="M3270 2531 c0 -17 291 -310 389 -392 210 -176 396 -289 564 -344 107
-34 331 -80 363 -73 24 5 -173 225 -297 332 -269 231 -601 399 -924 466 -27 5
-60 12 -72 15 -13 3 -23 1 -23 -4z"/>
<path d="M5881 2289 c-94 -27 -250 -42 -378 -37 -62 3 -113 2 -113 -3 0 -5 11
-38 25 -74 50 -133 159 -315 188 -315 7 0 47 53 90 118 42 64 117 162 167 217
74 82 104 121 88 114 -2 -1 -32 -10 -67 -20z"/>
<path d="M4280 2241 c0 -3 41 -51 90 -106 50 -55 125 -153 167 -217 43 -65 83
-118 89 -118 19 0 70 69 119 162 40 76 95 206 95 227 0 5 -51 6 -113 3 -126
-5 -283 10 -382 37 -36 10 -65 16 -65 12z"/>
<path d="M7166 2033 c-151 -102 -303 -272 -395 -445 -40 -73 -106 -237 -98
-244 2 -2 39 17 83 43 151 88 280 243 389 468 46 95 100 226 92 225 -1 0 -33
-21 -71 -47z"/>
<path d="M3011 1953 c33 -92 123 -271 180 -358 72 -110 186 -221 283 -278 44
-26 81 -45 83 -43 6 5 -47 147 -79 211 -99 198 -272 390 -460 508 l-28 17 21
-57z"/>
<path d="M6231 1884 c-101 -68 -360 -174 -425 -174 -36 0 -33 -17 12 -59 64
-61 235 -141 302 -141 40 0 57 26 79 125 26 114 33 137 65 209 15 32 26 62 24
67 -2 5 -27 -7 -57 -27z"/>
<path d="M3940 1850 c0 -6 13 -40 29 -75 16 -36 42 -115 57 -177 29 -123 43
-148 84 -148 64 0 226 74 300 137 47 40 52 63 14 63 -63 0 -324 105 -416 167
-62 43 -68 45 -68 33z"/>
<path d="M6679 1610 c-45 -34 -343 -160 -378 -160 -15 0 -21 -4 -15 -9 13 -13
313 -105 320 -99 3 4 15 42 25 85 11 43 31 95 45 116 29 44 47 87 36 87 -4 0
-19 -9 -33 -20z"/>
<path d="M3530 1535 c5 -13 21 -41 34 -62 14 -21 34 -73 45 -117 11 -43 22
-81 25 -84 5 -5 239 64 306 90 23 9 21 11 -30 24 -30 8 -103 37 -162 64 -59
28 -110 50 -115 50 -5 0 -30 14 -56 30 -26 17 -50 30 -52 30 -3 0 0 -11 5 -25z"/>
</g>
</svg>
