<svg xmlns="http://www.w3.org/2000/svg" xmlns:xlink="http://www.w3.org/1999/xlink" width="2048" height="2048" viewBox="0 0 2048 2048">
  <defs>
    <style>
      .cls-1 {
        fill-rule: evenodd;
        fill: url(#linear-gradient);
      }
    </style>
    <linearGradient id="linear-gradient" x1="1024.438" y1="23.938" x2="1024.438" y2="2024.25" gradientUnits="userSpaceOnUse">
      <stop offset="0" stop-color="#dcd388"/>
      <stop offset="0.501" stop-color="#fff494"/>
      <stop offset="0.629" stop-color="#dcd388"/>
      <stop offset="0.894" stop-color="#aca45f"/>
      <stop offset="1" stop-color="#aca45f"/>
    </linearGradient>
  </defs>
  <path id="Фигура_1_копия" data-name="Фигура 1 копия" class="cls-1" d="M955.223,26.247A1006.5,1006.5,0,0,0,517.174,162.034c-113.517,67-216.75,159.505-295.856,265.644C67.655,633.631-.376,892.16,31.662,1148.71c45.09,361.31,283,668.66,622.761,804.84,284.187,114.04,612.077,88.94,877.287-67.2,74.55-43.88,136.45-92.11,199.74-155.55,114.5-114.25,194.01-243.51,244.24-396.3,101.45-308.53,44.1-653.235-151.69-911.566-54.78-72.34-125.58-143.1-197.37-197.454C1435.99,81.392,1195.11,9.842,955.223,26.247ZM911.714,204.332c0.2,30.833,10.68,60.283,26.9,74.514,6.131,5.337,13.844,9.487,24.919,13.243,25.907,8.5,33.224,17.591,44.891,55.342,10.68,34.59,15.43,32.811,27.89-10.08,9.88-33.8,12.85-37.158,43.5-48.227,23.54-8.5,35.21-18.381,53.4-44.867,15.82-23.125,31.25-39.925,40.94-44.867,5.54-2.965,7.51-2.767,31.44,2.57,237.91,52.377,441.22,205.162,559.28,420.405q77.13,140.828,97.3,311.894c4.95,41.507,4.95,138.361,0,179.861-6.72,58.11-17.01,107.72-33.03,159.11-9.09,29.85-26.3,76.3-29.26,79.66-0.8.79-6.73-1.59-13.25-5.54-23.54-14.23-54.19-19.96-74.56-14.03-8.11,2.37-14.44,6.13-23.54,14.23-6.92,5.93-15.03,12.25-17.99,13.83-9.69,5.14-22.75,5.34-43.91.8-30.25-6.53-36.39-6.92-37.77-3.36-1.58,4.15,4.55,12.65,23.34,32.41,22.54,23.52,24.12,29.25,18.19,61.87-4.55,25.49-2.57,35.57,14.24,71.15,11.27,24.11,17.6,45.06,15.62,51.39-1.78,5.53-63.68,67.6-88.79,88.94-118.07,100.01-257.69,165.04-407.4,189.55-56.56,9.29-76.73,10.87-139.62,10.87s-83.061-1.58-139.622-10.87c-172.648-28.26-330.662-109.7-455.847-234.81-23.336-23.52-61.109-65.22-61.109-67.79,0-.6,4.351-3.76,9.69-7.12,12.657-8.3,30.06-27.28,35.993-39.33,5.142-10.48,5.933-25.1,2.769-54.36-1.384-13.44-.989-16.01,2.769-23.91,2.373-4.94,12.261-17.99,21.952-28.86,9.888-11.07,17.8-21.35,17.8-22.93,0-6.32-13.25-5.53-43.508,2.77-26.7,7.51-34.213,5.73-57.154-13.44-8.108-6.72-17.007-13.44-19.776-15.02-10.482-5.34-27.489-8.9-52.8-10.87-14.239-1.19-30.456-3.36-35.993-4.94l-9.889-2.97-6.328-16.4c-9.691-25.3-24.721-76.69-31.247-107.13-12.657-58.31-17.8-100.8-19.381-161.09A835.637,835.637,0,0,1,343.537,528.678c50.43-69.178,116.483-135.194,184.91-185,97.7-70.957,213.981-122.346,327.893-144.483C917.45,187.333,911.714,186.74,911.714,204.332Zm304.556,76.1c-76.73,7.511-137.25,27.672-160.58,53.564-19.98,22.137-17.01,67.2,5.73,87.165,22.94,20.16,65.86,13.242,75.55-12.255,1.18-3.162,2.17-10.278,2.17-16.01,0-18.974-13.84-31.822-32.23-30.24-11.67.988-18,6.522-22.74,19.567-1.78,5.139-3.96,9.487-4.75,9.487-2.37,0-4.55-10.08-4.35-20.951,0-14.231,5.34-22.334,18.59-28.857,25.31-12.65,75.35-11.661,166.12,2.965,34.81,5.534,42.72,6.127,82.07,6.127,45.69,0,57.75-1.581,89.59-11.068l14.44-4.151-13.45-8.7c-39.55-25.694-84.05-40.518-138.83-46.053C1274.61,279.242,1232.29,278.846,1216.27,280.427ZM745.79,283.2c-52.21,5.929-97.1,20.951-135.271,45.855l-13.448,8.7,14.437,4.151c31.84,9.487,43.9,11.069,89.587,11.069,39.355,0,47.266-.593,82.072-6.127,90.774-14.627,140.809-15.615,166.123-2.965,13.25,6.522,18.59,14.626,18.59,28.857,0.2,10.871-1.978,20.951-4.351,20.951-0.791,0-2.967-4.348-4.747-9.487-4.746-13.045-11.074-18.58-22.743-19.568-11.47-.988-21.16,3.558-27.884,13.44-3.956,5.732-4.549,8.7-3.956,19.766,0.594,10.673,1.78,14.428,6.131,20.358,15.426,20.16,51.221,22.73,71.195,4.941,22.745-19.963,25.705-65.027,5.735-87.164s-66.646-40.124-129.931-50.006C833.4,282.206,768.731,280.625,745.79,283.2ZM1150.02,358.5c4.15,19.172,18.99,36.368,50.23,57.121a343,343,0,0,0,83.06,41.309c36.99,12.453,65.27,16.208,175.22,22.73,27.3,1.779,52.81,3.558,56.96,4.349,3.96,0.593,7.32.2,7.32-.791s-7.72-8.5-17.01-16.6c-49.44-43.088-96.51-64.632-186.29-85.583-62.1-14.626-112.14-23.323-157.23-27.869l-13.64-1.383Zm-272.914-2.965c-38.96,4.546-60.121,7.709-85.039,12.65-140.413,27.473-196.38,49.61-254.919,100.407-9.3,8.1-17.007,15.614-17.007,16.6,0,0.79,3.757,1.186,8.5.593,14.437-1.779,32.434-3.163,85.435-6.128,80.885-4.546,113.714-9.487,149.707-21.939,37.774-13.243,87.61-42.1,108.573-62.853,9.889-9.883,18.392-24.114,20.568-34.392C894.311,353.559,893.916,353.361,877.106,355.535Zm488.474,3.953c-33.22,3.953-38.56,5.139-36.58,7.511,3.16,3.953,38.56,17.986,56.36,22.532,21.16,5.139,43.31,8.1,62.89,8.1,18,0,54.58-4.941,57.35-7.708,2.57-2.57-23.93-16.8-42.12-22.928a218.186,218.186,0,0,0-31.64-6.918C1416.21,358.3,1378.83,357.907,1365.58,359.488Zm-757.434,2.767a206.241,206.241,0,0,0-28.676,6.72c-18.194,6.128-44.7,20.359-42.124,22.928,2.769,2.767,39.355,7.708,57.352,7.708,19.578,0,41.728-2.964,62.889-8.1,16.612-4.349,46.079-15.615,54.385-21.149,4.944-3.162,4.944-3.162-8.9-5.732C684.681,361.267,625.549,359.883,608.146,362.255Zm403.834,41.7c-9.69,13.045-20.764,38.74-28.279,66.015-8.5,31.229-11.471,70.562-11.471,150.018,0,85.583,3.956,130.055,17.8,200.617,7.318,38.344,33.031,148.239,34.411,148.239s24.13-89.339,31.64-123.73c14.04-65.226,17.6-192.909,8.9-317.034-4.74-66.016-9.49-84-27.49-101-5.53-5.337-10.68-12.65-12.85-18.579-1.98-5.337-4.55-10.08-5.74-10.476S1014.75,400.4,1011.98,403.96Zm-486.895,0c-1.385,4.348-12.855,58.505-12.855,60.877,0,1.383,3.56-1.186,7.713-5.535s13.25-11.661,20.172-16.405,17.6-12.254,23.731-16.6a131.385,131.385,0,0,1,17.4-10.87c8.9-3.558,4.351-5.93-12.064-5.93a103.915,103.915,0,0,1-25.709-3.953C528.842,401,526.271,400.8,525.085,403.96Zm972.015,1.581c-6.13,2.174-16.81,3.755-24.72,3.953-17.01,0-21.56,2.372-12.66,5.93a131.456,131.456,0,0,1,17.4,10.87c6.13,4.349,16.81,11.86,23.74,16.6s16.01,12.057,20.17,16.405,7.71,6.72,7.71,5.337c0-1.581-2.97-16.208-6.53-32.415C1514.9,398.623,1515.49,399.414,1497.1,405.541Zm-347.67,6.325a7.808,7.808,0,0,0-2.38,4.546c0,1.186-3.95,6.127-8.9,10.871-10.87,10.673-11.27,15.219-2.96,32.415,18.79,38.937,96.9,117.6,164.14,165.236,49.05,34.787,104.82,65.226,139.03,76.1,12.07,3.756,22.15,6.721,22.35,6.325,1.19-1.186-29.86-50.8-44.89-71.55-31.45-43.681-71.59-87.955-101.65-111.673-8.71-6.918-31.45-22.73-50.43-35.182-36.79-24.113-53.6-36.763-76.74-58.307-13.84-12.65-26.89-21.149-32.63-21.149A8.206,8.206,0,0,0,1149.43,411.866Zm-270.742,2.767c-3.56,1.779-15.228,10.871-25.71,20.358-25.907,22.73-38.366,32.217-68.822,51.785-35.2,22.73-50.627,33.6-69.811,49.808-26.3,22.137-66.053,67.2-93.938,106.732-13.25,18.579-41.135,63.249-40.146,64.237,0.395,0.2,11.273-2.965,24.127-7.116,36.389-12.056,67.834-28.659,122.417-64.829,44.1-29.055,70.206-50.2,109.561-88.746,47.859-46.843,73.371-80.247,76.733-100.6,0.989-6.72.395-8.1-7.318-16.01A86.343,86.343,0,0,1,895.1,417.2C892.333,411.273,886.994,410.482,878.688,414.633Zm80.688,29.45c-3.56,1.581-8.109,2.965-9.889,2.965-8.5,0-18.194,4.546-22.94,10.871-2.769,3.557-8.109,15.021-11.668,25.5-7.318,20.951-11.471,28.462-38.367,72.34-32.631,52.971-46.474,83.607-61.307,135.589-12.261,42.3-20.765,90.13-25.314,139.147l-1.186,14.627,14.437-13.441c63.68-58.9,109.363-134.6,144.17-238.565,20.37-60.482,32.038-127.288,25.512-145.868C970.451,440.328,968.868,440.13,959.376,444.083Zm110.744,3.162c-4.74,13.836-.39,50.2,11.67,97.64,13.65,53.564,29.86,97.443,53.6,145.275,28.47,56.923,61.5,101.79,104.42,141.518l14.43,13.441-1.18-14.627c-4.55-49.017-13.06-96.849-25.32-139.147-14.83-51.982-28.67-82.618-61.3-135.589-26.9-43.878-31.05-51.389-38.37-72.34-3.56-10.476-8.9-21.94-11.67-25.5-4.75-6.325-14.44-10.871-22.94-10.871-1.78,0-6.53-1.384-10.28-2.965C1073.29,439.932,1072.69,440.13,1070.12,447.245ZM747.372,469.778C679.539,485.2,608.146,515.04,571.559,542.909c-13.052,10.08-47.859,46.053-57.154,59.1l-6.526,9.487,9.493-1.383c78.512-10.871,159.991-48.425,219.321-101.2,21.952-19.568,46.277-46.053,42.321-45.855C777.432,463.058,763.193,466.022,747.372,469.778Zm526.448,7.313c61.11,68.98,158.02,120.172,251.76,133.02l9.49,1.383-6.53-9.685c-3.76-5.139-18.79-21.544-33.42-36.17-20.37-20.358-30.65-29.055-43.51-36.566-41.53-24.113-105.6-48.424-159.59-60.086-15.43-3.36-28.68-6.127-29.27-6.127C1261.96,462.86,1267.1,469.185,1273.82,477.091ZM513.812,496.658c-10.284,5.93-15.623,65.819-6.922,77.875,2.176,2.965,4.153,1.582,17.206-11.266,16.019-15.614,42.915-34.984,63.087-44.867,6.724-3.558,12.063-6.72,11.866-6.918-0.4-.4-9.295-1.779-19.579-2.964a232.116,232.116,0,0,1-37.575-8.1C521.327,493.891,518.756,493.694,513.812,496.658ZM1495.12,501.6c-12.46,3.557-29.47,7.115-37.58,8.1l-14.83,1.779,12.86,6.523c20.76,10.673,47.26,29.845,63.28,45.262,13.05,12.848,15.03,14.231,17.21,11.266,8.9-12.254,3.36-72.34-7.32-78.072C1523.6,493.694,1521.03,494.089,1495.12,501.6ZM852.385,553.385c-46.079,34.193-96.114,82.42-124.2,119.974a252.307,252.307,0,0,0-39.751,76.1c-4.746,15.022-12.063,44.076-12.063,48.622,0,0.593,6.526-3.557,14.634-8.894,60.121-40.519,111.935-101.2,142.786-167.411,8.5-18.184,27.687-71.55,26.105-72.933C859.505,548.443,856.143,550.617,852.385,553.385Zm333.435-.2c3.56,14.033,17.79,52.773,26.3,70.759,30.85,65.225,82.07,124.916,141.8,165.237,8.1,5.337,14.63,9.487,14.63,8.894,0-4.546-7.32-33.6-12.06-48.622a252.507,252.507,0,0,0-39.75-76.1c-27.89-36.961-78.52-86.571-118.86-115.824C1184.83,547.85,1184.63,547.85,1185.82,553.187ZM599.444,613.075a400.971,400.971,0,0,1-53,6.918c-19.776.988-26.9,2.174-27.687,4.151-1.384,3.558,9.3,26.09,19.579,41.111,9.1,13.638,24.918,32.811,26.9,32.811,0.791,0,4.351-6.523,7.91-14.429,7.318-16.4,25.71-42.693,43.706-62.656,6.724-7.708,11.669-13.835,10.68-13.637C626.736,607.344,614.079,609.913,599.444,613.075Zm826.656,8.1c21.75,25.1,42.12,55.738,47.07,71.352,1.38,4.151,3.16,7.511,4.15,7.511,2.77,0,15.43-15.614,27.69-34,12.26-18.579,20.96-37.356,19.18-41.9-0.79-1.977-7.91-2.965-27.49-3.953-21.55-1.186-62.89-7.709-79.5-12.452C1415.03,607.146,1418.59,612.482,1426.1,621.179Zm-481.161,17.2c-22.15,42.5-38.366,84.2-49.046,126.7-8.306,33.6-10.679,52.97-9.3,79.06,1.187,22.73,8.109,64.83,11.273,67.992,1.978,2.175,19.381-26.683,29.467-48.424,27.291-59.3,38.366-108.313,38.564-172.55,0.2-36.566-3.362-78.073-6.526-78.073C958.782,613.075,952.256,624.342,944.939,638.375Zm134.681-5.93c-3.96,27.671-3.56,90.92.79,117.208,8.11,49.215,25.71,99.419,48.85,139.937,7.31,12.65,13.84,22.928,14.83,22.928,2.17,0,4.15-7.116,7.91-28.66,4.55-24.9,5.93-59.691,3.16-79.258-5.14-35.38-20.96-87.56-39.35-129.857-8.9-20.161-29.27-58.9-31.84-60.482C1082.98,613.668,1081,621.772,1079.62,632.445ZM670.442,695.1c-12.46,5.732-29.863,12.452-38.564,14.824-18.2,4.941-32.434,11.464-35.2,16.01-3.362,5.534.4,13.242,11.866,24.508,12.262,12.255,51.221,39.135,54.781,37.949,1.187-.4,2.769-7.313,3.56-15.614,1.78-20.556,14.437-58.307,28.873-87.164C696.942,683.242,693.778,684.428,670.442,695.1Zm676.748-9.487c14.44,28.857,27.1,66.608,28.88,87.164,0.79,8.3,2.37,15.219,3.56,15.614,3.56,1.186,42.51-25.694,54.78-37.949,11.47-11.266,15.22-18.974,11.86-24.508-2.57-4.349-16.81-10.871-34.41-15.615-8.11-2.372-25.91-9.092-39.55-15.022C1346.2,683.439,1346.01,683.439,1347.19,685.614Zm-88.99,58.109c4.35,17.789,7.51,48.622,8.5,83.607,0.4,15.021,1.19,27.671,1.58,28.264,4.16,4.151,76.54-44.472,76.54-51.587,0-2.767-25.12-24.114-37.58-31.822-4.94-3.162-14.24-10.673-20.76-16.8-14.44-13.441-28.88-25.695-30.66-25.695C1255.03,729.69,1256.22,736.015,1258.2,743.723Zm-481.163-4.744c-4.747,3.954-14.042,12.255-20.568,18.382S740.648,771,735.7,774.161c-12.459,7.709-37.575,29.055-37.575,31.823,0,7.115,72.381,55.737,76.535,51.587,0.395-.593,1.186-13.243,1.582-28.265,0.988-34.984,4.153-65.818,8.5-83.606,1.977-7.709,3.164-14.034,2.373-14.034S781.981,735.026,777.037,738.979Zm85.83,53.366c-7.318,8.5-25.71,27.474-40.74,42.1-18.788,18.58-27.094,28.067-27.094,31.032,0,9.882,24.919,27.276,61.9,43.088,25.116,10.871,28.082,11.266,26.3,2.372-4.548-22.335-5.933-41.507-6.13-84.793,0-27.078-.2-49.018-0.4-49.018S870.382,784.044,862.867,792.345Zm304.953,33.4c-0.2,43.681-1.58,62.655-6.13,85.188-1.78,8.894,1.19,8.5,26.3-2.372,36.98-15.812,61.9-33.206,61.9-43.088,0-2.965-8.3-12.452-27.09-31.032-15.03-14.626-33.42-33.8-41.14-42.3l-13.84-15.615v49.216Zm385.05-27.869c-9.1,1.383-17.6,3.558-18.59,4.546-1.39,1.383,0,4.546,4.55,10.08,12.26,14.231,39.35,75.108,39.35,88.35,0,7.116,3.56-.593,11.87-25.892a475.6,475.6,0,0,1,20.37-49.808c6.52-13.441,11.47-24.707,10.87-25.5C1616.15,794.717,1579.76,793.729,1552.87,797.88Zm83.06,2.174c-3.76,7.313-14.24,38.937-19.18,57.912a417.427,417.427,0,0,0,3.75,217.814c9.3,31.82,8.51,31.42,16.42,8.69,18.59-54.55,28.87-112.854,29.07-167.011,0.2-33.4-.2-38.344-5.14-57.319-5.34-21.346-14.44-48.029-19.78-58.11C1638.3,796.5,1637.91,796.5,1635.93,800.054ZM431.542,810.727c-3.56.791-7.12,2.174-7.713,2.767-0.791.593,4.549,13.441,11.668,28.462a478.487,478.487,0,0,1,20.568,49.808c7.317,22.928,10.679,30.043,10.679,22.533,0-13.638,26.1-72.736,38.762-87.56,4.944-5.732,6.526-9.092,5.142-10.476C505.308,810.925,447.956,806.774,431.542,810.727Zm1030.948,2.767c-16.61,5.337-45.68,18.777-52.01,24.114l-4.75,3.953,11.27,7.708c14.04,9.685,43.31,40.716,55.77,59.1l9.5,14.033,0.59-8.894c1.19-18.975,6.52-55.145,9.29-63.051a105.12,105.12,0,0,0,4.16-21.149c1.18-10.673.79-13.44-2.18-16.6C1489.38,807.565,1480.09,807.762,1462.49,813.494ZM399.9,824.958c-23.732,57.121-27.49,105.744-14.042,185.992,6.527,39.73,25.908,108.51,29.467,104.95,0.989-.99,4.944-12.45,8.7-25.5,23.732-82.81,22.15-167.8-4.746-248.839C407.81,807.169,407.415,806.774,399.9,824.958Zm1114.21,0c-1.78,7.906-4.36,19.765-5.74,26.288-3.76,18.184-2.97,117.01,1.38,154.164,10.68,93.49,42.92,198.45,67.44,220.19,8.11,7.11,9.3,7.11,20.97,3.16,4.74-1.78,10.87-2.57,13.84-1.98,4.15,0.99,6.13.2,8.5-3.36,4.35-6.12,3.96-15.61-1.58-41.7-7.12-33.4-8.7-46.25-11.07-89.34-0.99-21.74-2.97-47.63-4.16-57.32-4.74-37.552-22.74-97.44-44.49-146.656-11.47-26.287-38.37-77.677-40.55-77.677C1517.86,810.727,1515.89,817.25,1514.11,824.958ZM1665.2,814.68c0,1.186,1.18,4.546,2.77,7.709,5.14,9.684,9.49,38.146,10.48,69.771l1.18,30.833,10.29-13.242c5.73-7.511,18.19-20.951,27.49-29.846,20.96-20.16,21.36-22.334,6.72-36.368C1704.75,824.958,1665.2,805.588,1665.2,814.68ZM552.772,826.539c-2.967,3.163-3.362,6.128-2.373,16.208a108.856,108.856,0,0,0,4.153,20.951c2.768,7.708,8.306,44.471,9.492,64.434l0.594,7.709,9.69-14.231c12.261-18.184,41.531-48.82,55.374-58.5,6.131-4.151,11.075-8.3,11.075-9.29,0-2.372-42.717-22.532-58.143-27.078C565.626,821.4,557.32,821.4,552.772,826.539Zm-31.247,5.534c-17.206,27.079-46.87,93.687-60.516,135.392-15.426,47.435-20.568,75.3-22.941,122.935-2.175,45.46-4.944,70.57-11.075,100.81-8.306,40.12-6.724,51.98,6.131,49.41,2.769-.59,8.9.2,13.646,1.98,11.866,4.15,13.052,3.95,21.754-3.96,21.952-19.76,53-117.4,64.273-201.6,8.9-66.215,9.1-148.438.4-188.561-2.769-12.255-5.34-22.928-5.933-23.323C526.865,824.563,524.1,827.725,521.525,832.073Zm-157.619-2.767c-21.951,8.3-53.4,33.6-53.4,43.088,0,3.361,5.537,10.278,18.788,23.126,10.283,10.278,22.545,23.718,27.093,30.043l8.5,11.464L366.28,906c1.186-31.822,4.746-55.342,10.283-68.585,1.78-3.953,3.165-8.1,3.165-9.092C379.728,825.749,372.015,826.342,363.906,829.306Zm597.052,22.928c-3.955,5.93-9.888,16.207-13.25,22.73a121.646,121.646,0,0,1-12.262,19.765c-11.866,14.824-21.754,30.438-21.754,34.391,0,6.523,13.844,15.022,35.2,21.742,20.568,6.325,43.311,11.266,45.09,9.487,0.594-.592-1.582-8.5-4.746-17.393-8.306-23.52-18.194-66.411-19.974-85.385l-1.384-16.208Zm112.332,6.127c-1.39,18.184-11.87,63.644-20.17,86.374-2.97,8.1-4.75,15.022-4.16,15.614,1.78,1.779,24.33-2.964,45.09-9.487,21.36-6.72,35.21-15.219,35.21-21.742,0-3.953-9.69-19.567-21.56-34.193-3.36-4.349-10.28-15.417-15.23-24.9s-11.07-19.766-13.45-22.73l-4.55-5.535Zm318.99-5.732c0.2,12.452,5.54,51.983,9.89,71.748,15.43,70.364,53.2,142.113,100.47,190.733l14.43,14.82-1.18-8.89c-8.31-68.98-23.54-128.473-45.09-175.91-13.85-30.833-38.17-63.248-64.87-86.966l-13.65-12.255v6.72ZM632.669,880.1c-40.938,40.123-61.7,76.491-81.875,143.887-10.086,33.8-25.116,115.23-21.754,118.4,0.593,0.59,7.119-5.34,14.437-13.44,62.889-68.59,99.871-150.614,109.166-241.929,1.384-12.452,1.977-23.719,1.582-25.1C653.829,860.733,644.139,868.837,632.669,880.1Zm715.511-8.3c-24.13,10.87-49.44,25.1-53.79,29.845-2.77,3.162-1.58,4.348,14.44,13.638,23.73,13.638,57.74,37.356,74.16,51.982l13.45,11.859-1.39-8.5c-0.59-4.743-2.97-16.207-4.94-25.5a365.382,365.382,0,0,1-5.94-37.554c-2.96-31.228-6.13-44.471-10.68-44.867C1371.32,862.314,1360.05,866.465,1348.18,871.8Zm389.6,6.127c-2.77,5.929-18.39,37.949-34.81,70.759-30.85,62.462-46.47,99.022-53.59,125.9-7.32,28.07-10.49,60.09-9.3,92.9,1.98,48.03,7.12,67.4,22.55,82.81l7.51,7.32,6.53-14.43c26.7-57.91,61.7-164.64,72.97-222.95,4.55-23.127,5.15-31.626,5.15-65.227,0-31.427-.6-42.1-3.96-58.307-2.37-10.871-5.14-21.94-6.13-24.707C1742.72,867.255,1742.52,867.453,1737.78,877.929Zm23.33-2.767c0.79,2.174,2.18,6.127,2.97,9.289,2.37,7.313,6.92,57.319,6.53,70.167-0.2,9.092.19,10.08,2.76,8.1,1.59-1.383,4.75-6.127,6.93-10.475,2.37-4.546,10.08-14.231,17.2-21.742l13.05-13.44L1788.8,896.31C1765.46,874.173,1758.34,868.837,1761.11,875.162Zm-1093.437,4.15c-2.967,9.488-5.142,23.521-6.922,42.3a370.117,370.117,0,0,1-5.933,37.356c-1.977,9.29-4.351,20.556-4.944,25.3l-1.186,8.5L664.9,978.533c17.206-14.823,62.3-45.855,78.908-54.156,5.34-2.767,9.691-5.732,9.691-6.523,0-3.755-34.214-22.532-63.878-35.182C671.826,874.964,669.057,874.569,667.673,879.312ZM298.842,899.077c-12.657,54.157-9.888,111.473,8.7,179.473,16.216,59.09,37.97,122.54,57.351,166.81l11.471,26.09,6.724-6.52c17.4-16.6,22.94-38.94,23.138-93.49,0.4-73.52-7.515-98.82-69.811-224.136-17.6-35.182-32.235-64.434-32.631-64.829C303.391,881.882,301.215,889.59,298.842,899.077Zm-37.18,6.128c-30.456,27.869-29.071,23.915-14.041,39.53,7.119,7.313,14.634,16.8,17.008,21.346,2.175,4.349,5.339,9.092,6.921,10.278,2.176,1.977,2.571.593,2.571-8.1-0.2-16.8,4.944-65.028,7.713-73.329,1.582-4.349,2.373-8.3,1.978-8.7S273.528,894.334,261.662,905.205ZM1248.11,922.4c-23.33,11.267-63.28,39.926-60.91,43.879,0.79,1.186,6.92,3.953,13.65,6.523,20.37,7.313,77.32,36.758,93.54,48.618,8.5,5.93,15.62,10.48,16.02,10.08s-4.16-14.62-9.89-31.62c-5.93-17-11.27-35.38-12.06-40.914-2.38-17.2-8.71-38.345-12.27-40.914C1270.66,913.9,1263.54,915.087,1248.11,922.4Zm48.06,3.163c15.82,71.747,36.78,120.767,76.34,179.667,47.06,69.97,128.35,152.59,167.7,170.37,12.66,5.74,14.44,4.55,18.59-11.26,7.71-28.46,7.12-31.43-12.66-53.76-11.47-13.05-22.94-30.64-38.17-58.9-29.86-55.15-46.47-80.45-71.78-108.71-34.81-39.14-82.47-81.435-124.6-110.687C1297.16,922.2,1295.38,921.412,1296.17,925.563Zm-527.242,4.151c-3.559,2.964-8.108,17.788-11.668,37.949-1.186,7.708-7.119,27.671-12.854,44.467-5.933,16.8-10.284,30.84-9.889,31.23s7.515-4.15,16.019-10.08c16.217-11.86,73.173-41.306,93.543-48.619,6.724-2.57,12.855-5.337,13.646-6.523,2.373-3.953-37.576-32.612-60.912-43.879C781.388,926.946,774.07,925.76,768.928,929.714ZM1799.08,950.269a246.187,246.187,0,0,0-39.75,73.921c-6.92,20.56-13.84,59.89-12.65,70.56,0.59,5.34.79,5.14,10.08-6.32,23.93-29.85,49.05-75.11,55.77-100.805,4.16-15.219,6.53-56.33,3.36-56.33C1814.71,931.3,1806.99,939.794,1799.08,950.269ZM730.76,948.1c-64.669,46.251-124.987,105.345-156.234,152.985-6.922,10.47-21.952,36.37-33.62,57.51-24.127,43.49-29.269,51.59-42.717,66.42-16.019,17.59-20.37,29.25-15.426,41.7a116.588,116.588,0,0,1,4.549,15.42c1.582,6.72,3.362,10.08,5.735,10.47,13.843,2.77,70.4-42.49,113.912-91.31,75.744-84.6,117.67-158.91,137.842-244.1,2.769-11.266,4.549-20.753,4.351-21.149C748.756,935.841,740.45,941.177,730.76,948.1ZM227.449,959.361c0,16.8,2.769,35.38,7.119,48.619,8.5,25.9,36.389,73.33,55.968,95.27l7.91,8.9,0.2-6.92c0-10.67-5.34-42.69-9.888-59.3-4.746-16.8-20.172-50.4-29.863-64.629-9.294-13.836-27.687-36.171-29.664-36.171C228.24,945.13,227.449,951.653,227.449,959.361Zm957.381,29.648c2.37,4.744,9.09,16.211,14.83,25.5,46.28,74.51,121.23,136.77,201.72,167.01l13.05,4.94-4.55-7.51c-12.26-20.55-35.99-54.94-49.83-72.34-19.98-25.1-53.8-59.89-73.18-75.5-23.33-18.58-71.39-42.1-100.86-49.216l-5.53-1.384Zm-36.98.791c-10.09,4.941-30.86,23.12-43.12,37.36-6.13,7.11-11.07,13.83-11.07,14.62s5.93,2.57,13.45,3.96c22.15,3.95,69.61,17.98,85.23,25.1,8.11,3.75,15.03,6.32,15.43,5.93,1.18-1.19-4.95-12.85-17.01-32.62-5.34-8.89-10.88-19.56-12.26-23.52-3.17-10.08-13.65-30.633-16.42-32.412C1158.72,985.847,1154.57,986.44,1147.85,989.8Zm-304.958,11.66c-24.127,8.1-58.934,25.5-75.15,37.55-41.531,30.44-97.1,96.26-133.689,158.72-0.989,1.38,3.362.59,11.075-2.37,79.7-30.44,152.476-89.34,197.764-160.3,12.657-19.76,23.93-40.517,21.952-40.517C864.053,994.543,853.967,997.706,842.892,1001.46Zm41.926,0.59c-2.768,1.78-13.25,22.34-16.414,32.42-1.384,3.95-6.922,14.63-12.261,23.72-12.262,20.16-18.2,31.42-17.008,32.41,0.395,0.4,7.317-2.17,15.425-5.93,16.217-7.51,64.472-21.74,85.435-25.3,7.317-1.38,13.25-3.16,13.25-3.95,0-3.36-24.721-29.85-37.18-39.93C899.453,1002.05,890.554,998.3,884.818,1002.05Zm930.092,22.54c-25.32,25.89-45.29,53.96-62.3,87.75-4.35,8.5-16.41,37.36-27.09,64.04-38.57,97.45-68.23,142.51-93.74,142.31-8.9,0-21.36-5.73-28.28-12.85-7.32-7.11-6.93-9.09.79-6.72,17.6,4.95,30.65-.39,36.19-14.82,14.04-36.37-37.18-59.69-63.09-28.66-10.48,12.26-13.84,21.55-13.84,36.37,0,9.29.99,15.81,3.16,19.96,5.54,10.08,20.96,24.31,34.02,31.03,23.53,12.06,47.26,7.71,77.32-14.82,18.59-13.84,33.82-28.46,53.99-51.98,46.48-54.16,82.07-123.14,94.34-181.84,4.15-20.36,6.52-78.87,3.16-80.84C1828.16,1012.53,1822.42,1016.88,1814.91,1024.59ZM214.2,1029.33c-1.978,5.34,1.186,64.04,4.35,79.85,19.184,94.68,104.025,215.84,174.231,248.45,17.6,8.3,35,7.71,51.617-1.19,14.239-7.7,28.28-20.75,33.422-31.23,5.34-10.67,4.944-30.63-.593-41.3-13.844-26.29-36.982-35.98-57.748-24.32-11.272,6.13-16.216,13.05-17.4,23.92-1.384,11.86,4.944,24.11,14.239,28.66,5.735,2.77,8.9,2.96,18.788,1.38,6.526-1.18,11.866-1.38,11.866-.79,0,2.77-13.448,13.84-20.172,16.61-34.807,14.62-63.483-25.3-116.286-160.89-12.657-32.42-25.907-58.9-41.333-82.23-12.854-19.17-40.344-51.58-48.452-56.92C215.979,1026.37,215.385,1026.37,214.2,1029.33Zm855.731,34.19c0,1.78,57.74,56.93,88.4,84.8,38.76,35.18,84.24,66.21,158.8,108.9,46.87,26.88,150.11,78.87,169.09,85.19,16.22,5.53,36.78,6.33,50.83,1.98,7.31-2.18,11.66-2.37,19.57-.79,7.92,1.78,10.29,1.58,11.08-.4,2.97-7.91-21.36-42.3-48.25-67.99-47.07-45.07-166.92-114.24-264.61-152.79C1216.07,1107.2,1069.93,1060.56,1069.93,1063.52Zm-132.111,16.01c-91.169,25.9-123.8,37.76-177.592,65.03-80.1,40.32-210.422,121.75-240.482,150.02-16.217,15.42-19.974,21.35-24.325,37.95-2.373,9.49-5.142,14.82-10.482,20.36-7.119,7.51-7.317,7.7-3.362,10.67,8.5,6.32,67.043-1.38,98.092-13.05,19.183-7.31,88.4-42.29,119.449-60.48,70.6-41.31,128.35-84.2,194.6-145.07,42.321-38.55,80.886-75.11,79.3-75.11C972.428,1069.85,956.607,1074.2,937.819,1079.53Zm126.371,13.25c-2.77,5.53-10.09,29.84-13.25,44.67-3.76,18.57-3.56,29.64.99,35.18l3.56,4.54,25.51-2.57c14.04-1.38,36.59-2.57,50.23-2.76l24.72-.4-13.84-9.88c-15.43-10.87-57.94-51.59-67.24-64.04C1068.15,1088.43,1066.96,1088.03,1064.19,1092.78Zm-92.157,16.6c-9.1,12.25-54.781,55.74-68.031,64.63-6.527,4.35-11.273,8.5-10.68,9.09,0.791,0.6,13.251,1.19,28.083,1.19,14.634,0,36.389.99,48.254,2.37,21.557,2.37,21.557,2.37,25.314-2.17,4.549-5.74,4.747-16.61.791-35.78-3.757-17.98-13.25-46.05-15.821-46.84C978.954,1101.67,975.4,1105.03,972.033,1109.38Zm86.027,86.57c0,5.93,48.85,43.48,72.78,56.13,41.73,21.94,116.28,38.55,190.25,42.1,33.62,1.58,33.42,2.38,5.73-18.18a411.474,411.474,0,0,0-198.55-78.86C1099.59,1193.78,1058.06,1193.18,1058.06,1195.95ZM921.8,1208.2c-53.594,5.74-112.923,24.51-158.8,50.41-19.183,10.87-46.672,29.45-57.945,39.13l-7.91,6.92,13.052,0.2c64.472,0.19,160.981-18.98,204.489-41.12,22.941-11.46,74.162-50,74.162-55.93C988.843,1205.64,944.939,1205.83,921.8,1208.2Zm122.42,4.75c-3.17,8.3-6.53,48.23-5.54,66.01,1.19,19.57,5.14,29.06,12.46,31.04,3.36,0.79,13.84-1.59,30.65-6.92a438.621,438.621,0,0,1,47.86-12.26c12.26-2.17,25.71-4.94,29.86-6.12l7.52-2.18-21.36-10.28c-21.95-10.47-82.86-49.8-91.37-59.09C1048.37,1206.82,1046.59,1206.62,1044.22,1212.95Zm-51.62,12.06c-8.306,9.09-71.788,49.8-92.751,59.88l-20.37,9.49,13.646,3.36c7.515,1.78,21.358,4.55,31.049,6.13,9.492,1.58,28.28,6.72,41.728,11.07,27.885,9.29,32.829,9.09,37.968-.6,7.91-15.22,3.76-94.47-4.744-94.47C998.138,1219.87,995.369,1222.24,992.6,1225.01Zm182.14,74.11c-35,3.76-94.93,17-106.59,23.53-3.76,1.97,19.57,13.83,56.16,28.26a645.96,645.96,0,0,0,91.96,28.86c52.01,12.65,54.19,12.84,133.49,13.04,62.89,0,75.75.59,92.16,3.76,26.3,5.14,30.46,4.15,47.27-12.65,7.71-7.71,13.84-14.63,13.84-15.62s-2.77-4.15-6.33-7.11c-25.31-21.35-114.9-48.03-199.34-59.3C1269.47,1298.14,1197.68,1296.56,1174.74,1299.12Zm-389.595,12.85c-80.886,7.12-169.682,28.27-216.354,51.39-13.251,6.72-24.919,15.42-24.919,18.98,0,2.96,25.512,27.27,30.654,29.25,7.515,2.77,16.612,2.37,32.038-1.39,11.272-2.56,26.105-3.16,89.587-3.55,73.964-.2,76.93-0.4,102.838-5.54a740.557,740.557,0,0,0,101.453-27.67c27.489-9.88,80.49-32.81,80.49-34.98,0-3.36-55.176-17.59-88.2-22.93C873.941,1312.56,804.328,1310.39,785.145,1311.97Zm260.255,21.74c-3.56,9.29,1.78,85.59,6.53,90.33,2.57,2.57,21.56-3.56,41.73-13.44,7.12-3.56,24.13-10.08,37.77-14.63,25.71-8.5,36.59-13.83,28.28-14.03-11.67-.2-69.22-25.3-98.49-43.09-7.31-4.54-13.64-8.3-14.04-8.3S1046,1331.93,1045.4,1333.71Zm-51.613,11.86c-14.239,10.87-75.546,39.93-97.1,46.06l-13.645,3.75,9.294,3.95c5.142,2.18,16.613,6.33,25.71,9.29a337.223,337.223,0,0,1,35.2,13.64c27.094,12.26,39.157,16.21,41.728,13.64,2.967-2.97,5.537-23.32,6.927-55.15,1.38-26.48.39-38.34-2.774-38.34C998.335,1342.41,995.962,1343.99,993.787,1345.57Zm527.433,25.7c-27.88,14.03-38.16,51.98-19.57,71.55,8.7,9.09,15.42,12.25,26.3,12.25,11.86,0,21.36-5.73,26.7-16.21,5.34-10.27,3.95-18.18-5.14-29.45-3.76-4.74-6.33-8.89-5.94-9.29,2.18-2.17,15.23,2.38,22.35,7.52,11.27,8.1,14.83,15.81,13.84,29.45-2.37,28.26-26.1,67.99-82.66,138.55-31.84,39.73-50.63,67.79-63.29,93.88-8.9,18.58-21.75,55.15-24.32,69.58l-1.19,6.52,13.25-6.72c37.18-18.78,77.72-53.37,104.42-89.14,58.74-79.06,95.92-192.71,79.7-242.72-6.53-19.76-34.81-38.74-60.52-40.32C1533.49,1365.93,1530.32,1366.52,1521.22,1371.27ZM487.509,1381.55c-22.743,7.9-40.146,22.73-44.892,38.34-3.758,12.25-3.164,48.82.989,68.78,8.108,38.54,30.653,95.07,54.385,135.39,32.236,55.15,79.9,101.79,129.338,126.7l13.25,6.72-0.989-6.52c-2.966-15.22-17.4-55.74-26.5-73.53-13.646-26.88-30.258-50.99-65.262-94.87-66.647-83.81-89.192-129.66-75.151-152.59,4.944-8.1,17.008-16.21,26.9-17.79l7.515-1.18-5.933,7.7c-9.1,11.67-11.272,16.41-10.086,23.72,2.373,14.83,14.437,24.51,30.06,24.51,10.482,0,17.6-3.16,24.919-11.27,7.91-8.49,9.69-13.04,9.69-25.69,0-14.23-6.328-28.26-17.008-38.54C524.491,1377.99,507.484,1374.63,487.509,1381.55Zm718.871,15.41c-55.37,6.52-99.27,18.38-141.79,38.35-10.49,4.94-16.42,8.69-15.23,9.88,2.57,2.37,32.83,11.07,52.6,14.82,46.08,8.9,96.91,3.96,165.34-15.61,28.67-8.3,86.42-30.84,84.05-32.81-2.18-1.98-24.33-7.31-46.28-10.87C1287.27,1397.75,1221.41,1395.18,1206.38,1396.96ZM769.324,1411c-25.709,2.56-75.151,12.05-75.151,14.23,0,1.38,13.251,7.11,40.542,17.39,62.1,23.92,131.316,37.95,175.022,35.38,30.653-1.58,87.016-14.43,87.61-19.96,0.395-2.57-35.994-18.58-62.3-27.48-24.128-8.1-60.714-15.81-88.994-18.77C828.06,1409.81,784.947,1409.41,769.324,1411Zm645.706,5.53c-40.94,6.72-113.52,27.67-153.67,44.27-45.68,19.18-93.54,44.28-130.13,68.39-17,11.07-49.24,38.35-51.22,43.09-0.99,2.77,63.29.2,93.74-3.56,49.44-6.13,96.91-16.6,130.53-28.86,9.89-3.55,34.01-14.62,53.59-24.5,44.3-22.54,63.88-31.04,94.34-40.72,35.2-11.46,42.91-17.59,35.99-28.26-1.98-2.77-4.35-9.29-5.74-14.24-3.56-14.23-9.09-17.39-31.44-17.98A244.383,244.383,0,0,0,1415.03,1416.53Zm-836.153,11.86c-9.493,3.36-9.1,2.57-12.262,14.82-1.384,5.54-4.153,12.26-5.933,15.02-7.119,10.88,2.176,17.2,46.277,31.63,18.788,6.13,41.729,16.21,76.337,33.4,27.094,13.44,58.934,27.67,70.4,31.63,34.015,11.26,84.841,21.74,129.338,26.68,21.951,2.57,86.027,4.94,86.027,3.36,0-2.18-24.127-24.11-37.971-34.59-27.291-20.56-91.367-55.34-139.028-75.5-27.489-11.66-77.524-28.07-111.737-36.37C629.9,1426.21,594.7,1422.66,578.877,1428.39Zm470.683,31.82c-1.98,2.18-1.78,21.15.59,40.32,4.15,32.02,10.28,47.64,19.38,49.02,5.54,0.79,13.65-4.74,31.05-21.35,7.71-7.11,22.94-19.56,34.02-27.67,11.07-7.9,19.77-15.02,19.38-15.81s-8.71-1.98-18.2-2.57c-25.51-1.78-66.64-12.85-83.85-22.53C1051.34,1459.22,1050.35,1459.62,1049.56,1460.21Zm-64.87,17.99c-13.448,6.91-53.4,16.4-75.942,17.98l-19.579,1.39,20.568,14.82a413.78,413.78,0,0,1,35.6,28.66c18.59,17.59,26.5,23.13,32.038,22.34,9.3-1.39,15.624-17.6,19.381-51,2.571-20.95,1.978-38.15-.989-38.54C994.776,1473.65,989.634,1475.63,984.69,1478.2Zm506.87,1.58c-38.56,13.24-85.63,42.89-116.09,72.93-26.7,26.49-37.97,41.51-90.38,120.17-38.16,57.13-43.7,66.61-39.35,65.43,13.45-3.17,46.08-15.62,61.7-23.33,39.55-19.96,73.37-47.04,119.25-95.66,44.9-47.63,74.36-82.22,99.08-115.82l17.21-23.72-7.52-2.37C1522.81,1473.65,1507.38,1474.44,1491.56,1479.78Zm-980.121,9.49-7.515,2.37,14.239,19.76c42.915,59.1,128.745,151.6,169.089,182.24,31.642,23.91,63.482,40.52,98.684,51.78,10.679,3.56,19.777,5.93,19.974,5.73,0.2-.39-7.712-12.45-17.6-26.68-9.888-14.43-28.676-42.3-41.728-62.06-33.224-50.6-50.232-72.93-73.173-95.66-23.534-23.53-49.046-41.91-80.1-58.11C554.354,1488.47,531.809,1483.14,511.439,1489.27Zm854.141,37.94c-70.2,16.41-131.9,48.63-186.29,97.45-19.97,17.79-54.98,58.5-51.22,59.29,6.33,1.39,52.21-7.9,72.18-14.62,33.03-10.87,62.5-28.47,105.02-62.66,20.17-16.21,83.06-78.66,83.06-82.42C1388.33,1521.68,1389.12,1521.68,1365.58,1527.21Zm-707,8.7c0,3.36,57.549,61.27,76.93,77.48,41.531,34.79,78.315,57.12,111.539,67.99,21.161,6.72,65.46,15.82,71.789,14.43,4.746-.99-34.213-44.47-58.736-65.62-53.2-45.66-118.857-78.86-182.735-92.1-5.339-.99-11.865-2.38-14.239-2.97C660.553,1534.53,658.576,1534.92,658.576,1535.91Zm516.364,47.83c-18.59,5.34-49.44,8.3-74.76,7.32-12.26-.6-22.34-0.4-22.34.59s2.17,7.51,4.94,14.63c9.89,26.28,31.45,62.26,37.18,62.26,1.38,0,9.3-10.48,17.8-23.33,8.31-12.65,23.14-32.02,33.03-42.89,14.63-16.21,20.56-23.91,17.4-22.53C1187.79,1579.99,1181.86,1581.77,1174.94,1583.74Zm-316.622,9.49c0,0.59,8.108,10.08,17.8,20.95,9.888,10.87,24.72,30.24,33.027,42.89,8.5,12.85,16.414,23.32,17.6,23.32,3.757,0,13.843-13.63,23.534-32.01,7.91-15.03,18.787-40.72,18.787-44.87,0-.99-10.086-1.19-22.347-0.59-24.919.98-55.968-1.98-75.546-7.32C864.053,1593.63,858.318,1592.44,858.318,1593.23Zm570.752,41.11c-29.87,20.16-59.93,53.76-78.12,87.96-7.91,14.43-20.96,46.84-19.38,48.22,0.39,0.4,7.71-3.36,16.41-8.49,29.87-17.4,55.38-48.03,76.93-92.51,9.1-18.77,19.78-44.67,18.2-44.47C1442.91,1625.05,1436.58,1629.2,1429.07,1634.34Zm-821.715,15.81c6.526,18.19,24.325,53.57,35.6,70.76,14.239,21.75,36.785,43.68,55.968,54.95,8.7,5.14,16.019,8.9,16.414,8.5,1.187-.99-9.295-29.06-15.623-41.7-19.579-39.14-53.792-77.09-90.972-100.41l-5.537-3.36Zm636.805,13.64c-19.98,13.44-71.2,34.39-84.05,34.39-7.12,0-6.53,3.36,2.37,11.66,12.66,12.06,46.47,27.87,59.72,27.87,7.92,0,11.28-5.14,15.63-24.7,5.14-22.53,6.52-27.08,12.85-41.31,2.97-6.33,5.14-12.26,4.75-13.24S1250.09,1659.84,1244.16,1663.79Zm-453.082,6.72c0,1.19,2.571,7.91,5.735,14.83,3.164,7.11,8.306,22.73,11.273,34.98,5.735,24.31,8.5,29.25,16.612,29.25,12.657,0,44.7-14.62,59.329-27.08,9.295-7.9,10.284-12.45,2.769-12.45-12.459,0-64.076-20.75-82.27-33.01C792.265,1668.54,791.078,1668.14,791.078,1670.51Zm541.682,47.44c-8.9,6.72-67.84,31.62-74.76,31.62-2.97,0-4.15.79-2.97,1.78,2.57,2.57,61.9,20.76,63.29,19.57,0.59-.79,2.96-8.3,4.94-16.8,2.18-8.5,6.13-18.78,8.9-22.93,5.74-8.7,9.3-17.19,7.12-17.19C1338.49,1714,1335.52,1715.77,1332.76,1717.95ZM710,1732.77a102.5,102.5,0,0,0,6.724,12.26c2.768,4.15,6.724,14.43,8.9,23.12,2.175,8.5,4.351,16.01,4.944,16.61,0.989,0.98,47.266-12.65,60.516-17.79,4.549-1.78,4.153-2.18-5.933-4.75-5.933-1.58-20.37-7.31-32.038-12.65-11.668-5.53-21.754-9.88-22.743-9.88s-5.933-2.77-11.075-5.93c-5.141-3.36-9.888-5.93-10.283-5.93C708.412,1727.83,709.006,1730.01,710,1732.77Z"/>
</svg>
